<svg width="209mm" height="80.75mm" viewBox="0 0 209 80.75" xmlns="http://www.w3.org/2000/svg"><g id="svgGroup" stroke-linecap="round" fill-rule="evenodd" font-size="9pt" stroke="#000" stroke-width="0.25mm" fill="none" style="stroke:#000;stroke-width:0.25mm;fill:none"><path d="M 190 38 L 209 38 L 171 38 L 152 38 L 133 38 L 114 38 L 95 38 L 76 38 L 57 38 L 38 38 L 19 38 L 19 57 L 38 57 L 38 38 L 57 38 L 76 38 L 95 38 L 114 38 L 133 38 L 152 38 L 171 38 L 190 38 Z M 102.125 0 L 121.125 0 L 140.125 0 L 159.125 0 L 178.125 0 L 201.875 0 L 201.875 19 L 178.125 19 L 178.125 0 L 159.125 0 L 140.125 0 L 121.125 0 Z M 178.125 0 L 178.125 19 L 159.125 19 L 140.125 19 L 121.125 19 L 102.125 19 L 102.125 0 L 121.125 0 M 0 19 L 28.5 19 L 28.5 38 L 0 38 L 0 19 Z M 180.5 19 L 209 19 L 209 38 L 180.5 38 L 180.5 19 Z M 2.375 0 L 26.125 0 L 26.125 19 L 2.375 19 L 2.375 0 Z M 26.125 0 L 45.125 0 L 45.125 19 L 26.125 19 L 26.125 0 Z M 45.125 0 L 64.125 0 L 64.125 19 L 45.125 19 L 45.125 0 Z M 64.125 0 L 83.125 0 L 83.125 19 L 64.125 19 L 64.125 0 Z M 83.125 0 L 102.125 0 L 102.125 19 L 83.125 19 L 83.125 0 Z M 28.5 19 L 47.5 19 L 47.5 38 L 28.5 38 L 28.5 19 Z M 0 38 L 19 38 L 19 57 L 0 57 L 0 38 Z M 47.5 19 L 66.5 19 L 66.5 38 L 47.5 38 L 47.5 19 Z M 66.5 19 L 85.5 19 L 85.5 38 L 66.5 38 L 66.5 19 Z M 85.5 19 L 104.5 19 L 104.5 38 L 85.5 38 L 85.5 19 Z M 104.5 19 L 123.5 19 L 123.5 38 L 104.5 38 L 104.5 19 Z M 123.5 19 L 142.5 19 L 142.5 38 L 123.5 38 L 123.5 19 Z M 142.5 19 L 161.5 19 L 161.5 38 L 142.5 38 L 142.5 19 Z M 161.5 19 L 180.5 19 L 180.5 38 L 161.5 38 L 161.5 19 Z M 190 38 L 209 38 L 209 57 L 190 57 L 190 38 Z M 42.25 57.95 L 61.25 57.95 L 61.25 76.95 L 42.25 76.95 L 42.25 57.95 Z M 66.5 57 L 85.5 57 L 85.5 76 L 66.5 76 L 66.5 57 Z M 85.5 61.75 L 104.5 61.75 L 104.5 80.75 L 85.5 80.75 L 85.5 61.75 Z M 104.5 61.75 L 123.5 61.75 L 123.5 80.75 L 104.5 80.75 L 104.5 61.75 Z M 123.5 57 L 142.5 57 L 142.5 76 L 123.5 76 L 123.5 57 Z M 147.75 57.95 L 166.75 57.95 L 166.75 76.95 L 147.75 76.95 L 147.75 57.95 Z M 159.125 0 L 159.125 19 L 140.125 19 L 140.125 0 M 57 38 L 57 57 L 38 57 L 38 38 M 76 38 L 76 57 L 57 57 L 57 38 M 95 38 L 95 57 L 76 57 L 76 38 M 114 38 L 114 57 L 95 57 L 95 38 M 133 38 L 133 57 L 114 57 L 114 38 M 152 38 L 152 57 L 133 57 L 133 38 M 171 38 L 171 57 L 152 57 L 152 38 M 190 38 L 190 57 L 171 57 L 171 38 M 121.125 0 L 121.125 19 L 102.125 19" vector-effect="non-scaling-stroke"/></g></svg>