0
SECTION
2
HEADER
9
$INSUNITS
70
4
0
ENDSEC
0
SECTION
2
TABLES
0
TABLE
2
LTYPE
0
LTYPE
72
65
70
64
2
CONTINUOUS
3
______
73
0
40
0
0
ENDTAB
0
TABLE
2
LAYER
0
ENDTAB
0
ENDSEC
0
SECTION
2
ENTITIES
0
LINE
8
0
10
-11.875
20
9.5
11
11.875
21
9.5
0
LINE
8
0
10
11.875
20
9.5
11
11.875
21
-9.5
0
LINE
8
0
10
11.875
20
-9.5
11
-11.875
21
-9.5
0
LINE
8
0
10
-11.875
20
-9.5
11
-11.875
21
9.5
0
LINE
8
0
10
11.875
20
9.5
11
30.875
21
9.5
0
LINE
8
0
10
30.875
20
9.5
11
30.875
21
-9.5
0
LINE
8
0
10
30.875
20
-9.5
11
11.875
21
-9.5
0
LINE
8
0
10
11.875
20
-9.5
11
11.875
21
9.5
0
LINE
8
0
10
30.875
20
9.5
11
49.875
21
9.5
0
LINE
8
0
10
49.875
20
9.5
11
49.875
21
-9.5
0
LINE
8
0
10
49.875
20
-9.5
11
30.875
21
-9.5
0
LINE
8
0
10
30.875
20
-9.5
11
30.875
21
9.5
0
LINE
8
0
10
49.875
20
9.5
11
68.875
21
9.5
0
LINE
8
0
10
68.875
20
9.5
11
68.875
21
-9.5
0
LINE
8
0
10
68.875
20
-9.5
11
49.875
21
-9.5
0
LINE
8
0
10
49.875
20
-9.5
11
49.875
21
9.5
0
LINE
8
0
10
68.875
20
9.5
11
87.875
21
9.5
0
LINE
8
0
10
87.875
20
9.5
11
87.875
21
-9.5
0
LINE
8
0
10
87.875
20
-9.5
11
68.875
21
-9.5
0
LINE
8
0
10
68.875
20
-9.5
11
68.875
21
9.5
0
LINE
8
0
10
163.875
20
9.5
11
187.625
21
9.5
0
LINE
8
0
10
187.625
20
9.5
11
187.625
21
-9.5
0
LINE
8
0
10
187.625
20
-9.5
11
163.875
21
-9.5
0
LINE
8
0
10
163.875
20
-9.5
11
163.875
21
9.5
0
LINE
8
0
10
144.875
20
9.5
11
163.875
21
9.5
0
LINE
8
0
10
163.875
20
9.5
11
163.875
21
-9.5
0
LINE
8
0
10
163.875
20
-9.5
11
144.875
21
-9.5
0
LINE
8
0
10
144.875
20
-9.5
11
144.875
21
9.5
0
LINE
8
0
10
125.875
20
9.5
11
144.875
21
9.5
0
LINE
8
0
10
144.875
20
9.5
11
144.875
21
-9.5
0
LINE
8
0
10
144.875
20
-9.5
11
125.875
21
-9.5
0
LINE
8
0
10
125.875
20
-9.5
11
125.875
21
9.5
0
LINE
8
0
10
106.875
20
9.5
11
125.875
21
9.5
0
LINE
8
0
10
125.875
20
9.5
11
125.875
21
-9.5
0
LINE
8
0
10
125.875
20
-9.5
11
106.875
21
-9.5
0
LINE
8
0
10
106.875
20
-9.5
11
106.875
21
9.5
0
LINE
8
0
10
87.875
20
9.5
11
106.875
21
9.5
0
LINE
8
0
10
106.875
20
9.5
11
106.875
21
-9.5
0
LINE
8
0
10
106.875
20
-9.5
11
87.875
21
-9.5
0
LINE
8
0
10
87.875
20
-9.5
11
87.875
21
9.5
0
LINE
8
0
10
-14.25
20
-9.5
11
14.25
21
-9.5
0
LINE
8
0
10
14.25
20
-9.5
11
14.25
21
-28.5
0
LINE
8
0
10
14.25
20
-28.5
11
-14.25
21
-28.5
0
LINE
8
0
10
-14.25
20
-28.5
11
-14.25
21
-9.5
0
LINE
8
0
10
14.25
20
-9.5
11
33.25
21
-9.5
0
LINE
8
0
10
33.25
20
-9.5
11
33.25
21
-28.5
0
LINE
8
0
10
33.25
20
-28.5
11
14.25
21
-28.5
0
LINE
8
0
10
14.25
20
-28.5
11
14.25
21
-9.5
0
LINE
8
0
10
33.25
20
-9.5
11
52.25
21
-9.5
0
LINE
8
0
10
52.25
20
-9.5
11
52.25
21
-28.5
0
LINE
8
0
10
52.25
20
-28.5
11
33.25
21
-28.5
0
LINE
8
0
10
33.25
20
-28.5
11
33.25
21
-9.5
0
LINE
8
0
10
52.25
20
-9.5
11
71.25
21
-9.5
0
LINE
8
0
10
71.25
20
-9.5
11
71.25
21
-28.5
0
LINE
8
0
10
71.25
20
-28.5
11
52.25
21
-28.5
0
LINE
8
0
10
52.25
20
-28.5
11
52.25
21
-9.5
0
LINE
8
0
10
71.25
20
-9.5
11
90.25
21
-9.5
0
LINE
8
0
10
90.25
20
-9.5
11
90.25
21
-28.5
0
LINE
8
0
10
90.25
20
-28.5
11
71.25
21
-28.5
0
LINE
8
0
10
71.25
20
-28.5
11
71.25
21
-9.5
0
LINE
8
0
10
90.25
20
-9.5
11
109.25
21
-9.5
0
LINE
8
0
10
109.25
20
-9.5
11
109.25
21
-28.5
0
LINE
8
0
10
109.25
20
-28.5
11
90.25
21
-28.5
0
LINE
8
0
10
90.25
20
-28.5
11
90.25
21
-9.5
0
LINE
8
0
10
109.25
20
-9.5
11
128.25
21
-9.5
0
LINE
8
0
10
128.25
20
-9.5
11
128.25
21
-28.5
0
LINE
8
0
10
128.25
20
-28.5
11
109.25
21
-28.5
0
LINE
8
0
10
109.25
20
-28.5
11
109.25
21
-9.5
0
LINE
8
0
10
128.25
20
-9.5
11
147.25
21
-9.5
0
LINE
8
0
10
147.25
20
-9.5
11
147.25
21
-28.5
0
LINE
8
0
10
147.25
20
-28.5
11
128.25
21
-28.5
0
LINE
8
0
10
128.25
20
-28.5
11
128.25
21
-9.5
0
LINE
8
0
10
147.25
20
-9.5
11
166.25
21
-9.5
0
LINE
8
0
10
166.25
20
-9.5
11
166.25
21
-28.5
0
LINE
8
0
10
166.25
20
-28.5
11
147.25
21
-28.5
0
LINE
8
0
10
147.25
20
-28.5
11
147.25
21
-9.5
0
LINE
8
0
10
166.25
20
-9.5
11
194.75
21
-9.5
0
LINE
8
0
10
194.75
20
-9.5
11
194.75
21
-28.5
0
LINE
8
0
10
194.75
20
-28.5
11
166.25
21
-28.5
0
LINE
8
0
10
166.25
20
-28.5
11
166.25
21
-9.5
0
LINE
8
0
10
-14.25
20
-28.5
11
4.75
21
-28.5
0
LINE
8
0
10
4.75
20
-28.5
11
4.75
21
-47.5
0
LINE
8
0
10
4.75
20
-47.5
11
-14.25
21
-47.5
0
LINE
8
0
10
-14.25
20
-47.5
11
-14.25
21
-28.5
0
LINE
8
0
10
4.75
20
-28.5
11
23.75
21
-28.5
0
LINE
8
0
10
23.75
20
-28.5
11
23.75
21
-47.5
0
LINE
8
0
10
23.75
20
-47.5
11
4.75
21
-47.5
0
LINE
8
0
10
4.75
20
-47.5
11
4.75
21
-28.5
0
LINE
8
0
10
23.75
20
-28.5
11
42.75
21
-28.5
0
LINE
8
0
10
42.75
20
-28.5
11
42.75
21
-47.5
0
LINE
8
0
10
42.75
20
-47.5
11
23.75
21
-47.5
0
LINE
8
0
10
23.75
20
-47.5
11
23.75
21
-28.5
0
LINE
8
0
10
42.75
20
-28.5
11
61.75
21
-28.5
0
LINE
8
0
10
61.75
20
-28.5
11
61.75
21
-47.5
0
LINE
8
0
10
61.75
20
-47.5
11
42.75
21
-47.5
0
LINE
8
0
10
42.75
20
-47.5
11
42.75
21
-28.5
0
LINE
8
0
10
61.75
20
-28.5
11
80.75
21
-28.5
0
LINE
8
0
10
80.75
20
-28.5
11
80.75
21
-47.5
0
LINE
8
0
10
80.75
20
-47.5
11
61.75
21
-47.5
0
LINE
8
0
10
61.75
20
-47.5
11
61.75
21
-28.5
0
LINE
8
0
10
80.75
20
-28.5
11
99.75
21
-28.5
0
LINE
8
0
10
99.75
20
-28.5
11
99.75
21
-47.5
0
LINE
8
0
10
99.75
20
-47.5
11
80.75
21
-47.5
0
LINE
8
0
10
80.75
20
-47.5
11
80.75
21
-28.5
0
LINE
8
0
10
99.75
20
-28.5
11
118.75
21
-28.5
0
LINE
8
0
10
118.75
20
-28.5
11
118.75
21
-47.5
0
LINE
8
0
10
118.75
20
-47.5
11
99.75
21
-47.5
0
LINE
8
0
10
99.75
20
-47.5
11
99.75
21
-28.5
0
LINE
8
0
10
118.75
20
-28.5
11
137.75
21
-28.5
0
LINE
8
0
10
137.75
20
-28.5
11
137.75
21
-47.5
0
LINE
8
0
10
137.75
20
-47.5
11
118.75
21
-47.5
0
LINE
8
0
10
118.75
20
-47.5
11
118.75
21
-28.5
0
LINE
8
0
10
137.75
20
-28.5
11
156.75
21
-28.5
0
LINE
8
0
10
156.75
20
-28.5
11
156.75
21
-47.5
0
LINE
8
0
10
156.75
20
-47.5
11
137.75
21
-47.5
0
LINE
8
0
10
137.75
20
-47.5
11
137.75
21
-28.5
0
LINE
8
0
10
156.75
20
-28.5
11
175.75
21
-28.5
0
LINE
8
0
10
175.75
20
-28.5
11
175.75
21
-47.5
0
LINE
8
0
10
175.75
20
-47.5
11
156.75
21
-47.5
0
LINE
8
0
10
156.75
20
-47.5
11
156.75
21
-28.5
0
LINE
8
0
10
175.75
20
-28.5
11
194.75
21
-28.5
0
LINE
8
0
10
194.75
20
-28.5
11
194.75
21
-47.5
0
LINE
8
0
10
194.75
20
-47.5
11
175.75
21
-47.5
0
LINE
8
0
10
175.75
20
-47.5
11
175.75
21
-28.5
0
LINE
8
0
10
28
20
-48.45
11
47
21
-48.45
0
LINE
8
0
10
47
20
-48.45
11
47
21
-67.45
0
LINE
8
0
10
47
20
-67.45
11
28
21
-67.45
0
LINE
8
0
10
28
20
-67.45
11
28
21
-48.45
0
LINE
8
0
10
52.25
20
-47.5
11
71.25
21
-47.5
0
LINE
8
0
10
71.25
20
-47.5
11
71.25
21
-66.5
0
LINE
8
0
10
71.25
20
-66.5
11
52.25
21
-66.5
0
LINE
8
0
10
52.25
20
-66.5
11
52.25
21
-47.5
0
LINE
8
0
10
71.25
20
-52.25
11
90.25
21
-52.25
0
LINE
8
0
10
90.25
20
-52.25
11
90.25
21
-71.25
0
LINE
8
0
10
90.25
20
-71.25
11
71.25
21
-71.25
0
LINE
8
0
10
71.25
20
-71.25
11
71.25
21
-52.25
0
LINE
8
0
10
90.25
20
-52.25
11
109.25
21
-52.25
0
LINE
8
0
10
109.25
20
-52.25
11
109.25
21
-71.25
0
LINE
8
0
10
109.25
20
-71.25
11
90.25
21
-71.25
0
LINE
8
0
10
90.25
20
-71.25
11
90.25
21
-52.25
0
LINE
8
0
10
109.25
20
-47.5
11
128.25
21
-47.5
0
LINE
8
0
10
128.25
20
-47.5
11
128.25
21
-66.5
0
LINE
8
0
10
128.25
20
-66.5
11
109.25
21
-66.5
0
LINE
8
0
10
109.25
20
-66.5
11
109.25
21
-47.5
0
LINE
8
0
10
133.5
20
-48.45
11
152.5
21
-48.45
0
LINE
8
0
10
152.5
20
-48.45
11
152.5
21
-67.45
0
LINE
8
0
10
152.5
20
-67.45
11
133.5
21
-67.45
0
LINE
8
0
10
133.5
20
-67.45
11
133.5
21
-48.45
0
ENDSEC
0
EOF