  0
SECTION
  2
HEADER
  9
$ANGBASE
  50
0.0
  9
$ANGDIR
  70
1
  9
$MEASUREMENT
  70
1
  0
ENDSEC
  0
SECTION
  2
TABLES
  0
TABLE
  2
LTYPE
  70
4
  0
LTYPE
  5
40F
  2
CONTINUOUS
  70
0
  3
Solid line
  72
65
  73
0
  40
0.0
  0
LTYPE
  5
410
  2
DASHDOT
 70
0
  3
Dash Dot ____ _ ____ _
 72
65
 73
4
 40
2.0
 49
1.25
 49
-0.25
 49
0.25
 49
-0.25
  0
LTYPE
  5
411
  2
DASHED
 70
0
  3
Dashed __ __ __ __ __
 72
65
 73
2
 40
0.75
 49
0.5
 49
-0.25
  0
LTYPE
  5
43B
  2
DOTTED
 70
0
  3
Dotted .  .  .  .
 72
65
 73
2
 40
0.2
 49
0.0
 49
-0.2
  0
ENDTAB
  0
TABLE
  2
STYLE
  70
4
  0
STYLE
  2
KICAD
  70
0
  40
0
  41
1
  42
1
  50
0
  71
0
  3
isocp.shx
  0
STYLE
  2
KICADB
  70
0
  40
0
  41
1
  42
1
  50
0
  71
0
  3
isocp.shx
  0
STYLE
  2
KICADI
  70
0
  40
0
  41
1
  42
1
  50
15
  71
0
  3
isocp.shx
  0
STYLE
  2
KICADBI
  70
0
  40
0
  41
1
  42
1
  50
15
  71
0
  3
isocp.shx
  0
ENDTAB
  0
TABLE
  2
LAYER
  70
1
  0
LAYER
  2
BLACK
  70
0
  62
7
  6
CONTINUOUS
  0
ENDTAB
  0
ENDSEC
  0
SECTION
  2
ENTITIES
0
LINE
8
BLACK
6
CONTINUOUS
10
-4.7000000000000002
20
7.2999999999999998
11
-2.7999999999999998
21
7.2999999999999998
0
LINE
8
BLACK
6
CONTINUOUS
10
-4.7000000000000002
20
4.5999999999999996
11
-4.7000000000000002
21
7.2999999999999998
0
LINE
8
BLACK
6
CONTINUOUS
10
-2.7999999999999998
20
7.2999999999999998
11
-2.7999999999999998
21
7.3257389999999996
0
LINE
8
BLACK
6
CONTINUOUS
10
-2.7999999999999998
20
4.5999999999999996
11
-4.7000000000000002
21
4.5999999999999996
0
LINE
8
BLACK
6
CONTINUOUS
10
-2.7999999999999998
20
4.5742609999999999
11
-2.7999999999999998
21
4.5999999999999996
0
LINE
8
BLACK
6
CONTINUOUS
10
-2.5656879999999997
20
7.8914179999999998
11
-1.8914179999999998
21
8.5656879999999997
0
LINE
8
BLACK
6
CONTINUOUS
10
-1.8914179999999998
20
3.3343119999999997
11
-2.5656879999999997
21
4.0085819999999996
0
LINE
8
BLACK
6
CONTINUOUS
10
-1.325739
20
8.7999999999999989
11
1.42574
21
8.7999999999999989
0
LINE
8
BLACK
6
CONTINUOUS
10
-1.0392299999999999
20
3.0999999999999996
11
-1.325739
21
3.0999999999999996
0
LINE
8
BLACK
6
CONTINUOUS
10
1.9914179999999999
20
8.5656879999999997
11
2.6656580000000001
21
7.8914479999999996
0
LINE
8
BLACK
6
CONTINUOUS
10
2.8999999999999999
20
7.3325109999999993
11
2.8999999999999999
21
7.174893
0
LINE
8
BLACK
6
CONTINUOUS
10
3.5999999999999996
20
6.5499999999999998
11
6.5
21
6.5499999999999998
0
LINE
8
BLACK
6
CONTINUOUS
10
6.5
20
0.95
11
3.1999999999999997
21
0.95
0
LINE
8
BLACK
6
CONTINUOUS
10
7.7999999999999998
20
5.25
11
7.7999999999999998
21
5.0999999999999996
0
LINE
8
BLACK
6
CONTINUOUS
10
7.7999999999999998
20
5.0999999999999996
11
9.6999999999999993
21
5.0999999999999996
0
LINE
8
BLACK
6
CONTINUOUS
10
7.7999999999999998
20
2.3999999999999999
11
7.7999999999999998
21
2.25
0
LINE
8
BLACK
6
CONTINUOUS
10
9.6999999999999993
20
5.0999999999999996
11
9.6999999999999993
21
2.3999999999999999
0
LINE
8
BLACK
6
CONTINUOUS
10
9.6999999999999993
20
2.3999999999999999
11
7.7999999999999998
21
2.3999999999999999
0
ARC
8
BLACK
10
-2.
20
7.3257369999999993
40
0.8000000000024999
50
134.99984807
51
179.99985676
0
ARC
8
BLACK
10
-2.
20
4.5742630000000002
40
0.7999986919395555
50
-180.00035810
51
-135.00035450
0
ARC
8
BLACK
10
-1.3257369999999999
20
8.
40
0.7999986919395555
50
89.99964190
51
134.99964550
0
ARC
8
BLACK
10
-1.3257369999999999
20
3.8999999999999999
40
0.8000000000024999
50
-135.00015193
51
-90.00014324
0
ARC
8
BLACK
10
-1.139157
20
2.8500000000000001
40
0.26923113736899
50
-68.21301470
51
68.21301470
0
ARC
8
BLACK
10
1.42574
20
8.
40
0.7999999999999999
50
45.00000000
51
90.00000000
0
ARC
8
BLACK
10
2.0998700000000001
20
7.3256399999999999
40
0.8001592052885476
50
0.00100248
51
45.00101265
0
ARC
8
BLACK
10
0.
20
0.
40
2.7999996327144401
50
-248.21321991
51
12.20388667
0
ARC
8
BLACK
10
3.0552799999999998
20
0.63437
40
0.3213752491418715
50
-274.54223818
51
-172.40520347
0
ARC
8
BLACK
10
3.1999999999999997
20
2.4516999999999998
40
1.5017
50
-94.55530514
51
-90.00000000
0
ARC
8
BLACK
10
3.5999699999999999
20
7.25448
40
0.7044800006387689
50
-173.51329351
51
-89.99756008
0
ARC
8
BLACK
10
6.5
20
5.25
40
1.3
50
0.00000000
51
90.00000000
0
ARC
8
BLACK
10
6.5
20
2.25
40
1.3
50
-90.00000000
51
-0.00000000
0
LINE
8
BLACK
6
CONTINUOUS
10
17.6916629999999984
20
6.9756320000000001
11
19.5881189999999989
21
6.8596399999999997
0
LINE
8
BLACK
6
CONTINUOUS
10
17.5268319999999989
20
4.2806679999999995
11
17.6916629999999984
21
6.9756320000000001
0
LINE
8
BLACK
6
CONTINUOUS
10
19.5881189999999989
20
6.8596399999999997
11
19.5896899999999974
21
6.8853309999999999
0
LINE
8
BLACK
6
CONTINUOUS
10
19.4232879999999994
20
4.164676
11
17.5268319999999989
21
4.2806679999999995
0
LINE
8
BLACK
6
CONTINUOUS
10
19.4217169999999975
20
4.1389849999999999
11
19.4232879999999994
21
4.164676
0
LINE
8
BLACK
6
CONTINUOUS
10
19.8580989999999993
20
7.4356499999999999
11
20.5722749999999976
21
8.067499999999999
0
LINE
8
BLACK
6
CONTINUOUS
10
20.2529070000000004
20
2.8458809999999999
11
19.6210579999999979
21
3.560057
0
LINE
8
BLACK
6
CONTINUOUS
10
21.1512029999999989
20
8.2668409999999994
11
23.897549999999999
21
8.0988670000000003
0
LINE
8
BLACK
6
CONTINUOUS
10
21.0892009999999992
20
2.5599810000000001
11
20.8032259999999987
21
2.5774719999999998
0
LINE
8
BLACK
6
CONTINUOUS
10
24.4478679999999997
20
7.8304579999999993
11
25.0796889999999983
21
7.116314
0
LINE
8
BLACK
6
CONTINUOUS
10
25.2794719999999984
20
6.5441139999999995
11
25.2698499999999981
21
6.3867899999999995
0
LINE
8
BLACK
6
CONTINUOUS
10
25.9303949999999972
20
5.7203279999999994
11
28.8249859999999991
21
5.5432869999999994
0
LINE
8
BLACK
6
CONTINUOUS
10
28.4831139999999969
20
-0.046267
11
25.1892689999999995
21
0.155193
0
LINE
8
BLACK
6
CONTINUOUS
10
30.0431980000000003
20
4.1663489999999994
11
30.0340409999999984
21
4.016629
0
LINE
8
BLACK
6
CONTINUOUS
10
30.0340409999999984
20
4.016629
11
31.930496999999999
21
3.9006369999999997
0
LINE
8
BLACK
6
CONTINUOUS
10
29.8692099999999989
20
1.3216649999999999
11
29.8600529999999971
21
1.171945
0
LINE
8
BLACK
6
CONTINUOUS
10
31.930496999999999
20
3.9006369999999997
11
31.7656659999999995
21
1.205673
0
LINE
8
BLACK
6
CONTINUOUS
10
31.7656659999999995
20
1.205673
11
29.8692099999999989
21
1.3216649999999999
0
ARC
8
BLACK
10
20.3881979999999992
20
6.8364899999999995
40
0.8000002933405712
50
131.49987674
51
176.49984570
0
ARC
8
BLACK
10
20.2202239999999982
20
4.0901480000000001
40
0.7999977273948969
50
-183.50037751
51
-138.50033782
0
ARC
8
BLACK
10
21.102366
20
7.4683329999999994
40
0.799998476354799
50
86.49962249
51
131.49961473
0
ARC
8
BLACK
10
20.8520669999999981
20
3.3759799999999998
40
0.8000002933405712
50
-138.50017690
51
-93.50015430
0
ARC
8
BLACK
10
20.9741979999999977
20
2.3165480000000001
40
0.2692309705401665
50
-71.71290337
51
64.71293929
0
ARC
8
BLACK
10
23.848710999999998
20
7.3003589999999994
40
0.8000001712406066
50
41.50002530
51
86.49998867
0
ARC
8
BLACK
10
24.4804149999999971
20
6.5861019999999995
40
0.8001587917532369
50
-3.49895891
51
41.50102710
0
ARC
8
BLACK
10
21.9372419999999977
20
-0.59768
40
2.7999998478642811
50
-251.71322847
51
8.70388614
0
ARC
8
BLACK
10
25.0255510000000001
20
-0.151014
40
0.3213753548873964
50
-278.04215933
51
-175.90527578
0
ARC
8
BLACK
10
25.2809460000000001
20
1.6540919999999999
40
1.5016999981787307
50
-98.05528440
51
-93.50001561
0
ARC
8
BLACK
10
25.9733729999999987
20
6.4234960000000001
40
0.7044801946882537
50
-177.01332628
51
-93.49759733
0
ARC
8
BLACK
10
28.7456229999999984
20
4.2457120000000002
40
1.2999997563053618
50
-3.49999618
51
86.50000382
0
ARC
8
BLACK
10
28.5624769999999977
20
1.2513079999999999
40
1.3000007544401655
50
-93.49999618
51
-3.49999349
0
LINE
8
BLACK
6
CONTINUOUS
10
37.6511870000000002
20
5.4298799999999998
11
39.5370249999999999
21
5.1983280000000001
0
LINE
8
BLACK
6
CONTINUOUS
10
37.3221399999999974
20
2.7500049999999998
11
37.6511870000000002
21
5.4298799999999998
0
LINE
8
BLACK
6
CONTINUOUS
10
39.5370249999999999
20
5.1983280000000001
11
39.5401619999999951
21
5.2238749999999996
0
LINE
8
BLACK
6
CONTINUOUS
10
39.2079779999999971
20
2.5184530000000001
11
37.3221399999999974
21
2.7500049999999998
0
LINE
8
BLACK
6
CONTINUOUS
10
39.2048409999999947
20
2.4929060000000001
11
39.2079779999999971
21
2.5184530000000001
0
LINE
8
BLACK
6
CONTINUOUS
10
39.8416659999999965
20
5.7567819999999994
11
40.593083
21
6.3438539999999994
0
LINE
8
BLACK
6
CONTINUOUS
10
39.9555390000000017
20
1.1514709999999999
11
39.368468
21
1.9028879999999999
0
LINE
8
BLACK
6
CONTINUOUS
10
41.1831010000000006
20
6.5074799999999993
11
43.9140709999999999
21
6.1721589999999997
0
LINE
8
BLACK
6
CONTINUOUS
10
40.7728189999999984
20
0.8150499999999999
11
40.4884459999999962
21
0.8499669999999999
0
LINE
8
BLACK
6
CONTINUOUS
10
44.4469769999999968
20
5.8706549999999993
11
45.0340220000000002
21
5.1192709999999995
0
LINE
8
BLACK
6
CONTINUOUS
10
45.1984999999999957
20
4.5359410000000002
11
45.1792909999999992
21
4.3794979999999999
0
LINE
8
BLACK
6
CONTINUOUS
10
45.7979179999999957
20
3.6739549999999999
11
48.6763019999999997
21
3.3205339999999999
0
LINE
8
BLACK
6
CONTINUOUS
10
47.9938339999999997
20
-2.2377249999999997
11
44.718432
21
-1.835556
0
LINE
8
BLACK
6
CONTINUOUS
10
49.8081819999999951
20
1.8717929999999998
11
49.7899019999999979
21
1.7229109999999999
0
LINE
8
BLACK
6
CONTINUOUS
10
49.7899019999999979
20
1.7229109999999999
11
51.6757390000000001
21
1.49136
0
LINE
8
BLACK
6
CONTINUOUS
10
49.4608539999999977
20
-0.956963
11
49.4425740000000005
21
-1.105845
0
LINE
8
BLACK
6
CONTINUOUS
10
51.6757390000000001
20
1.49136
11
51.3466919999999973
21
-1.188515
0
LINE
8
BLACK
6
CONTINUOUS
10
51.3466919999999973
20
-1.188515
11
49.4608539999999977
21
-0.956963
0
ARC
8
BLACK
10
40.3341980000000007
20
5.1263779999999999
40
0.7999992714402933
50
127.99981535
51
172.99988353
0
ARC
8
BLACK
10
39.9988779999999977
20
2.395413
40
0.7999985273267695
50
-187.00033845
51
-142.00029753
0
ARC
8
BLACK
10
41.0856080000000006
20
5.7134429999999998
40
0.799999315340957
50
82.99966155
51
127.99965838
0
ARC
8
BLACK
10
40.5859430000000003
20
1.644004
40
0.8000002639862065
50
-142.00012821
51
-97.00010774
0
ARC
8
BLACK
10
40.6431699999999978
20
0.5790919999999999
40
0.2692304606930649
50
-75.21300141
51
61.21305580
0
ARC
8
BLACK
10
43.8165750000000003
20
5.3781219999999994
40
0.8000001421156123
50
37.99997232
51
82.99996335
0
ARC
8
BLACK
10
44.4034969999999944
20
4.626633
40
0.8001587184234138
50
-6.99900449
51
38.00100891
0
ARC
8
BLACK
10
41.4265079999999983
20
-2.388493
40
2.7999998707644611
50
-255.21322728
51
5.20387909
0
ARC
8
BLACK
10
44.5363249999999979
20
-2.1311960000000001
40
0.3213753253331686
50
-281.54223539
51
-179.40505871
0
ARC
8
BLACK
10
44.9014430000000004
20
-0.345049
40
1.5017004172503914
50
-101.55530283
51
-96.99999063
0
ARC
8
BLACK
10
45.8837429999999955
20
4.3731869999999997
40
0.7044794677270586
50
-180.51328407
51
-96.99758682
0
ARC
8
BLACK
10
48.517871999999997
20
2.030224
40
1.2999999849999999
50
-7.00003732
51
83.00000642
0
ARC
8
BLACK
10
48.1522639999999953
20
-0.947415
40
1.2999999849999999
50
-96.99999358
51
-6.99999358
0
LINE
8
BLACK
6
CONTINUOUS
10
57.4791179999999997
20
2.6685119999999998
11
59.3473029999999966
21
2.3222640000000001
0
LINE
8
BLACK
6
CONTINUOUS
10
56.9870820000000009
20
0.013724
11
57.4791179999999997
21
2.6685119999999998
0
LINE
8
BLACK
6
CONTINUOUS
10
59.3473029999999966
20
2.3222640000000001
11
59.3519930000000002
21
2.347572
0
LINE
8
BLACK
6
CONTINUOUS
10
58.8552669999999978
20
-0.332524
11
56.9870820000000009
21
0.013724
0
LINE
8
BLACK
6
CONTINUOUS
10
58.8505759999999967
20
-0.357832
11
58.8552669999999978
21
-0.332524
0
LINE
8
BLACK
6
CONTINUOUS
10
59.6854680000000002
20
2.8610789999999997
11
60.4713239999999956
21
3.4011819999999999
0
LINE
8
BLACK
6
CONTINUOUS
10
59.5179809999999989
20
-1.742594
11
58.9778779999999969
21
-0.956739
0
LINE
8
BLACK
6
CONTINUOUS
10
61.0702299999999951
20
3.5284839999999997
11
63.7756349999999941
21
3.0270669999999997
0
LINE
8
BLACK
6
CONTINUOUS
10
60.3131989999999973
20
-2.1282809999999999
11
60.031487999999996
21
-2.0760689999999999
0
LINE
8
BLACK
6
CONTINUOUS
10
64.2891410000000008
20
2.6935919999999998
11
64.8292199999999923
21
1.9077709999999999
0
LINE
8
BLACK
6
CONTINUOUS
10
64.9577799999999996
20
1.315488
11
64.9290570000000002
21
1.1605099999999999
0
LINE
8
BLACK
6
CONTINUOUS
10
65.5034569999999974
20
0.418516
11
68.354896999999994
21
-0.109967
0
LINE
8
BLACK
6
CONTINUOUS
10
67.334378000000001
20
-5.6161949999999994
11
64.0896359999999987
21
-5.014818
0
LINE
8
BLACK
6
CONTINUOUS
10
69.3962219999999945
20
-1.625105
11
69.3688860000000034
21
-1.7725929999999999
0
LINE
8
BLACK
6
CONTINUOUS
10
69.3688860000000034
20
-1.7725929999999999
11
71.2370710000000003
21
-2.1188409999999998
0
LINE
8
BLACK
6
CONTINUOUS
10
68.876851000000002
20
-4.4273809999999996
11
68.8495149999999967
21
-4.5748699999999998
0
LINE
8
BLACK
6
CONTINUOUS
10
71.2370710000000003
20
-2.1188409999999998
11
70.7450350000000014
21
-4.7736289999999997
0
LINE
8
BLACK
6
CONTINUOUS
10
70.7450350000000014
20
-4.7736289999999997
11
68.876851000000002
21
-4.4273809999999996
0
ARC
8
BLACK
10
60.1385969999999972
20
2.2017819999999997
40
0.8000003605724187
50
124.49989904
51
169.49988973
0
ARC
8
BLACK
10
59.6371800000000007
20
-0.503618
40
0.7999986049019085
50
-190.50034764
51
-145.50027804
0
ARC
8
BLACK
10
60.924443999999994
20
2.7418800000000001
40
0.7999980385000953
50
79.49965236
51
124.49966294
0
ARC
8
BLACK
10
60.1772779999999941
20
-1.2894649999999999
40
0.8000003605724187
50
-145.50010096
51
-100.50011027
0
ARC
8
BLACK
10
60.1693870000000004
20
-2.3558849999999998
40
0.269231261483506
50
-78.71318927
51
57.71318105
0
ARC
8
BLACK
10
63.629846999999998
20
2.2404630000000001
40
0.7999999960999999
50
34.49993960
51
79.50003057
0
ARC
8
BLACK
10
64.169795999999991
20
1.454545
40
0.8001586210571001
50
-10.49902114
51
34.50097023
0
ARC
8
BLACK
10
60.7700969999999998
20
-5.3657560000000002
40
2.8000000227980357
50
-258.71321097
51
1.70387973
0
ARC
8
BLACK
10
63.8898209999999978
20
-5.2987890000000002
40
0.3213750214126792
50
74.95772546
51
177.09487798
0
ARC
8
BLACK
10
64.3632999999999953
20
-3.5382639999999999
40
1.5017002696317263
50
-105.05533271
51
-100.50003346
0
ARC
8
BLACK
10
65.6318090000000041
20
1.111205
40
0.7044801534642405
50
-184.01328895
51
-100.49757553
0
ARC
8
BLACK
10
68.1179899999999918
20
-1.388199
40
1.3000007586432401
50
-10.49998708
51
79.49996958
0
ARC
8
BLACK
10
67.5712839999999915
20
-4.3379630000000002
40
1.2999997753884422
50
-100.49998708
51
-10.50003845
0
LINE
8
BLACK
6
CONTINUOUS
10
76.1609610000000004
20
-0.793963
11
78.0291459999999972
21
-1.1402109999999999
0
LINE
8
BLACK
6
CONTINUOUS
10
75.6689250000000015
20
-3.4487509999999997
11
76.1609610000000004
21
-0.793963
0
LINE
8
BLACK
6
CONTINUOUS
10
78.0291459999999972
20
-1.1402109999999999
11
78.0338359999999938
21
-1.114903
0
LINE
8
BLACK
6
CONTINUOUS
10
77.5371099999999984
20
-3.7949989999999998
11
75.6689250000000015
21
-3.4487509999999997
0
LINE
8
BLACK
6
CONTINUOUS
10
77.5324189999999902
20
-3.8203069999999997
11
77.5371099999999984
21
-3.7949989999999998
0
LINE
8
BLACK
6
CONTINUOUS
10
78.3673110000000008
20
-0.6013959999999999
11
79.1531669999999963
21
-0.061293
0
LINE
8
BLACK
6
CONTINUOUS
10
78.1998239999999925
20
-5.2050689999999999
11
77.6597209999999905
21
-4.4192140000000002
0
LINE
8
BLACK
6
CONTINUOUS
10
79.7520729999999958
20
0.066009
11
82.4574779999999947
21
-0.435408
0
LINE
8
BLACK
6
CONTINUOUS
10
78.995041999999998
20
-5.5907559999999998
11
78.7133309999999966
21
-5.5385439999999999
0
LINE
8
BLACK
6
CONTINUOUS
10
82.9709840000000014
20
-0.768883
11
83.5110629999999929
21
-1.5547039999999999
0
LINE
8
BLACK
6
CONTINUOUS
10
83.6396230000000003
20
-2.1469869999999998
11
83.6109000000000009
21
-2.301965
0
LINE
8
BLACK
6
CONTINUOUS
10
84.185299999999998
20
-3.0439590000000001
11
87.0367399999999947
21
-3.5724419999999997
0
LINE
8
BLACK
6
CONTINUOUS
10
86.0162210000000016
20
-9.0786699999999989
11
82.7714789999999994
21
-8.4772929999999995
0
LINE
8
BLACK
6
CONTINUOUS
10
88.0780649999999952
20
-5.08758
11
88.0507289999999898
21
-5.2350680000000001
0
LINE
8
BLACK
6
CONTINUOUS
10
88.0507289999999898
20
-5.2350680000000001
11
89.9189140000000009
21
-5.5813160000000002
0
LINE
8
BLACK
6
CONTINUOUS
10
87.5586940000000027
20
-7.889856
11
87.5313579999999973
21
-8.0373450000000002
0
LINE
8
BLACK
6
CONTINUOUS
10
89.9189140000000009
20
-5.5813160000000002
11
89.4268780000000021
21
-8.2361039999999992
0
LINE
8
BLACK
6
CONTINUOUS
10
89.4268780000000021
20
-8.2361039999999992
11
87.5586940000000027
21
-7.889856
0
ARC
8
BLACK
10
78.8204399999999907
20
-1.2606929999999998
40
0.8000003605724187
50
124.49989904
51
169.49988973
0
ARC
8
BLACK
10
78.3190230000000014
20
-3.9660929999999999
40
0.7999986049019085
50
-190.50034764
51
-145.50027804
0
ARC
8
BLACK
10
79.6062869999999947
20
-0.720595
40
0.7999980385000953
50
79.49965236
51
124.49966294
0
ARC
8
BLACK
10
78.8591210000000018
20
-4.7519399999999994
40
0.8000003605724187
50
-145.50010096
51
-100.50011027
0
ARC
8
BLACK
10
78.851230000000001
20
-5.8183599999999993
40
0.269231261483506
50
-78.71318927
51
57.71318105
0
ARC
8
BLACK
10
82.3116899999999987
20
-1.2220119999999999
40
0.7999999960999999
50
34.49993960
51
79.50003057
0
ARC
8
BLACK
10
82.8516389999999916
20
-2.00793
40
0.8001586210571001
50
-10.49902114
51
34.50097023
0
ARC
8
BLACK
10
79.4519399999999933
20
-8.8282309999999988
40
2.8000000227980357
50
-258.71321097
51
1.70387973
0
ARC
8
BLACK
10
82.5716639999999984
20
-8.7612639999999988
40
0.3213750214126792
50
74.95772546
51
177.09487798
0
ARC
8
BLACK
10
83.0451429999999959
20
-7.0007389999999994
40
1.5017002696317263
50
-105.05533271
51
-100.50003346
0
ARC
8
BLACK
10
84.3136519999999905
20
-2.35127
40
0.7044801534642405
50
-184.01328895
51
-100.49757553
0
ARC
8
BLACK
10
86.7998329999999925
20
-4.8506739999999997
40
1.3000007586432401
50
-10.49998708
51
79.49996958
0
ARC
8
BLACK
10
86.2531269999999921
20
-7.8004379999999998
40
1.2999997753884422
50
-100.49998708
51
-10.50003845
0
LINE
8
BLACK
6
CONTINUOUS
10
190.5981989999999939
20
7.2999999999999998
11
192.4981989999999996
21
7.2999999999999998
0
LINE
8
BLACK
6
CONTINUOUS
10
190.5981989999999939
20
4.5999999999999996
11
190.5981989999999939
21
7.2999999999999998
0
LINE
8
BLACK
6
CONTINUOUS
10
192.4981989999999996
20
7.2999999999999998
11
192.4981989999999996
21
7.3257389999999996
0
LINE
8
BLACK
6
CONTINUOUS
10
192.4981989999999996
20
4.5999999999999996
11
190.5981989999999939
21
4.5999999999999996
0
LINE
8
BLACK
6
CONTINUOUS
10
192.4981989999999996
20
4.5742609999999999
11
192.4981989999999996
21
4.5999999999999996
0
LINE
8
BLACK
6
CONTINUOUS
10
192.7325109999999881
20
7.8914179999999998
11
193.4067809999999952
21
8.5656879999999997
0
LINE
8
BLACK
6
CONTINUOUS
10
193.4067809999999952
20
3.3343119999999997
11
192.7325109999999881
21
4.0085819999999996
0
LINE
8
BLACK
6
CONTINUOUS
10
193.9724599999999839
20
8.7999999999999989
11
196.7239390000000014
21
8.7999999999999989
0
LINE
8
BLACK
6
CONTINUOUS
10
194.2589689999999791
20
3.0999999999999996
11
193.9724599999999839
21
3.0999999999999996
0
LINE
8
BLACK
6
CONTINUOUS
10
197.2896169999999927
20
8.5656879999999997
11
197.9638569999999902
21
7.8914479999999996
0
LINE
8
BLACK
6
CONTINUOUS
10
198.1981989999999882
20
7.3325109999999993
11
198.1981989999999882
21
7.174893
0
LINE
8
BLACK
6
CONTINUOUS
10
198.8981989999999769
20
6.5499999999999998
11
201.7981989999999826
21
6.5499999999999998
0
LINE
8
BLACK
6
CONTINUOUS
10
201.7981989999999826
20
0.95
11
198.4981989999999996
21
0.95
0
LINE
8
BLACK
6
CONTINUOUS
10
203.0981989999999939
20
5.25
11
203.0981989999999939
21
5.0999999999999996
0
LINE
8
BLACK
6
CONTINUOUS
10
203.0981989999999939
20
5.0999999999999996
11
204.9981989999999996
21
5.0999999999999996
0
LINE
8
BLACK
6
CONTINUOUS
10
203.0981989999999939
20
2.3999999999999999
11
203.0981989999999939
21
2.25
0
LINE
8
BLACK
6
CONTINUOUS
10
204.9981989999999996
20
5.0999999999999996
11
204.9981989999999996
21
2.3999999999999999
0
LINE
8
BLACK
6
CONTINUOUS
10
204.9981989999999996
20
2.3999999999999999
11
203.0981989999999939
21
2.3999999999999999
0
ARC
8
BLACK
10
193.2981989999999826
20
7.3257369999999993
40
0.8000000000024999
50
134.99984807
51
179.99985676
0
ARC
8
BLACK
10
193.2981989999999826
20
4.5742630000000002
40
0.7999986919395555
50
-180.00035810
51
-135.00035450
0
ARC
8
BLACK
10
193.9724619999999788
20
8.
40
0.7999986919395555
50
89.99964190
51
134.99964550
0
ARC
8
BLACK
10
193.9724619999999788
20
3.8999999999999999
40
0.8000000000024999
50
-135.00015193
51
-90.00014324
0
ARC
8
BLACK
10
194.1590419999999995
20
2.8500000000000001
40
0.26923113736899
50
-68.21301470
51
68.21301470
0
ARC
8
BLACK
10
196.7239390000000014
20
8.
40
0.7999999999999999
50
45.00000000
51
90.00000000
0
ARC
8
BLACK
10
197.3980689999999925
20
7.3256399999999999
40
0.8001592052885476
50
0.00100248
51
45.00101265
0
ARC
8
BLACK
10
195.2981989999999826
20
0.
40
2.7999996327144401
50
-248.21321991
51
12.20388667
0
ARC
8
BLACK
10
198.353478999999993
20
0.63437
40
0.3213752491418715
50
-274.54223818
51
-172.40520347
0
ARC
8
BLACK
10
198.4981989999999996
20
2.4516999999999998
40
1.5017
50
-94.55530514
51
-90.00000000
0
ARC
8
BLACK
10
198.8981689999999958
20
7.25448
40
0.7044800006387689
50
-173.51329351
51
-89.99756008
0
ARC
8
BLACK
10
201.7981989999999826
20
5.25
40
1.3
50
0.00000000
51
90.00000000
0
ARC
8
BLACK
10
201.7981989999999826
20
2.25
40
1.3
50
-90.00000000
51
-0.00000000
0
LINE
8
BLACK
6
CONTINUOUS
10
168.2240689999999859
20
6.4017759999999999
11
170.1205249999999864
21
6.5177679999999993
0
LINE
8
BLACK
6
CONTINUOUS
10
168.3888999999999783
20
3.7068119999999998
11
168.2240689999999859
21
6.4017759999999999
0
LINE
8
BLACK
6
CONTINUOUS
10
170.1205249999999864
20
6.5177679999999993
11
170.1189540000000022
21
6.5434589999999995
0
LINE
8
BLACK
6
CONTINUOUS
10
170.2853559999999788
20
3.8228039999999996
11
168.3888999999999783
21
3.7068119999999998
0
LINE
8
BLACK
6
CONTINUOUS
10
170.286927999999989
20
3.797113
11
170.2853559999999788
21
3.8228039999999996
0
LINE
8
BLACK
6
CONTINUOUS
10
170.3182950000000062
20
7.1223869999999998
11
170.9501439999999945
21
7.8365629999999999
0
LINE
8
BLACK
6
CONTINUOUS
10
171.2695119999999918
20
2.6149450000000001
11
170.5553359999999827
21
3.246794
0
LINE
8
BLACK
6
CONTINUOUS
10
171.5004639999999938
20
8.1049720000000001
11
174.2468109999999797
21
8.2729459999999992
0
LINE
8
BLACK
6
CONTINUOUS
10
172.13441499999999
20
2.4330940000000001
11
171.8484399999999823
21
2.4156029999999999
0
LINE
8
BLACK
6
CONTINUOUS
10
174.8257380000000012
20
8.0736039999999996
11
175.5398820000000057
21
7.441783
0
LINE
8
BLACK
6
CONTINUOUS
10
175.8079089999999951
20
6.8981949999999994
11
175.8175310000000025
21
6.7408709999999994
0
LINE
8
BLACK
6
CONTINUOUS
10
176.5543739999999957
20
6.159878
11
179.448964999999987
21
6.3369179999999998
0
LINE
8
BLACK
6
CONTINUOUS
10
179.790836999999982
20
0.7473639999999999
11
176.4969920000000059
21
0.545903
0
LINE
8
BLACK
6
CONTINUOUS
10
180.82590399999998
20
5.1187059999999995
11
180.8350609999999961
21
4.9689860000000001
0
LINE
8
BLACK
6
CONTINUOUS
10
180.8350609999999961
20
4.9689860000000001
11
182.7315169999999966
21
5.0849779999999996
0
LINE
8
BLACK
6
CONTINUOUS
10
180.9998919999999885
20
2.274022
11
181.0090490000000045
21
2.1243019999999997
0
LINE
8
BLACK
6
CONTINUOUS
10
182.7315169999999966
20
5.0849779999999996
11
182.896347999999989
21
2.3900139999999999
0
LINE
8
BLACK
6
CONTINUOUS
10
182.896347999999989
20
2.3900139999999999
11
180.9998919999999885
21
2.274022
0
ARC
8
BLACK
10
170.9174620000000004
20
6.5922959999999993
40
0.8000000491456234
50
-221.50018003
51
-176.50013164
0
ARC
8
BLACK
10
171.0854349999999897
20
3.8459539999999999
40
0.7999985346242829
50
-176.50034173
51
-131.50037604
0
ARC
8
BLACK
10
171.549303999999978
20
7.3064640000000001
40
0.7999985346242829
50
93.49958679
51
138.49962396
0
ARC
8
BLACK
10
171.7996029999999905
20
3.2141109999999999
40
0.8000000491456234
50
-131.50012639
51
-86.50013164
0
ARC
8
BLACK
10
172.0499360000000024
20
2.17746
40
0.2692312080665984
50
-64.71293929
51
71.71290337
0
ARC
8
BLACK
10
174.2956489999999974
20
7.4744379999999992
40
0.8000001101924923
50
48.49997470
51
93.49993985
0
ARC
8
BLACK
10
175.0096910000000037
20
6.8424899999999997
40
0.8001591068843746
50
3.50104034
51
48.50100061
0
ARC
8
BLACK
10
173.3609569999999849
20
-0.59768
40
2.7999995049501347
50
-244.71321673
51
15.70388741
0
ARC
8
BLACK
10
176.3718109999999797
20
0.222027
40
0.3213754234691881
50
-271.04230080
51
-168.90523757
0
ARC
8
BLACK
10
176.4053159999999991
20
2.0448019999999998
40
1.5016999371302509
50
-91.05532168
51
-86.50002248
0
ARC
8
BLACK
10
176.5113369999999975
20
6.8630420000000001
40
0.7044798040149909
50
-170.01327311
51
-86.49759326
0
ARC
8
BLACK
10
179.5283279999999877
20
5.0393429999999997
40
1.2999997563053618
50
3.49999349
51
93.49999618
0
ARC
8
BLACK
10
179.7114739999999813
20
2.0449389999999998
40
1.2999997563053618
50
-86.50000382
51
3.49999618
0
LINE
8
BLACK
6
CONTINUOUS
10
148.3170779999999809
20
4.2843080000000002
11
150.2029159999999877
21
4.51586
0
LINE
8
BLACK
6
CONTINUOUS
10
148.6461249999999836
20
1.604433
11
148.3170779999999809
21
4.2843080000000002
0
LINE
8
BLACK
6
CONTINUOUS
10
150.2029159999999877
20
4.51586
11
150.1997790000000066
21
4.5414069999999995
0
LINE
8
BLACK
6
CONTINUOUS
10
150.5319629999999904
20
1.835985
11
148.6461249999999836
21
1.604433
0
LINE
8
BLACK
6
CONTINUOUS
10
150.5350999999999999
20
1.810438
11
150.5319629999999904
21
1.835985
0
LINE
8
BLACK
6
CONTINUOUS
10
150.3634050000000002
20
5.1314250000000001
11
150.9504770000000065
21
5.8828420000000001
0
LINE
8
BLACK
6
CONTINUOUS
10
151.5880209999999977
20
0.69046
11
150.8366039999999941
21
1.277531
0
LINE
8
BLACK
6
CONTINUOUS
10
151.4833840000000009
20
6.1843459999999997
11
154.2143539999999859
21
6.5196670000000001
0
LINE
8
BLACK
6
CONTINUOUS
10
152.4624120000000005
20
0.56175
11
152.1780389999999841
21
0.526833
0
LINE
8
BLACK
6
CONTINUOUS
10
154.8043700000000058
20
6.3560400000000001
11
155.555753999999979
21
5.7689949999999994
0
LINE
8
BLACK
6
CONTINUOUS
10
155.8564669999999808
20
5.2427839999999994
11
155.8756750000000011
21
5.086341
0
LINE
8
BLACK
6
CONTINUOUS
10
156.6466130000000021
20
4.5514139999999994
11
159.5249969999999848
21
4.9048349999999994
0
LINE
8
BLACK
6
CONTINUOUS
10
160.2074649999999849
20
-0.653423
11
156.9320629999999994
21
-1.0555919999999999
0
LINE
8
BLACK
6
CONTINUOUS
10
160.9737369999999999
20
3.7729549999999996
11
160.9920170000000041
21
3.6240729999999997
0
LINE
8
BLACK
6
CONTINUOUS
10
160.9920170000000041
20
3.6240729999999997
11
162.8778549999999825
21
3.8556249999999999
0
LINE
8
BLACK
6
CONTINUOUS
10
161.3210650000000044
20
0.944199
11
161.3393449999999802
21
0.7953169999999999
0
LINE
8
BLACK
6
CONTINUOUS
10
162.8778549999999825
20
3.8556249999999999
11
163.2069019999999853
21
1.1757499999999999
0
LINE
8
BLACK
6
CONTINUOUS
10
163.2069019999999853
20
1.1757499999999999
11
161.3210650000000044
21
0.944199
0
ARC
8
BLACK
10
150.9938159999999812
20
4.6388999999999996
40
0.7999997765112187
50
-218.00017338
51
-173.00017660
0
ARC
8
BLACK
10
151.3291360000000054
20
1.9079349999999999
40
0.7999981088977648
50
-173.00038113
51
-128.00036210
0
ARC
8
BLACK
10
151.5808810000000051
20
5.3903099999999995
40
0.7999981088977648
50
96.99961887
51
141.99963790
0
ARC
8
BLACK
10
152.0805450000000008
20
1.32087
40
0.7999998983781185
50
-128.00017338
51
-83.00010552
0
ARC
8
BLACK
10
152.3936970000000031
20
0.301435
40
0.2692315925926971
50
-61.21286929
51
75.21300141
0
ARC
8
BLACK
10
154.3118489999999952
20
5.7256299999999998
40
0.8000000202462497
50
51.99998359
51
96.99996557
0
ARC
8
BLACK
10
155.0631379999999808
20
5.1384530000000002
40
0.8001585700472125
50
7.00094961
51
52.00098190
0
ARC
8
BLACK
10
153.8716909999999984
20
-2.388493
40
2.7999996600923005
50
-241.21322324
51
19.20388948
0
ARC
8
BLACK
10
156.8268869999999993
20
-1.3865069999999999
40
0.3213749685725383
50
-267.54232960
51
-165.40530252
0
ARC
8
BLACK
10
156.749052000000006
20
0.434914
40
1.5016994247042248
50
-87.55530693
51
-83.00000472
0
ARC
8
BLACK
10
156.5607289999999807
20
5.2506389999999996
40
0.7044797101982426
50
-166.51335831
51
-82.99758106
0
ARC
8
BLACK
10
159.6834269999999947
20
3.614525
40
1.2999999849999999
50
6.99999358
51
96.99999358
0
ARC
8
BLACK
10
160.0490350000000035
20
0.636887
40
1.2999999849999999
50
-83.00000642
51
6.99999358
0
LINE
8
BLACK
6
CONTINUOUS
10
128.576484999999991
20
0.955498
11
130.4446690000000046
21
1.3017449999999999
0
LINE
8
BLACK
6
CONTINUOUS
10
129.0685210000000041
20
-1.69929
11
128.576484999999991
21
0.955498
0
LINE
8
BLACK
6
CONTINUOUS
10
130.4446690000000046
20
1.3017449999999999
11
130.4399779999999964
21
1.327053
0
LINE
8
BLACK
6
CONTINUOUS
10
130.9367049999999892
20
-1.353043
11
129.0685210000000041
21
-1.69929
0
LINE
8
BLACK
6
CONTINUOUS
10
130.941395
20
-1.3783509999999999
11
130.9367049999999892
21
-1.353043
0
LINE
8
BLACK
6
CONTINUOUS
10
130.5672799999999825
20
1.9259599999999999
11
131.1073829999999987
21
2.7118150000000001
0
LINE
8
BLACK
6
CONTINUOUS
10
132.0607259999999883
20
-2.4319609999999998
11
131.2748709999999903
21
-1.8918579999999998
0
LINE
8
BLACK
6
CONTINUOUS
10
131.6208900000000028
20
3.0452900000000001
11
134.3262949999999876
21
3.5467079999999997
0
LINE
8
BLACK
6
CONTINUOUS
10
132.9413439999999866
20
-2.50705
11
132.6596319999999878
21
-2.5592630000000001
0
LINE
8
BLACK
6
CONTINUOUS
10
134.9252009999999871
20
3.4194059999999999
11
135.7110209999999881
21
2.879327
0
LINE
8
BLACK
6
CONTINUOUS
10
136.0432969999999955
20
2.3724539999999998
11
136.0720210000000066
21
2.217476
0
LINE
8
BLACK
6
CONTINUOUS
10
136.8741770000000031
20
1.7306119999999998
11
139.7256160000000023
21
2.2590949999999999
0
LINE
8
BLACK
6
CONTINUOUS
10
140.7461349999999811
20
-3.2471329999999998
11
137.5013940000000048
21
-3.8485099999999997
0
LINE
8
BLACK
6
CONTINUOUS
10
141.2407539999999813
20
1.2177689999999999
11
141.2680890000000034
21
1.070281
0
LINE
8
BLACK
6
CONTINUOUS
10
141.2680890000000034
20
1.070281
11
143.1362729999999885
21
1.4165289999999999
0
LINE
8
BLACK
6
CONTINUOUS
10
141.7601249999999879
20
-1.5845069999999999
11
141.7874599999999816
21
-1.731995
0
LINE
8
BLACK
6
CONTINUOUS
10
143.1362729999999885
20
1.4165289999999999
11
143.6283090000000016
21
-1.2382599999999999
0
LINE
8
BLACK
6
CONTINUOUS
10
143.6283090000000016
20
-1.2382599999999999
11
141.7601249999999879
21
-1.5845069999999999
0
ARC
8
BLACK
10
131.2265830000000051
20
1.4728399999999999
40
0.8000007971208528
50
-214.50015724
51
-169.50011404
0
ARC
8
BLACK
10
131.7279989999999827
20
-1.232561
40
0.7999984491191218
50
-169.50038267
51
-124.50033796
0
ARC
8
BLACK
10
131.766680000000008
20
2.2586870000000001
40
0.7999984491191218
50
100.49961733
51
145.49966204
0
ARC
8
BLACK
10
132.5138460000000009
20
-1.7726579999999998
40
0.8000006148878887
50
-124.50015724
51
-79.50018446
0
ARC
8
BLACK
10
132.8886489999999867
20
-2.771074
40
0.2692311935883359
50
-57.71300114
51
78.71298058
0
ARC
8
BLACK
10
134.4720839999999953
20
2.7601039999999997
40
0.800000178335605
50
55.50001983
51
100.50003985
0
ARC
8
BLACK
10
135.2578179999999861
20
2.2198859999999998
40
0.8001596038853748
50
10.50107081
51
55.50107653
0
ARC
8
BLACK
10
134.5281019999999899
20
-5.3657560000000002
40
2.7999996260772964
50
-237.71322473
51
22.70388673
0
ARC
8
BLACK
10
137.4166160000000048
20
-4.1852279999999995
40
0.3213749760280038
50
-264.04227216
51
-161.90518236
0
ARC
8
BLACK
10
137.2277310000000057
20
-2.371956
40
1.5017000873959487
50
-84.05529369
51
-79.50000406
0
ARC
8
BLACK
10
136.7457660000000033
20
2.423289
40
0.7044791063260853
50
-163.01334014
51
-79.49752845
0
ARC
8
BLACK
10
139.962522000000007
20
0.9808629999999999
40
1.3000005764075646
50
10.49998708
51
100.49998708
0
ARC
8
BLACK
10
140.5092290000000048
20
-1.9689019999999999
40
1.2999997753884422
50
-79.50000489
51
10.50003845
0
LINE
8
BLACK
6
CONTINUOUS
10
109.8946419999999904
20
-2.506977
11
111.7628259999999898
21
-2.16073
0
LINE
8
BLACK
6
CONTINUOUS
10
110.3866779999999892
20
-5.1617649999999999
11
109.8946419999999904
21
-2.506977
0
LINE
8
BLACK
6
CONTINUOUS
10
111.7628259999999898
20
-2.16073
11
111.7581349999999958
21
-2.1354219999999997
0
LINE
8
BLACK
6
CONTINUOUS
10
112.2548619999999886
20
-4.815518
11
110.3866779999999892
21
-5.1617649999999999
0
LINE
8
BLACK
6
CONTINUOUS
10
112.2595519999999993
20
-4.8408259999999999
11
112.2548619999999886
21
-4.815518
0
LINE
8
BLACK
6
CONTINUOUS
10
111.885436999999996
20
-1.5365149999999999
11
112.425539999999998
21
-0.75066
0
LINE
8
BLACK
6
CONTINUOUS
10
113.3788830000000019
20
-5.8944359999999998
11
112.5930279999999897
21
-5.3543329999999996
0
LINE
8
BLACK
6
CONTINUOUS
10
112.939046999999988
20
-0.417185
11
115.6444520000000011
21
0.084233
0
LINE
8
BLACK
6
CONTINUOUS
10
114.2595010000000002
20
-5.969525
11
113.9777890000000014
21
-6.021738
0
LINE
8
BLACK
6
CONTINUOUS
10
116.2433580000000006
20
-0.043069
11
117.0291780000000017
21
-0.583148
0
LINE
8
BLACK
6
CONTINUOUS
10
117.3614539999999948
20
-1.0900209999999999
11
117.3901779999999917
21
-1.244999
0
LINE
8
BLACK
6
CONTINUOUS
10
118.1923339999999882
20
-1.7318629999999999
11
121.0437730000000016
21
-1.2033799999999999
0
LINE
8
BLACK
6
CONTINUOUS
10
122.0642919999999947
20
-6.7096079999999994
11
118.8195509999999899
21
-7.3109849999999996
0
LINE
8
BLACK
6
CONTINUOUS
10
122.5589109999999948
20
-2.2447059999999999
11
122.5862459999999885
21
-2.3921939999999999
0
LINE
8
BLACK
6
CONTINUOUS
10
122.5862459999999885
20
-2.3921939999999999
11
124.4544299999999879
21
-2.0459459999999998
0
LINE
8
BLACK
6
CONTINUOUS
10
123.0782820000000015
20
-5.0469819999999999
11
123.1056169999999952
21
-5.1944699999999999
0
LINE
8
BLACK
6
CONTINUOUS
10
124.4544299999999879
20
-2.0459459999999998
11
124.9464660000000009
21
-4.7007349999999999
0
LINE
8
BLACK
6
CONTINUOUS
10
124.9464660000000009
20
-4.7007349999999999
11
123.0782820000000015
21
-5.0469819999999999
0
ARC
8
BLACK
10
112.5447399999999902
20
-1.9896349999999998
40
0.8000007971208528
50
-214.50015724
51
-169.50011404
0
ARC
8
BLACK
10
113.0461559999999963
20
-4.695036
40
0.7999984491191218
50
-169.50038267
51
-124.50033796
0
ARC
8
BLACK
10
113.0848369999999932
20
-1.2037879999999999
40
0.7999984491191218
50
100.49961733
51
145.49966204
0
ARC
8
BLACK
10
113.8320030000000003
20
-5.2351329999999994
40
0.8000006148878887
50
-124.50015724
51
-79.50018446
0
ARC
8
BLACK
10
114.2068060000000003
20
-6.233549
40
0.2692311935883359
50
-57.71300114
51
78.71298058
0
ARC
8
BLACK
10
115.7902409999999946
20
-0.702371
40
0.800000178335605
50
55.50001983
51
100.50003985
0
ARC
8
BLACK
10
116.5759749999999997
20
-1.2425889999999999
40
0.8001596038853748
50
10.50107081
51
55.50107653
0
ARC
8
BLACK
10
115.8462589999999892
20
-8.8282309999999988
40
2.7999996260772964
50
-237.71322473
51
22.70388673
0
ARC
8
BLACK
10
118.7347729999999899
20
-7.6477029999999999
40
0.3213749760280038
50
-264.04227216
51
-161.90518236
0
ARC
8
BLACK
10
118.5458879999999908
20
-5.8344309999999995
40
1.5017000873959487
50
-84.05529369
51
-79.50000406
0
ARC
8
BLACK
10
118.0639229999999884
20
-1.0391859999999999
40
0.7044791063260853
50
-163.01334014
51
-79.49752845
0
ARC
8
BLACK
10
121.2806789999999921
20
-2.4816119999999997
40
1.3000005764075646
50
10.49998708
51
100.49998708
0
ARC
8
BLACK
10
121.82738599999999
20
-5.4313769999999995
40
1.2999997753884422
50
-79.50000489
51
10.50003845
0
LINE
8
BLACK
6
CONTINUOUS
10
-4.7000000000000002
20
-11.6999999999999993
11
-2.7999999999999998
21
-11.6999999999999993
0
LINE
8
BLACK
6
CONTINUOUS
10
-4.7000000000000002
20
-14.3999999999999986
11
-4.7000000000000002
21
-11.6999999999999993
0
LINE
8
BLACK
6
CONTINUOUS
10
-2.7999999999999998
20
-11.6999999999999993
11
-2.7999999999999998
21
-11.6742609999999996
0
LINE
8
BLACK
6
CONTINUOUS
10
-2.7999999999999998
20
-14.3999999999999986
11
-4.7000000000000002
21
-14.3999999999999986
0
LINE
8
BLACK
6
CONTINUOUS
10
-2.7999999999999998
20
-14.4257390000000001
11
-2.7999999999999998
21
-14.3999999999999986
0
LINE
8
BLACK
6
CONTINUOUS
10
-2.5656879999999997
20
-11.1085820000000002
11
-1.8914179999999998
21
-10.4343120000000003
0
LINE
8
BLACK
6
CONTINUOUS
10
-1.8914179999999998
20
-15.6656879999999994
11
-2.5656879999999997
21
-14.9914179999999995
0
LINE
8
BLACK
6
CONTINUOUS
10
-1.325739
20
-10.1999999999999993
11
1.42574
21
-10.1999999999999993
0
LINE
8
BLACK
6
CONTINUOUS
10
-1.0392299999999999
20
-15.8999999999999986
11
-1.325739
21
-15.8999999999999986
0
LINE
8
BLACK
6
CONTINUOUS
10
1.9914179999999999
20
-10.4343120000000003
11
2.6656580000000001
21
-11.1085519999999995
0
LINE
8
BLACK
6
CONTINUOUS
10
2.8999999999999999
20
-11.6674889999999998
11
2.8999999999999999
21
-11.8251069999999991
0
LINE
8
BLACK
6
CONTINUOUS
10
3.5999999999999996
20
-12.4499999999999993
11
6.5
21
-12.4499999999999993
0
LINE
8
BLACK
6
CONTINUOUS
10
6.5
20
-18.0500000000000007
11
3.1999999999999997
21
-18.0500000000000007
0
LINE
8
BLACK
6
CONTINUOUS
10
7.7999999999999998
20
-13.75
11
7.7999999999999998
21
-13.8999999999999986
0
LINE
8
BLACK
6
CONTINUOUS
10
7.7999999999999998
20
-13.8999999999999986
11
9.6999999999999993
21
-13.8999999999999986
0
LINE
8
BLACK
6
CONTINUOUS
10
7.7999999999999998
20
-16.5999999999999979
11
7.7999999999999998
21
-16.75
0
LINE
8
BLACK
6
CONTINUOUS
10
9.6999999999999993
20
-13.8999999999999986
11
9.6999999999999993
21
-16.5999999999999979
0
LINE
8
BLACK
6
CONTINUOUS
10
9.6999999999999993
20
-16.5999999999999979
11
7.7999999999999998
21
-16.5999999999999979
0
ARC
8
BLACK
10
-2.
20
-11.6742629999999998
40
0.8000000000024999
50
134.99984807
51
179.99985676
0
ARC
8
BLACK
10
-2.
20
-14.4257369999999998
40
0.7999986919395555
50
-180.00035810
51
-135.00035450
0
ARC
8
BLACK
10
-1.3257369999999999
20
-11.
40
0.7999986919395555
50
89.99964190
51
134.99964550
0
ARC
8
BLACK
10
-1.3257369999999999
20
-15.0999999999999996
40
0.8000000000024999
50
-135.00015193
51
-90.00014324
0
ARC
8
BLACK
10
-1.139157
20
-16.1499999999999986
40
0.26923113736899
50
-68.21301470
51
68.21301470
0
ARC
8
BLACK
10
1.42574
20
-11.
40
0.7999999999999999
50
45.00000000
51
90.00000000
0
ARC
8
BLACK
10
2.0998700000000001
20
-11.6743600000000001
40
0.8001592052885476
50
0.00100248
51
45.00101265
0
ARC
8
BLACK
10
0.
20
-19.
40
2.7999996327144401
50
-248.21321991
51
12.20388667
0
ARC
8
BLACK
10
3.0552799999999998
20
-18.3656299999999995
40
0.3213752491418715
50
-274.54223818
51
-172.40520347
0
ARC
8
BLACK
10
3.1999999999999997
20
-16.5482999999999976
40
1.5017
50
-94.55530514
51
-90.00000000
0
ARC
8
BLACK
10
3.5999699999999999
20
-11.7455199999999991
40
0.7044800006387689
50
-173.51329351
51
-89.99756008
0
ARC
8
BLACK
10
6.5
20
-13.75
40
1.3
50
0.00000000
51
90.00000000
0
ARC
8
BLACK
10
6.5
20
-16.75
40
1.3
50
-90.00000000
51
-0.00000000
0
LINE
8
BLACK
6
CONTINUOUS
10
17.6916629999999984
20
-12.0243690000000001
11
19.5881189999999989
21
-12.1403609999999986
0
LINE
8
BLACK
6
CONTINUOUS
10
17.5268319999999989
20
-14.7193329999999989
11
17.6916629999999984
21
-12.0243690000000001
0
LINE
8
BLACK
6
CONTINUOUS
10
19.5881189999999989
20
-12.1403609999999986
11
19.5896899999999974
21
-12.1146700000000003
0
LINE
8
BLACK
6
CONTINUOUS
10
19.4232879999999994
20
-14.8353249999999992
11
17.5268319999999989
21
-14.7193329999999989
0
LINE
8
BLACK
6
CONTINUOUS
10
19.4217169999999975
20
-14.8610159999999993
11
19.4232879999999994
21
-14.8353249999999992
0
LINE
8
BLACK
6
CONTINUOUS
10
19.8580989999999993
20
-11.5643510000000003
11
20.5722749999999976
21
-10.9325010000000002
0
LINE
8
BLACK
6
CONTINUOUS
10
20.2529070000000004
20
-16.1541199999999989
11
19.6210579999999979
21
-15.4399439999999988
0
LINE
8
BLACK
6
CONTINUOUS
10
21.1512029999999989
20
-10.7331599999999998
11
23.897549999999999
21
-10.901133999999999
0
LINE
8
BLACK
6
CONTINUOUS
10
21.0892009999999992
20
-16.4400200000000005
11
20.8032259999999987
21
-16.4225290000000008
0
LINE
8
BLACK
6
CONTINUOUS
10
24.4478679999999997
20
-11.1695429999999991
11
25.0796889999999983
21
-11.8836870000000001
0
LINE
8
BLACK
6
CONTINUOUS
10
25.2794719999999984
20
-12.4558869999999988
11
25.2698499999999981
21
-12.6132109999999997
0
LINE
8
BLACK
6
CONTINUOUS
10
25.9303949999999972
20
-13.279672999999999
11
28.8249859999999991
21
-13.4567139999999998
0
LINE
8
BLACK
6
CONTINUOUS
10
28.4831139999999969
20
-19.0462679999999978
11
25.1892689999999995
21
-18.8448080000000004
0
LINE
8
BLACK
6
CONTINUOUS
10
30.0431980000000003
20
-14.8336519999999989
11
30.0340409999999984
21
-14.9833719999999992
0
LINE
8
BLACK
6
CONTINUOUS
10
30.0340409999999984
20
-14.9833719999999992
11
31.930496999999999
21
-15.0993639999999996
0
LINE
8
BLACK
6
CONTINUOUS
10
29.8692099999999989
20
-17.6783359999999981
11
29.8600529999999971
21
-17.8280560000000001
0
LINE
8
BLACK
6
CONTINUOUS
10
31.930496999999999
20
-15.0993639999999996
11
31.7656659999999995
21
-17.7943280000000001
0
LINE
8
BLACK
6
CONTINUOUS
10
31.7656659999999995
20
-17.7943280000000001
11
29.8692099999999989
21
-17.6783359999999981
0
ARC
8
BLACK
10
20.3881979999999992
20
-12.1635109999999997
40
0.8000002933405712
50
131.49987674
51
176.49984570
0
ARC
8
BLACK
10
20.2202239999999982
20
-14.909853
40
0.7999977273948969
50
-183.50037751
51
-138.50033782
0
ARC
8
BLACK
10
21.102366
20
-11.5316679999999998
40
0.799998476354799
50
86.49962249
51
131.49961473
0
ARC
8
BLACK
10
20.8520669999999981
20
-15.624020999999999
40
0.8000002933405712
50
-138.50017690
51
-93.50015430
0
ARC
8
BLACK
10
20.9741979999999977
20
-16.6834530000000001
40
0.2692309705401665
50
-71.71290337
51
64.71293929
0
ARC
8
BLACK
10
23.848710999999998
20
-11.699641999999999
40
0.8000001712406066
50
41.50002530
51
86.49998867
0
ARC
8
BLACK
10
24.4804149999999971
20
-12.4138989999999989
40
0.8001587917532369
50
-3.49895891
51
41.50102710
0
ARC
8
BLACK
10
21.9372419999999977
20
-19.5976809999999979
40
2.7999998478642811
50
-251.71322847
51
8.70388614
0
ARC
8
BLACK
10
25.0255510000000001
20
-19.1510149999999975
40
0.3213753548873964
50
-278.04215933
51
-175.90527578
0
ARC
8
BLACK
10
25.2809460000000001
20
-17.3459089999999989
40
1.5016999981787307
50
-98.05528440
51
-93.50001561
0
ARC
8
BLACK
10
25.9733729999999987
20
-12.5765049999999992
40
0.7044801946882537
50
-177.01332628
51
-93.49759733
0
ARC
8
BLACK
10
28.7456229999999984
20
-14.754289
40
1.2999997563053618
50
-3.49999618
51
86.50000382
0
ARC
8
BLACK
10
28.5624769999999977
20
-17.7486929999999994
40
1.3000007544401655
50
-93.49999618
51
-3.49999349
0
LINE
8
BLACK
6
CONTINUOUS
10
37.6511870000000002
20
-13.5701199999999993
11
39.5370249999999999
21
-13.8016719999999999
0
LINE
8
BLACK
6
CONTINUOUS
10
37.3221399999999974
20
-16.2499949999999984
11
37.6511870000000002
21
-13.5701199999999993
0
LINE
8
BLACK
6
CONTINUOUS
10
39.5370249999999999
20
-13.8016719999999999
11
39.5401619999999951
21
-13.7761249999999986
0
LINE
8
BLACK
6
CONTINUOUS
10
39.2079779999999971
20
-16.4815469999999991
11
37.3221399999999974
21
-16.2499949999999984
0
LINE
8
BLACK
6
CONTINUOUS
10
39.2048409999999947
20
-16.5070939999999986
11
39.2079779999999971
21
-16.4815469999999991
0
LINE
8
BLACK
6
CONTINUOUS
10
39.8416659999999965
20
-13.2432179999999988
11
40.593083
21
-12.6561459999999997
0
LINE
8
BLACK
6
CONTINUOUS
10
39.9555390000000017
20
-17.8485289999999992
11
39.368468
21
-17.0971119999999992
0
LINE
8
BLACK
6
CONTINUOUS
10
41.1831010000000006
20
-12.492519999999999
11
43.9140709999999999
21
-12.8278409999999994
0
LINE
8
BLACK
6
CONTINUOUS
10
40.7728189999999984
20
-18.1849500000000006
11
40.4884459999999962
21
-18.1500330000000005
0
LINE
8
BLACK
6
CONTINUOUS
10
44.4469769999999968
20
-13.1293449999999989
11
45.0340220000000002
21
-13.8807289999999988
0
LINE
8
BLACK
6
CONTINUOUS
10
45.1984999999999957
20
-14.4640589999999989
11
45.1792909999999992
21
-14.6205020000000001
0
LINE
8
BLACK
6
CONTINUOUS
10
45.7979179999999957
20
-15.3260449999999988
11
48.6763019999999997
21
-15.6794659999999997
0
LINE
8
BLACK
6
CONTINUOUS
10
47.9938339999999997
20
-21.2377249999999975
11
44.718432
21
-20.8355560000000004
0
LINE
8
BLACK
6
CONTINUOUS
10
49.8081819999999951
20
-17.1282069999999997
11
49.7899019999999979
21
-17.2770890000000001
0
LINE
8
BLACK
6
CONTINUOUS
10
49.7899019999999979
20
-17.2770890000000001
11
51.6757390000000001
21
-17.5086399999999998
0
LINE
8
BLACK
6
CONTINUOUS
10
49.4608539999999977
20
-19.9569629999999982
11
49.4425740000000005
21
-20.1058449999999986
0
LINE
8
BLACK
6
CONTINUOUS
10
51.6757390000000001
20
-17.5086399999999998
11
51.3466919999999973
21
-20.1885149999999989
0
LINE
8
BLACK
6
CONTINUOUS
10
51.3466919999999973
20
-20.1885149999999989
11
49.4608539999999977
21
-19.9569629999999982
0
ARC
8
BLACK
10
40.3341980000000007
20
-13.8736219999999992
40
0.7999992714402933
50
127.99981535
51
172.99988353
0
ARC
8
BLACK
10
39.9988779999999977
20
-16.6045869999999987
40
0.7999985273267695
50
-187.00033845
51
-142.00029753
0
ARC
8
BLACK
10
41.0856080000000006
20
-13.2865570000000002
40
0.799999315340957
50
82.99966155
51
127.99965838
0
ARC
8
BLACK
10
40.5859430000000003
20
-17.3559959999999975
40
0.8000002639862065
50
-142.00012821
51
-97.00010774
0
ARC
8
BLACK
10
40.6431699999999978
20
-18.4209080000000007
40
0.2692304606930649
50
-75.21300141
51
61.21305580
0
ARC
8
BLACK
10
43.8165750000000003
20
-13.6218779999999988
40
0.8000001421156123
50
37.99997232
51
82.99996335
0
ARC
8
BLACK
10
44.4034969999999944
20
-14.373367
40
0.8001587184234138
50
-6.99900449
51
38.00100891
0
ARC
8
BLACK
10
41.4265079999999983
20
-21.3884930000000004
40
2.7999998707644611
50
-255.21322728
51
5.20387909
0
ARC
8
BLACK
10
44.5363249999999979
20
-21.1311959999999992
40
0.3213753253331686
50
-281.54223539
51
-179.40505871
0
ARC
8
BLACK
10
44.9014430000000004
20
-19.3450489999999995
40
1.5017004172503914
50
-101.55530283
51
-96.99999063
0
ARC
8
BLACK
10
45.8837429999999955
20
-14.6268129999999985
40
0.7044794677270586
50
-180.51328407
51
-96.99758682
0
ARC
8
BLACK
10
48.517871999999997
20
-16.9697759999999995
40
1.2999999849999999
50
-7.00003732
51
83.00000642
0
ARC
8
BLACK
10
48.1522639999999953
20
-19.9474149999999995
40
1.2999999849999999
50
-96.99999358
51
-6.99999358
0
LINE
8
BLACK
6
CONTINUOUS
10
57.4791179999999997
20
-16.3314880000000002
11
59.3473029999999966
21
-16.6777359999999994
0
LINE
8
BLACK
6
CONTINUOUS
10
56.9870820000000009
20
-18.9862760000000002
11
57.4791179999999997
21
-16.3314880000000002
0
LINE
8
BLACK
6
CONTINUOUS
10
59.3473029999999966
20
-16.6777359999999994
11
59.3519930000000002
21
-16.6524280000000005
0
LINE
8
BLACK
6
CONTINUOUS
10
58.8552669999999978
20
-19.3325239999999994
11
56.9870820000000009
21
-18.9862760000000002
0
LINE
8
BLACK
6
CONTINUOUS
10
58.8505759999999967
20
-19.3578319999999984
11
58.8552669999999978
21
-19.3325239999999994
0
LINE
8
BLACK
6
CONTINUOUS
10
59.6854680000000002
20
-16.1389209999999999
11
60.4713239999999956
21
-15.5988179999999996
0
LINE
8
BLACK
6
CONTINUOUS
10
59.5179809999999989
20
-20.7425940000000004
11
58.9778779999999969
21
-19.9567389999999989
0
LINE
8
BLACK
6
CONTINUOUS
10
61.0702299999999951
20
-15.4715159999999994
11
63.7756349999999941
21
-15.9729329999999994
0
LINE
8
BLACK
6
CONTINUOUS
10
60.3131989999999973
20
-21.1282809999999976
11
60.031487999999996
21
-21.0760690000000004
0
LINE
8
BLACK
6
CONTINUOUS
10
64.2891410000000008
20
-16.3064079999999976
11
64.8292199999999923
21
-17.0922289999999997
0
LINE
8
BLACK
6
CONTINUOUS
10
64.9577799999999996
20
-17.684511999999998
11
64.9290570000000002
21
-17.8394899999999978
0
LINE
8
BLACK
6
CONTINUOUS
10
65.5034569999999974
20
-18.5814839999999997
11
68.354896999999994
21
-19.1099669999999975
0
LINE
8
BLACK
6
CONTINUOUS
10
67.334378000000001
20
-24.6161949999999976
11
64.0896359999999987
21
-24.0148179999999982
0
LINE
8
BLACK
6
CONTINUOUS
10
69.3962219999999945
20
-20.6251049999999978
11
69.3688860000000034
21
-20.7725930000000005
0
LINE
8
BLACK
6
CONTINUOUS
10
69.3688860000000034
20
-20.7725930000000005
11
71.2370710000000003
21
-21.1188409999999998
0
LINE
8
BLACK
6
CONTINUOUS
10
68.876851000000002
20
-23.4273810000000005
11
68.8495149999999967
21
-23.5748700000000007
0
LINE
8
BLACK
6
CONTINUOUS
10
71.2370710000000003
20
-21.1188409999999998
11
70.7450350000000014
21
-23.7736289999999997
0
LINE
8
BLACK
6
CONTINUOUS
10
70.7450350000000014
20
-23.7736289999999997
11
68.876851000000002
21
-23.4273810000000005
0
ARC
8
BLACK
10
60.1385969999999972
20
-16.7982179999999985
40
0.8000003605724187
50
124.49989904
51
169.49988973
0
ARC
8
BLACK
10
59.6371800000000007
20
-19.5036179999999995
40
0.7999986049019085
50
-190.50034764
51
-145.50027804
0
ARC
8
BLACK
10
60.924443999999994
20
-16.2581199999999981
40
0.7999980385000953
50
79.49965236
51
124.49966294
0
ARC
8
BLACK
10
60.1772779999999941
20
-20.2894649999999999
40
0.8000003605724187
50
-145.50010096
51
-100.50011027
0
ARC
8
BLACK
10
60.1693870000000004
20
-21.3558850000000007
40
0.269231261483506
50
-78.71318927
51
57.71318105
0
ARC
8
BLACK
10
63.629846999999998
20
-16.7595369999999981
40
0.7999999960999999
50
34.49993960
51
79.50003057
0
ARC
8
BLACK
10
64.169795999999991
20
-17.5454550000000005
40
0.8001586210571001
50
-10.49902114
51
34.50097023
0
ARC
8
BLACK
10
60.7700969999999998
20
-24.3657559999999975
40
2.8000000227980357
50
-258.71321097
51
1.70387973
0
ARC
8
BLACK
10
63.8898209999999978
20
-24.2987889999999993
40
0.3213750214126792
50
74.95772546
51
177.09487798
0
ARC
8
BLACK
10
64.3632999999999953
20
-22.5382639999999981
40
1.5017002696317263
50
-105.05533271
51
-100.50003346
0
ARC
8
BLACK
10
65.6318090000000041
20
-17.8887949999999982
40
0.7044801534642405
50
-184.01328895
51
-100.49757553
0
ARC
8
BLACK
10
68.1179899999999918
20
-20.3881990000000002
40
1.3000007586432401
50
-10.49998708
51
79.49996958
0
ARC
8
BLACK
10
67.5712839999999915
20
-23.3379629999999985
40
1.2999997753884422
50
-100.49998708
51
-10.50003845
0
LINE
8
BLACK
6
CONTINUOUS
10
76.1609610000000004
20
-19.793962999999998
11
78.0291459999999972
21
-20.1402110000000008
0
LINE
8
BLACK
6
CONTINUOUS
10
75.6689250000000015
20
-22.4487509999999979
11
76.1609610000000004
21
-19.793962999999998
0
LINE
8
BLACK
6
CONTINUOUS
10
78.0291459999999972
20
-20.1402110000000008
11
78.0338359999999938
21
-20.1149029999999982
0
LINE
8
BLACK
6
CONTINUOUS
10
77.5371099999999984
20
-22.7949990000000007
11
75.6689250000000015
21
-22.4487509999999979
0
LINE
8
BLACK
6
CONTINUOUS
10
77.5324189999999902
20
-22.8203069999999997
11
77.5371099999999984
21
-22.7949990000000007
0
LINE
8
BLACK
6
CONTINUOUS
10
78.3673110000000008
20
-19.6013959999999976
11
79.1531669999999963
21
-19.0612929999999992
0
LINE
8
BLACK
6
CONTINUOUS
10
78.1998239999999925
20
-24.2050689999999982
11
77.6597209999999905
21
-23.4192140000000002
0
LINE
8
BLACK
6
CONTINUOUS
10
79.7520729999999958
20
-18.9339909999999989
11
82.4574779999999947
21
-19.4354079999999989
0
LINE
8
BLACK
6
CONTINUOUS
10
78.995041999999998
20
-24.5907559999999989
11
78.7133309999999966
21
-24.5385439999999981
0
LINE
8
BLACK
6
CONTINUOUS
10
82.9709840000000014
20
-19.7688829999999989
11
83.5110629999999929
21
-20.5547039999999974
0
LINE
8
BLACK
6
CONTINUOUS
10
83.6396230000000003
20
-21.1469869999999993
11
83.6109000000000009
21
-21.3019649999999992
0
LINE
8
BLACK
6
CONTINUOUS
10
84.185299999999998
20
-22.0439589999999974
11
87.0367399999999947
21
-22.5724419999999988
0
LINE
8
BLACK
6
CONTINUOUS
10
86.0162210000000016
20
-28.0786699999999989
11
82.7714789999999994
21
-27.4772929999999995
0
LINE
8
BLACK
6
CONTINUOUS
10
88.0780649999999952
20
-24.0875799999999991
11
88.0507289999999898
21
-24.2350679999999983
0
LINE
8
BLACK
6
CONTINUOUS
10
88.0507289999999898
20
-24.2350679999999983
11
89.9189140000000009
21
-24.5813159999999975
0
LINE
8
BLACK
6
CONTINUOUS
10
87.5586940000000027
20
-26.8898559999999982
11
87.5313579999999973
21
-27.0373449999999984
0
LINE
8
BLACK
6
CONTINUOUS
10
89.9189140000000009
20
-24.5813159999999975
11
89.4268780000000021
21
-27.2361039999999974
0
LINE
8
BLACK
6
CONTINUOUS
10
89.4268780000000021
20
-27.2361039999999974
11
87.5586940000000027
21
-26.8898559999999982
0
ARC
8
BLACK
10
78.8204399999999907
20
-20.2606929999999998
40
0.8000003605724187
50
124.49989904
51
169.49988973
0
ARC
8
BLACK
10
78.3190230000000014
20
-22.9660929999999972
40
0.7999986049019085
50
-190.50034764
51
-145.50027804
0
ARC
8
BLACK
10
79.6062869999999947
20
-19.7205949999999994
40
0.7999980385000953
50
79.49965236
51
124.49966294
0
ARC
8
BLACK
10
78.8591210000000018
20
-23.7519399999999976
40
0.8000003605724187
50
-145.50010096
51
-100.50011027
0
ARC
8
BLACK
10
78.851230000000001
20
-24.8183599999999984
40
0.269231261483506
50
-78.71318927
51
57.71318105
0
ARC
8
BLACK
10
82.3116899999999987
20
-20.2220119999999994
40
0.7999999960999999
50
34.49993960
51
79.50003057
0
ARC
8
BLACK
10
82.8516389999999916
20
-21.0079299999999982
40
0.8001586210571001
50
-10.49902114
51
34.50097023
0
ARC
8
BLACK
10
79.4519399999999933
20
-27.8282309999999988
40
2.8000000227980357
50
-258.71321097
51
1.70387973
0
ARC
8
BLACK
10
82.5716639999999984
20
-27.7612639999999971
40
0.3213750214126792
50
74.95772546
51
177.09487798
0
ARC
8
BLACK
10
83.0451429999999959
20
-26.0007389999999994
40
1.5017002696317263
50
-105.05533271
51
-100.50003346
0
ARC
8
BLACK
10
84.3136519999999905
20
-21.3512699999999995
40
0.7044801534642405
50
-184.01328895
51
-100.49757553
0
ARC
8
BLACK
10
86.7998329999999925
20
-23.8506739999999979
40
1.3000007586432401
50
-10.49998708
51
79.49996958
0
ARC
8
BLACK
10
86.2531269999999921
20
-26.8004379999999998
40
1.2999997753884422
50
-100.49998708
51
-10.50003845
0
LINE
8
BLACK
6
CONTINUOUS
10
190.5981989999999939
20
-11.6999999999999993
11
192.4981989999999996
21
-11.6999999999999993
0
LINE
8
BLACK
6
CONTINUOUS
10
190.5981989999999939
20
-14.3999999999999986
11
190.5981989999999939
21
-11.6999999999999993
0
LINE
8
BLACK
6
CONTINUOUS
10
192.4981989999999996
20
-11.6999999999999993
11
192.4981989999999996
21
-11.6742609999999996
0
LINE
8
BLACK
6
CONTINUOUS
10
192.4981989999999996
20
-14.3999999999999986
11
190.5981989999999939
21
-14.3999999999999986
0
LINE
8
BLACK
6
CONTINUOUS
10
192.4981989999999996
20
-14.4257390000000001
11
192.4981989999999996
21
-14.3999999999999986
0
LINE
8
BLACK
6
CONTINUOUS
10
192.7325109999999881
20
-11.1085820000000002
11
193.4067809999999952
21
-10.4343120000000003
0
LINE
8
BLACK
6
CONTINUOUS
10
193.4067809999999952
20
-15.6656879999999994
11
192.7325109999999881
21
-14.9914179999999995
0
LINE
8
BLACK
6
CONTINUOUS
10
193.9724599999999839
20
-10.1999999999999993
11
196.7239390000000014
21
-10.1999999999999993
0
LINE
8
BLACK
6
CONTINUOUS
10
194.2589689999999791
20
-15.8999999999999986
11
193.9724599999999839
21
-15.8999999999999986
0
LINE
8
BLACK
6
CONTINUOUS
10
197.2896169999999927
20
-10.4343120000000003
11
197.9638569999999902
21
-11.1085519999999995
0
LINE
8
BLACK
6
CONTINUOUS
10
198.1981989999999882
20
-11.6674889999999998
11
198.1981989999999882
21
-11.8251069999999991
0
LINE
8
BLACK
6
CONTINUOUS
10
198.8981989999999769
20
-12.4499999999999993
11
201.7981989999999826
21
-12.4499999999999993
0
LINE
8
BLACK
6
CONTINUOUS
10
201.7981989999999826
20
-18.0500000000000007
11
198.4981989999999996
21
-18.0500000000000007
0
LINE
8
BLACK
6
CONTINUOUS
10
203.0981989999999939
20
-13.75
11
203.0981989999999939
21
-13.8999999999999986
0
LINE
8
BLACK
6
CONTINUOUS
10
203.0981989999999939
20
-13.8999999999999986
11
204.9981989999999996
21
-13.8999999999999986
0
LINE
8
BLACK
6
CONTINUOUS
10
203.0981989999999939
20
-16.5999999999999979
11
203.0981989999999939
21
-16.75
0
LINE
8
BLACK
6
CONTINUOUS
10
204.9981989999999996
20
-13.8999999999999986
11
204.9981989999999996
21
-16.5999999999999979
0
LINE
8
BLACK
6
CONTINUOUS
10
204.9981989999999996
20
-16.5999999999999979
11
203.0981989999999939
21
-16.5999999999999979
0
ARC
8
BLACK
10
193.2981989999999826
20
-11.6742629999999998
40
0.8000000000024999
50
134.99984807
51
179.99985676
0
ARC
8
BLACK
10
193.2981989999999826
20
-14.4257369999999998
40
0.7999986919395555
50
-180.00035810
51
-135.00035450
0
ARC
8
BLACK
10
193.9724619999999788
20
-11.
40
0.7999986919395555
50
89.99964190
51
134.99964550
0
ARC
8
BLACK
10
193.9724619999999788
20
-15.0999999999999996
40
0.8000000000024999
50
-135.00015193
51
-90.00014324
0
ARC
8
BLACK
10
194.1590419999999995
20
-16.1499999999999986
40
0.26923113736899
50
-68.21301470
51
68.21301470
0
ARC
8
BLACK
10
196.7239390000000014
20
-11.
40
0.7999999999999999
50
45.00000000
51
90.00000000
0
ARC
8
BLACK
10
197.3980689999999925
20
-11.6743600000000001
40
0.8001592052885476
50
0.00100248
51
45.00101265
0
ARC
8
BLACK
10
195.2981989999999826
20
-19.
40
2.7999996327144401
50
-248.21321991
51
12.20388667
0
ARC
8
BLACK
10
198.353478999999993
20
-18.3656299999999995
40
0.3213752491418715
50
-274.54223818
51
-172.40520347
0
ARC
8
BLACK
10
198.4981989999999996
20
-16.5482999999999976
40
1.5017
50
-94.55530514
51
-90.00000000
0
ARC
8
BLACK
10
198.8981689999999958
20
-11.7455199999999991
40
0.7044800006387689
50
-173.51329351
51
-89.99756008
0
ARC
8
BLACK
10
201.7981989999999826
20
-13.75
40
1.3
50
0.00000000
51
90.00000000
0
ARC
8
BLACK
10
201.7981989999999826
20
-16.75
40
1.3
50
-90.00000000
51
-0.00000000
0
LINE
8
BLACK
6
CONTINUOUS
10
168.2240689999999859
20
-12.5982249999999993
11
170.1205249999999864
21
-12.482232999999999
0
LINE
8
BLACK
6
CONTINUOUS
10
168.3888999999999783
20
-15.2931889999999999
11
168.2240689999999859
21
-12.5982249999999993
0
LINE
8
BLACK
6
CONTINUOUS
10
170.1205249999999864
20
-12.482232999999999
11
170.1189540000000022
21
-12.4565419999999989
0
LINE
8
BLACK
6
CONTINUOUS
10
170.2853559999999788
20
-15.1771969999999996
11
168.3888999999999783
21
-15.2931889999999999
0
LINE
8
BLACK
6
CONTINUOUS
10
170.286927999999989
20
-15.2028879999999997
11
170.2853559999999788
21
-15.1771969999999996
0
LINE
8
BLACK
6
CONTINUOUS
10
170.3182950000000062
20
-11.8776139999999995
11
170.9501439999999945
21
-11.1634379999999993
0
LINE
8
BLACK
6
CONTINUOUS
10
171.2695119999999918
20
-16.3850559999999987
11
170.5553359999999827
21
-15.7532069999999997
0
LINE
8
BLACK
6
CONTINUOUS
10
171.5004639999999938
20
-10.8950289999999992
11
174.2468109999999797
21
-10.727055
0
LINE
8
BLACK
6
CONTINUOUS
10
172.13441499999999
20
-16.5669070000000005
11
171.8484399999999823
21
-16.5843980000000002
0
LINE
8
BLACK
6
CONTINUOUS
10
174.8257380000000012
20
-10.9263969999999997
11
175.5398820000000057
21
-11.5582180000000001
0
LINE
8
BLACK
6
CONTINUOUS
10
175.8079089999999951
20
-12.1018059999999998
11
175.8175310000000025
21
-12.259129999999999
0
LINE
8
BLACK
6
CONTINUOUS
10
176.5543739999999957
20
-12.8401230000000002
11
179.448964999999987
21
-12.6630830000000003
0
LINE
8
BLACK
6
CONTINUOUS
10
179.790836999999982
20
-18.252637
11
176.4969920000000059
21
-18.4540979999999983
0
LINE
8
BLACK
6
CONTINUOUS
10
180.82590399999998
20
-13.8812949999999997
11
180.8350609999999961
21
-14.031015
0
LINE
8
BLACK
6
CONTINUOUS
10
180.8350609999999961
20
-14.031015
11
182.7315169999999966
21
-13.9150229999999997
0
LINE
8
BLACK
6
CONTINUOUS
10
180.9998919999999885
20
-16.7259789999999988
11
181.0090490000000045
21
-16.8756990000000009
0
LINE
8
BLACK
6
CONTINUOUS
10
182.7315169999999966
20
-13.9150229999999997
11
182.896347999999989
21
-16.6099870000000003
0
LINE
8
BLACK
6
CONTINUOUS
10
182.896347999999989
20
-16.6099870000000003
11
180.9998919999999885
21
-16.7259789999999988
0
ARC
8
BLACK
10
170.9174620000000004
20
-12.407705
40
0.8000000491456234
50
-221.50018003
51
-176.50013164
0
ARC
8
BLACK
10
171.0854349999999897
20
-15.1540469999999985
40
0.7999985346242829
50
-176.50034173
51
-131.50037604
0
ARC
8
BLACK
10
171.549303999999978
20
-11.6935369999999992
40
0.7999985346242829
50
93.49958679
51
138.49962396
0
ARC
8
BLACK
10
171.7996029999999905
20
-15.7858899999999984
40
0.8000000491456234
50
-131.50012639
51
-86.50013164
0
ARC
8
BLACK
10
172.0499360000000024
20
-16.8225409999999975
40
0.2692312080665984
50
-64.71293929
51
71.71290337
0
ARC
8
BLACK
10
174.2956489999999974
20
-11.525563
40
0.8000001101924923
50
48.49997470
51
93.49993985
0
ARC
8
BLACK
10
175.0096910000000037
20
-12.1575109999999995
40
0.8001591068843746
50
3.50104034
51
48.50100061
0
ARC
8
BLACK
10
173.3609569999999849
20
-19.5976809999999979
40
2.7999995049501347
50
-244.71321673
51
15.70388741
0
ARC
8
BLACK
10
176.3718109999999797
20
-18.7779740000000004
40
0.3213754234691881
50
-271.04230080
51
-168.90523757
0
ARC
8
BLACK
10
176.4053159999999991
20
-16.9551990000000004
40
1.5016999371302509
50
-91.05532168
51
-86.50002248
0
ARC
8
BLACK
10
176.5113369999999975
20
-12.1369589999999992
40
0.7044798040149909
50
-170.01327311
51
-86.49759326
0
ARC
8
BLACK
10
179.5283279999999877
20
-13.9606579999999987
40
1.2999997563053618
50
3.49999349
51
93.49999618
0
ARC
8
BLACK
10
179.7114739999999813
20
-16.9550619999999981
40
1.2999997563053618
50
-86.50000382
51
3.49999618
0
LINE
8
BLACK
6
CONTINUOUS
10
148.3170779999999809
20
-14.7156919999999989
11
150.2029159999999877
21
-14.48414
0
LINE
8
BLACK
6
CONTINUOUS
10
148.6461249999999836
20
-17.3955669999999998
11
148.3170779999999809
21
-14.7156919999999989
0
LINE
8
BLACK
6
CONTINUOUS
10
150.2029159999999877
20
-14.48414
11
150.1997790000000066
21
-14.4585929999999987
0
LINE
8
BLACK
6
CONTINUOUS
10
150.5319629999999904
20
-17.1640149999999991
11
148.6461249999999836
21
-17.3955669999999998
0
LINE
8
BLACK
6
CONTINUOUS
10
150.5350999999999999
20
-17.1895619999999987
11
150.5319629999999904
21
-17.1640149999999991
0
LINE
8
BLACK
6
CONTINUOUS
10
150.3634050000000002
20
-13.8685749999999999
11
150.9504770000000065
21
-13.1171579999999999
0
LINE
8
BLACK
6
CONTINUOUS
10
151.5880209999999977
20
-18.3095399999999984
11
150.8366039999999941
21
-17.7224690000000002
0
LINE
8
BLACK
6
CONTINUOUS
10
151.4833840000000009
20
-12.8156539999999985
11
154.2143539999999859
21
-12.4803329999999999
0
LINE
8
BLACK
6
CONTINUOUS
10
152.4624120000000005
20
-18.43825
11
152.1780389999999841
21
-18.4731670000000001
0
LINE
8
BLACK
6
CONTINUOUS
10
154.8043700000000058
20
-12.6439599999999999
11
155.555753999999979
21
-13.2310049999999997
0
LINE
8
BLACK
6
CONTINUOUS
10
155.8564669999999808
20
-13.7572159999999997
11
155.8756750000000011
21
-13.9136589999999991
0
LINE
8
BLACK
6
CONTINUOUS
10
156.6466130000000021
20
-14.4485859999999988
11
159.5249969999999848
21
-14.0951649999999997
0
LINE
8
BLACK
6
CONTINUOUS
10
160.2074649999999849
20
-19.6534230000000001
11
156.9320629999999994
21
-20.0555920000000008
0
LINE
8
BLACK
6
CONTINUOUS
10
160.9737369999999999
20
-15.2270449999999986
11
160.9920170000000041
21
-15.375926999999999
0
LINE
8
BLACK
6
CONTINUOUS
10
160.9920170000000041
20
-15.375926999999999
11
162.8778549999999825
21
-15.1443750000000001
0
LINE
8
BLACK
6
CONTINUOUS
10
161.3210650000000044
20
-18.0558009999999989
11
161.3393449999999802
21
-18.2046829999999993
0
LINE
8
BLACK
6
CONTINUOUS
10
162.8778549999999825
20
-15.1443750000000001
11
163.2069019999999853
21
-17.8242499999999993
0
LINE
8
BLACK
6
CONTINUOUS
10
163.2069019999999853
20
-17.8242499999999993
11
161.3210650000000044
21
-18.0558009999999989
0
ARC
8
BLACK
10
150.9938159999999812
20
-14.3610999999999986
40
0.7999997765112187
50
-218.00017338
51
-173.00017660
0
ARC
8
BLACK
10
151.3291360000000054
20
-17.0920649999999981
40
0.7999981088977648
50
-173.00038113
51
-128.00036210
0
ARC
8
BLACK
10
151.5808810000000051
20
-13.6096899999999987
40
0.7999981088977648
50
96.99961887
51
141.99963790
0
ARC
8
BLACK
10
152.0805450000000008
20
-17.6791300000000007
40
0.7999998983781185
50
-128.00017338
51
-83.00010552
0
ARC
8
BLACK
10
152.3936970000000031
20
-18.6985649999999985
40
0.2692315925926971
50
-61.21286929
51
75.21300141
0
ARC
8
BLACK
10
154.3118489999999952
20
-13.2743699999999993
40
0.8000000202462497
50
51.99998359
51
96.99996557
0
ARC
8
BLACK
10
155.0631379999999808
20
-13.8615469999999998
40
0.8001585700472125
50
7.00094961
51
52.00098190
0
ARC
8
BLACK
10
153.8716909999999984
20
-21.3884930000000004
40
2.7999996600923005
50
-241.21322324
51
19.20388948
0
ARC
8
BLACK
10
156.8268869999999993
20
-20.3865069999999982
40
0.3213749685725383
50
-267.54232960
51
-165.40530252
0
ARC
8
BLACK
10
156.749052000000006
20
-18.5650860000000009
40
1.5016994247042248
50
-87.55530693
51
-83.00000472
0
ARC
8
BLACK
10
156.5607289999999807
20
-13.7493609999999986
40
0.7044797101982426
50
-166.51335831
51
-82.99758106
0
ARC
8
BLACK
10
159.6834269999999947
20
-15.3854749999999996
40
1.2999999849999999
50
6.99999358
51
96.99999358
0
ARC
8
BLACK
10
160.0490350000000035
20
-18.3631129999999985
40
1.2999999849999999
50
-83.00000642
51
6.99999358
0
LINE
8
BLACK
6
CONTINUOUS
10
128.576484999999991
20
-18.0445019999999978
11
130.4446690000000046
21
-17.6982549999999996
0
LINE
8
BLACK
6
CONTINUOUS
10
129.0685210000000041
20
-20.6992899999999977
11
128.576484999999991
21
-18.0445019999999978
0
LINE
8
BLACK
6
CONTINUOUS
10
130.4446690000000046
20
-17.6982549999999996
11
130.4399779999999964
21
-17.6729470000000006
0
LINE
8
BLACK
6
CONTINUOUS
10
130.9367049999999892
20
-20.3530429999999996
11
129.0685210000000041
21
-20.6992899999999977
0
LINE
8
BLACK
6
CONTINUOUS
10
130.941395
20
-20.3783509999999985
11
130.9367049999999892
21
-20.3530429999999996
0
LINE
8
BLACK
6
CONTINUOUS
10
130.5672799999999825
20
-17.0740400000000001
11
131.1073829999999987
21
-16.2881849999999986
0
LINE
8
BLACK
6
CONTINUOUS
10
132.0607259999999883
20
-21.4319609999999976
11
131.2748709999999903
21
-20.8918579999999992
0
LINE
8
BLACK
6
CONTINUOUS
10
131.6208900000000028
20
-15.9547099999999986
11
134.3262949999999876
21
-15.4532919999999994
0
LINE
8
BLACK
6
CONTINUOUS
10
132.9413439999999866
20
-21.5070499999999996
11
132.6596319999999878
21
-21.5592629999999978
0
LINE
8
BLACK
6
CONTINUOUS
10
134.9252009999999871
20
-15.5805939999999996
11
135.7110209999999881
21
-16.120673
0
LINE
8
BLACK
6
CONTINUOUS
10
136.0432969999999955
20
-16.6275459999999988
11
136.0720210000000066
21
-16.7825239999999987
0
LINE
8
BLACK
6
CONTINUOUS
10
136.8741770000000031
20
-17.2693879999999993
11
139.7256160000000023
21
-16.7409049999999979
0
LINE
8
BLACK
6
CONTINUOUS
10
140.7461349999999811
20
-22.247132999999998
11
137.5013940000000048
21
-22.8485099999999974
0
LINE
8
BLACK
6
CONTINUOUS
10
141.2407539999999813
20
-17.7822309999999995
11
141.2680890000000034
21
-17.9297189999999986
0
LINE
8
BLACK
6
CONTINUOUS
10
141.2680890000000034
20
-17.9297189999999986
11
143.1362729999999885
21
-17.5834709999999994
0
LINE
8
BLACK
6
CONTINUOUS
10
141.7601249999999879
20
-20.5845069999999986
11
141.7874599999999816
21
-20.7319949999999977
0
LINE
8
BLACK
6
CONTINUOUS
10
143.1362729999999885
20
-17.5834709999999994
11
143.6283090000000016
21
-20.2382600000000004
0
LINE
8
BLACK
6
CONTINUOUS
10
143.6283090000000016
20
-20.2382600000000004
11
141.7601249999999879
21
-20.5845069999999986
0
ARC
8
BLACK
10
131.2265830000000051
20
-17.5271599999999985
40
0.8000007971208528
50
-214.50015724
51
-169.50011404
0
ARC
8
BLACK
10
131.7279989999999827
20
-20.2325610000000005
40
0.7999984491191218
50
-169.50038267
51
-124.50033796
0
ARC
8
BLACK
10
131.766680000000008
20
-16.7413129999999981
40
0.7999984491191218
50
100.49961733
51
145.49966204
0
ARC
8
BLACK
10
132.5138460000000009
20
-20.7726579999999998
40
0.8000006148878887
50
-124.50015724
51
-79.50018446
0
ARC
8
BLACK
10
132.8886489999999867
20
-21.7710739999999987
40
0.2692311935883359
50
-57.71300114
51
78.71298058
0
ARC
8
BLACK
10
134.4720839999999953
20
-16.2398959999999981
40
0.800000178335605
50
55.50001983
51
100.50003985
0
ARC
8
BLACK
10
135.2578179999999861
20
-16.7801139999999975
40
0.8001596038853748
50
10.50107081
51
55.50107653
0
ARC
8
BLACK
10
134.5281019999999899
20
-24.3657559999999975
40
2.7999996260772964
50
-237.71322473
51
22.70388673
0
ARC
8
BLACK
10
137.4166160000000048
20
-23.1852279999999986
40
0.3213749760280038
50
-264.04227216
51
-161.90518236
0
ARC
8
BLACK
10
137.2277310000000057
20
-21.3719559999999973
40
1.5017000873959487
50
-84.05529369
51
-79.50000406
0
ARC
8
BLACK
10
136.7457660000000033
20
-16.5767109999999995
40
0.7044791063260853
50
-163.01334014
51
-79.49752845
0
ARC
8
BLACK
10
139.962522000000007
20
-18.0191370000000006
40
1.3000005764075646
50
10.49998708
51
100.49998708
0
ARC
8
BLACK
10
140.5092290000000048
20
-20.9689019999999999
40
1.2999997753884422
50
-79.50000489
51
10.50003845
0
LINE
8
BLACK
6
CONTINUOUS
10
109.8946419999999904
20
-21.5069769999999991
11
111.7628259999999898
21
-21.1607299999999974
0
LINE
8
BLACK
6
CONTINUOUS
10
110.3866779999999892
20
-24.161764999999999
11
109.8946419999999904
21
-21.5069769999999991
0
LINE
8
BLACK
6
CONTINUOUS
10
111.7628259999999898
20
-21.1607299999999974
11
111.7581349999999958
21
-21.1354219999999984
0
LINE
8
BLACK
6
CONTINUOUS
10
112.2548619999999886
20
-23.8155179999999973
11
110.3866779999999892
21
-24.161764999999999
0
LINE
8
BLACK
6
CONTINUOUS
10
112.2595519999999993
20
-23.8408259999999999
11
112.2548619999999886
21
-23.8155179999999973
0
LINE
8
BLACK
6
CONTINUOUS
10
111.885436999999996
20
-20.5365149999999979
11
112.425539999999998
21
-19.7506599999999999
0
LINE
8
BLACK
6
CONTINUOUS
10
113.3788830000000019
20
-24.8944359999999989
11
112.5930279999999897
21
-24.3543330000000005
0
LINE
8
BLACK
6
CONTINUOUS
10
112.939046999999988
20
-19.4171849999999999
11
115.6444520000000011
21
-18.9157669999999989
0
LINE
8
BLACK
6
CONTINUOUS
10
114.2595010000000002
20
-24.9695249999999973
11
113.9777890000000014
21
-25.0217379999999991
0
LINE
8
BLACK
6
CONTINUOUS
10
116.2433580000000006
20
-19.0430689999999991
11
117.0291780000000017
21
-19.5831479999999978
0
LINE
8
BLACK
6
CONTINUOUS
10
117.3614539999999948
20
-20.0900210000000001
11
117.3901779999999917
21
-20.244999
0
LINE
8
BLACK
6
CONTINUOUS
10
118.1923339999999882
20
-20.7318630000000006
11
121.0437730000000016
21
-20.2033799999999992
0
LINE
8
BLACK
6
CONTINUOUS
10
122.0642919999999947
20
-25.7096079999999994
11
118.8195509999999899
21
-26.3109849999999987
0
LINE
8
BLACK
6
CONTINUOUS
10
122.5589109999999948
20
-21.2447060000000008
11
122.5862459999999885
21
-21.3921939999999999
0
LINE
8
BLACK
6
CONTINUOUS
10
122.5862459999999885
20
-21.3921939999999999
11
124.4544299999999879
21
-21.0459460000000007
0
LINE
8
BLACK
6
CONTINUOUS
10
123.0782820000000015
20
-24.0469819999999999
11
123.1056169999999952
21
-24.194469999999999
0
LINE
8
BLACK
6
CONTINUOUS
10
124.4544299999999879
20
-21.0459460000000007
11
124.9464660000000009
21
-23.7007349999999981
0
LINE
8
BLACK
6
CONTINUOUS
10
124.9464660000000009
20
-23.7007349999999981
11
123.0782820000000015
21
-24.0469819999999999
0
ARC
8
BLACK
10
112.5447399999999902
20
-20.9896349999999998
40
0.8000007971208528
50
-214.50015724
51
-169.50011404
0
ARC
8
BLACK
10
113.0461559999999963
20
-23.6950359999999982
40
0.7999984491191218
50
-169.50038267
51
-124.50033796
0
ARC
8
BLACK
10
113.0848369999999932
20
-20.2037879999999994
40
0.7999984491191218
50
100.49961733
51
145.49966204
0
ARC
8
BLACK
10
113.8320030000000003
20
-24.2351329999999976
40
0.8000006148878887
50
-124.50015724
51
-79.50018446
0
ARC
8
BLACK
10
114.2068060000000003
20
-25.233549
40
0.2692311935883359
50
-57.71300114
51
78.71298058
0
ARC
8
BLACK
10
115.7902409999999946
20
-19.7023709999999994
40
0.800000178335605
50
55.50001983
51
100.50003985
0
ARC
8
BLACK
10
116.5759749999999997
20
-20.2425889999999988
40
0.8001596038853748
50
10.50107081
51
55.50107653
0
ARC
8
BLACK
10
115.8462589999999892
20
-27.8282309999999988
40
2.7999996260772964
50
-237.71322473
51
22.70388673
0
ARC
8
BLACK
10
118.7347729999999899
20
-26.6477029999999999
40
0.3213749760280038
50
-264.04227216
51
-161.90518236
0
ARC
8
BLACK
10
118.5458879999999908
20
-24.8344309999999986
40
1.5017000873959487
50
-84.05529369
51
-79.50000406
0
ARC
8
BLACK
10
118.0639229999999884
20
-20.0391860000000008
40
0.7044791063260853
50
-163.01334014
51
-79.49752845
0
ARC
8
BLACK
10
121.2806789999999921
20
-21.4816119999999984
40
1.3000005764075646
50
10.49998708
51
100.49998708
0
ARC
8
BLACK
10
121.82738599999999
20
-24.4313769999999977
40
1.2999997753884422
50
-79.50000489
51
10.50003845
0
LINE
8
BLACK
6
CONTINUOUS
10
-7.0749999999999993
20
-30.6999999999999993
11
-5.1749999999999998
21
-30.6999999999999993
0
LINE
8
BLACK
6
CONTINUOUS
10
-7.0749999999999993
20
-33.3999999999999986
11
-7.0749999999999993
21
-30.6999999999999993
0
LINE
8
BLACK
6
CONTINUOUS
10
-5.1749999999999998
20
-30.6999999999999993
11
-5.1749999999999998
21
-30.6742609999999978
0
LINE
8
BLACK
6
CONTINUOUS
10
-5.1749999999999998
20
-33.3999999999999986
11
-7.0749999999999993
21
-33.3999999999999986
0
LINE
8
BLACK
6
CONTINUOUS
10
-5.1749999999999998
20
-33.4257390000000001
11
-5.1749999999999998
21
-33.3999999999999986
0
LINE
8
BLACK
6
CONTINUOUS
10
-4.9406879999999997
20
-30.1085819999999984
11
-4.2664179999999998
21
-29.4343119999999985
0
LINE
8
BLACK
6
CONTINUOUS
10
-4.2664179999999998
20
-34.6656879999999958
11
-4.9406879999999997
21
-33.9914179999999959
0
LINE
8
BLACK
6
CONTINUOUS
10
-3.700739
20
-29.1999999999999993
11
-0.94926
21
-29.1999999999999993
0
LINE
8
BLACK
6
CONTINUOUS
10
-3.4142299999999999
20
-34.8999999999999986
11
-3.700739
21
-34.8999999999999986
0
LINE
8
BLACK
6
CONTINUOUS
10
-0.383582
20
-29.4343119999999985
11
0.290658
21
-30.1085519999999995
0
LINE
8
BLACK
6
CONTINUOUS
10
0.525
20
-30.6674889999999998
11
0.525
21
-30.8251069999999991
0
LINE
8
BLACK
6
CONTINUOUS
10
1.2249999999999999
20
-31.4499999999999993
11
4.125
21
-31.4499999999999993
0
LINE
8
BLACK
6
CONTINUOUS
10
4.125
20
-37.0499999999999972
11
0.825
21
-37.0499999999999972
0
LINE
8
BLACK
6
CONTINUOUS
10
5.4249999999999998
20
-32.75
11
5.4249999999999998
21
-32.8999999999999986
0
LINE
8
BLACK
6
CONTINUOUS
10
5.4249999999999998
20
-32.8999999999999986
11
7.3249999999999993
21
-32.8999999999999986
0
LINE
8
BLACK
6
CONTINUOUS
10
5.4249999999999998
20
-35.6000000000000014
11
5.4249999999999998
21
-35.75
0
LINE
8
BLACK
6
CONTINUOUS
10
7.3249999999999993
20
-32.8999999999999986
11
7.3249999999999993
21
-35.6000000000000014
0
LINE
8
BLACK
6
CONTINUOUS
10
7.3249999999999993
20
-35.6000000000000014
11
5.4249999999999998
21
-35.6000000000000014
0
ARC
8
BLACK
10
-4.375
20
-30.6742629999999998
40
0.8000000000024999
50
134.99984807
51
179.99985676
0
ARC
8
BLACK
10
-4.375
20
-33.425736999999998
40
0.7999986919395555
50
-180.00035810
51
-135.00035450
0
ARC
8
BLACK
10
-3.7007369999999997
20
-30.
40
0.7999986919395555
50
89.99964190
51
134.99964550
0
ARC
8
BLACK
10
-3.7007369999999997
20
-34.1000000000000014
40
0.8000000000024999
50
-135.00015193
51
-90.00014324
0
ARC
8
BLACK
10
-3.514157
20
-35.1499999999999986
40
0.26923113736899
50
-68.21301470
51
68.21301470
0
ARC
8
BLACK
10
-0.94926
20
-30.
40
0.7999999999999999
50
45.00000000
51
90.00000000
0
ARC
8
BLACK
10
-0.27513
20
-30.6743600000000001
40
0.8001592052885476
50
0.00100248
51
45.00101265
0
ARC
8
BLACK
10
-2.375
20
-38.
40
2.7999996327144401
50
-248.21321991
51
12.20388667
0
ARC
8
BLACK
10
0.68028
20
-37.3656299999999959
40
0.3213752491418715
50
-274.54223818
51
-172.40520347
0
ARC
8
BLACK
10
0.825
20
-35.5482999999999976
40
1.5017
50
-94.55530514
51
-90.00000000
0
ARC
8
BLACK
10
1.2249699999999999
20
-30.7455199999999991
40
0.7044800006387689
50
-173.51329351
51
-89.99756008
0
ARC
8
BLACK
10
4.125
20
-32.75
40
1.3
50
0.00000000
51
90.00000000
0
ARC
8
BLACK
10
4.125
20
-35.75
40
1.3
50
-90.00000000
51
-0.00000000
0
LINE
8
BLACK
6
CONTINUOUS
10
12.4358079999999998
20
-30.8544209999999985
11
14.3349219999999988
21
-30.9124439999999971
0
LINE
8
BLACK
6
CONTINUOUS
10
12.3533539999999995
20
-33.5531609999999958
11
12.4358079999999998
21
-30.8544209999999985
0
LINE
8
BLACK
6
CONTINUOUS
10
14.3349219999999988
20
-30.9124439999999971
11
14.3357079999999986
21
-30.8867169999999973
0
LINE
8
BLACK
6
CONTINUOUS
10
14.2524679999999986
20
-33.611184999999999
11
12.3533539999999995
21
-33.5531609999999958
0
LINE
8
BLACK
6
CONTINUOUS
10
14.2516819999999989
20
-33.6369119999999953
11
14.2524679999999986
21
-33.611184999999999
0
LINE
8
BLACK
6
CONTINUOUS
10
14.5871859999999991
20
-30.3284570000000002
11
15.2817329999999991
21
-29.6750930000000004
0
LINE
8
BLACK
6
CONTINUOUS
10
15.1219739999999998
20
-34.9040290000000013
11
14.46861
21
-34.2094820000000013
0
LINE
8
BLACK
6
CONTINUOUS
10
15.8543029999999998
20
-29.4581649999999975
11
18.6044990000000006
21
-29.542190999999999
0
LINE
8
BLACK
6
CONTINUOUS
10
15.9666090000000001
20
-35.1642560000000017
11
15.6802339999999987
21
-35.1555070000000001
0
LINE
8
BLACK
6
CONTINUOUS
10
19.1627580000000002
20
-29.7936689999999977
11
19.8160929999999986
21
-30.4881849999999979
0
LINE
8
BLACK
6
CONTINUOUS
10
20.033255999999998
20
-31.0540179999999992
11
20.0284429999999993
21
-31.2115619999999971
0
LINE
8
BLACK
6
CONTINUOUS
10
20.709032999999998
20
-31.8575409999999977
11
23.6076809999999995
21
-31.9461019999999998
0
LINE
8
BLACK
6
CONTINUOUS
10
23.4366649999999979
20
-37.5434899999999985
11
20.1382039999999982
21
-37.4427129999999977
0
LINE
8
BLACK
6
CONTINUOUS
10
24.8673739999999981
20
-33.2851959999999991
11
24.8627929999999999
21
-33.4351259999999968
0
LINE
8
BLACK
6
CONTINUOUS
10
24.8627929999999999
20
-33.4351259999999968
11
26.7619069999999972
21
-33.4931489999999954
0
LINE
8
BLACK
6
CONTINUOUS
10
24.7803389999999979
20
-36.1338669999999951
11
24.7757589999999972
21
-36.2837969999999999
0
LINE
8
BLACK
6
CONTINUOUS
10
26.7619069999999972
20
-33.4931489999999954
11
26.6794529999999988
21
-36.1918900000000008
0
LINE
8
BLACK
6
CONTINUOUS
10
26.6794529999999988
20
-36.1918900000000008
11
24.7803389999999979
21
-36.1338669999999951
0
ARC
8
BLACK
10
15.1353349999999995
20
-30.9111499999999992
40
0.8000001941362264
50
133.24981823
51
178.24984355
0
ARC
8
BLACK
10
15.0513089999999998
20
-33.6613399999999956
40
0.7999986104769182
50
-181.75030181
51
-136.75033827
0
ARC
8
BLACK
10
15.8298739999999984
20
-30.2577919999999985
40
0.7999979252985597
50
88.24962441
51
133.24960957
0
ARC
8
BLACK
10
15.7046669999999988
20
-34.3558799999999991
40
0.8000001941362264
50
-136.75018177
51
-91.75015645
0
ARC
8
BLACK
10
15.8590939999999989
20
-35.4110879999999995
40
0.2692313344486484
50
-69.96296624
51
66.46303794
0
ARC
8
BLACK
10
18.5800680000000007
20
-30.341818
40
0.800000133056239
50
43.25001761
51
88.24998672
0
ARC
8
BLACK
10
19.2332900000000002
20
-31.0364509999999996
40
0.8001593238630665
50
-1.74894987
51
43.25102653
0
ARC
8
BLACK
10
16.9106850000000009
20
-38.2945470000000014
40
2.7999993931031484
50
-249.96322384
51
10.45387815
0
ARC
8
BLACK
10
19.9839129999999976
20
-37.7537769999999995
40
0.3213757046728952
50
-276.29211356
51
-174.15520510
0
ARC
8
BLACK
10
20.1840639999999993
20
-35.9417139999999975
40
1.5016994165281545
50
-96.30530057
51
-91.75001269
0
ARC
8
BLACK
10
20.730516999999999
20
-31.1533879999999996
40
0.7044806666367786
50
-175.26328031
51
-91.74757586
0
ARC
8
BLACK
10
23.5679809999999996
20
-33.2454959999999957
40
1.3000003297061118
50
-1.74999794
51
88.25000341
0
ARC
8
BLACK
10
23.4763649999999977
20
-36.2440969999999965
40
1.3000003297061118
50
-91.74999794
51
-1.74999659
0
LINE
8
BLACK
6
CONTINUOUS
10
32.6812630000000013
20
-31.8882849999999998
11
34.5704169999999991
21
-32.0910110000000017
0
LINE
8
BLACK
6
CONTINUOUS
10
32.3931779999999989
20
-34.5728719999999967
11
32.6812630000000013
21
-31.8882849999999998
0
LINE
8
BLACK
6
CONTINUOUS
10
34.5704169999999991
20
-32.0910110000000017
11
34.573163000000001
21
-32.0654189999999986
0
LINE
8
BLACK
6
CONTINUOUS
10
34.2823319999999967
20
-34.7755979999999951
11
32.3931779999999989
21
-34.5728719999999967
0
LINE
8
BLACK
6
CONTINUOUS
10
34.2795860000000019
20
-34.8011899999999983
11
34.2823319999999967
21
-34.7755979999999951
0
LINE
8
BLACK
6
CONTINUOUS
10
34.8664939999999959
20
-31.5279699999999998
11
35.6088579999999979
21
-30.9294919999999998
0
LINE
8
BLACK
6
CONTINUOUS
10
35.0506809999999973
20
-36.1310050000000018
11
34.4522040000000018
21
-35.3886399999999952
0
LINE
8
BLACK
6
CONTINUOUS
10
36.1963089999999994
20
-30.7568739999999998
11
38.9320809999999966
21
-31.0504509999999989
0
LINE
8
BLACK
6
CONTINUOUS
10
35.8730040000000017
20
-36.4549060000000011
11
35.5881309999999971
21
-36.4243359999999967
0
LINE
8
BLACK
6
CONTINUOUS
10
39.4695290000000014
20
-31.3437829999999984
11
40.0679799999999986
21
-32.086114000000002
0
LINE
8
BLACK
6
CONTINUOUS
10
40.2413469999999975
20
-32.6668639999999968
11
40.2245289999999969
21
-32.8235820000000018
0
LINE
8
BLACK
6
CONTINUOUS
10
40.8538589999999999
20
-33.5195959999999999
11
43.7373039999999946
21
-33.8290199999999999
0
LINE
8
BLACK
6
CONTINUOUS
10
43.1397959999999969
20
-39.3970529999999997
11
39.858633999999995
21
-39.0449489999999955
0
LINE
8
BLACK
6
CONTINUOUS
10
44.8911759999999944
20
-35.2603069999999974
11
44.8751709999999946
21
-35.4094499999999996
0
LINE
8
BLACK
6
CONTINUOUS
10
44.8751709999999946
20
-35.4094499999999996
11
46.7643249999999995
21
-35.6121759999999981
0
LINE
8
BLACK
6
CONTINUOUS
10
44.5870869999999968
20
-38.0940370000000001
11
44.571081999999997
21
-38.2431809999999999
0
LINE
8
BLACK
6
CONTINUOUS
10
46.7643249999999995
20
-35.6121759999999981
11
46.4762399999999971
21
-38.2967629999999986
0
LINE
8
BLACK
6
CONTINUOUS
10
46.4762399999999971
20
-38.2967629999999986
11
44.5870869999999968
21
-38.0940370000000001
0
ARC
8
BLACK
10
35.3685959999999966
20
-32.150779
40
0.7999999919306249
50
128.87484274
51
173.87488025
0
ARC
8
BLACK
10
35.0750189999999975
20
-34.8865459999999956
40
0.7999980681607924
50
-186.12534867
51
-141.12532453
0
ARC
8
BLACK
10
36.1109519999999975
20
-31.552308
40
0.7999988466816687
50
83.87458776
51
128.87463052
0
ARC
8
BLACK
10
35.6734909999999985
20
-35.6289030000000011
40
0.7999999919306249
50
-141.12515726
51
-96.12511975
0
ARC
8
BLACK
10
35.746972999999997
20
-36.692816999999998
40
0.2692312331101279
50
-74.33798175
51
62.08803651
0
ARC
8
BLACK
10
38.8467229999999972
20
-31.8458849999999991
40
0.8000007728246268
50
38.87504415
51
83.87503031
0
ARC
8
BLACK
10
39.4450509999999994
20
-32.5883229999999955
40
0.8001589959014396
50
-6.12403969
51
38.87596303
0
ARC
8
BLACK
10
36.5755380000000017
20
-39.6480929999999958
40
2.7999992614631166
50
-254.33822124
51
6.07887944
0
ARC
8
BLACK
10
39.6810630000000018
20
-39.3433360000000008
40
0.3213757558310831
50
-280.66724112
51
-178.53007510
0
ARC
8
BLACK
10
40.0188619999999986
20
-37.5518220000000014
40
1.5016994539897122
50
-100.68029588
51
-96.12499184
0
ARC
8
BLACK
10
40.9289950000000005
20
-32.8191349999999957
40
0.7044792623044343
50
-179.63832045
51
-96.12250730
0
ARC
8
BLACK
10
43.598596999999998
20
-35.1215989999999962
40
1.3000000396499993
50
-6.12503034
51
83.87501348
0
ARC
8
BLACK
10
43.2785030000000006
20
-38.1044739999999962
40
1.3000000396499993
50
-96.12498652
51
-6.12498652
0
LINE
8
BLACK
6
CONTINUOUS
10
52.7888570000000001
20
-34.4635400000000018
11
54.657041999999997
21
-34.8097879999999975
0
LINE
8
BLACK
6
CONTINUOUS
10
52.2968209999999942
20
-37.1183279999999982
11
52.7888570000000001
21
-34.4635400000000018
0
LINE
8
BLACK
6
CONTINUOUS
10
54.657041999999997
20
-34.8097879999999975
11
54.6617320000000007
21
-34.784479999999995
0
LINE
8
BLACK
6
CONTINUOUS
10
54.1650059999999982
20
-37.464576000000001
11
52.2968209999999942
21
-37.1183279999999982
0
LINE
8
BLACK
6
CONTINUOUS
10
54.1603149999999971
20
-37.4898839999999964
11
54.1650059999999982
21
-37.464576000000001
0
LINE
8
BLACK
6
CONTINUOUS
10
54.9952070000000006
20
-34.2709729999999979
11
55.7810629999999961
21
-33.7308699999999959
0
LINE
8
BLACK
6
CONTINUOUS
10
54.8277199999999993
20
-38.8746459999999985
11
54.2876169999999973
21
-38.0887910000000005
0
LINE
8
BLACK
6
CONTINUOUS
10
56.3799689999999956
20
-33.6035679999999957
11
59.0853739999999945
21
-34.1049849999999992
0
LINE
8
BLACK
6
CONTINUOUS
10
55.6229379999999978
20
-39.2603329999999957
11
55.3412269999999964
21
-39.2081209999999984
0
LINE
8
BLACK
6
CONTINUOUS
10
59.5988799999999941
20
-34.4384599999999992
11
60.1389589999999998
21
-35.2242809999999977
0
LINE
8
BLACK
6
CONTINUOUS
10
60.2675190000000001
20
-35.8165639999999996
11
60.2387960000000007
21
-35.9715419999999995
0
LINE
8
BLACK
6
CONTINUOUS
10
60.8131959999999978
20
-36.7135359999999977
11
63.6646359999999945
21
-37.2420189999999991
0
LINE
8
BLACK
6
CONTINUOUS
10
62.6441169999999943
20
-42.7482469999999992
11
59.3993749999999991
21
-42.1468699999999998
0
LINE
8
BLACK
6
CONTINUOUS
10
64.7059610000000021
20
-38.7571569999999994
11
64.6786249999999967
21
-38.904644999999995
0
LINE
8
BLACK
6
CONTINUOUS
10
64.6786249999999967
20
-38.904644999999995
11
66.5468099999999936
21
-39.2508929999999978
0
LINE
8
BLACK
6
CONTINUOUS
10
64.1865899999999954
20
-41.5594329999999985
11
64.15925399999999
21
-41.7069219999999987
0
LINE
8
BLACK
6
CONTINUOUS
10
66.5468099999999936
20
-39.2508929999999978
11
66.0547739999999948
21
-41.9056810000000013
0
LINE
8
BLACK
6
CONTINUOUS
10
66.0547739999999948
20
-41.9056810000000013
11
64.1865899999999954
21
-41.5594329999999985
0
ARC
8
BLACK
10
55.4483359999999976
20
-34.9302700000000002
40
0.8000003605724187
50
124.49989904
51
169.49988973
0
ARC
8
BLACK
10
54.9469189999999941
20
-37.6356699999999975
40
0.7999986049019085
50
-190.50034764
51
-145.50027804
0
ARC
8
BLACK
10
56.2341829999999945
20
-34.3901719999999997
40
0.7999980385000953
50
79.49965236
51
124.49966294
0
ARC
8
BLACK
10
55.4870169999999945
20
-38.4215170000000015
40
0.8000003605724187
50
-145.50010096
51
-100.50011027
0
ARC
8
BLACK
10
55.4791260000000008
20
-39.4879369999999952
40
0.269231261483506
50
-78.71318927
51
57.71318105
0
ARC
8
BLACK
10
58.9395859999999985
20
-34.8915889999999962
40
0.7999999960999999
50
34.49993960
51
79.50003057
0
ARC
8
BLACK
10
59.4795349999999985
20
-35.6775069999999985
40
0.8001586210571001
50
-10.49902114
51
34.50097023
0
ARC
8
BLACK
10
56.0798360000000002
20
-42.4978079999999991
40
2.8000000227980357
50
-258.71321097
51
1.70387973
0
ARC
8
BLACK
10
59.1995599999999982
20
-42.4308410000000009
40
0.3213750214126792
50
74.95772546
51
177.09487798
0
ARC
8
BLACK
10
59.6730389999999957
20
-40.6703159999999997
40
1.5017002696317263
50
-105.05533271
51
-100.50003346
0
ARC
8
BLACK
10
60.9415479999999974
20
-36.0208469999999963
40
0.7044801534642405
50
-184.01328895
51
-100.49757553
0
ARC
8
BLACK
10
63.4277289999999994
20
-38.5202510000000018
40
1.3000007586432401
50
-10.49998708
51
79.49996958
0
ARC
8
BLACK
10
62.881022999999999
20
-41.4700149999999965
40
1.2999997753884422
50
-100.49998708
51
-10.50003845
0
LINE
8
BLACK
6
CONTINUOUS
10
71.4706999999999937
20
-37.9260149999999996
11
73.3388849999999906
21
-38.2722629999999953
0
LINE
8
BLACK
6
CONTINUOUS
10
70.9786639999999949
20
-40.580802999999996
11
71.4706999999999937
21
-37.9260149999999996
0
LINE
8
BLACK
6
CONTINUOUS
10
73.3388849999999906
20
-38.2722629999999953
11
73.3435750000000013
21
-38.2469549999999998
0
LINE
8
BLACK
6
CONTINUOUS
10
72.8468489999999917
20
-40.9270509999999987
11
70.9786639999999949
21
-40.580802999999996
0
LINE
8
BLACK
6
CONTINUOUS
10
72.8421579999999977
20
-40.9523590000000013
11
72.8468489999999917
21
-40.9270509999999987
0
LINE
8
BLACK
6
CONTINUOUS
10
73.6770499999999942
20
-37.7334479999999957
11
74.4629059999999896
21
-37.1933450000000008
0
LINE
8
BLACK
6
CONTINUOUS
10
73.509563
20
-42.3371209999999962
11
72.969459999999998
21
-41.5512659999999983
0
LINE
8
BLACK
6
CONTINUOUS
10
75.0618120000000033
20
-37.0660430000000005
11
77.7672170000000023
21
-37.567459999999997
0
LINE
8
BLACK
6
CONTINUOUS
10
74.3047809999999913
20
-42.7228080000000006
11
74.0230699999999899
21
-42.6705959999999962
0
LINE
8
BLACK
6
CONTINUOUS
10
78.2807229999999947
20
-37.9009349999999969
11
78.8208020000000005
21
-38.6867559999999955
0
LINE
8
BLACK
6
CONTINUOUS
10
78.9493619999999936
20
-39.2790389999999974
11
78.9206389999999942
21
-39.4340169999999972
0
LINE
8
BLACK
6
CONTINUOUS
10
79.4950389999999913
20
-40.1760109999999955
11
82.3464790000000022
21
-40.7044939999999968
0
LINE
8
BLACK
6
CONTINUOUS
10
81.3259599999999949
20
-46.210721999999997
11
78.0812179999999927
21
-45.6093449999999976
0
LINE
8
BLACK
6
CONTINUOUS
10
83.3878040000000027
20
-42.2196319999999972
11
83.3604679999999973
21
-42.3671199999999999
0
LINE
8
BLACK
6
CONTINUOUS
10
83.3604679999999973
20
-42.3671199999999999
11
85.2286529999999942
21
-42.7133679999999956
0
LINE
8
BLACK
6
CONTINUOUS
10
82.868432999999996
20
-45.0219079999999963
11
82.8410969999999907
21
-45.1693969999999965
0
LINE
8
BLACK
6
CONTINUOUS
10
85.2286529999999942
20
-42.7133679999999956
11
84.7366169999999954
21
-45.368155999999999
0
LINE
8
BLACK
6
CONTINUOUS
10
84.7366169999999954
20
-45.368155999999999
11
82.868432999999996
21
-45.0219079999999963
0
ARC
8
BLACK
10
74.1301789999999983
20
-38.3927449999999979
40
0.8000003605724187
50
124.49989904
51
169.49988973
0
ARC
8
BLACK
10
73.6287619999999947
20
-41.0981449999999953
40
0.7999986049019085
50
-190.50034764
51
-145.50027804
0
ARC
8
BLACK
10
74.9160260000000022
20
-37.8526469999999975
40
0.7999980385000953
50
79.49965236
51
124.49966294
0
ARC
8
BLACK
10
74.1688599999999951
20
-41.8839919999999992
40
0.8000003605724187
50
-145.50010096
51
-100.50011027
0
ARC
8
BLACK
10
74.1609689999999944
20
-42.950412
40
0.269231261483506
50
-78.71318927
51
57.71318105
0
ARC
8
BLACK
10
77.621428999999992
20
-38.354064000000001
40
0.7999999960999999
50
34.49993960
51
79.50003057
0
ARC
8
BLACK
10
78.1613779999999991
20
-39.1399819999999963
40
0.8001586210571001
50
-10.49902114
51
34.50097023
0
ARC
8
BLACK
10
74.7616790000000009
20
-45.9602829999999969
40
2.8000000227980357
50
-258.71321097
51
1.70387973
0
ARC
8
BLACK
10
77.8814029999999917
20
-45.8933159999999987
40
0.3213750214126792
50
74.95772546
51
177.09487798
0
ARC
8
BLACK
10
78.3548820000000035
20
-44.1327909999999974
40
1.5017002696317263
50
-105.05533271
51
-100.50003346
0
ARC
8
BLACK
10
79.623390999999998
20
-39.4833220000000011
40
0.7044801534642405
50
-184.01328895
51
-100.49757553
0
ARC
8
BLACK
10
82.109572
20
-41.9827259999999995
40
1.3000007586432401
50
-10.49998708
51
79.49996958
0
ARC
8
BLACK
10
81.5628659999999996
20
-44.9324900000000014
40
1.2999997753884422
50
-100.49998708
51
-10.50003845
0
LINE
8
BLACK
6
CONTINUOUS
10
192.9731989999999939
20
-30.6999999999999993
11
194.8731989999999996
21
-30.6999999999999993
0
LINE
8
BLACK
6
CONTINUOUS
10
192.9731989999999939
20
-33.3999999999999986
11
192.9731989999999939
21
-30.6999999999999993
0
LINE
8
BLACK
6
CONTINUOUS
10
194.8731989999999996
20
-30.6999999999999993
11
194.8731989999999996
21
-30.6742609999999978
0
LINE
8
BLACK
6
CONTINUOUS
10
194.8731989999999996
20
-33.3999999999999986
11
192.9731989999999939
21
-33.3999999999999986
0
LINE
8
BLACK
6
CONTINUOUS
10
194.8731989999999996
20
-33.4257390000000001
11
194.8731989999999996
21
-33.3999999999999986
0
LINE
8
BLACK
6
CONTINUOUS
10
195.1075109999999881
20
-30.1085819999999984
11
195.7817809999999952
21
-29.4343119999999985
0
LINE
8
BLACK
6
CONTINUOUS
10
195.7817809999999952
20
-34.6656879999999958
11
195.1075109999999881
21
-33.9914179999999959
0
LINE
8
BLACK
6
CONTINUOUS
10
196.3474599999999839
20
-29.1999999999999993
11
199.0989390000000014
21
-29.1999999999999993
0
LINE
8
BLACK
6
CONTINUOUS
10
196.6339689999999791
20
-34.8999999999999986
11
196.3474599999999839
21
-34.8999999999999986
0
LINE
8
BLACK
6
CONTINUOUS
10
199.6646169999999927
20
-29.4343119999999985
11
200.3388569999999902
21
-30.1085519999999995
0
LINE
8
BLACK
6
CONTINUOUS
10
200.5731989999999882
20
-30.6674889999999998
11
200.5731989999999882
21
-30.8251069999999991
0
LINE
8
BLACK
6
CONTINUOUS
10
201.2731989999999769
20
-31.4499999999999993
11
204.1731989999999826
21
-31.4499999999999993
0
LINE
8
BLACK
6
CONTINUOUS
10
204.1731989999999826
20
-37.0499999999999972
11
200.8731989999999996
21
-37.0499999999999972
0
LINE
8
BLACK
6
CONTINUOUS
10
205.4731989999999939
20
-32.75
11
205.4731989999999939
21
-32.8999999999999986
0
LINE
8
BLACK
6
CONTINUOUS
10
205.4731989999999939
20
-32.8999999999999986
11
207.3731989999999996
21
-32.8999999999999986
0
LINE
8
BLACK
6
CONTINUOUS
10
205.4731989999999939
20
-35.6000000000000014
11
205.4731989999999939
21
-35.75
0
LINE
8
BLACK
6
CONTINUOUS
10
207.3731989999999996
20
-32.8999999999999986
11
207.3731989999999996
21
-35.6000000000000014
0
LINE
8
BLACK
6
CONTINUOUS
10
207.3731989999999996
20
-35.6000000000000014
11
205.4731989999999939
21
-35.6000000000000014
0
ARC
8
BLACK
10
195.6731989999999826
20
-30.6742629999999998
40
0.8000000000024999
50
134.99984807
51
179.99985676
0
ARC
8
BLACK
10
195.6731989999999826
20
-33.425736999999998
40
0.7999986919395555
50
-180.00035810
51
-135.00035450
0
ARC
8
BLACK
10
196.3474619999999788
20
-30.
40
0.7999986919395555
50
89.99964190
51
134.99964550
0
ARC
8
BLACK
10
196.3474619999999788
20
-34.1000000000000014
40
0.8000000000024999
50
-135.00015193
51
-90.00014324
0
ARC
8
BLACK
10
196.5340419999999995
20
-35.1499999999999986
40
0.26923113736899
50
-68.21301470
51
68.21301470
0
ARC
8
BLACK
10
199.0989390000000014
20
-30.
40
0.7999999999999999
50
45.00000000
51
90.00000000
0
ARC
8
BLACK
10
199.7730689999999925
20
-30.6743600000000001
40
0.8001592052885476
50
0.00100248
51
45.00101265
0
ARC
8
BLACK
10
197.6731989999999826
20
-38.
40
2.7999996327144401
50
-248.21321991
51
12.20388667
0
ARC
8
BLACK
10
200.728478999999993
20
-37.3656299999999959
40
0.3213752491418715
50
-274.54223818
51
-172.40520347
0
ARC
8
BLACK
10
200.8731989999999996
20
-35.5482999999999976
40
1.5017
50
-94.55530514
51
-90.00000000
0
ARC
8
BLACK
10
201.2731689999999958
20
-30.7455199999999991
40
0.7044800006387689
50
-173.51329351
51
-89.99756008
0
ARC
8
BLACK
10
204.1731989999999826
20
-32.75
40
1.3
50
0.00000000
51
90.00000000
0
ARC
8
BLACK
10
204.1731989999999826
20
-35.75
40
1.3
50
-90.00000000
51
-0.00000000
0
LINE
8
BLACK
6
CONTINUOUS
10
173.4667749999999842
20
-31.1414829999999974
11
175.3658889999999815
21
-31.0834599999999988
0
LINE
8
BLACK
6
CONTINUOUS
10
173.5492289999999969
20
-33.8402230000000017
11
173.4667749999999842
21
-31.1414829999999974
0
LINE
8
BLACK
6
CONTINUOUS
10
175.3658889999999815
20
-31.0834599999999988
11
175.3651030000000048
21
-31.0577329999999989
0
LINE
8
BLACK
6
CONTINUOUS
10
175.4483429999999942
20
-33.782199999999996
11
173.5492289999999969
21
-33.8402230000000017
0
LINE
8
BLACK
6
CONTINUOUS
10
175.4491289999999992
20
-33.8079269999999994
11
175.4483429999999942
21
-33.782199999999996
0
LINE
8
BLACK
6
CONTINUOUS
10
175.5820300000000032
20
-30.485161999999999
11
176.2353949999999827
21
-29.790614999999999
0
LINE
8
BLACK
6
CONTINUOUS
10
176.3951529999999934
20
-35.0195509999999999
11
175.7006069999999909
21
-34.3661869999999965
0
LINE
8
BLACK
6
CONTINUOUS
10
176.7936540000000036
20
-29.5391370000000002
11
179.543849999999992
21
-29.4551109999999987
0
LINE
8
BLACK
6
CONTINUOUS
10
177.2540989999999965
20
-35.2277289999999965
11
176.967724000000004
21
-35.2364789999999957
0
LINE
8
BLACK
6
CONTINUOUS
10
180.1164200000000051
20
-29.6720389999999981
11
180.8109359999999981
21
-30.3253740000000001
0
LINE
8
BLACK
6
CONTINUOUS
10
181.0622369999999819
20
-30.8768940000000001
11
181.0670509999999922
21
-31.034438999999999
0
LINE
8
BLACK
6
CONTINUOUS
10
181.7858080000000029
20
-31.6376629999999999
11
184.6844549999999856
21
-31.5491019999999978
0
LINE
8
BLACK
6
CONTINUOUS
10
184.8554709999999943
20
-37.14649
11
181.5570099999999911
21
-37.2472670000000008
0
LINE
8
BLACK
6
CONTINUOUS
10
186.0235490000000027
20
-32.8087949999999964
11
186.0281300000000044
21
-32.9587250000000012
0
LINE
8
BLACK
6
CONTINUOUS
10
186.0281300000000044
20
-32.9587250000000012
11
187.9272430000000043
21
-32.9007019999999955
0
LINE
8
BLACK
6
CONTINUOUS
10
186.1105839999999887
20
-35.6574659999999994
11
186.1151639999999929
21
-35.8073959999999971
0
LINE
8
BLACK
6
CONTINUOUS
10
187.9272430000000043
20
-32.9007019999999955
11
188.0096969999999885
21
-35.5994430000000008
0
LINE
8
BLACK
6
CONTINUOUS
10
188.0096969999999885
20
-35.5994430000000008
11
186.1105839999999887
21
-35.6574659999999994
0
ARC
8
BLACK
10
176.1647299999999916
20
-31.0333039999999976
40
0.8000000719812468
50
-223.25012194
51
-178.25012989
0
ARC
8
BLACK
10
176.248755999999986
20
-33.7834949999999949
40
0.799998308163836
50
-178.25041405
51
-133.25037040
0
ARC
8
BLACK
10
176.8180869999999913
20
-30.3387639999999976
40
0.799998308163836
50
91.74965754
51
136.74962960
0
ARC
8
BLACK
10
176.9432949999999778
20
-34.4368520000000018
40
0.8000000719812468
50
-133.25017102
51
-88.25012989
0
ARC
8
BLACK
10
177.1618540000000053
20
-35.4806639999999973
40
0.2692308567939418
50
-66.46303794
51
69.96316617
0
ARC
8
BLACK
10
179.5682809999999847
20
-30.2547379999999997
40
0.800000133056239
50
46.74998239
51
91.75001328
0
ARC
8
BLACK
10
180.2626899999999921
20
-30.9081969999999977
40
0.8001601876155799
50
1.75102546
51
46.75099784
0
ARC
8
BLACK
10
178.3875139999999817
20
-38.2945470000000014
40
2.7999995578606791
50
-246.46322960
51
13.95387826
0
ARC
8
BLACK
10
181.4219959999999787
20
-37.5671689999999998
40
0.3213750487452317
50
-272.79230279
51
-170.65509206
0
ARC
8
BLACK
10
181.5111499999999864
20
-35.746266999999996
40
1.5017004160617389
50
-92.80528379
51
-88.24998847
0
ARC
8
BLACK
10
181.7642639999999972
20
-30.9335129999999978
40
0.7044795003660503
50
-171.76328662
51
-88.24753913
0
ARC
8
BLACK
10
184.7241549999999961
20
-32.8484949999999998
40
1.2999993301725197
50
1.74999659
51
91.74999794
0
ARC
8
BLACK
10
184.8157709999999838
20
-35.8470960000000005
40
1.2999993301725197
50
-88.25000341
51
1.74999794
0
LINE
8
BLACK
6
CONTINUOUS
10
153.2705959999999834
20
-32.8912449999999978
11
155.1597500000000025
21
-32.6885189999999994
0
LINE
8
BLACK
6
CONTINUOUS
10
153.5586810000000071
20
-35.5758319999999983
11
153.2705959999999834
21
-32.8912449999999978
0
LINE
8
BLACK
6
CONTINUOUS
10
155.1597500000000025
20
-32.6885189999999994
11
155.1570040000000006
21
-32.6629269999999963
0
LINE
8
BLACK
6
CONTINUOUS
10
155.4478340000000003
20
-35.3731059999999999
11
153.5586810000000071
21
-35.5758319999999983
0
LINE
8
BLACK
6
CONTINUOUS
10
155.4505809999999997
20
-35.398697999999996
11
155.4478340000000003
21
-35.3731059999999999
0
LINE
8
BLACK
6
CONTINUOUS
10
155.3296210000000031
20
-32.0754769999999994
11
155.9280990000000031
21
-31.3331129999999973
0
LINE
8
BLACK
6
CONTINUOUS
10
156.4862760000000037
20
-36.5346249999999984
11
155.7439119999999946
21
-35.9361479999999958
0
LINE
8
BLACK
6
CONTINUOUS
10
156.4655479999999841
20
-31.0397819999999989
11
159.2013199999999813
21
-30.7462039999999988
0
LINE
8
BLACK
6
CONTINUOUS
10
157.3585999999999956
20
-36.676673000000001
11
157.0737259999999935
21
-36.7072429999999983
0
LINE
8
BLACK
6
CONTINUOUS
10
159.7887699999999995
20
-30.9188219999999987
11
160.5311010000000067
21
-31.5172729999999994
0
LINE
8
BLACK
6
CONTINUOUS
10
160.823742999999979
20
-32.048015999999997
11
160.8405599999999822
21
-32.204734000000002
0
LINE
8
BLACK
6
CONTINUOUS
10
161.6032390000000021
20
-32.7513709999999989
11
164.4866839999999968
21
-32.441946999999999
0
LINE
8
BLACK
6
CONTINUOUS
10
165.0841929999999991
20
-38.0099799999999988
11
161.8030310000000043
21
-38.3620829999999984
0
LINE
8
BLACK
6
CONTINUOUS
10
165.9179699999999968
20
-33.5958189999999988
11
165.9339750000000038
21
-33.7449629999999985
0
LINE
8
BLACK
6
CONTINUOUS
10
165.9339750000000038
20
-33.7449629999999985
11
167.8231289999999944
21
-33.5422370000000001
0
LINE
8
BLACK
6
CONTINUOUS
10
166.222059999999999
20
-36.429549999999999
11
166.2380639999999801
21
-36.5786930000000012
0
LINE
8
BLACK
6
CONTINUOUS
10
167.8231289999999944
20
-33.5422370000000001
11
168.1112129999999922
21
-36.2268240000000006
0
LINE
8
BLACK
6
CONTINUOUS
10
168.1112129999999922
20
-36.2268240000000006
11
166.222059999999999
21
-36.429549999999999
0
ARC
8
BLACK
10
155.9524370000000033
20
-32.5775709999999989
40
0.7999995651405069
50
-218.87520062
51
-173.87516509
0
ARC
8
BLACK
10
156.2460140000000024
20
-35.3133380000000017
40
0.7999991965645966
50
-173.87537873
51
-128.87534628
0
ARC
8
BLACK
10
156.5509089999999901
20
-31.835214999999998
40
0.7999991965645966
50
96.12469248
51
141.12465372
0
ARC
8
BLACK
10
156.9883700000000033
20
-35.9118099999999956
40
0.7999995651405069
50
-128.87514486
51
-83.87516509
0
ARC
8
BLACK
10
157.285917999999981
20
-36.9359079999999977
40
0.2692312358345517
50
-62.08803651
51
74.33803920
0
ARC
8
BLACK
10
159.2866789999999924
20
-31.541637999999999
40
0.8000008795226415
50
51.12505655
51
96.12504090
0
ARC
8
BLACK
10
160.0289129999999886
20
-32.1402199999999993
40
0.8001598291297807
50
6.12598493
51
51.12601658
0
ARC
8
BLACK
10
158.722660999999988
20
-39.6480929999999958
40
2.7999992793159785
50
-242.08822074
51
18.32889071
0
ARC
8
BLACK
10
161.6928139999999985
20
-38.6913519999999949
40
0.3213757609403671
50
-268.41717642
51
-166.28018800
0
ARC
8
BLACK
10
161.642801999999989
20
-36.8689549999999997
40
1.5017005549792541
50
-88.43030246
51
-83.87497430
0
ARC
8
BLACK
10
161.5280429999999967
20
-32.0509160000000008
40
0.7044796983881082
50
-167.38830512
51
-83.87258865
0
ARC
8
BLACK
10
164.6253920000000051
20
-33.7345259999999953
40
1.3000001463480686
50
6.12499122
51
96.12503034
0
ARC
8
BLACK
10
164.9454849999999908
20
-36.7174009999999953
40
1.3000001463480686
50
-83.87496966
51
6.12503034
0
LINE
8
BLACK
6
CONTINUOUS
10
133.266746999999981
20
-36.1765539999999959
11
135.1349309999999946
21
-35.8303069999999977
0
LINE
8
BLACK
6
CONTINUOUS
10
133.758782999999994
20
-38.8313419999999994
11
133.266746999999981
21
-36.1765539999999959
0
LINE
8
BLACK
6
CONTINUOUS
10
135.1349309999999946
20
-35.8303069999999977
11
135.1302399999999864
21
-35.8049989999999951
0
LINE
8
BLACK
6
CONTINUOUS
10
135.6269670000000076
20
-38.4850950000000012
11
133.758782999999994
21
-38.8313419999999994
0
LINE
8
BLACK
6
CONTINUOUS
10
135.6316569999999899
20
-38.5104029999999966
11
135.6269670000000076
21
-38.4850950000000012
0
LINE
8
BLACK
6
CONTINUOUS
10
135.2575420000000008
20
-35.2060919999999982
11
135.7976449999999886
21
-34.4202370000000002
0
LINE
8
BLACK
6
CONTINUOUS
10
136.7509880000000067
20
-39.5640129999999957
11
135.9651329999999803
21
-39.0239100000000008
0
LINE
8
BLACK
6
CONTINUOUS
10
136.3111519999999928
20
-34.0867620000000002
11
139.0165570000000059
21
-33.5853439999999992
0
LINE
8
BLACK
6
CONTINUOUS
10
137.631606000000005
20
-39.6391020000000012
11
137.3498940000000061
21
-39.6913149999999959
0
LINE
8
BLACK
6
CONTINUOUS
10
139.6154630000000054
20
-33.7126459999999994
11
140.4012830000000065
21
-34.2527249999999981
0
LINE
8
BLACK
6
CONTINUOUS
10
140.7335589999999854
20
-34.7595979999999969
11
140.7622829999999965
21
-34.9145759999999967
0
LINE
8
BLACK
6
CONTINUOUS
10
141.564438999999993
20
-35.4014400000000009
11
144.4158779999999922
21
-34.8729569999999995
0
LINE
8
BLACK
6
CONTINUOUS
10
145.4363969999999995
20
-40.3791849999999997
11
142.1916559999999947
21
-40.980561999999999
0
LINE
8
BLACK
6
CONTINUOUS
10
145.9310159999999996
20
-35.9142829999999975
11
145.9583509999999933
21
-36.0617710000000002
0
LINE
8
BLACK
6
CONTINUOUS
10
145.9583509999999933
20
-36.0617710000000002
11
147.8265350000000069
21
-35.7155229999999975
0
LINE
8
BLACK
6
CONTINUOUS
10
146.4503870000000063
20
-38.7165589999999966
11
146.477722
21
-38.8640469999999993
0
LINE
8
BLACK
6
CONTINUOUS
10
147.8265350000000069
20
-35.7155229999999975
11
148.3185709999999915
21
-38.3703119999999984
0
LINE
8
BLACK
6
CONTINUOUS
10
148.3185709999999915
20
-38.3703119999999984
11
146.4503870000000063
21
-38.7165589999999966
0
ARC
8
BLACK
10
135.916844999999995
20
-35.6592119999999966
40
0.8000007971208528
50
-214.50015724
51
-169.50011404
0
ARC
8
BLACK
10
136.4182610000000011
20
-38.3646129999999985
40
0.7999984491191218
50
-169.50038267
51
-124.50033796
0
ARC
8
BLACK
10
136.456941999999998
20
-34.8733649999999997
40
0.7999984491191218
50
100.49961733
51
145.49966204
0
ARC
8
BLACK
10
137.2041079999999909
20
-38.9047100000000015
40
0.8000006148878887
50
-124.50015724
51
-79.50018446
0
ARC
8
BLACK
10
137.5789110000000051
20
-39.9031260000000003
40
0.2692311935883359
50
-57.71300114
51
78.71298058
0
ARC
8
BLACK
10
139.1623459999999852
20
-34.3719479999999962
40
0.800000178335605
50
55.50001983
51
100.50003985
0
ARC
8
BLACK
10
139.9480800000000045
20
-34.9121659999999991
40
0.8001596038853748
50
10.50107081
51
55.50107653
0
ARC
8
BLACK
10
139.2183639999999798
20
-42.4978079999999991
40
2.7999996260772964
50
-237.71322473
51
22.70388673
0
ARC
8
BLACK
10
142.1068779999999947
20
-41.3172799999999967
40
0.3213749760280038
50
-264.04227216
51
-161.90518236
0
ARC
8
BLACK
10
141.9179929999999956
20
-39.5040079999999989
40
1.5017000873959487
50
-84.05529369
51
-79.50000406
0
ARC
8
BLACK
10
141.4360279999999932
20
-34.7087629999999976
40
0.7044791063260853
50
-163.01334014
51
-79.49752845
0
ARC
8
BLACK
10
144.6527839999999969
20
-36.1511889999999951
40
1.3000005764075646
50
10.49998708
51
100.49998708
0
ARC
8
BLACK
10
145.1994909999999948
20
-39.1009540000000015
40
1.2999997753884422
50
-79.50000489
51
10.50003845
0
LINE
8
BLACK
6
CONTINUOUS
10
114.5849029999999971
20
-39.6390290000000007
11
116.4530869999999965
21
-39.2927819999999954
0
LINE
8
BLACK
6
CONTINUOUS
10
115.0769389999999959
20
-42.2938169999999971
11
114.5849029999999971
21
-39.6390290000000007
0
LINE
8
BLACK
6
CONTINUOUS
10
116.4530869999999965
20
-39.2927819999999954
11
116.4483959999999882
21
-39.267474
0
LINE
8
BLACK
6
CONTINUOUS
10
116.9451229999999953
20
-41.9475699999999989
11
115.0769389999999959
21
-42.2938169999999971
0
LINE
8
BLACK
6
CONTINUOUS
10
116.9498129999999918
20
-41.9728780000000015
11
116.9451229999999953
21
-41.9475699999999989
0
LINE
8
BLACK
6
CONTINUOUS
10
116.5756979999999885
20
-38.6685669999999959
11
117.1158009999999905
21
-37.8827119999999979
0
LINE
8
BLACK
6
CONTINUOUS
10
118.0691439999999943
20
-43.0264880000000005
11
117.2832889999999963
21
-42.4863849999999985
0
LINE
8
BLACK
6
CONTINUOUS
10
117.6293079999999946
20
-37.549236999999998
11
120.3347129999999936
21
-37.0478189999999969
0
LINE
8
BLACK
6
CONTINUOUS
10
118.9497619999999927
20
-43.1015769999999989
11
118.6680499999999938
21
-43.1537900000000008
0
LINE
8
BLACK
6
CONTINUOUS
10
120.9336189999999931
20
-37.1751209999999972
11
121.7194389999999942
21
-37.7151999999999958
0
LINE
8
BLACK
6
CONTINUOUS
10
122.0517150000000015
20
-38.2220730000000017
11
122.0804389999999984
21
-38.3770510000000016
0
LINE
8
BLACK
6
CONTINUOUS
10
122.8825949999999949
20
-38.8639149999999987
11
125.7340339999999941
21
-38.3354319999999973
0
LINE
8
BLACK
6
CONTINUOUS
10
126.7545530000000014
20
-43.8416599999999974
11
123.5098119999999966
21
-44.4430369999999968
0
LINE
8
BLACK
6
CONTINUOUS
10
127.2491719999999873
20
-39.3767579999999953
11
127.2765069999999952
21
-39.524245999999998
0
LINE
8
BLACK
6
CONTINUOUS
10
127.2765069999999952
20
-39.524245999999998
11
129.1446909999999946
21
-39.1779979999999952
0
LINE
8
BLACK
6
CONTINUOUS
10
127.768542999999994
20
-42.1790340000000015
11
127.7958779999999877
21
-42.3265219999999971
0
LINE
8
BLACK
6
CONTINUOUS
10
129.1446909999999946
20
-39.1779979999999952
11
129.6367270000000076
21
-41.8327869999999962
0
LINE
8
BLACK
6
CONTINUOUS
10
129.6367270000000076
20
-41.8327869999999962
11
127.768542999999994
21
-42.1790340000000015
0
ARC
8
BLACK
10
117.2350009999999969
20
-39.1216870000000014
40
0.8000007971208528
50
-214.50015724
51
-169.50011404
0
ARC
8
BLACK
10
117.7364169999999888
20
-41.8270879999999963
40
0.7999984491191218
50
-169.50038267
51
-124.50033796
0
ARC
8
BLACK
10
117.7750979999999998
20
-38.3358399999999975
40
0.7999984491191218
50
100.49961733
51
145.49966204
0
ARC
8
BLACK
10
118.5222639999999927
20
-42.3671849999999992
40
0.8000006148878887
50
-124.50015724
51
-79.50018446
0
ARC
8
BLACK
10
118.8970669999999927
20
-43.3656009999999981
40
0.2692311935883359
50
-57.71300114
51
78.71298058
0
ARC
8
BLACK
10
120.4805020000000013
20
-37.834423000000001
40
0.800000178335605
50
55.50001983
51
100.50003985
0
ARC
8
BLACK
10
121.2662359999999921
20
-38.3746409999999969
40
0.8001596038853748
50
10.50107081
51
55.50107653
0
ARC
8
BLACK
10
120.5365199999999959
20
-45.9602829999999969
40
2.7999996260772964
50
-237.71322473
51
22.70388673
0
ARC
8
BLACK
10
123.4250339999999966
20
-44.7797549999999944
40
0.3213749760280038
50
-264.04227216
51
-161.90518236
0
ARC
8
BLACK
10
123.2361489999999975
20
-42.9664829999999967
40
1.5017000873959487
50
-84.05529369
51
-79.50000406
0
ARC
8
BLACK
10
122.7541839999999951
20
-38.1712379999999953
40
0.7044791063260853
50
-163.01334014
51
-79.49752845
0
ARC
8
BLACK
10
125.9709399999999988
20
-39.613664
40
1.3000005764075646
50
10.49998708
51
100.49998708
0
ARC
8
BLACK
10
126.5176469999999966
20
-42.5634289999999993
40
1.2999997753884422
50
-79.50000489
51
10.50003845
0
LINE
8
BLACK
6
CONTINUOUS
10
29.4188249999999982
20
-52.8799119999999974
11
31.2870099999999987
21
-53.2261600000000001
0
LINE
8
BLACK
6
CONTINUOUS
10
28.9267889999999994
20
-55.5347000000000008
11
29.4188249999999982
21
-52.8799119999999974
0
LINE
8
BLACK
6
CONTINUOUS
10
31.2870099999999987
20
-53.2261600000000001
11
31.2916999999999987
21
-53.2008519999999976
0
LINE
8
BLACK
6
CONTINUOUS
10
30.7949739999999998
20
-55.8809479999999965
11
28.9267889999999994
21
-55.5347000000000008
0
LINE
8
BLACK
6
CONTINUOUS
10
30.7902829999999987
20
-55.9062559999999991
11
30.7949739999999998
21
-55.8809479999999965
0
LINE
8
BLACK
6
CONTINUOUS
10
31.6251749999999987
20
-52.6873450000000005
11
32.4110310000000013
21
-52.1472419999999985
0
LINE
8
BLACK
6
CONTINUOUS
10
31.4576879999999974
20
-57.291017999999994
11
30.917584999999999
21
-56.505162999999996
0
LINE
8
BLACK
6
CONTINUOUS
10
33.0099370000000008
20
-52.0199399999999983
11
35.7153419999999997
21
-52.5213569999999947
0
LINE
8
BLACK
6
CONTINUOUS
10
32.2529059999999959
20
-57.6767049999999983
11
31.971194999999998
21
-57.624492999999994
0
LINE
8
BLACK
6
CONTINUOUS
10
36.2288479999999993
20
-52.8548319999999947
11
36.7689269999999979
21
-53.6406530000000004
0
LINE
8
BLACK
6
CONTINUOUS
10
36.8974869999999981
20
-54.2329359999999951
11
36.8687639999999988
21
-54.387913999999995
0
LINE
8
BLACK
6
CONTINUOUS
10
37.4431639999999959
20
-55.1299080000000004
11
40.2946039999999996
21
-55.6583909999999946
0
LINE
8
BLACK
6
CONTINUOUS
10
39.2740849999999995
20
-61.1646189999999947
11
36.0293429999999972
21
-60.5632419999999954
0
LINE
8
BLACK
6
CONTINUOUS
10
41.3359290000000001
20
-57.1735289999999949
11
41.3085929999999948
21
-57.3210169999999977
0
LINE
8
BLACK
6
CONTINUOUS
10
41.3085929999999948
20
-57.3210169999999977
11
43.1767779999999988
21
-57.6672650000000004
0
LINE
8
BLACK
6
CONTINUOUS
10
40.8165580000000006
20
-59.975804999999994
11
40.7892219999999952
21
-60.1232939999999942
0
LINE
8
BLACK
6
CONTINUOUS
10
43.1767779999999988
20
-57.6672650000000004
11
42.684742
21
-60.3220529999999968
0
LINE
8
BLACK
6
CONTINUOUS
10
42.684742
20
-60.3220529999999968
11
40.8165580000000006
21
-59.975804999999994
0
ARC
8
BLACK
10
32.0783039999999957
20
-53.3466419999999957
40
0.8000003605724187
50
124.49989904
51
169.49988973
0
ARC
8
BLACK
10
31.5768869999999993
20
-56.0520420000000001
40
0.7999986049019085
50
-190.50034764
51
-145.50027804
0
ARC
8
BLACK
10
32.8641509999999997
20
-52.8065439999999953
40
0.7999980385000953
50
79.49965236
51
124.49966294
0
ARC
8
BLACK
10
32.1169849999999997
20
-56.837888999999997
40
0.8000003605724187
50
-145.50010096
51
-100.50011027
0
ARC
8
BLACK
10
32.1090939999999989
20
-57.9043089999999978
40
0.269231261483506
50
-78.71318927
51
57.71318105
0
ARC
8
BLACK
10
35.5695539999999966
20
-53.3079609999999988
40
0.7999999960999999
50
34.49993960
51
79.50003057
0
ARC
8
BLACK
10
36.1095029999999966
20
-54.0938789999999941
40
0.8001586210571001
50
-10.49902114
51
34.50097023
0
ARC
8
BLACK
10
32.7098039999999983
20
-60.9141799999999947
40
2.8000000227980357
50
-258.71321097
51
1.70387973
0
ARC
8
BLACK
10
35.8295279999999963
20
-60.8472129999999964
40
0.3213750214126792
50
74.95772546
51
177.09487798
0
ARC
8
BLACK
10
36.3030070000000009
20
-59.0866879999999952
40
1.5017002696317263
50
-105.05533271
51
-100.50003346
0
ARC
8
BLACK
10
37.5715159999999955
20
-54.4372189999999989
40
0.7044801534642405
50
-184.01328895
51
-100.49757553
0
ARC
8
BLACK
10
40.0576969999999974
20
-56.9366229999999973
40
1.3000007586432401
50
-10.49998708
51
79.49996958
0
ARC
8
BLACK
10
39.5109909999999971
20
-59.8863869999999991
40
1.2999997753884422
50
-100.49998708
51
-10.50003845
0
LINE
8
BLACK
6
CONTINUOUS
10
52.2795009999999962
20
-57.1168879999999959
11
54.1476860000000002
21
-57.4631359999999987
0
LINE
8
BLACK
6
CONTINUOUS
10
51.7874649999999974
20
-59.7716759999999994
11
52.2795009999999962
21
-57.1168879999999959
0
LINE
8
BLACK
6
CONTINUOUS
10
54.1476860000000002
20
-57.4631359999999987
11
54.1523759999999967
21
-57.4378279999999961
0
LINE
8
BLACK
6
CONTINUOUS
10
53.6556499999999943
20
-60.117923999999995
11
51.7874649999999974
21
-59.7716759999999994
0
LINE
8
BLACK
6
CONTINUOUS
10
53.6509590000000003
20
-60.1432319999999976
11
53.6556499999999943
21
-60.117923999999995
0
LINE
8
BLACK
6
CONTINUOUS
10
54.4858509999999967
20
-56.9243209999999991
11
55.2717069999999993
21
-56.3842179999999971
0
LINE
8
BLACK
6
CONTINUOUS
10
54.3183639999999954
20
-61.5279939999999996
11
53.7782610000000005
21
-60.7421389999999946
0
LINE
8
BLACK
6
CONTINUOUS
10
55.8706129999999987
20
-56.2569159999999968
11
58.5760179999999977
21
-56.7583330000000004
0
LINE
8
BLACK
6
CONTINUOUS
10
55.113582000000001
20
-61.9136809999999969
11
54.8318709999999996
21
-61.8614689999999996
0
LINE
8
BLACK
6
CONTINUOUS
10
59.0895239999999973
20
-57.0918080000000003
11
59.6296029999999959
21
-57.8776289999999989
0
LINE
8
BLACK
6
CONTINUOUS
10
59.7581629999999961
20
-58.4699120000000008
11
59.7294399999999968
21
-58.6248900000000006
0
LINE
8
BLACK
6
CONTINUOUS
10
60.3038399999999939
20
-59.3668839999999989
11
63.1552799999999976
21
-59.8953670000000002
0
LINE
8
BLACK
6
CONTINUOUS
10
62.1347609999999975
20
-65.4015950000000004
11
58.8900189999999952
21
-64.800218000000001
0
LINE
8
BLACK
6
CONTINUOUS
10
64.196604999999991
20
-61.4105050000000006
11
64.1692689999999999
21
-61.5579929999999962
0
LINE
8
BLACK
6
CONTINUOUS
10
64.1692689999999999
20
-61.5579929999999962
11
66.0374539999999968
21
-61.904240999999999
0
LINE
8
BLACK
6
CONTINUOUS
10
63.6772339999999986
20
-64.2127809999999926
11
63.6498980000000003
21
-64.3602699999999999
0
LINE
8
BLACK
6
CONTINUOUS
10
66.0374539999999968
20
-61.904240999999999
11
65.545417999999998
21
-64.5590289999999953
0
LINE
8
BLACK
6
CONTINUOUS
10
65.545417999999998
20
-64.5590289999999953
11
63.6772339999999986
21
-64.2127809999999926
0
ARC
8
BLACK
10
54.9389800000000008
20
-57.5836179999999942
40
0.8000003605724187
50
124.49989904
51
169.49988973
0
ARC
8
BLACK
10
54.4375629999999973
20
-60.2890179999999987
40
0.7999986049019085
50
-190.50034764
51
-145.50027804
0
ARC
8
BLACK
10
55.7248269999999977
20
-57.0435200000000009
40
0.7999980385000953
50
79.49965236
51
124.49966294
0
ARC
8
BLACK
10
54.9776609999999977
20
-61.0748649999999955
40
0.8000003605724187
50
-145.50010096
51
-100.50011027
0
ARC
8
BLACK
10
54.9697699999999969
20
-62.1412849999999963
40
0.269231261483506
50
-78.71318927
51
57.71318105
0
ARC
8
BLACK
10
58.4302299999999946
20
-57.5449369999999973
40
0.7999999960999999
50
34.49993960
51
79.50003057
0
ARC
8
BLACK
10
58.9701789999999946
20
-58.3308549999999997
40
0.8001586210571001
50
-10.49902114
51
34.50097023
0
ARC
8
BLACK
10
55.5704799999999963
20
-65.1511560000000003
40
2.8000000227980357
50
-258.71321097
51
1.70387973
0
ARC
8
BLACK
10
58.6902039999999943
20
-65.084188999999995
40
0.3213750214126792
50
74.95772546
51
177.09487798
0
ARC
8
BLACK
10
59.1636829999999989
20
-63.3236639999999937
40
1.5017002696317263
50
-105.05533271
51
-100.50003346
0
ARC
8
BLACK
10
60.4321920000000006
20
-58.6741949999999974
40
0.7044801534642405
50
-184.01328895
51
-100.49757553
0
ARC
8
BLACK
10
62.9183729999999954
20
-61.1735989999999958
40
1.3000007586432401
50
-10.49998708
51
79.49996958
0
ARC
8
BLACK
10
62.3716669999999951
20
-64.1233629999999977
40
1.2999997753884422
50
-100.49998708
51
-10.50003845
0
LINE
8
BLACK
6
CONTINUOUS
10
73.29657499999999
20
-61.0121719999999996
11
75.1647600000000011
21
-61.3584199999999953
0
LINE
8
BLACK
6
CONTINUOUS
10
72.8045389999999912
20
-63.666959999999996
11
73.29657499999999
21
-61.0121719999999996
0
LINE
8
BLACK
6
CONTINUOUS
10
75.1647600000000011
20
-61.3584199999999953
11
75.1694499999999977
21
-61.3331119999999999
0
LINE
8
BLACK
6
CONTINUOUS
10
74.6727240000000023
20
-64.0132079999999917
11
72.8045389999999912
21
-63.666959999999996
0
LINE
8
BLACK
6
CONTINUOUS
10
74.6680329999999941
20
-64.0385160000000013
11
74.6727240000000023
21
-64.0132079999999917
0
LINE
8
BLACK
6
CONTINUOUS
10
75.5029249999999905
20
-60.8196049999999957
11
76.2887810000000002
21
-60.2795020000000008
0
LINE
8
BLACK
6
CONTINUOUS
10
75.3354379999999964
20
-65.4232779999999963
11
74.7953349999999944
21
-64.6374229999999983
0
LINE
8
BLACK
6
CONTINUOUS
10
76.8876869999999997
20
-60.1522000000000006
11
79.5930919999999986
21
-60.653616999999997
0
LINE
8
BLACK
6
CONTINUOUS
10
76.1306560000000019
20
-65.8089650000000006
11
75.8489450000000005
21
-65.7567530000000033
0
LINE
8
BLACK
6
CONTINUOUS
10
80.1065979999999911
20
-60.987091999999997
11
80.6466769999999968
21
-61.7729129999999955
0
LINE
8
BLACK
6
CONTINUOUS
10
80.77523699999999
20
-62.3651959999999974
11
80.7465139999999906
21
-62.5201739999999972
0
LINE
8
BLACK
6
CONTINUOUS
10
81.3209140000000019
20
-63.2621679999999955
11
84.1723539999999986
21
-63.7906509999999969
0
LINE
8
BLACK
6
CONTINUOUS
10
83.1518349999999913
20
-69.2968789999999899
11
79.9070930000000033
21
-68.6955019999999905
0
LINE
8
BLACK
6
CONTINUOUS
10
85.2136789999999991
20
-65.3057889999999901
11
85.1863429999999937
21
-65.4532769999999999
0
LINE
8
BLACK
6
CONTINUOUS
10
85.1863429999999937
20
-65.4532769999999999
11
87.0545279999999906
21
-65.7995250000000027
0
LINE
8
BLACK
6
CONTINUOUS
10
84.6943079999999924
20
-68.1080649999999963
11
84.6669720000000012
21
-68.2555540000000036
0
LINE
8
BLACK
6
CONTINUOUS
10
87.0545279999999906
20
-65.7995250000000027
11
86.5624919999999918
21
-68.4543129999999991
0
LINE
8
BLACK
6
CONTINUOUS
10
86.5624919999999918
20
-68.4543129999999991
11
84.6943079999999924
21
-68.1080649999999963
0
ARC
8
BLACK
10
75.9560539999999946
20
-61.4789019999999979
40
0.8000003605724187
50
124.49989904
51
169.49988973
0
ARC
8
BLACK
10
75.4546369999999911
20
-64.1843020000000024
40
0.7999986049019085
50
-190.50034764
51
-145.50027804
0
ARC
8
BLACK
10
76.7419009999999986
20
-60.9388039999999975
40
0.7999980385000953
50
79.49965236
51
124.49966294
0
ARC
8
BLACK
10
75.9947349999999915
20
-64.9701489999999922
40
0.8000003605724187
50
-145.50010096
51
-100.50011027
0
ARC
8
BLACK
10
75.9868439999999907
20
-66.0365690000000001
40
0.269231261483506
50
-78.71318927
51
57.71318105
0
ARC
8
BLACK
10
79.4473040000000026
20
-61.440220999999994
40
0.7999999960999999
50
34.49993960
51
79.50003057
0
ARC
8
BLACK
10
79.9872529999999955
20
-62.2261389999999963
40
0.8001586210571001
50
-10.49902114
51
34.50097023
0
ARC
8
BLACK
10
76.5875539999999972
20
-69.0464399999999898
40
2.8000000227980357
50
-258.71321097
51
1.70387973
0
ARC
8
BLACK
10
79.7072780000000023
20
-68.9794729999999987
40
0.3213750214126792
50
74.95772546
51
177.09487798
0
ARC
8
BLACK
10
80.1807569999999998
20
-67.2189479999999975
40
1.5017002696317263
50
-105.05533271
51
-100.50003346
0
ARC
8
BLACK
10
81.4492659999999944
20
-62.5694789999999941
40
0.7044801534642405
50
-184.01328895
51
-100.49757553
0
ARC
8
BLACK
10
83.9354469999999964
20
-65.0688829999999996
40
1.3000007586432401
50
-10.49998708
51
79.49996958
0
ARC
8
BLACK
10
83.388740999999996
20
-68.0186470000000014
40
1.2999997753884422
50
-100.49998708
51
-10.50003845
0
LINE
8
BLACK
6
CONTINUOUS
10
156.6367779999999925
20
-54.5929259999999985
11
158.5049620000000061
21
-54.2466790000000003
0
LINE
8
BLACK
6
CONTINUOUS
10
157.1288140000000055
20
-57.2477139999999949
11
156.6367779999999925
21
-54.5929259999999985
0
LINE
8
BLACK
6
CONTINUOUS
10
158.5049620000000061
20
-54.2466790000000003
11
158.5002709999999979
21
-54.2213709999999978
0
LINE
8
BLACK
6
CONTINUOUS
10
158.9969979999999907
20
-56.9014669999999967
11
157.1288140000000055
21
-57.2477139999999949
0
LINE
8
BLACK
6
CONTINUOUS
10
159.0016880000000015
20
-56.9267749999999992
11
158.9969979999999907
21
-56.9014669999999967
0
LINE
8
BLACK
6
CONTINUOUS
10
158.6275729999999839
20
-53.6224640000000008
11
159.1676760000000002
21
-52.8366089999999957
0
LINE
8
BLACK
6
CONTINUOUS
10
160.1210189999999898
20
-57.9803849999999983
11
159.3351639999999918
21
-57.4402819999999963
0
LINE
8
BLACK
6
CONTINUOUS
10
159.6811830000000043
20
-52.5031339999999958
11
162.3865879999999891
21
-52.0017159999999947
0
LINE
8
BLACK
6
CONTINUOUS
10
161.0016369999999881
20
-58.0554739999999967
11
160.7199249999999893
21
-58.1076869999999985
0
LINE
8
BLACK
6
CONTINUOUS
10
162.9854939999999885
20
-52.129017999999995
11
163.7713139999999896
21
-52.6690970000000007
0
LINE
8
BLACK
6
CONTINUOUS
10
164.103589999999997
20
-53.1759699999999995
11
164.1323139999999796
21
-53.3309479999999994
0
LINE
8
BLACK
6
CONTINUOUS
10
164.9344700000000046
20
-53.8178119999999964
11
167.7859090000000037
21
-53.2893289999999951
0
LINE
8
BLACK
6
CONTINUOUS
10
168.8064279999999826
20
-58.7955569999999952
11
165.5616870000000063
21
-59.3969339999999946
0
LINE
8
BLACK
6
CONTINUOUS
10
169.3010469999999827
20
-54.3306550000000001
11
169.3283820000000048
21
-54.4781429999999958
0
LINE
8
BLACK
6
CONTINUOUS
10
169.3283820000000048
20
-54.4781429999999958
11
171.19656599999999
21
-54.1318950000000001
0
LINE
8
BLACK
6
CONTINUOUS
10
169.8204179999999894
20
-57.1329309999999992
11
169.8477529999999831
21
-57.2804189999999949
0
LINE
8
BLACK
6
CONTINUOUS
10
171.19656599999999
20
-54.1318950000000001
11
171.688602000000003
21
-56.7866839999999939
0
LINE
8
BLACK
6
CONTINUOUS
10
171.688602000000003
20
-56.7866839999999939
11
169.8204179999999894
21
-57.1329309999999992
0
ARC
8
BLACK
10
159.2868760000000066
20
-54.0755839999999992
40
0.8000007971208528
50
-214.50015724
51
-169.50011404
0
ARC
8
BLACK
10
159.7882919999999842
20
-56.780984999999994
40
0.7999984491191218
50
-169.50038267
51
-124.50033796
0
ARC
8
BLACK
10
159.8269729999999811
20
-53.2897369999999952
40
0.7999984491191218
50
100.49961733
51
145.49966204
0
ARC
8
BLACK
10
160.5741390000000024
20
-57.321081999999997
40
0.8000006148878887
50
-124.50015724
51
-79.50018446
0
ARC
8
BLACK
10
160.9489419999999882
20
-58.3194979999999958
40
0.2692311935883359
50
-57.71300114
51
78.71298058
0
ARC
8
BLACK
10
162.5323769999999968
20
-52.7883199999999988
40
0.800000178335605
50
55.50001983
51
100.50003985
0
ARC
8
BLACK
10
163.3181109999999876
20
-53.3285379999999947
40
0.8001596038853748
50
10.50107081
51
55.50107653
0
ARC
8
BLACK
10
162.5883949999999913
20
-60.9141799999999947
40
2.7999996260772964
50
-237.71322473
51
22.70388673
0
ARC
8
BLACK
10
165.4769090000000062
20
-59.7336519999999993
40
0.3213749760280038
50
-264.04227216
51
-161.90518236
0
ARC
8
BLACK
10
165.2880239999999787
20
-57.9203799999999944
40
1.5017000873959487
50
-84.05529369
51
-79.50000406
0
ARC
8
BLACK
10
164.8060590000000047
20
-53.1251350000000002
40
0.7044791063260853
50
-163.01334014
51
-79.49752845
0
ARC
8
BLACK
10
168.02281499999998
20
-54.5675609999999978
40
1.3000005764075646
50
10.49998708
51
100.49998708
0
ARC
8
BLACK
10
168.5695220000000063
20
-57.5173259999999971
40
1.2999997753884422
50
-79.50000489
51
10.50003845
0
LINE
8
BLACK
6
CONTINUOUS
10
133.7761019999999803
20
-58.829901999999997
11
135.6442859999999939
21
-58.4836549999999988
0
LINE
8
BLACK
6
CONTINUOUS
10
134.2681379999999933
20
-61.4846900000000005
11
133.7761019999999803
21
-58.829901999999997
0
LINE
8
BLACK
6
CONTINUOUS
10
135.6442859999999939
20
-58.4836549999999988
11
135.6395949999999857
21
-58.4583469999999963
0
LINE
8
BLACK
6
CONTINUOUS
10
136.1363220000000069
20
-61.1384429999999952
11
134.2681379999999933
21
-61.4846900000000005
0
LINE
8
BLACK
6
CONTINUOUS
10
136.1410119999999893
20
-61.1637509999999978
11
136.1363220000000069
21
-61.1384429999999952
0
LINE
8
BLACK
6
CONTINUOUS
10
135.7668970000000002
20
-57.8594399999999993
11
136.3069999999999879
21
-57.0735849999999942
0
LINE
8
BLACK
6
CONTINUOUS
10
137.260343000000006
20
-62.2173609999999968
11
136.474488000000008
21
-61.6772579999999948
0
LINE
8
BLACK
6
CONTINUOUS
10
136.8205069999999921
20
-56.7401099999999943
11
139.5259120000000053
21
-56.2386920000000003
0
LINE
8
BLACK
6
CONTINUOUS
10
138.1409610000000043
20
-62.2924499999999952
11
137.8592490000000055
21
-62.3446629999999971
0
LINE
8
BLACK
6
CONTINUOUS
10
140.1248180000000048
20
-56.3659940000000006
11
140.9106380000000058
21
-56.9060729999999992
0
LINE
8
BLACK
6
CONTINUOUS
10
141.2429139999999848
20
-57.412945999999998
11
141.2716379999999958
21
-57.5679239999999979
0
LINE
8
BLACK
6
CONTINUOUS
10
142.0737939999999924
20
-58.054787999999995
11
144.9252329999999915
21
-57.5263050000000007
0
LINE
8
BLACK
6
CONTINUOUS
10
145.9457519999999988
20
-63.0325329999999937
11
142.7010109999999941
21
-63.6339100000000002
0
LINE
8
BLACK
6
CONTINUOUS
10
146.440370999999999
20
-58.5676309999999987
11
146.4677059999999926
21
-58.7151189999999943
0
LINE
8
BLACK
6
CONTINUOUS
10
146.4677059999999926
20
-58.7151189999999943
11
148.3358900000000062
21
-58.3688709999999986
0
LINE
8
BLACK
6
CONTINUOUS
10
146.9597420000000056
20
-61.3699069999999978
11
146.9870769999999993
21
-61.5173950000000005
0
LINE
8
BLACK
6
CONTINUOUS
10
148.3358900000000062
20
-58.3688709999999986
11
148.8279259999999908
21
-61.0236599999999996
0
LINE
8
BLACK
6
CONTINUOUS
10
148.8279259999999908
20
-61.0236599999999996
11
146.9597420000000056
21
-61.3699069999999978
0
ARC
8
BLACK
10
136.4261999999999944
20
-58.3125599999999977
40
0.8000007971208528
50
-214.50015724
51
-169.50011404
0
ARC
8
BLACK
10
136.9276160000000004
20
-61.0179609999999997
40
0.7999984491191218
50
-169.50038267
51
-124.50033796
0
ARC
8
BLACK
10
136.9662969999999973
20
-57.5267130000000009
40
0.7999984491191218
50
100.49961733
51
145.49966204
0
ARC
8
BLACK
10
137.7134629999999902
20
-61.5580579999999955
40
0.8000006148878887
50
-124.50015724
51
-79.50018446
0
ARC
8
BLACK
10
138.0882660000000044
20
-62.5564739999999944
40
0.2692311935883359
50
-57.71300114
51
78.71298058
0
ARC
8
BLACK
10
139.6717009999999846
20
-57.0252959999999973
40
0.800000178335605
50
55.50001983
51
100.50003985
0
ARC
8
BLACK
10
140.4574350000000038
20
-57.5655140000000003
40
0.8001596038853748
50
10.50107081
51
55.50107653
0
ARC
8
BLACK
10
139.7277190000000076
20
-65.1511560000000003
40
2.7999996260772964
50
-237.71322473
51
22.70388673
0
ARC
8
BLACK
10
142.616232999999994
20
-63.9706279999999978
40
0.3213749760280038
50
-264.04227216
51
-161.90518236
0
ARC
8
BLACK
10
142.427347999999995
20
-62.1573560000000001
40
1.5017000873959487
50
-84.05529369
51
-79.50000406
0
ARC
8
BLACK
10
141.9453829999999925
20
-57.3621109999999987
40
0.7044791063260853
50
-163.01334014
51
-79.49752845
0
ARC
8
BLACK
10
145.1621389999999963
20
-58.8045369999999963
40
1.3000005764075646
50
10.49998708
51
100.49998708
0
ARC
8
BLACK
10
145.7088459999999941
20
-61.7543019999999956
40
1.2999997753884422
50
-79.50000489
51
10.50003845
0
LINE
8
BLACK
6
CONTINUOUS
10
112.7590280000000007
20
-62.7251859999999937
11
114.6272120000000001
21
-62.3789389999999955
0
LINE
8
BLACK
6
CONTINUOUS
10
113.2510639999999995
20
-65.37997399999999
11
112.7590280000000007
21
-62.7251859999999937
0
LINE
8
BLACK
6
CONTINUOUS
10
114.6272120000000001
20
-62.3789389999999955
11
114.6225209999999919
21
-62.353631
0
LINE
8
BLACK
6
CONTINUOUS
10
115.1192479999999989
20
-65.033726999999999
11
113.2510639999999995
21
-65.37997399999999
0
LINE
8
BLACK
6
CONTINUOUS
10
115.1239379999999954
20
-65.0590349999999944
11
115.1192479999999989
21
-65.033726999999999
0
LINE
8
BLACK
6
CONTINUOUS
10
114.7498229999999921
20
-61.754723999999996
11
115.2899259999999941
21
-60.968868999999998
0
LINE
8
BLACK
6
CONTINUOUS
10
116.243268999999998
20
-66.1126450000000006
11
115.457414
21
-65.5725419999999986
0
LINE
8
BLACK
6
CONTINUOUS
10
115.8034329999999983
20
-60.635393999999998
11
118.5088379999999972
21
-60.133975999999997
0
LINE
8
BLACK
6
CONTINUOUS
10
117.1238869999999963
20
-66.1877339999999919
11
116.8421749999999975
21
-66.2399470000000008
0
LINE
8
BLACK
6
CONTINUOUS
10
119.1077439999999967
20
-60.2612779999999972
11
119.8935639999999978
21
-60.8013569999999959
0
LINE
8
BLACK
6
CONTINUOUS
10
120.2258399999999909
20
-61.3082299999999947
11
120.2545639999999878
21
-61.4632079999999945
0
LINE
8
BLACK
6
CONTINUOUS
10
121.0567199999999985
20
-61.9500719999999987
11
123.9081589999999977
21
-61.4215889999999973
0
LINE
8
BLACK
6
CONTINUOUS
10
124.9286779999999908
20
-66.9278169999999903
11
121.6839370000000002
21
-67.5291940000000039
0
LINE
8
BLACK
6
CONTINUOUS
10
125.4232969999999909
20
-62.4629149999999953
11
125.4506319999999988
21
-62.610402999999998
0
LINE
8
BLACK
6
CONTINUOUS
10
125.4506319999999988
20
-62.610402999999998
11
127.3188159999999982
21
-62.2641549999999953
0
LINE
8
BLACK
6
CONTINUOUS
10
125.9426679999999976
20
-65.2651910000000015
11
125.9700029999999913
21
-65.4126789999999971
0
LINE
8
BLACK
6
CONTINUOUS
10
127.3188159999999982
20
-62.2641549999999953
11
127.810851999999997
21
-64.9189439999999962
0
LINE
8
BLACK
6
CONTINUOUS
10
127.810851999999997
20
-64.9189439999999962
11
125.9426679999999976
21
-65.2651910000000015
0
ARC
8
BLACK
10
115.4091260000000005
20
-62.2078439999999944
40
0.8000007971208528
50
-214.50015724
51
-169.50011404
0
ARC
8
BLACK
10
115.9105419999999924
20
-64.9132450000000034
40
0.7999984491191218
50
-169.50038267
51
-124.50033796
0
ARC
8
BLACK
10
115.9492229999999893
20
-61.4219969999999975
40
0.7999984491191218
50
100.49961733
51
145.49966204
0
ARC
8
BLACK
10
116.6963889999999964
20
-65.4533419999999921
40
0.8000006148878887
50
-124.50015724
51
-79.50018446
0
ARC
8
BLACK
10
117.0711919999999964
20
-66.4517579999999981
40
0.2692311935883359
50
-57.71300114
51
78.71298058
0
ARC
8
BLACK
10
118.6546269999999907
20
-60.920579999999994
40
0.800000178335605
50
55.50001983
51
100.50003985
0
ARC
8
BLACK
10
119.4403609999999958
20
-61.4607979999999969
40
0.8001596038853748
50
10.50107081
51
55.50107653
0
ARC
8
BLACK
10
118.7106449999999995
20
-69.0464399999999898
40
2.7999996260772964
50
-237.71322473
51
22.70388673
0
ARC
8
BLACK
10
121.5991590000000002
20
-67.8659119999999945
40
0.3213749760280038
50
-264.04227216
51
-161.90518236
0
ARC
8
BLACK
10
121.4102740000000011
20
-66.0526399999999967
40
1.5017000873959487
50
-84.05529369
51
-79.50000406
0
ARC
8
BLACK
10
120.9283089999999987
20
-61.2573949999999954
40
0.7044791063260853
50
-163.01334014
51
-79.49752845
0
ARC
8
BLACK
10
124.1450649999999882
20
-62.699821
40
1.3000005764075646
50
10.49998708
51
100.49998708
0
ARC
8
BLACK
10
124.6917720000000003
20
-65.6495859999999993
40
1.2999997753884422
50
-79.50000489
51
10.50003845
  0
ENDSEC
  0
EOF
