0
SECTION
2
HEADER
9
$INSUNITS
70
4
0
ENDSEC
0
SECTION
2
TABLES
0
TABLE
2
LTYPE
0
LTYPE
72
65
70
64
2
CONTINUOUS
3
______
73
0
40
0
0
ENDTAB
0
TABLE
2
LAYER
0
ENDTAB
0
ENDSEC
0
SECTION
2
ENTITIES
0
CIRCLE
8
0
10
0
20
0
40
2.8
0
CIRCLE
8
0
10
21.9372417
20
-0.5976805
40
2.8
0
CIRCLE
8
0
10
41.4265084
20
-2.3884926
40
2.8
0
CIRCLE
8
0
10
60.7700972
20
-5.3657557
40
2.8
0
CIRCLE
8
0
10
79.4519404
20
-8.8282306
40
2.8
0
CIRCLE
8
0
10
195.298199
20
0
40
2.8
0
CIRCLE
8
0
10
173.3609573
20
-0.5976805
40
2.8
0
CIRCLE
8
0
10
153.8716906
20
-2.3884926
40
2.8
0
CIRCLE
8
0
10
134.5281018
20
-5.3657557
40
2.8
0
CIRCLE
8
0
10
115.8462586
20
-8.8282306
40
2.8
0
CIRCLE
8
0
10
0
20
-19
40
2.8
0
CIRCLE
8
0
10
21.9372417
20
-19.5976805
40
2.8
0
CIRCLE
8
0
10
41.4265084
20
-21.3884926
40
2.8
0
CIRCLE
8
0
10
60.7700972
20
-24.3657557
40
2.8
0
CIRCLE
8
0
10
79.4519404
20
-27.8282306
40
2.8
0
CIRCLE
8
0
10
195.298199
20
-19
40
2.8
0
CIRCLE
8
0
10
173.3609573
20
-19.5976805
40
2.8
0
CIRCLE
8
0
10
153.8716906
20
-21.3884926
40
2.8
0
CIRCLE
8
0
10
134.5281018
20
-24.3657557
40
2.8
0
CIRCLE
8
0
10
115.8462586
20
-27.8282306
40
2.8
0
CIRCLE
8
0
10
-2.375
20
-38
40
2.8
0
CIRCLE
8
0
10
16.910685
20
-38.2945468
40
2.8
0
CIRCLE
8
0
10
36.5755376
20
-39.6480929
40
2.8
0
CIRCLE
8
0
10
56.0798355
20
-42.4978082
40
2.8
0
CIRCLE
8
0
10
74.7616788
20
-45.9602831
40
2.8
0
CIRCLE
8
0
10
197.673199
20
-38
40
2.8
0
CIRCLE
8
0
10
178.387514
20
-38.2945468
40
2.8
0
CIRCLE
8
0
10
158.7226614
20
-39.6480929
40
2.8
0
CIRCLE
8
0
10
139.2183635
20
-42.4978082
40
2.8
0
CIRCLE
8
0
10
120.5365202
20
-45.9602831
40
2.8
0
CIRCLE
8
0
10
32.7098037
20
-60.9141801
40
2.8
0
CIRCLE
8
0
10
55.5704803
20
-65.1511561
40
2.8
0
CIRCLE
8
0
10
76.587554
20
-69.0464404
40
2.8
0
CIRCLE
8
0
10
162.5883953
20
-60.9141801
40
2.8
0
CIRCLE
8
0
10
139.7277187
20
-65.1511561
40
2.8
0
CIRCLE
8
0
10
118.710645
20
-69.0464404
40
2.8
0
CIRCLE
8
0
10
5.5
20
0
40
1
0
CIRCLE
8
0
10
27.4269831
20
-0.9334475
40
1
0
CIRCLE
8
0
10
46.8855122
20
-3.058774
40
1
0
CIRCLE
8
0
10
66.1779992
20
-6.3680511
40
1
0
CIRCLE
8
0
10
84.8598424
20
-9.830526
40
1
0
CIRCLE
8
0
10
189.798199
20
0
40
1
0
CIRCLE
8
0
10
167.8712159
20
-0.9334475
40
1
0
CIRCLE
8
0
10
148.4126868
20
-3.058774
40
1
0
CIRCLE
8
0
10
129.1201998
20
-6.3680511
40
1
0
CIRCLE
8
0
10
110.4383566
20
-9.830526
40
1
0
CIRCLE
8
0
10
5.5
20
-19
40
1
0
CIRCLE
8
0
10
27.4269831
20
-19.9334475
40
1
0
CIRCLE
8
0
10
46.8855122
20
-22.058774
40
1
0
CIRCLE
8
0
10
66.1779992
20
-25.3680511
40
1
0
CIRCLE
8
0
10
84.8598424
20
-28.830526
40
1
0
CIRCLE
8
0
10
189.798199
20
-19
40
1
0
CIRCLE
8
0
10
167.8712159
20
-19.9334475
40
1
0
CIRCLE
8
0
10
148.4126868
20
-22.058774
40
1
0
CIRCLE
8
0
10
129.1201998
20
-25.3680511
40
1
0
CIRCLE
8
0
10
110.4383566
20
-28.830526
40
1
0
CIRCLE
8
0
10
3.125
20
-38
40
1
0
CIRCLE
8
0
10
22.4081197
20
-38.4625086
40
1
0
CIRCLE
8
0
10
42.0441408
20
-40.2349315
40
1
0
CIRCLE
8
0
10
61.4877375
20
-43.5001036
40
1
0
CIRCLE
8
0
10
80.1695808
20
-46.9625785
40
1
0
CIRCLE
8
0
10
192.173199
20
-38
40
1
0
CIRCLE
8
0
10
172.8900793
20
-38.4625086
40
1
0
CIRCLE
8
0
10
153.2540582
20
-40.2349315
40
1
0
CIRCLE
8
0
10
133.8104615
20
-43.5001036
40
1
0
CIRCLE
8
0
10
115.1286182
20
-46.9625785
40
1
0
CIRCLE
8
0
10
38.1177057
20
-61.9164755
40
1
0
CIRCLE
8
0
10
60.9783823
20
-66.1534515
40
1
0
CIRCLE
8
0
10
81.995456
20
-70.0487358
40
1
0
CIRCLE
8
0
10
157.1804933
20
-61.9164755
40
1
0
CIRCLE
8
0
10
134.3198167
20
-66.1534515
40
1
0
CIRCLE
8
0
10
113.302743
20
-70.0487358
40
1
0
CIRCLE
8
0
10
-5.5
20
0
40
1
0
CIRCLE
8
0
10
16.4475003
20
-0.2619135
40
1
0
CIRCLE
8
0
10
35.9675046
20
-1.7182112
40
1
0
CIRCLE
8
0
10
55.3621952
20
-4.3634603
40
1
0
CIRCLE
8
0
10
74.0440384
20
-7.8259352
40
1
0
CIRCLE
8
0
10
200.798199
20
0
40
1
0
CIRCLE
8
0
10
178.8506987
20
-0.2619135
40
1
0
CIRCLE
8
0
10
159.3306944
20
-1.7182112
40
1
0
CIRCLE
8
0
10
139.9360038
20
-4.3634603
40
1
0
CIRCLE
8
0
10
121.2541606
20
-7.8259352
40
1
0
CIRCLE
8
0
10
-5.5
20
-19
40
1
0
CIRCLE
8
0
10
16.4475003
20
-19.2619135
40
1
0
CIRCLE
8
0
10
35.9675046
20
-20.7182112
40
1
0
CIRCLE
8
0
10
55.3621952
20
-23.3634603
40
1
0
CIRCLE
8
0
10
74.0440384
20
-26.8259352
40
1
0
CIRCLE
8
0
10
200.798199
20
-19
40
1
0
CIRCLE
8
0
10
178.8506987
20
-19.2619135
40
1
0
CIRCLE
8
0
10
159.3306944
20
-20.7182112
40
1
0
CIRCLE
8
0
10
139.9360038
20
-23.3634603
40
1
0
CIRCLE
8
0
10
121.2541606
20
-26.8259352
40
1
0
CIRCLE
8
0
10
-7.875
20
-38
40
1
0
CIRCLE
8
0
10
11.4132503
20
-38.126585
40
1
0
CIRCLE
8
0
10
31.1069344
20
-39.0612543
40
1
0
CIRCLE
8
0
10
50.6719335
20
-41.4955128
40
1
0
CIRCLE
8
0
10
69.3537768
20
-44.9579877
40
1
0
CIRCLE
8
0
10
203.173199
20
-38
40
1
0
CIRCLE
8
0
10
183.8849487
20
-38.126585
40
1
0
CIRCLE
8
0
10
164.1912646
20
-39.0612543
40
1
0
CIRCLE
8
0
10
144.6262655
20
-41.4955128
40
1
0
CIRCLE
8
0
10
125.9444222
20
-44.9579877
40
1
0
CIRCLE
8
0
10
27.3019017
20
-59.9118847
40
1
0
CIRCLE
8
0
10
50.1625783
20
-64.1488607
40
1
0
CIRCLE
8
0
10
71.179652
20
-68.044145
40
1
0
CIRCLE
8
0
10
167.9962973
20
-59.9118847
40
1
0
CIRCLE
8
0
10
145.1356207
20
-64.1488607
40
1
0
CIRCLE
8
0
10
124.118547
20
-68.044145
40
1
0
CIRCLE
8
0
10
0
20
5.9
40
1
0
CIRCLE
8
0
10
22.2974281
20
5.2913148
40
1
0
CIRCLE
8
0
10
42.1455375
20
3.4675297
40
1
0
CIRCLE
8
0
10
61.8452868
20
0.4354483
40
1
0
CIRCLE
8
0
10
80.52713
20
-3.0270266
40
1
0
CIRCLE
8
0
10
195.298199
20
5.9
40
1
0
CIRCLE
8
0
10
173.0007709
20
5.2913148
40
1
0
CIRCLE
8
0
10
153.1526615
20
3.4675297
40
1
0
CIRCLE
8
0
10
133.4529122
20
0.4354483
40
1
0
CIRCLE
8
0
10
114.771069
20
-3.0270266
40
1
0
CIRCLE
8
0
10
0
20
-13.1
40
1
0
CIRCLE
8
0
10
22.2974281
20
-13.7086852
40
1
0
CIRCLE
8
0
10
42.1455375
20
-15.5324703
40
1
0
CIRCLE
8
0
10
61.8452868
20
-18.5645517
40
1
0
CIRCLE
8
0
10
80.52713
20
-22.0270266
40
1
0
CIRCLE
8
0
10
195.298199
20
-13.1
40
1
0
CIRCLE
8
0
10
173.0007709
20
-13.7086852
40
1
0
CIRCLE
8
0
10
153.1526615
20
-15.5324703
40
1
0
CIRCLE
8
0
10
133.4529122
20
-18.5645517
40
1
0
CIRCLE
8
0
10
114.771069
20
-22.0270266
40
1
0
CIRCLE
8
0
10
-2.375
20
-32.1
40
1
0
CIRCLE
8
0
10
17.0908622
20
-32.3972986
40
1
0
CIRCLE
8
0
10
37.2050553
20
-33.7817732
40
1
0
CIRCLE
8
0
10
57.1550251
20
-36.6966042
40
1
0
CIRCLE
8
0
10
75.8368684
20
-40.1590791
40
1
0
CIRCLE
8
0
10
197.673199
20
-32.1
40
1
0
CIRCLE
8
0
10
178.2073368
20
-32.3972986
40
1
0
CIRCLE
8
0
10
158.0931437
20
-33.7817732
40
1
0
CIRCLE
8
0
10
138.1431739
20
-36.6966042
40
1
0
CIRCLE
8
0
10
119.4613306
20
-40.1590791
40
1
0
CIRCLE
8
0
10
33.7849933
20
-55.1129761
40
1
0
CIRCLE
8
0
10
56.6456699
20
-59.3499521
40
1
0
CIRCLE
8
0
10
77.6627436
20
-63.2452364
40
1
0
CIRCLE
8
0
10
161.5132057
20
-55.1129761
40
1
0
CIRCLE
8
0
10
138.6525291
20
-59.3499521
40
1
0
CIRCLE
8
0
10
117.6354554
20
-63.2452364
40
1
0
CIRCLE
8
0
10
2.6490995
20
43.275
40
1.225
0
CIRCLE
8
0
10
97.6490995
20
43.275
40
1.225
0
CIRCLE
8
0
10
192.6490995
20
43.275
40
1.225
0
CIRCLE
8
0
10
34.6490995
20
-27.5
40
1.225
0
CIRCLE
8
0
10
160.6490995
20
-27.5
40
1.225
0
CIRCLE
8
0
10
2.6490995
20
43.275
40
2.25
0
CIRCLE
8
0
10
97.6490995
20
43.275
40
2.25
0
CIRCLE
8
0
10
192.6490995
20
43.275
40
2.25
0
CIRCLE
8
0
10
34.6490995
20
-27.5
40
2.25
0
CIRCLE
8
0
10
160.6490995
20
-27.5
40
2.25
0
LINE
8
0
10
-14.5809005
20
-50.58
11
16.4190995
21
-50.58
0
LINE
8
0
10
16.4190995
20
-50.58
11
16.4190995
21
-47.58
0
LINE
8
0
10
16.4190995
20
-47.58
11
-14.5809005
21
-47.58
0
LINE
8
0
10
-14.5809005
20
-47.58
11
-14.5809005
21
-50.58
0
LINE
8
0
10
-14.5809005
20
-65.82
11
16.4190995
21
-65.82
0
LINE
8
0
10
16.4190995
20
-65.82
11
16.4190995
21
-62.82
0
LINE
8
0
10
16.4190995
20
-62.82
11
-14.5809005
21
-62.82
0
LINE
8
0
10
-14.5809005
20
-62.82
11
-14.5809005
21
-65.82
0
ENDSEC
0
EOF