0
SECTION
2
HEADER
9
$INSUNITS
70
4
0
ENDSEC
0
SECTION
2
TABLES
0
TABLE
2
LTYPE
0
LTYPE
72
65
70
64
2
CONTINUOUS
3
______
73
0
40
0
0
ENDTAB
0
TABLE
2
LAYER
0
ENDTAB
0
ENDSEC
0
SECTION
2
ENTITIES
0
CIRCLE
8
0
10
0
20
0
40
2.8
0
CIRCLE
8
0
10
21.9372417
20
-0.5976805
40
2.8
0
CIRCLE
8
0
10
41.4265084
20
-2.3884926
40
2.8
0
CIRCLE
8
0
10
60.7700972
20
-5.3657557
40
2.8
0
CIRCLE
8
0
10
79.4519404
20
-8.8282306
40
2.8
0
CIRCLE
8
0
10
195.298199
20
0
40
2.8
0
CIRCLE
8
0
10
173.3609573
20
-0.5976805
40
2.8
0
CIRCLE
8
0
10
153.8716906
20
-2.3884926
40
2.8
0
CIRCLE
8
0
10
134.5281018
20
-5.3657557
40
2.8
0
CIRCLE
8
0
10
115.8462586
20
-8.8282306
40
2.8
0
CIRCLE
8
0
10
0
20
-19
40
2.8
0
CIRCLE
8
0
10
21.9372417
20
-19.5976805
40
2.8
0
CIRCLE
8
0
10
41.4265084
20
-21.3884926
40
2.8
0
CIRCLE
8
0
10
60.7700972
20
-24.3657557
40
2.8
0
CIRCLE
8
0
10
79.4519404
20
-27.8282306
40
2.8
0
CIRCLE
8
0
10
195.298199
20
-19
40
2.8
0
CIRCLE
8
0
10
173.3609573
20
-19.5976805
40
2.8
0
CIRCLE
8
0
10
153.8716906
20
-21.3884926
40
2.8
0
CIRCLE
8
0
10
134.5281018
20
-24.3657557
40
2.8
0
CIRCLE
8
0
10
115.8462586
20
-27.8282306
40
2.8
0
CIRCLE
8
0
10
-2.375
20
-38
40
2.8
0
CIRCLE
8
0
10
16.910685
20
-38.2945468
40
2.8
0
CIRCLE
8
0
10
36.5755376
20
-39.6480929
40
2.8
0
CIRCLE
8
0
10
56.0798355
20
-42.4978082
40
2.8
0
CIRCLE
8
0
10
74.7616788
20
-45.9602831
40
2.8
0
CIRCLE
8
0
10
197.673199
20
-38
40
2.8
0
CIRCLE
8
0
10
178.387514
20
-38.2945468
40
2.8
0
CIRCLE
8
0
10
158.7226614
20
-39.6480929
40
2.8
0
CIRCLE
8
0
10
139.2183635
20
-42.4978082
40
2.8
0
CIRCLE
8
0
10
120.5365202
20
-45.9602831
40
2.8
0
CIRCLE
8
0
10
32.7098037
20
-60.9141801
40
2.8
0
CIRCLE
8
0
10
55.5704803
20
-65.1511561
40
2.8
0
CIRCLE
8
0
10
76.587554
20
-69.0464404
40
2.8
0
CIRCLE
8
0
10
162.5883953
20
-60.9141801
40
2.8
0
CIRCLE
8
0
10
139.7277187
20
-65.1511561
40
2.8
0
CIRCLE
8
0
10
118.710645
20
-69.0464404
40
2.8
0
CIRCLE
8
0
10
65.6490995
20
6.7
40
1.225
0
CIRCLE
8
0
10
129.6490995
20
6.7
40
1.225
0
CIRCLE
8
0
10
17.6490995
20
-64.5
40
1.225
0
CIRCLE
8
0
10
97.6490995
20
-76.949
40
1.225
0
CIRCLE
8
0
10
177.6490995
20
-64.5
40
1.225
0
CIRCLE
8
0
10
65.6490995
20
6.7
40
2.25
0
CIRCLE
8
0
10
129.6490995
20
6.7
40
2.25
0
CIRCLE
8
0
10
17.6490995
20
-64.5
40
2.25
0
CIRCLE
8
0
10
97.6490995
20
-76.949
40
2.25
0
CIRCLE
8
0
10
177.6490995
20
-64.5
40
2.25
0
ENDSEC
0
EOF