0
SECTION
2
HEADER
9
$INSUNITS
70
4
0
ENDSEC
0
SECTION
2
TABLES
0
TABLE
2
LTYPE
0
LTYPE
72
65
70
64
2
CONTINUOUS
3
______
73
0
40
0
0
ENDTAB
0
TABLE
2
LAYER
0
ENDTAB
0
ENDSEC
0
SECTION
2
ENTITIES
0
LINE
8
0
10
177.1320487
20
-7.3801115
11
180.4258935
21
-7.1786513
0
LINE
8
0
10
180.8944366
20
-6.6490596
11
180.711291
21
-3.6546552
0
LINE
8
0
10
180.1816993
20
-3.1861121
11
176.8878545
21
-3.3875723
0
LINE
8
0
10
176.4193114
20
-3.917164
11
176.602457
21
-6.9115684
0
LINE
8
0
10
139.0976545
20
-11.638051
11
142.3423956
21
-11.0366738
0
LINE
8
0
10
142.7429053
20
-10.4539285
11
142.1961988
21
-7.5041639
0
LINE
8
0
10
141.6134535
20
-7.1036542
11
138.3687124
21
-7.7050314
0
LINE
8
0
10
137.9682027
20
-8.2877767
11
138.5149092
21
-11.2375413
0
LINE
8
0
10
177.1320487
20
-26.3801115
11
180.4258935
21
-26.1786513
0
LINE
8
0
10
180.8944366
20
-25.6490596
11
180.711291
21
-22.6546552
0
LINE
8
0
10
180.1816993
20
-22.1861121
11
176.8878545
21
-22.3875723
0
LINE
8
0
10
176.4193114
20
-22.917164
11
176.602457
21
-25.9115684
0
LINE
8
0
10
139.0976545
20
-30.638051
11
142.3423956
21
-30.0366738
0
LINE
8
0
10
142.7429053
20
-29.4539285
11
142.1961988
21
-26.5041639
0
LINE
8
0
10
141.6134535
20
-26.1036542
11
138.3687124
21
-26.7050314
0
LINE
8
0
10
137.9682027
20
-27.2877767
11
138.5149092
21
-30.2375413
0
LINE
8
0
10
181.9497211
20
-45.1889779
11
185.2481819
21
-45.0882009
0
LINE
8
0
10
185.7326795
20
-44.5731648
11
185.641064
21
-41.574564
0
LINE
8
0
10
185.1260279
20
-41.0900665
11
181.8275671
21
-41.1908435
0
LINE
8
0
10
181.3430695
20
-41.7058796
11
181.434685
21
-44.7044804
0
LINE
8
0
10
143.7879162
20
-48.7701035
11
147.0326573
21
-48.1687263
0
LINE
8
0
10
147.433167
20
-47.585981
11
146.8864605
21
-44.6362164
0
LINE
8
0
10
146.3037152
20
-44.2357067
11
143.0589741
21
-44.8370839
0
LINE
8
0
10
142.6584644
20
-45.4198292
11
143.2051709
21
-48.3695938
0
LINE
8
0
10
144.2972714
20
-71.4234514
11
147.5420125
21
-70.8220742
0
LINE
8
0
10
147.9425222
20
-70.2393289
11
147.3958157
21
-67.2895643
0
LINE
8
0
10
146.8130704
20
-66.8890546
11
143.5683293
21
-67.4904318
0
LINE
8
0
10
143.1678196
20
-68.0731771
11
143.7145261
21
-71.0229417
0
ARC
8
0
10
185.2329127
20
-44.5884341
40
0.5
50
271.7499992
51
1.7499992
0
ARC
8
0
10
185.1412972
20
-41.5898333
40
0.5
50
1.7499992
51
91.7499992
0
ARC
8
0
10
181.8428363
20
-41.6906103
40
0.5
50
91.7499992
51
181.7499992
0
ARC
8
0
10
181.9344518
20
-44.6892111
40
0.5
50
181.7499992
51
271.7499992
0
ARC
8
0
10
180.3953692
20
-25.6795839
40
0.5
50
273.5000035
51
3.4999977
0
ARC
8
0
10
180.2122236
20
-22.6851795
40
0.5
50
3.4999977
51
93.5000035
0
ARC
8
0
10
176.9183788
20
-22.8866397
40
0.5
50
93.5000035
51
183.4999977
0
ARC
8
0
10
177.1015244
20
-25.8810441
40
0.5
50
183.4999977
51
273.5000035
0
ARC
8
0
10
180.3953692
20
-6.6795839
40
0.5
50
273.5000035
51
3.4999977
0
ARC
8
0
10
180.2122236
20
-3.6851795
40
0.5
50
3.4999977
51
93.5000035
0
ARC
8
0
10
176.9183788
20
-3.8866397
40
0.5
50
93.5000035
51
183.4999977
0
ARC
8
0
10
177.1015244
20
-6.8810441
40
0.5
50
183.4999977
51
273.5000035
0
ARC
8
0
10
147.4508947
20
-70.3304467
40
0.5
50
280.4999986
51
10.4999986
0
ARC
8
0
10
146.9041882
20
-67.3806821
40
0.5
50
10.4999986
51
100.4999986
0
ARC
8
0
10
143.6594471
20
-67.9820593
40
0.5
50
100.4999986
51
190.4999986
0
ARC
8
0
10
144.2061536
20
-70.9318239
40
0.5
50
190.4999986
51
280.4999986
0
ARC
8
0
10
142.2512778
20
-29.5450463
40
0.5
50
280.4999986
51
10.4999986
0
ARC
8
0
10
141.7045713
20
-26.5952817
40
0.5
50
10.4999986
51
100.4999986
0
ARC
8
0
10
138.4598302
20
-27.1966589
40
0.5
50
100.4999986
51
190.4999986
0
ARC
8
0
10
139.0065367
20
-30.1464235
40
0.5
50
190.4999986
51
280.4999986
0
ARC
8
0
10
142.2512778
20
-10.5450463
40
0.5
50
280.4999986
51
10.4999986
0
ARC
8
0
10
141.7045713
20
-7.5952817
40
0.5
50
10.4999986
51
100.4999986
0
ARC
8
0
10
138.4598302
20
-8.1966589
40
0.5
50
100.4999986
51
190.4999986
0
ARC
8
0
10
139.0065367
20
-11.1464235
40
0.5
50
190.4999986
51
280.4999986
0
ARC
8
0
10
146.9415395
20
-47.6770988
40
0.5
50
280.4999986
51
10.4999986
0
ARC
8
0
10
146.394833
20
-44.7273342
40
0.5
50
10.4999986
51
100.4999986
0
ARC
8
0
10
143.1500919
20
-45.3287114
40
0.5
50
100.4999986
51
190.4999986
0
ARC
8
0
10
143.6967984
20
-48.278476
40
0.5
50
190.4999986
51
280.4999986
0
ENDSEC
0
EOF