0
SECTION
2
HEADER
9
$INSUNITS
70
4
0
ENDSEC
0
SECTION
2
TABLES
0
TABLE
2
LTYPE
0
LTYPE
72
65
70
64
2
CONTINUOUS
3
______
73
0
40
0
0
ENDTAB
0
TABLE
2
LAYER
0
ENDTAB
0
ENDSEC
0
SECTION
2
ENTITIES
0
LINE
8
0
10
3.35
20
-7
11
6.65
21
-7
0
LINE
8
0
10
7.15
20
-6.5
11
7.15
21
-3.5
0
LINE
8
0
10
6.65
20
-3
11
3.35
21
-3
0
LINE
8
0
10
2.85
20
-3.5
11
2.85
21
-6.5
0
LINE
8
0
10
43.8984526
20
-9.744578
11
47.1738548
21
-10.1467468
0
LINE
8
0
10
47.7310626
20
-9.7114084
11
48.0966706
21
-6.73377
0
LINE
8
0
10
47.6613322
20
-6.1765622
11
44.38593
21
-5.7743934
0
LINE
8
0
10
43.8287222
20
-6.2097318
11
43.4631142
21
-9.1873702
0
LINE
8
0
10
81.4701957
20
-16.321504
11
84.7149368
21
-16.9228812
0
LINE
8
0
10
85.2976821
20
-16.5223715
11
85.8443886
21
-13.5726069
0
LINE
8
0
10
85.4438789
20
-12.9898616
11
82.1991378
21
-12.3884844
0
LINE
8
0
10
81.6163925
20
-12.7889941
11
81.069686
21
-15.7387587
0
LINE
8
0
10
3.35
20
-26
11
6.65
21
-26
0
LINE
8
0
10
7.15
20
-25.5
11
7.15
21
-22.5
0
LINE
8
0
10
6.65
20
-22
11
3.35
21
-22
0
LINE
8
0
10
2.85
20
-22.5
11
2.85
21
-25.5
0
LINE
8
0
10
43.8984526
20
-28.744578
11
47.1738548
21
-29.1467468
0
LINE
8
0
10
47.7310626
20
-28.7114084
11
48.0966706
21
-25.73377
0
LINE
8
0
10
47.6613322
20
-25.1765622
11
44.38593
21
-24.7743934
0
LINE
8
0
10
43.8287222
20
-25.2097318
11
43.4631142
21
-28.1873702
0
LINE
8
0
10
81.4701957
20
-35.321504
11
84.7149368
21
-35.9228812
0
LINE
8
0
10
85.2976821
20
-35.5223715
11
85.8443886
21
-32.5726069
0
LINE
8
0
10
85.4438789
20
-31.9898616
11
82.1991378
21
-31.3884844
0
LINE
8
0
10
81.6163925
20
-31.7889941
11
81.069686
21
-34.7387587
0
LINE
8
0
10
0.975
20
-45
11
4.275
21
-45
0
LINE
8
0
10
4.775
20
-44.5
11
4.775
21
-41.5
0
LINE
8
0
10
4.275
20
-41
11
0.975
21
-41
0
LINE
8
0
10
0.475
20
-41.5
11
0.475
21
-44.5
0
LINE
8
0
10
39.1595286
20
-46.9655713
11
42.4406905
21
-47.3176744
0
LINE
8
0
10
42.9911852
20
-46.8738777
11
43.3112789
21
-43.8910032
0
LINE
8
0
10
42.8674822
20
-43.3405085
11
39.5863203
21
-42.9884054
0
LINE
8
0
10
39.0358256
20
-43.4322021
11
38.7157319
21
-46.4150766
0
LINE
8
0
10
76.7799341
20
-53.4535565
11
80.0246752
21
-54.0549337
0
LINE
8
0
10
80.6074205
20
-53.654424
11
81.154127
21
-50.7046594
0
LINE
8
0
10
80.7536173
20
-50.1219141
11
77.5088762
21
-49.5205369
0
LINE
8
0
10
76.9261309
20
-49.9210466
11
76.3794244
21
-52.8708112
0
LINE
8
0
10
34.728059
20
-68.4074535
11
37.9728001
21
-69.0088307
0
LINE
8
0
10
38.5555454
20
-68.608321
11
39.1022519
21
-65.6585564
0
LINE
8
0
10
38.7017422
20
-65.0758111
11
35.4570011
21
-64.4744339
0
LINE
8
0
10
34.8742558
20
-64.8749436
11
34.3275493
21
-67.8247082
0
LINE
8
0
10
78.6058093
20
-76.5397138
11
81.8505504
21
-77.141091
0
LINE
8
0
10
82.4332957
20
-76.7405813
11
82.9800022
21
-73.7908167
0
LINE
8
0
10
82.5794925
20
-73.2080714
11
79.3347514
21
-72.6066942
0
LINE
8
0
10
78.7520061
20
-73.0072039
11
78.2052996
21
-75.9569685
0
ARC
8
0
10
6.65
20
-6.5
40
0.5
50
270
51
0
0
ARC
8
0
10
6.65
20
-3.5
40
0.5
50
0
51
90
0
ARC
8
0
10
3.35
20
-3.5
40
0.5
50
90
51
180
0
ARC
8
0
10
3.35
20
-6.5
40
0.5
50
180
51
270
0
ARC
8
0
10
6.65
20
-25.5
40
0.5
50
270
51
0
0
ARC
8
0
10
6.65
20
-22.5
40
0.5
50
0
51
90
0
ARC
8
0
10
3.35
20
-22.5
40
0.5
50
90
51
180
0
ARC
8
0
10
3.35
20
-25.5
40
0.5
50
180
51
270
0
ARC
8
0
10
4.275
20
-44.5
40
0.5
50
270
51
0
0
ARC
8
0
10
4.275
20
-41.5
40
0.5
50
0
51
90
0
ARC
8
0
10
0.975
20
-41.5
40
0.5
50
90
51
180
0
ARC
8
0
10
0.975
20
-44.5
40
0.5
50
180
51
270
0
ARC
8
0
10
81.9416682
20
-76.6494635
40
0.5
50
259.5000014
51
349.5000014
0
ARC
8
0
10
82.4883747
20
-73.6996989
40
0.5
50
349.5000014
51
79.5000014
0
ARC
8
0
10
79.2436336
20
-73.0983217
40
0.5
50
79.5000014
51
169.5000014
0
ARC
8
0
10
78.6969271
20
-76.0480863
40
0.5
50
169.5000014
51
259.5000014
0
ARC
8
0
10
84.8060546
20
-16.4312537
40
0.5
50
259.5000014
51
349.5000014
0
ARC
8
0
10
85.3527611
20
-13.4814891
40
0.5
50
349.5000014
51
79.5000014
0
ARC
8
0
10
82.10802
20
-12.8801119
40
0.5
50
79.5000014
51
169.5000014
0
ARC
8
0
10
81.5613135
20
-15.8298765
40
0.5
50
169.5000014
51
259.5000014
0
ARC
8
0
10
38.0639179
20
-68.5172032
40
0.5
50
259.5000014
51
349.5000014
0
ARC
8
0
10
38.6106244
20
-65.5674386
40
0.5
50
349.5000014
51
79.5000014
0
ARC
8
0
10
35.3658833
20
-64.9660614
40
0.5
50
79.5000014
51
169.5000014
0
ARC
8
0
10
34.8191768
20
-67.915826
40
0.5
50
169.5000014
51
259.5000014
0
ARC
8
0
10
84.8060546
20
-35.4312537
40
0.5
50
259.5000014
51
349.5000014
0
ARC
8
0
10
85.3527611
20
-32.4814891
40
0.5
50
349.5000014
51
79.5000014
0
ARC
8
0
10
82.10802
20
-31.8801119
40
0.5
50
79.5000014
51
169.5000014
0
ARC
8
0
10
81.5613135
20
-34.8298765
40
0.5
50
169.5000014
51
259.5000014
0
ARC
8
0
10
80.115793
20
-53.5633062
40
0.5
50
259.5000014
51
349.5000014
0
ARC
8
0
10
80.6624995
20
-50.6135416
40
0.5
50
349.5000014
51
79.5000014
0
ARC
8
0
10
77.4177584
20
-50.0121644
40
0.5
50
79.5000014
51
169.5000014
0
ARC
8
0
10
76.8710519
20
-52.961929
40
0.5
50
169.5000014
51
259.5000014
0
ARC
8
0
10
47.2347895
20
-28.6504737
40
0.5
50
262.9999971
51
352.9999971
0
ARC
8
0
10
47.6003975
20
-25.6728353
40
0.5
50
352.9999971
51
82.9999971
0
ARC
8
0
10
44.3249953
20
-25.2706665
40
0.5
50
82.9999971
51
172.9999971
0
ARC
8
0
10
43.9593873
20
-28.2483049
40
0.5
50
172.9999971
51
262.9999971
0
ARC
8
0
10
47.2347895
20
-9.6504737
40
0.5
50
262.9999971
51
352.9999971
0
ARC
8
0
10
47.6003975
20
-6.6728353
40
0.5
50
352.9999971
51
82.9999971
0
ARC
8
0
10
44.3249953
20
-6.2706665
40
0.5
50
82.9999971
51
172.9999971
0
ARC
8
0
10
43.9593873
20
-9.2483049
40
0.5
50
172.9999971
51
262.9999971
0
ARC
8
0
10
42.4940395
20
-46.8205287
40
0.5
50
263.8750014
51
353.8750014
0
ARC
8
0
10
42.8141332
20
-43.8376542
40
0.5
50
353.8750014
51
83.8750014
0
ARC
8
0
10
39.5329713
20
-43.4855511
40
0.5
50
83.8750014
51
173.8750014
0
ARC
8
0
10
39.2128776
20
-46.4684256
40
0.5
50
173.8750014
51
263.8750014
0
ENDSEC
0
EOF