0
SECTION
2
HEADER
9
$INSUNITS
70
4
0
ENDSEC
0
SECTION
2
TABLES
0
TABLE
2
LTYPE
0
LTYPE
72
65
70
64
2
CONTINUOUS
3
______
73
0
40
0
0
ENDTAB
0
TABLE
2
LAYER
0
ENDTAB
0
ENDSEC
0
SECTION
2
ENTITIES
0
CIRCLE
8
0
10
0
20
5.9
40
1
0
CIRCLE
8
0
10
22.2974281
20
5.2913148
40
1
0
CIRCLE
8
0
10
42.1455375
20
3.4675297
40
1
0
CIRCLE
8
0
10
61.8452868
20
0.4354483
40
1
0
CIRCLE
8
0
10
80.52713
20
-3.0270266
40
1
0
CIRCLE
8
0
10
195.298199
20
5.9
40
1
0
CIRCLE
8
0
10
173.0007709
20
5.2913148
40
1
0
CIRCLE
8
0
10
153.1526615
20
3.4675297
40
1
0
CIRCLE
8
0
10
133.4529122
20
0.4354483
40
1
0
CIRCLE
8
0
10
114.771069
20
-3.0270266
40
1
0
CIRCLE
8
0
10
0
20
-13.1
40
1
0
CIRCLE
8
0
10
22.2974281
20
-13.7086852
40
1
0
CIRCLE
8
0
10
42.1455375
20
-15.5324703
40
1
0
CIRCLE
8
0
10
61.8452868
20
-18.5645517
40
1
0
CIRCLE
8
0
10
80.52713
20
-22.0270266
40
1
0
CIRCLE
8
0
10
195.298199
20
-13.1
40
1
0
CIRCLE
8
0
10
173.0007709
20
-13.7086852
40
1
0
CIRCLE
8
0
10
153.1526615
20
-15.5324703
40
1
0
CIRCLE
8
0
10
133.4529122
20
-18.5645517
40
1
0
CIRCLE
8
0
10
114.771069
20
-22.0270266
40
1
0
CIRCLE
8
0
10
-2.375
20
-32.1
40
1
0
CIRCLE
8
0
10
17.0908622
20
-32.3972986
40
1
0
CIRCLE
8
0
10
37.2050553
20
-33.7817732
40
1
0
CIRCLE
8
0
10
57.1550251
20
-36.6966042
40
1
0
CIRCLE
8
0
10
75.8368684
20
-40.1590791
40
1
0
CIRCLE
8
0
10
197.673199
20
-32.1
40
1
0
CIRCLE
8
0
10
178.2073368
20
-32.3972986
40
1
0
CIRCLE
8
0
10
158.0931437
20
-33.7817732
40
1
0
CIRCLE
8
0
10
138.1431739
20
-36.6966042
40
1
0
CIRCLE
8
0
10
119.4613306
20
-40.1590791
40
1
0
CIRCLE
8
0
10
33.7849933
20
-55.1129761
40
1
0
CIRCLE
8
0
10
56.6456699
20
-59.3499521
40
1
0
CIRCLE
8
0
10
77.6627436
20
-63.2452364
40
1
0
CIRCLE
8
0
10
161.5132057
20
-55.1129761
40
1
0
CIRCLE
8
0
10
138.6525291
20
-59.3499521
40
1
0
CIRCLE
8
0
10
117.6354554
20
-63.2452364
40
1
0
ENDSEC
0
EOF