  0
SECTION
  2
HEADER
  9
$ANGBASE
  50
0.0
  9
$ANGDIR
  70
1
  9
$MEASUREMENT
  70
1
  0
ENDSEC
  0
SECTION
  2
TABLES
  0
TABLE
  2
LTYPE
  70
4
  0
LTYPE
  5
40F
  2
CONTINUOUS
  70
0
  3
Solid line
  72
65
  73
0
  40
0.0
  0
LTYPE
  5
410
  2
DASHDOT
 70
0
  3
Dash Dot ____ _ ____ _
 72
65
 73
4
 40
2.0
 49
1.25
 49
-0.25
 49
0.25
 49
-0.25
  0
LTYPE
  5
411
  2
DASHED
 70
0
  3
Dashed __ __ __ __ __
 72
65
 73
2
 40
0.75
 49
0.5
 49
-0.25
  0
LTYPE
  5
43B
  2
DOTTED
 70
0
  3
Dotted .  .  .  .
 72
65
 73
2
 40
0.2
 49
0.0
 49
-0.2
  0
ENDTAB
  0
TABLE
  2
STYLE
  70
4
  0
STYLE
  2
KICAD
  70
0
  40
0
  41
1
  42
1
  50
0
  71
0
  3
isocp.shx
  0
STYLE
  2
KICADB
  70
0
  40
0
  41
1
  42
1
  50
0
  71
0
  3
isocp.shx
  0
STYLE
  2
KICADI
  70
0
  40
0
  41
1
  42
1
  50
15
  71
0
  3
isocp.shx
  0
STYLE
  2
KICADBI
  70
0
  40
0
  41
1
  42
1
  50
15
  71
0
  3
isocp.shx
  0
ENDTAB
  0
TABLE
  2
LAYER
  70
1
  0
LAYER
  2
BLACK
  70
0
  62
7
  6
CONTINUOUS
  0
ENDTAB
  0
ENDSEC
  0
SECTION
  2
ENTITIES
0
LINE
8
BLACK
6
CONTINUOUS
10
-4.7000000000000002
20
7.2999999999999998
11
-4.7000000000000002
21
4.5999999999999996
0
LINE
8
BLACK
6
CONTINUOUS
10
-4.7000000000000002
20
4.5999999999999996
11
-2.7999999999999998
21
4.5999999999999996
0
LINE
8
BLACK
6
CONTINUOUS
10
-2.7999999999999998
20
7.3257389999999996
11
-2.7999999999999998
21
7.2999999999999998
0
LINE
8
BLACK
6
CONTINUOUS
10
-2.7999999999999998
20
7.2999999999999998
11
-4.7000000000000002
21
7.2999999999999998
0
LINE
8
BLACK
6
CONTINUOUS
10
-2.7999999999999998
20
4.5999999999999996
11
-2.7999999999999998
21
4.5742609999999999
0
LINE
8
BLACK
6
CONTINUOUS
10
-2.5656879999999997
20
4.0085819999999996
11
-1.8914169999999999
21
3.334311
0
LINE
8
BLACK
6
CONTINUOUS
10
-1.8914179999999998
20
8.5656879999999997
11
-2.5656889999999999
21
7.8914169999999997
0
LINE
8
BLACK
6
CONTINUOUS
10
-1.325739
20
3.0999999999999996
11
0.509686
21
3.0999999999999996
0
LINE
8
BLACK
6
CONTINUOUS
10
1.42574
20
8.7999999999999989
11
-1.325739
21
8.7999999999999989
0
LINE
8
BLACK
6
CONTINUOUS
10
2.6656580000000001
20
7.8914479999999996
11
1.9914179999999999
21
8.5656879999999997
0
LINE
8
BLACK
6
CONTINUOUS
10
2.8999999999999999
20
7.1746439999999998
11
2.8999999999999999
21
7.3325109999999993
0
LINE
8
BLACK
6
CONTINUOUS
10
3.1999999999999997
20
0.95
11
6.5
21
0.95
0
LINE
8
BLACK
6
CONTINUOUS
10
6.5
20
6.5499999999999998
11
3.5999999999999996
21
6.5499999999999998
0
LINE
8
BLACK
6
CONTINUOUS
10
7.7999999999999998
20
5.0999999999999996
11
7.7999999999999998
21
5.25
0
LINE
8
BLACK
6
CONTINUOUS
10
7.7999999999999998
20
2.3999999999999999
11
9.6999999999999993
21
2.3999999999999999
0
LINE
8
BLACK
6
CONTINUOUS
10
7.7999999999999998
20
2.25
11
7.7999999999999998
21
2.3999999999999999
0
LINE
8
BLACK
6
CONTINUOUS
10
9.6999999999999993
20
5.0999999999999996
11
7.7999999999999998
21
5.0999999999999996
0
LINE
8
BLACK
6
CONTINUOUS
10
9.6999999999999993
20
2.3999999999999999
11
9.6999999999999993
21
5.0999999999999996
0
ARC
8
BLACK
10
-2.0000089999999999
20
7.3257389999999996
40
0.799991
50
135.00000000
51
180.00000000
0
ARC
8
BLACK
10
-2.0000089999999999
20
4.5742609999999999
40
0.79999091374965
50
-180.00000000
51
-135.00000000
0
ARC
8
BLACK
10
-1.325739
20
8.0000090000000004
40
0.79999091374965
50
90.00000000
51
135.00000000
0
ARC
8
BLACK
10
-1.325739
20
3.899991
40
0.799991
50
-135.00000000
51
-90.00000000
0
ARC
8
BLACK
10
0.233343
20
1.5145109999999999
40
1.6093914448542344
50
17.53373207
51
80.11294558
0
ARC
8
BLACK
10
1.42574
20
8.0000099999999996
40
0.79999
50
45.00000000
51
90.00000000
0
ARC
8
BLACK
10
2.0998399999999999
20
7.3256299999999994
40
0.8001874894348199
50
0.49277747
51
45.00000000
0
ARC
8
BLACK
10
3.1999999999999997
20
2.4518
40
1.5018
50
-162.46670747
51
-90.00000000
0
ARC
8
BLACK
10
3.5999699999999999
20
7.25448
40
0.7044800006387689
50
-186.48334735
51
-89.99756008
0
ARC
8
BLACK
10
6.5
20
5.25
40
1.3
50
0.00000000
51
90.00000000
0
ARC
8
BLACK
10
6.5
20
2.25
40
1.3
50
-90.00000000
51
-0.00000000
0
LINE
8
BLACK
6
CONTINUOUS
10
17.6916629999999984
20
6.9756320000000001
11
17.5268319999999989
21
4.2806679999999995
0
LINE
8
BLACK
6
CONTINUOUS
10
17.5268319999999989
20
4.2806679999999995
11
19.4232879999999994
21
4.164676
0
LINE
8
BLACK
6
CONTINUOUS
10
19.5896899999999974
20
6.8853309999999999
11
19.5881189999999989
21
6.8596399999999997
0
LINE
8
BLACK
6
CONTINUOUS
10
19.5881189999999989
20
6.8596399999999997
11
17.6916629999999984
21
6.9756320000000001
0
LINE
8
BLACK
6
CONTINUOUS
10
19.4232879999999994
20
4.164676
11
19.4217169999999975
21
4.1389849999999999
0
LINE
8
BLACK
6
CONTINUOUS
10
19.6210579999999979
20
3.560057
11
20.2529079999999979
21
2.8458799999999997
0
LINE
8
BLACK
6
CONTINUOUS
10
20.5722749999999976
20
8.067499999999999
11
19.8580979999999983
21
7.4356489999999997
0
LINE
8
BLACK
6
CONTINUOUS
10
20.8032259999999987
20
2.5774719999999998
11
22.6352279999999979
21
2.4654219999999998
0
LINE
8
BLACK
6
CONTINUOUS
10
23.897549999999999
20
8.0988670000000003
11
21.1512029999999989
21
8.2668409999999994
0
LINE
8
BLACK
6
CONTINUOUS
10
25.0796889999999983
20
7.116314
11
24.4478679999999997
21
7.8304579999999993
0
LINE
8
BLACK
6
CONTINUOUS
10
25.2698339999999995
20
6.3865409999999994
11
25.2794719999999984
21
6.5441139999999995
0
LINE
8
BLACK
6
CONTINUOUS
10
25.1892689999999995
20
0.155193
11
28.4831139999999969
21
-0.046267
0
LINE
8
BLACK
6
CONTINUOUS
10
28.8249859999999991
20
5.5432869999999994
11
25.9303949999999972
21
5.7203279999999994
0
LINE
8
BLACK
6
CONTINUOUS
10
30.0340409999999984
20
4.016629
11
30.0431980000000003
21
4.1663489999999994
0
LINE
8
BLACK
6
CONTINUOUS
10
29.8692099999999989
20
1.3216649999999999
11
31.7656659999999995
21
1.205673
0
LINE
8
BLACK
6
CONTINUOUS
10
29.8600529999999971
20
1.171945
11
29.8692099999999989
21
1.3216649999999999
0
LINE
8
BLACK
6
CONTINUOUS
10
31.930496999999999
20
3.9006369999999997
11
30.0340409999999984
21
4.016629
0
LINE
8
BLACK
6
CONTINUOUS
10
31.7656659999999995
20
1.205673
11
31.930496999999999
21
3.9006369999999997
0
ARC
8
BLACK
10
20.3881890000000006
20
6.8364929999999999
40
0.7999911269789184
50
131.50003565
51
176.50002080
0
ARC
8
BLACK
10
20.2202149999999996
20
4.090147
40
0.7999903241596114
50
-183.49998357
51
-138.49996435
0
ARC
8
BLACK
10
21.1023649999999989
20
7.4683419999999998
40
0.7999910731151941
50
86.50002080
51
131.49998820
0
ARC
8
BLACK
10
20.8520649999999996
20
3.3759709999999998
40
0.7999911880277182
50
-138.50001180
51
-93.50005068
0
ARC
8
BLACK
10
22.2626080000000002
20
0.8997609999999999
40
1.6093911989696601
50
14.03371356
51
76.61291980
0
ARC
8
BLACK
10
23.848711999999999
20
7.3003689999999999
40
0.7999901288441001
50
41.50002947
51
86.50001643
0
ARC
8
BLACK
10
24.4803839999999973
20
6.5860940000000001
40
0.8001873102124277
50
-3.00719891
51
41.49998527
0
ARC
8
BLACK
10
25.2809519999999992
20
1.6541919999999999
40
1.5018001779497829
50
-165.96669901
51
-93.50001118
0
ARC
8
BLACK
10
25.9733729999999987
20
6.4234960000000001
40
0.7044801946882537
50
-189.98334413
51
-93.49759733
0
ARC
8
BLACK
10
28.7456229999999984
20
4.2457120000000002
40
1.2999997563053618
50
-3.49999618
51
86.50000382
0
ARC
8
BLACK
10
28.5624769999999977
20
1.2513079999999999
40
1.3000007544401655
50
-93.49999618
51
-3.49999349
0
LINE
8
BLACK
6
CONTINUOUS
10
37.6511870000000002
20
5.4298799999999998
11
37.3221399999999974
21
2.7500049999999998
0
LINE
8
BLACK
6
CONTINUOUS
10
37.3221399999999974
20
2.7500049999999998
11
39.2079779999999971
21
2.5184530000000001
0
LINE
8
BLACK
6
CONTINUOUS
10
39.5401619999999951
20
5.2238749999999996
11
39.5370249999999999
21
5.1983280000000001
0
LINE
8
BLACK
6
CONTINUOUS
10
39.5370249999999999
20
5.1983280000000001
11
37.6511870000000002
21
5.4298799999999998
0
LINE
8
BLACK
6
CONTINUOUS
10
39.2079779999999971
20
2.5184530000000001
11
39.2048409999999947
21
2.4929060000000001
0
LINE
8
BLACK
6
CONTINUOUS
10
39.368468
20
1.9028879999999999
11
39.9555399999999992
21
1.15147
0
LINE
8
BLACK
6
CONTINUOUS
10
40.593083
20
6.3438539999999994
11
39.841664999999999
21
5.7567810000000001
0
LINE
8
BLACK
6
CONTINUOUS
10
40.4884459999999962
20
0.8499669999999999
11
42.3101899999999986
21
0.626285
0
LINE
8
BLACK
6
CONTINUOUS
10
43.9140709999999999
20
6.1721589999999997
11
41.1831010000000006
21
6.5074799999999993
0
LINE
8
BLACK
6
CONTINUOUS
10
45.0340220000000002
20
5.1192709999999995
11
44.4469769999999968
21
5.8706549999999993
0
LINE
8
BLACK
6
CONTINUOUS
10
45.1792609999999968
20
4.379251
11
45.1984999999999957
21
4.5359410000000002
0
LINE
8
BLACK
6
CONTINUOUS
10
44.718432
20
-1.835556
11
47.9938339999999997
21
-2.2377249999999997
0
LINE
8
BLACK
6
CONTINUOUS
10
48.6763019999999997
20
3.3205339999999999
11
45.7979179999999957
21
3.6739549999999999
0
LINE
8
BLACK
6
CONTINUOUS
10
49.7899019999999979
20
1.7229109999999999
11
49.8081819999999951
21
1.8717929999999998
0
LINE
8
BLACK
6
CONTINUOUS
10
49.4608539999999977
20
-0.956963
11
51.3466919999999973
21
-1.188515
0
LINE
8
BLACK
6
CONTINUOUS
10
49.4425740000000005
20
-1.105845
11
49.4608539999999977
21
-0.956963
0
LINE
8
BLACK
6
CONTINUOUS
10
51.6757390000000001
20
1.49136
11
49.7899019999999979
21
1.7229109999999999
0
LINE
8
BLACK
6
CONTINUOUS
10
51.3466919999999973
20
-1.188515
11
51.6757390000000001
21
1.49136
0
ARC
8
BLACK
10
40.3341899999999995
20
5.1263809999999994
40
0.7999909654614856
50
128.00004288
51
173.00002696
0
ARC
8
BLACK
10
39.9988689999999991
20
2.3954119999999999
40
0.7999908195579496
50
-186.99997304
51
-141.99995712
0
ARC
8
BLACK
10
41.085606999999996
20
5.7134519999999993
40
0.7999916075684793
50
83.00002696
51
127.99999879
0
ARC
8
BLACK
10
40.5859400000000008
20
1.6439949999999999
40
0.7999909654614856
50
-141.99995712
51
-96.99997304
0
ARC
8
BLACK
10
41.8426839999999984
20
-0.913708
40
1.6093912824683125
50
10.53373019
51
73.11293209
0
ARC
8
BLACK
10
43.8165769999999952
20
5.3781319999999999
40
0.799989972915286
50
38.00003054
51
83.00001824
0
ARC
8
BLACK
10
44.4034659999999946
20
4.626627
40
0.8001868406016185
50
-6.50722422
51
37.99998084
0
ARC
8
BLACK
10
44.9014549999999986
20
-0.34495
40
1.5018001417515581
50
-169.46671895
51
-96.99998473
0
ARC
8
BLACK
10
45.8837429999999955
20
4.3731869999999997
40
0.7044794677270586
50
-193.48338656
51
-96.99758682
0
ARC
8
BLACK
10
48.517871999999997
20
2.030224
40
1.2999999849999999
50
-7.00003732
51
83.00000642
0
ARC
8
BLACK
10
48.1522639999999953
20
-0.947415
40
1.2999999849999999
50
-96.99999358
51
-6.99999358
0
LINE
8
BLACK
6
CONTINUOUS
10
57.4791179999999997
20
2.6685119999999998
11
56.9870820000000009
21
0.013724
0
LINE
8
BLACK
6
CONTINUOUS
10
56.9870820000000009
20
0.013724
11
58.8552669999999978
21
-0.332524
0
LINE
8
BLACK
6
CONTINUOUS
10
59.3519930000000002
20
2.347572
11
59.3473029999999966
21
2.3222640000000001
0
LINE
8
BLACK
6
CONTINUOUS
10
59.3473029999999966
20
2.3222640000000001
11
57.4791179999999997
21
2.6685119999999998
0
LINE
8
BLACK
6
CONTINUOUS
10
58.8552669999999978
20
-0.332524
11
58.8505759999999967
21
-0.357832
0
LINE
8
BLACK
6
CONTINUOUS
10
58.9778779999999969
20
-0.956739
11
59.5179819999999964
21
-1.7425949999999999
0
LINE
8
BLACK
6
CONTINUOUS
10
60.4713239999999956
20
3.4011819999999999
11
59.6854669999999956
21
2.861078
0
LINE
8
BLACK
6
CONTINUOUS
10
60.031487999999996
20
-2.0760689999999999
11
61.8361779999999968
21
-2.4105490000000001
0
LINE
8
BLACK
6
CONTINUOUS
10
63.7756349999999941
20
3.0270669999999997
11
61.0702299999999951
21
3.5284839999999997
0
LINE
8
BLACK
6
CONTINUOUS
10
64.8292199999999923
20
1.9077709999999999
11
64.2891410000000008
21
2.6935919999999998
0
LINE
8
BLACK
6
CONTINUOUS
10
64.9290110000000027
20
1.1602649999999999
11
64.9577799999999996
21
1.315488
0
LINE
8
BLACK
6
CONTINUOUS
10
64.0896359999999987
20
-5.014818
11
67.334378000000001
21
-5.6161949999999994
0
LINE
8
BLACK
6
CONTINUOUS
10
68.354896999999994
20
-0.109967
11
65.5034569999999974
21
0.418516
0
LINE
8
BLACK
6
CONTINUOUS
10
69.3688860000000034
20
-1.7725929999999999
11
69.3962219999999945
21
-1.625105
0
LINE
8
BLACK
6
CONTINUOUS
10
68.876851000000002
20
-4.4273809999999996
11
70.7450350000000014
21
-4.7736289999999997
0
LINE
8
BLACK
6
CONTINUOUS
10
68.8495149999999967
20
-4.5748699999999998
11
68.876851000000002
21
-4.4273809999999996
0
LINE
8
BLACK
6
CONTINUOUS
10
71.2370710000000003
20
-2.1188409999999998
11
69.3688860000000034
21
-1.7725929999999999
0
LINE
8
BLACK
6
CONTINUOUS
10
70.7450350000000014
20
-4.7736289999999997
11
71.2370710000000003
21
-2.1188409999999998
0
ARC
8
BLACK
10
60.1385879999999986
20
2.2017859999999998
40
0.7999907823350216
50
124.50002803
51
169.50005395
0
ARC
8
BLACK
10
59.637170999999995
20
-0.5036189999999999
40
0.7999906213506506
50
-190.50001648
51
-145.49997197
0
ARC
8
BLACK
10
60.9244429999999966
20
2.741889
40
0.7999900549444349
50
79.49998352
51
124.49996901
0
ARC
8
BLACK
10
60.1772749999999945
20
-1.289474
40
0.7999909645702257
50
-145.50001253
51
-100.50001648
0
ARC
8
BLACK
10
61.2755299999999963
20
-3.9191289999999999
40
1.609391125955403
50
7.03373400
51
69.61294258
0
ARC
8
BLACK
10
63.6298490000000001
20
2.2404729999999997
40
0.7999897990799631
50
34.50000958
51
79.50004089
0
ARC
8
BLACK
10
64.1697649999999982
20
1.4545399999999999
40
0.8001870008854179
50
-10.00719586
51
34.50000799
0
ARC
8
BLACK
10
64.3633179999999925
20
-3.5381649999999998
40
1.5018008921068731
50
-172.96668705
51
-100.50002038
0
ARC
8
BLACK
10
65.6318090000000041
20
1.111205
40
0.7044801534642405
50
-196.98331747
51
-100.49757553
0
ARC
8
BLACK
10
68.1179899999999918
20
-1.388199
40
1.3000007586432401
50
-10.49998708
51
79.49996958
0
ARC
8
BLACK
10
67.5712839999999915
20
-4.3379630000000002
40
1.2999997753884422
50
-100.49998708
51
-10.50003845
0
LINE
8
BLACK
6
CONTINUOUS
10
76.1609610000000004
20
-0.793963
11
75.6689250000000015
21
-3.4487509999999997
0
LINE
8
BLACK
6
CONTINUOUS
10
75.6689250000000015
20
-3.4487509999999997
11
77.5371099999999984
21
-3.7949989999999998
0
LINE
8
BLACK
6
CONTINUOUS
10
78.0338359999999938
20
-1.114903
11
78.0291459999999972
21
-1.1402109999999999
0
LINE
8
BLACK
6
CONTINUOUS
10
78.0291459999999972
20
-1.1402109999999999
11
76.1609610000000004
21
-0.793963
0
LINE
8
BLACK
6
CONTINUOUS
10
77.5371099999999984
20
-3.7949989999999998
11
77.5324189999999902
21
-3.8203069999999997
0
LINE
8
BLACK
6
CONTINUOUS
10
77.6597209999999905
20
-4.4192140000000002
11
78.1998249999999899
21
-5.2050700000000001
0
LINE
8
BLACK
6
CONTINUOUS
10
79.1531669999999963
20
-0.061293
11
78.3673100000000034
21
-0.601397
0
LINE
8
BLACK
6
CONTINUOUS
10
78.7133309999999966
20
-5.5385439999999999
11
80.5180209999999903
21
-5.873024
0
LINE
8
BLACK
6
CONTINUOUS
10
82.4574779999999947
20
-0.435408
11
79.7520729999999958
21
0.066009
0
LINE
8
BLACK
6
CONTINUOUS
10
83.5110629999999929
20
-1.5547039999999999
11
82.9709840000000014
21
-0.768883
0
LINE
8
BLACK
6
CONTINUOUS
10
83.6108539999999891
20
-2.3022100000000001
11
83.6396230000000003
21
-2.1469869999999998
0
LINE
8
BLACK
6
CONTINUOUS
10
82.7714789999999994
20
-8.4772929999999995
11
86.0162210000000016
21
-9.0786699999999989
0
LINE
8
BLACK
6
CONTINUOUS
10
87.0367399999999947
20
-3.5724419999999997
11
84.185299999999998
21
-3.0439590000000001
0
LINE
8
BLACK
6
CONTINUOUS
10
88.0507289999999898
20
-5.2350680000000001
11
88.0780649999999952
21
-5.08758
0
LINE
8
BLACK
6
CONTINUOUS
10
87.5586940000000027
20
-7.889856
11
89.4268780000000021
21
-8.2361039999999992
0
LINE
8
BLACK
6
CONTINUOUS
10
87.5313579999999973
20
-8.0373450000000002
11
87.5586940000000027
21
-7.889856
0
LINE
8
BLACK
6
CONTINUOUS
10
89.9189140000000009
20
-5.5813160000000002
11
88.0507289999999898
21
-5.2350680000000001
0
LINE
8
BLACK
6
CONTINUOUS
10
89.4268780000000021
20
-8.2361039999999992
11
89.9189140000000009
21
-5.5813160000000002
0
ARC
8
BLACK
10
78.8204309999999992
20
-1.2606889999999999
40
0.7999907823350216
50
124.50002803
51
169.50005395
0
ARC
8
BLACK
10
78.3190139999999957
20
-3.966094
40
0.7999906213506506
50
-190.50001648
51
-145.49997197
0
ARC
8
BLACK
10
79.6062859999999972
20
-0.7205859999999999
40
0.7999900549444349
50
79.49998352
51
124.49996901
0
ARC
8
BLACK
10
78.8591179999999952
20
-4.7519489999999998
40
0.7999909645702257
50
-145.50001253
51
-100.50001648
0
ARC
8
BLACK
10
79.9573729999999898
20
-7.3816039999999994
40
1.609391125955403
50
7.03373400
51
69.61294258
0
ARC
8
BLACK
10
82.3116919999999936
20
-1.222002
40
0.7999897990799631
50
34.50000958
51
79.50004089
0
ARC
8
BLACK
10
82.8516079999999988
20
-2.0079349999999998
40
0.8001870008854179
50
-10.00719586
51
34.50000799
0
ARC
8
BLACK
10
83.0451609999999931
20
-7.0006399999999998
40
1.5018008921068731
50
-172.96668705
51
-100.50002038
0
ARC
8
BLACK
10
84.3136519999999905
20
-2.35127
40
0.7044801534642405
50
-196.98331747
51
-100.49757553
0
ARC
8
BLACK
10
86.7998329999999925
20
-4.8506739999999997
40
1.3000007586432401
50
-10.49998708
51
79.49996958
0
ARC
8
BLACK
10
86.2531269999999921
20
-7.8004379999999998
40
1.2999997753884422
50
-100.49998708
51
-10.50003845
0
LINE
8
BLACK
6
CONTINUOUS
10
190.5981989999999939
20
7.2999999999999998
11
190.5981989999999939
21
4.5999999999999996
0
LINE
8
BLACK
6
CONTINUOUS
10
190.5981989999999939
20
4.5999999999999996
11
192.4981989999999996
21
4.5999999999999996
0
LINE
8
BLACK
6
CONTINUOUS
10
192.4981989999999996
20
7.3257389999999996
11
192.4981989999999996
21
7.2999999999999998
0
LINE
8
BLACK
6
CONTINUOUS
10
192.4981989999999996
20
7.2999999999999998
11
190.5981989999999939
21
7.2999999999999998
0
LINE
8
BLACK
6
CONTINUOUS
10
192.4981989999999996
20
4.5999999999999996
11
192.4981989999999996
21
4.5742609999999999
0
LINE
8
BLACK
6
CONTINUOUS
10
192.7325109999999881
20
4.0085819999999996
11
193.4067819999999926
21
3.334311
0
LINE
8
BLACK
6
CONTINUOUS
10
193.4067809999999952
20
8.5656879999999997
11
192.7325099999999907
21
7.8914169999999997
0
LINE
8
BLACK
6
CONTINUOUS
10
193.9724599999999839
20
3.0999999999999996
11
195.8078849999999989
21
3.0999999999999996
0
LINE
8
BLACK
6
CONTINUOUS
10
196.7239390000000014
20
8.7999999999999989
11
193.9724599999999839
21
8.7999999999999989
0
LINE
8
BLACK
6
CONTINUOUS
10
197.9638569999999902
20
7.8914479999999996
11
197.2896169999999927
21
8.5656879999999997
0
LINE
8
BLACK
6
CONTINUOUS
10
198.1981989999999882
20
7.1746439999999998
11
198.1981989999999882
21
7.3325109999999993
0
LINE
8
BLACK
6
CONTINUOUS
10
198.4981989999999996
20
0.95
11
201.7981989999999826
21
0.95
0
LINE
8
BLACK
6
CONTINUOUS
10
201.7981989999999826
20
6.5499999999999998
11
198.8981989999999769
21
6.5499999999999998
0
LINE
8
BLACK
6
CONTINUOUS
10
203.0981989999999939
20
5.0999999999999996
11
203.0981989999999939
21
5.25
0
LINE
8
BLACK
6
CONTINUOUS
10
203.0981989999999939
20
2.3999999999999999
11
204.9981989999999996
21
2.3999999999999999
0
LINE
8
BLACK
6
CONTINUOUS
10
203.0981989999999939
20
2.25
11
203.0981989999999939
21
2.3999999999999999
0
LINE
8
BLACK
6
CONTINUOUS
10
204.9981989999999996
20
5.0999999999999996
11
203.0981989999999939
21
5.0999999999999996
0
LINE
8
BLACK
6
CONTINUOUS
10
204.9981989999999996
20
2.3999999999999999
11
204.9981989999999996
21
5.0999999999999996
0
ARC
8
BLACK
10
193.2981900000000053
20
7.3257389999999996
40
0.799991
50
135.00000000
51
180.00000000
0
ARC
8
BLACK
10
193.2981900000000053
20
4.5742609999999999
40
0.79999091374965
50
-180.00000000
51
-135.00000000
0
ARC
8
BLACK
10
193.9724599999999839
20
8.0000090000000004
40
0.79999091374965
50
90.00000000
51
135.00000000
0
ARC
8
BLACK
10
193.9724599999999839
20
3.899991
40
0.799991
50
-135.00000000
51
-90.00000000
0
ARC
8
BLACK
10
195.5315420000000017
20
1.5145109999999999
40
1.6093914448542344
50
17.53373207
51
80.11294558
0
ARC
8
BLACK
10
196.7239390000000014
20
8.0000099999999996
40
0.79999
50
45.00000000
51
90.00000000
0
ARC
8
BLACK
10
197.3980389999999829
20
7.3256299999999994
40
0.8001874894348199
50
0.49277747
51
45.00000000
0
ARC
8
BLACK
10
198.4981989999999996
20
2.4518
40
1.5018
50
-162.46670747
51
-90.00000000
0
ARC
8
BLACK
10
198.8981689999999958
20
7.25448
40
0.7044800006387689
50
-186.48334735
51
-89.99756008
0
ARC
8
BLACK
10
201.7981989999999826
20
5.25
40
1.3
50
0.00000000
51
90.00000000
0
ARC
8
BLACK
10
201.7981989999999826
20
2.25
40
1.3
50
-90.00000000
51
-0.00000000
0
LINE
8
BLACK
6
CONTINUOUS
10
168.2240689999999859
20
6.4017759999999999
11
168.3888999999999783
21
3.7068119999999998
0
LINE
8
BLACK
6
CONTINUOUS
10
168.3888999999999783
20
3.7068119999999998
11
170.2853559999999788
21
3.8228039999999996
0
LINE
8
BLACK
6
CONTINUOUS
10
170.1189540000000022
20
6.5434589999999995
11
170.1205249999999864
21
6.5177679999999993
0
LINE
8
BLACK
6
CONTINUOUS
10
170.1205249999999864
20
6.5177679999999993
11
168.2240689999999859
21
6.4017759999999999
0
LINE
8
BLACK
6
CONTINUOUS
10
170.2853559999999788
20
3.8228039999999996
11
170.286927999999989
21
3.797113
0
LINE
8
BLACK
6
CONTINUOUS
10
170.5553359999999827
20
3.246794
11
171.2695129999999892
21
2.6149439999999999
0
LINE
8
BLACK
6
CONTINUOUS
10
170.9501439999999945
20
7.8365629999999999
11
170.3182939999999803
21
7.1223859999999997
0
LINE
8
BLACK
6
CONTINUOUS
10
171.8484399999999823
20
2.4156029999999999
11
173.6804419999999993
21
2.5276529999999999
0
LINE
8
BLACK
6
CONTINUOUS
10
174.2468109999999797
20
8.2729459999999992
11
171.5004639999999938
21
8.1049720000000001
0
LINE
8
BLACK
6
CONTINUOUS
10
175.5398820000000057
20
7.441783
11
174.8257380000000012
21
8.0736039999999996
0
LINE
8
BLACK
6
CONTINUOUS
10
175.817545999999993
20
6.7406229999999994
11
175.8079089999999951
21
6.8981949999999994
0
LINE
8
BLACK
6
CONTINUOUS
10
176.4969920000000059
20
0.545903
11
179.790836999999982
21
0.7473639999999999
0
LINE
8
BLACK
6
CONTINUOUS
10
179.448964999999987
20
6.3369179999999998
11
176.5543739999999957
21
6.159878
0
LINE
8
BLACK
6
CONTINUOUS
10
180.8350609999999961
20
4.9689860000000001
11
180.82590399999998
21
5.1187059999999995
0
LINE
8
BLACK
6
CONTINUOUS
10
180.9998919999999885
20
2.274022
11
182.896347999999989
21
2.3900139999999999
0
LINE
8
BLACK
6
CONTINUOUS
10
181.0090490000000045
20
2.1243019999999997
11
180.9998919999999885
21
2.274022
0
LINE
8
BLACK
6
CONTINUOUS
10
182.7315169999999966
20
5.0849779999999996
11
180.8350609999999961
21
4.9689860000000001
0
LINE
8
BLACK
6
CONTINUOUS
10
182.896347999999989
20
2.3900139999999999
11
182.7315169999999966
21
5.0849779999999996
0
ARC
8
BLACK
10
170.9174529999999947
20
6.5922969999999994
40
0.7999911269789184
50
-221.49998820
51
-176.50002080
0
ARC
8
BLACK
10
171.085425999999984
20
3.8459509999999999
40
0.7999903241596114
50
-176.50001643
51
-131.50003565
0
ARC
8
BLACK
10
171.5493019999999831
20
7.3064729999999996
40
0.7999910731151941
50
93.49997920
51
138.50001180
0
ARC
8
BLACK
10
171.799601999999993
20
3.214102
40
0.7999911269789184
50
-131.50003565
51
-86.50002080
0
ARC
8
BLACK
10
173.5014060000000029
20
0.9282509999999999
40
1.6093913902155683
50
21.03373327
51
83.61293736
0
ARC
8
BLACK
10
174.2956489999999974
20
7.4744479999999998
40
0.7999901288441001
50
48.49997053
51
93.49998357
0
ARC
8
BLACK
10
175.0096609999999941
20
6.8424779999999998
40
0.8001879728326339
50
3.99280016
51
48.49996110
0
ARC
8
BLACK
10
176.4053099999999858
20
2.044902
40
1.5018001169013804
50
-158.96672638
51
-86.50002690
0
ARC
8
BLACK
10
176.5113369999999975
20
6.8630420000000001
40
0.7044798040149909
50
-182.98333098
51
-86.49759326
0
ARC
8
BLACK
10
179.5283279999999877
20
5.0393429999999997
40
1.2999997563053618
50
3.49999349
51
93.49999618
0
ARC
8
BLACK
10
179.7114739999999813
20
2.0449389999999998
40
1.2999997563053618
50
-86.50000382
51
3.49999618
0
LINE
8
BLACK
6
CONTINUOUS
10
148.3170779999999809
20
4.2843080000000002
11
148.6461249999999836
21
1.604433
0
LINE
8
BLACK
6
CONTINUOUS
10
148.6461249999999836
20
1.604433
11
150.5319629999999904
21
1.835985
0
LINE
8
BLACK
6
CONTINUOUS
10
150.1997790000000066
20
4.5414069999999995
11
150.2029159999999877
21
4.51586
0
LINE
8
BLACK
6
CONTINUOUS
10
150.2029159999999877
20
4.51586
11
148.3170779999999809
21
4.2843080000000002
0
LINE
8
BLACK
6
CONTINUOUS
10
150.5319629999999904
20
1.835985
11
150.5350999999999999
21
1.810438
0
LINE
8
BLACK
6
CONTINUOUS
10
150.8366039999999941
20
1.277531
11
151.5880219999999952
21
0.6904589999999999
0
LINE
8
BLACK
6
CONTINUOUS
10
150.9504770000000065
20
5.8828420000000001
11
150.3634040000000027
21
5.131424
0
LINE
8
BLACK
6
CONTINUOUS
10
152.1780389999999841
20
0.526833
11
153.9997829999999794
21
0.7505149999999999
0
LINE
8
BLACK
6
CONTINUOUS
10
154.2143539999999859
20
6.5196670000000001
11
151.4833840000000009
21
6.1843459999999997
0
LINE
8
BLACK
6
CONTINUOUS
10
155.555753999999979
20
5.7689949999999994
11
154.8043700000000058
21
6.3560400000000001
0
LINE
8
BLACK
6
CONTINUOUS
10
155.8757059999999797
20
5.086093
11
155.8564669999999808
21
5.2427839999999994
0
LINE
8
BLACK
6
CONTINUOUS
10
156.9320629999999994
20
-1.0555919999999999
11
160.2074649999999849
21
-0.653423
0
LINE
8
BLACK
6
CONTINUOUS
10
159.5249969999999848
20
4.9048349999999994
11
156.6466130000000021
21
4.5514139999999994
0
LINE
8
BLACK
6
CONTINUOUS
10
160.9920170000000041
20
3.6240729999999997
11
160.9737369999999999
21
3.7729549999999996
0
LINE
8
BLACK
6
CONTINUOUS
10
161.3210650000000044
20
0.944199
11
163.2069019999999853
21
1.1757499999999999
0
LINE
8
BLACK
6
CONTINUOUS
10
161.3393449999999802
20
0.7953169999999999
11
161.3210650000000044
21
0.944199
0
LINE
8
BLACK
6
CONTINUOUS
10
162.8778549999999825
20
3.8556249999999999
11
160.9920170000000041
21
3.6240729999999997
0
LINE
8
BLACK
6
CONTINUOUS
10
163.2069019999999853
20
1.1757499999999999
11
162.8778549999999825
21
3.8556249999999999
0
ARC
8
BLACK
10
150.9938070000000039
20
4.6389009999999997
40
0.7999909654614856
50
-217.99999879
51
-173.00002696
0
ARC
8
BLACK
10
151.3291279999999972
20
1.907932
40
0.7999908195579496
50
-173.00002696
51
-128.00004288
0
ARC
8
BLACK
10
151.5808779999999842
20
5.3903179999999997
40
0.7999908195579496
50
96.99997304
51
141.99995712
0
ARC
8
BLACK
10
152.0805450000000008
20
1.3208609999999998
40
0.7999909654614856
50
-128.00004288
51
-83.00002696
0
ARC
8
BLACK
10
153.9187220000000025
20
-0.856834
40
1.6093917153763404
50
24.53373307
51
87.11293458
0
ARC
8
BLACK
10
154.3118479999999977
20
5.7256399999999994
40
0.799989972915286
50
52.00002590
51
96.99998176
0
ARC
8
BLACK
10
155.0631089999999972
20
5.138439
40
0.8001874562632183
50
7.49274711
51
51.99996273
0
ARC
8
BLACK
10
156.749038999999982
20
0.435014
40
1.5018002636209649
50
-155.46667087
51
-82.99997740
0
ARC
8
BLACK
10
156.5607289999999807
20
5.2506389999999996
40
0.7044797101982426
50
-179.48338151
51
-82.99758106
0
ARC
8
BLACK
10
159.6834269999999947
20
3.614525
40
1.2999999849999999
50
6.99999358
51
96.99999358
0
ARC
8
BLACK
10
160.0490350000000035
20
0.636887
40
1.2999999849999999
50
-83.00000642
51
6.99999358
0
LINE
8
BLACK
6
CONTINUOUS
10
128.576484999999991
20
0.955498
11
129.0685210000000041
21
-1.69929
0
LINE
8
BLACK
6
CONTINUOUS
10
129.0685210000000041
20
-1.69929
11
130.9367049999999892
21
-1.353043
0
LINE
8
BLACK
6
CONTINUOUS
10
130.4399779999999964
20
1.327053
11
130.4446690000000046
21
1.3017449999999999
0
LINE
8
BLACK
6
CONTINUOUS
10
130.4446690000000046
20
1.3017449999999999
11
128.576484999999991
21
0.955498
0
LINE
8
BLACK
6
CONTINUOUS
10
130.9367049999999892
20
-1.353043
11
130.941395
21
-1.3783509999999999
0
LINE
8
BLACK
6
CONTINUOUS
10
131.2748709999999903
20
-1.8918579999999998
11
132.0607269999999858
21
-2.431962
0
LINE
8
BLACK
6
CONTINUOUS
10
131.1073829999999987
20
2.7118150000000001
11
130.567278999999985
21
1.925959
0
LINE
8
BLACK
6
CONTINUOUS
10
132.6596319999999878
20
-2.5592630000000001
11
134.4643230000000074
21
-2.224783
0
LINE
8
BLACK
6
CONTINUOUS
10
134.3262949999999876
20
3.5467079999999997
11
131.6208900000000028
21
3.0452900000000001
0
LINE
8
BLACK
6
CONTINUOUS
10
135.7110209999999881
20
2.879327
11
134.9252009999999871
21
3.4194059999999999
0
LINE
8
BLACK
6
CONTINUOUS
10
136.0720660000000066
20
2.217231
11
136.0432969999999955
21
2.3724539999999998
0
LINE
8
BLACK
6
CONTINUOUS
10
137.5013940000000048
20
-3.8485099999999997
11
140.7461349999999811
21
-3.2471329999999998
0
LINE
8
BLACK
6
CONTINUOUS
10
139.7256160000000023
20
2.2590949999999999
11
136.8741770000000031
21
1.7306119999999998
0
LINE
8
BLACK
6
CONTINUOUS
10
141.2680890000000034
20
1.070281
11
141.2407539999999813
21
1.2177689999999999
0
LINE
8
BLACK
6
CONTINUOUS
10
141.7601249999999879
20
-1.5845069999999999
11
143.6283090000000016
21
-1.2382599999999999
0
LINE
8
BLACK
6
CONTINUOUS
10
141.7874599999999816
20
-1.731995
11
141.7601249999999879
21
-1.5845069999999999
0
LINE
8
BLACK
6
CONTINUOUS
10
143.1362729999999885
20
1.4165289999999999
11
141.2680890000000034
21
1.070281
0
LINE
8
BLACK
6
CONTINUOUS
10
143.6283090000000016
20
-1.2382599999999999
11
143.1362729999999885
21
1.4165289999999999
0
ARC
8
BLACK
10
131.2265730000000019
20
1.4728399999999999
40
0.7999909645702257
50
-214.50002803
51
-169.49998352
0
ARC
8
BLACK
10
131.7279900000000055
20
-1.232564
40
0.7999908790711304
50
-169.49998352
51
-124.49992844
0
ARC
8
BLACK
10
131.7666769999999872
20
2.2586949999999999
40
0.7999914454767626
50
100.50001648
51
145.50001253
0
ARC
8
BLACK
10
132.5138460000000009
20
-1.772667
40
0.7999917655901214
50
-124.49998747
51
-79.50006700
0
ARC
8
BLACK
10
134.4815399999999954
20
-3.834082
40
1.6093910949455388
50
28.03373640
51
90.61295247
0
ARC
8
BLACK
10
134.4720820000000003
20
2.7601139999999997
40
0.7999899813153912
50
55.49999042
51
100.50002953
0
ARC
8
BLACK
10
135.25779
20
2.2198709999999999
40
0.800187825011728
50
10.99278115
51
55.50003256
0
ARC
8
BLACK
10
137.2277129999999943
20
-2.371858
40
1.5017997266163687
50
-151.96673720
51
-79.50001018
0
ARC
8
BLACK
10
136.7457660000000033
20
2.423289
40
0.7044791063260853
50
-175.98337329
51
-79.49752845
0
ARC
8
BLACK
10
139.962522000000007
20
0.9808629999999999
40
1.3000005764075646
50
10.49998708
51
100.49998708
0
ARC
8
BLACK
10
140.5092290000000048
20
-1.9689019999999999
40
1.2999997753884422
50
-79.50000489
51
10.50003845
0
LINE
8
BLACK
6
CONTINUOUS
10
109.8946419999999904
20
-2.506977
11
110.3866779999999892
21
-5.1617649999999999
0
LINE
8
BLACK
6
CONTINUOUS
10
110.3866779999999892
20
-5.1617649999999999
11
112.2548619999999886
21
-4.815518
0
LINE
8
BLACK
6
CONTINUOUS
10
111.7581349999999958
20
-2.1354219999999997
11
111.7628259999999898
21
-2.16073
0
LINE
8
BLACK
6
CONTINUOUS
10
111.7628259999999898
20
-2.16073
11
109.8946419999999904
21
-2.506977
0
LINE
8
BLACK
6
CONTINUOUS
10
112.2548619999999886
20
-4.815518
11
112.2595519999999993
21
-4.8408259999999999
0
LINE
8
BLACK
6
CONTINUOUS
10
112.5930279999999897
20
-5.3543329999999996
11
113.3788839999999993
21
-5.8944369999999999
0
LINE
8
BLACK
6
CONTINUOUS
10
112.425539999999998
20
-0.75066
11
111.8854359999999986
21
-1.536516
0
LINE
8
BLACK
6
CONTINUOUS
10
113.9777890000000014
20
-6.021738
11
115.7824799999999925
21
-5.6872579999999999
0
LINE
8
BLACK
6
CONTINUOUS
10
115.6444520000000011
20
0.084233
11
112.939046999999988
21
-0.417185
0
LINE
8
BLACK
6
CONTINUOUS
10
117.0291780000000017
20
-0.583148
11
116.2433580000000006
21
-0.043069
0
LINE
8
BLACK
6
CONTINUOUS
10
117.3902229999999918
20
-1.245244
11
117.3614539999999948
21
-1.0900209999999999
0
LINE
8
BLACK
6
CONTINUOUS
10
118.8195509999999899
20
-7.3109849999999996
11
122.0642919999999947
21
-6.7096079999999994
0
LINE
8
BLACK
6
CONTINUOUS
10
121.0437730000000016
20
-1.2033799999999999
11
118.1923339999999882
21
-1.7318629999999999
0
LINE
8
BLACK
6
CONTINUOUS
10
122.5862459999999885
20
-2.3921939999999999
11
122.5589109999999948
21
-2.2447059999999999
0
LINE
8
BLACK
6
CONTINUOUS
10
123.0782820000000015
20
-5.0469819999999999
11
124.9464660000000009
21
-4.7007349999999999
0
LINE
8
BLACK
6
CONTINUOUS
10
123.1056169999999952
20
-5.1944699999999999
11
123.0782820000000015
21
-5.0469819999999999
0
LINE
8
BLACK
6
CONTINUOUS
10
124.4544299999999879
20
-2.0459459999999998
11
122.5862459999999885
21
-2.3921939999999999
0
LINE
8
BLACK
6
CONTINUOUS
10
124.9464660000000009
20
-4.7007349999999999
11
124.4544299999999879
21
-2.0459459999999998
0
ARC
8
BLACK
10
112.5447300000000013
20
-1.9896349999999998
40
0.7999909645702257
50
-214.50002803
51
-169.49998352
0
ARC
8
BLACK
10
113.0461469999999906
20
-4.6950389999999995
40
0.7999908790711304
50
-169.49998352
51
-124.49992844
0
ARC
8
BLACK
10
113.0848340000000007
20
-1.2037799999999999
40
0.7999914454767626
50
100.50001648
51
145.50001253
0
ARC
8
BLACK
10
113.8320030000000003
20
-5.2351419999999997
40
0.7999917655901214
50
-124.49998747
51
-79.50006700
0
ARC
8
BLACK
10
115.7996969999999948
20
-7.296557
40
1.6093910949455388
50
28.03373640
51
90.61295247
0
ARC
8
BLACK
10
115.7902389999999997
20
-0.702361
40
0.7999899813153912
50
55.49999042
51
100.50002953
0
ARC
8
BLACK
10
116.5759469999999993
20
-1.242604
40
0.800187825011728
50
10.99278115
51
55.50003256
0
ARC
8
BLACK
10
118.5458699999999936
20
-5.834333
40
1.5017997266163687
50
-151.96673720
51
-79.50001018
0
ARC
8
BLACK
10
118.0639229999999884
20
-1.0391859999999999
40
0.7044791063260853
50
-175.98337329
51
-79.49752845
0
ARC
8
BLACK
10
121.2806789999999921
20
-2.4816119999999997
40
1.3000005764075646
50
10.49998708
51
100.49998708
0
ARC
8
BLACK
10
121.82738599999999
20
-5.4313769999999995
40
1.2999997753884422
50
-79.50000489
51
10.50003845
0
LINE
8
BLACK
6
CONTINUOUS
10
-4.7000000000000002
20
-11.6999999999999993
11
-4.7000000000000002
21
-14.3999999999999986
0
LINE
8
BLACK
6
CONTINUOUS
10
-4.7000000000000002
20
-14.3999999999999986
11
-2.7999999999999998
21
-14.3999999999999986
0
LINE
8
BLACK
6
CONTINUOUS
10
-2.7999999999999998
20
-11.6742609999999996
11
-2.7999999999999998
21
-11.6999999999999993
0
LINE
8
BLACK
6
CONTINUOUS
10
-2.7999999999999998
20
-11.6999999999999993
11
-4.7000000000000002
21
-11.6999999999999993
0
LINE
8
BLACK
6
CONTINUOUS
10
-2.7999999999999998
20
-14.3999999999999986
11
-2.7999999999999998
21
-14.4257390000000001
0
LINE
8
BLACK
6
CONTINUOUS
10
-2.5656879999999997
20
-14.9914179999999995
11
-1.8914169999999999
21
-15.6656889999999986
0
LINE
8
BLACK
6
CONTINUOUS
10
-1.8914179999999998
20
-10.4343120000000003
11
-2.5656889999999999
21
-11.1085829999999994
0
LINE
8
BLACK
6
CONTINUOUS
10
-1.325739
20
-15.8999999999999986
11
0.509686
21
-15.8999999999999986
0
LINE
8
BLACK
6
CONTINUOUS
10
1.42574
20
-10.1999999999999993
11
-1.325739
21
-10.1999999999999993
0
LINE
8
BLACK
6
CONTINUOUS
10
2.6656580000000001
20
-11.1085519999999995
11
1.9914179999999999
21
-10.4343120000000003
0
LINE
8
BLACK
6
CONTINUOUS
10
2.8999999999999999
20
-11.8253559999999993
11
2.8999999999999999
21
-11.6674889999999998
0
LINE
8
BLACK
6
CONTINUOUS
10
3.1999999999999997
20
-18.0500000000000007
11
6.5
21
-18.0500000000000007
0
LINE
8
BLACK
6
CONTINUOUS
10
6.5
20
-12.4499999999999993
11
3.5999999999999996
21
-12.4499999999999993
0
LINE
8
BLACK
6
CONTINUOUS
10
7.7999999999999998
20
-13.8999999999999986
11
7.7999999999999998
21
-13.75
0
LINE
8
BLACK
6
CONTINUOUS
10
7.7999999999999998
20
-16.5999999999999979
11
9.6999999999999993
21
-16.5999999999999979
0
LINE
8
BLACK
6
CONTINUOUS
10
7.7999999999999998
20
-16.75
11
7.7999999999999998
21
-16.5999999999999979
0
LINE
8
BLACK
6
CONTINUOUS
10
9.6999999999999993
20
-13.8999999999999986
11
7.7999999999999998
21
-13.8999999999999986
0
LINE
8
BLACK
6
CONTINUOUS
10
9.6999999999999993
20
-16.5999999999999979
11
9.6999999999999993
21
-13.8999999999999986
0
ARC
8
BLACK
10
-2.0000089999999999
20
-11.6742609999999996
40
0.799991
50
135.00000000
51
180.00000000
0
ARC
8
BLACK
10
-2.0000089999999999
20
-14.4257390000000001
40
0.79999091374965
50
-180.00000000
51
-135.00000000
0
ARC
8
BLACK
10
-1.325739
20
-10.9999909999999996
40
0.79999091374965
50
90.00000000
51
135.00000000
0
ARC
8
BLACK
10
-1.325739
20
-15.100009
40
0.799991
50
-135.00000000
51
-90.00000000
0
ARC
8
BLACK
10
0.233343
20
-17.4854889999999976
40
1.6093914448542344
50
17.53373207
51
80.11294558
0
ARC
8
BLACK
10
1.42574
20
-10.9999900000000004
40
0.79999
50
45.00000000
51
90.00000000
0
ARC
8
BLACK
10
2.0998399999999999
20
-11.6743699999999997
40
0.8001874894348199
50
0.49277747
51
45.00000000
0
ARC
8
BLACK
10
3.1999999999999997
20
-16.5481999999999978
40
1.5018
50
-162.46670747
51
-90.00000000
0
ARC
8
BLACK
10
3.5999699999999999
20
-11.7455199999999991
40
0.7044800006387689
50
-186.48334735
51
-89.99756008
0
ARC
8
BLACK
10
6.5
20
-13.75
40
1.3
50
0.00000000
51
90.00000000
0
ARC
8
BLACK
10
6.5
20
-16.75
40
1.3
50
-90.00000000
51
-0.00000000
0
LINE
8
BLACK
6
CONTINUOUS
10
17.6916629999999984
20
-12.0243690000000001
11
17.5268319999999989
21
-14.7193329999999989
0
LINE
8
BLACK
6
CONTINUOUS
10
17.5268319999999989
20
-14.7193329999999989
11
19.4232879999999994
21
-14.8353249999999992
0
LINE
8
BLACK
6
CONTINUOUS
10
19.5896899999999974
20
-12.1146700000000003
11
19.5881189999999989
21
-12.1403609999999986
0
LINE
8
BLACK
6
CONTINUOUS
10
19.5881189999999989
20
-12.1403609999999986
11
17.6916629999999984
21
-12.0243690000000001
0
LINE
8
BLACK
6
CONTINUOUS
10
19.4232879999999994
20
-14.8353249999999992
11
19.4217169999999975
21
-14.8610159999999993
0
LINE
8
BLACK
6
CONTINUOUS
10
19.6210579999999979
20
-15.4399439999999988
11
20.2529079999999979
21
-16.154121
0
LINE
8
BLACK
6
CONTINUOUS
10
20.5722749999999976
20
-10.9325010000000002
11
19.8580979999999983
21
-11.5643519999999995
0
LINE
8
BLACK
6
CONTINUOUS
10
20.8032259999999987
20
-16.4225290000000008
11
22.6352279999999979
21
-16.5345790000000008
0
LINE
8
BLACK
6
CONTINUOUS
10
23.897549999999999
20
-10.901133999999999
11
21.1512029999999989
21
-10.7331599999999998
0
LINE
8
BLACK
6
CONTINUOUS
10
25.0796889999999983
20
-11.8836870000000001
11
24.4478679999999997
21
-11.1695429999999991
0
LINE
8
BLACK
6
CONTINUOUS
10
25.2698339999999995
20
-12.6134599999999999
11
25.2794719999999984
21
-12.4558869999999988
0
LINE
8
BLACK
6
CONTINUOUS
10
25.1892689999999995
20
-18.8448080000000004
11
28.4831139999999969
21
-19.0462679999999978
0
LINE
8
BLACK
6
CONTINUOUS
10
28.8249859999999991
20
-13.4567139999999998
11
25.9303949999999972
21
-13.279672999999999
0
LINE
8
BLACK
6
CONTINUOUS
10
30.0340409999999984
20
-14.9833719999999992
11
30.0431980000000003
21
-14.8336519999999989
0
LINE
8
BLACK
6
CONTINUOUS
10
29.8692099999999989
20
-17.6783359999999981
11
31.7656659999999995
21
-17.7943280000000001
0
LINE
8
BLACK
6
CONTINUOUS
10
29.8600529999999971
20
-17.8280560000000001
11
29.8692099999999989
21
-17.6783359999999981
0
LINE
8
BLACK
6
CONTINUOUS
10
31.930496999999999
20
-15.0993639999999996
11
30.0340409999999984
21
-14.9833719999999992
0
LINE
8
BLACK
6
CONTINUOUS
10
31.7656659999999995
20
-17.7943280000000001
11
31.930496999999999
21
-15.0993639999999996
0
ARC
8
BLACK
10
20.3881890000000006
20
-12.1635080000000002
40
0.7999911269789184
50
131.50003565
51
176.50002080
0
ARC
8
BLACK
10
20.2202149999999996
20
-14.9098539999999993
40
0.7999903241596114
50
-183.49998357
51
-138.49996435
0
ARC
8
BLACK
10
21.1023649999999989
20
-11.5316589999999994
40
0.7999910731151941
50
86.50002080
51
131.49998820
0
ARC
8
BLACK
10
20.8520649999999996
20
-15.6240299999999994
40
0.7999911880277182
50
-138.50001180
51
-93.50005068
0
ARC
8
BLACK
10
22.2626080000000002
20
-18.1002399999999994
40
1.6093911989696601
50
14.03371356
51
76.61291980
0
ARC
8
BLACK
10
23.848711999999999
20
-11.6996319999999994
40
0.7999901288441001
50
41.50002947
51
86.50001643
0
ARC
8
BLACK
10
24.4803839999999973
20
-12.413907
40
0.8001873102124277
50
-3.00719891
51
41.49998527
0
ARC
8
BLACK
10
25.2809519999999992
20
-17.3458089999999991
40
1.5018001779497829
50
-165.96669901
51
-93.50001118
0
ARC
8
BLACK
10
25.9733729999999987
20
-12.5765049999999992
40
0.7044801946882537
50
-189.98334413
51
-93.49759733
0
ARC
8
BLACK
10
28.7456229999999984
20
-14.754289
40
1.2999997563053618
50
-3.49999618
51
86.50000382
0
ARC
8
BLACK
10
28.5624769999999977
20
-17.7486929999999994
40
1.3000007544401655
50
-93.49999618
51
-3.49999349
0
LINE
8
BLACK
6
CONTINUOUS
10
37.6511870000000002
20
-13.5701199999999993
11
37.3221399999999974
21
-16.2499949999999984
0
LINE
8
BLACK
6
CONTINUOUS
10
37.3221399999999974
20
-16.2499949999999984
11
39.2079779999999971
21
-16.4815469999999991
0
LINE
8
BLACK
6
CONTINUOUS
10
39.5401619999999951
20
-13.7761249999999986
11
39.5370249999999999
21
-13.8016719999999999
0
LINE
8
BLACK
6
CONTINUOUS
10
39.5370249999999999
20
-13.8016719999999999
11
37.6511870000000002
21
-13.5701199999999993
0
LINE
8
BLACK
6
CONTINUOUS
10
39.2079779999999971
20
-16.4815469999999991
11
39.2048409999999947
21
-16.5070939999999986
0
LINE
8
BLACK
6
CONTINUOUS
10
39.368468
20
-17.0971119999999992
11
39.9555399999999992
21
-17.8485300000000002
0
LINE
8
BLACK
6
CONTINUOUS
10
40.593083
20
-12.6561459999999997
11
39.841664999999999
21
-13.2432189999999999
0
LINE
8
BLACK
6
CONTINUOUS
10
40.4884459999999962
20
-18.1500330000000005
11
42.3101899999999986
21
-18.3737150000000007
0
LINE
8
BLACK
6
CONTINUOUS
10
43.9140709999999999
20
-12.8278409999999994
11
41.1831010000000006
21
-12.492519999999999
0
LINE
8
BLACK
6
CONTINUOUS
10
45.0340220000000002
20
-13.8807289999999988
11
44.4469769999999968
21
-13.1293449999999989
0
LINE
8
BLACK
6
CONTINUOUS
10
45.1792609999999968
20
-14.620749
11
45.1984999999999957
21
-14.4640589999999989
0
LINE
8
BLACK
6
CONTINUOUS
10
44.718432
20
-20.8355560000000004
11
47.9938339999999997
21
-21.2377249999999975
0
LINE
8
BLACK
6
CONTINUOUS
10
48.6763019999999997
20
-15.6794659999999997
11
45.7979179999999957
21
-15.3260449999999988
0
LINE
8
BLACK
6
CONTINUOUS
10
49.7899019999999979
20
-17.2770890000000001
11
49.8081819999999951
21
-17.1282069999999997
0
LINE
8
BLACK
6
CONTINUOUS
10
49.4608539999999977
20
-19.9569629999999982
11
51.3466919999999973
21
-20.1885149999999989
0
LINE
8
BLACK
6
CONTINUOUS
10
49.4425740000000005
20
-20.1058449999999986
11
49.4608539999999977
21
-19.9569629999999982
0
LINE
8
BLACK
6
CONTINUOUS
10
51.6757390000000001
20
-17.5086399999999998
11
49.7899019999999979
21
-17.2770890000000001
0
LINE
8
BLACK
6
CONTINUOUS
10
51.3466919999999973
20
-20.1885149999999989
11
51.6757390000000001
21
-17.5086399999999998
0
ARC
8
BLACK
10
40.3341899999999995
20
-13.8736189999999997
40
0.7999909654614856
50
128.00004288
51
173.00002696
0
ARC
8
BLACK
10
39.9988689999999991
20
-16.6045879999999997
40
0.7999908195579496
50
-186.99997304
51
-141.99995712
0
ARC
8
BLACK
10
41.085606999999996
20
-13.2865479999999998
40
0.7999916075684793
50
83.00002696
51
127.99999879
0
ARC
8
BLACK
10
40.5859400000000008
20
-17.3560049999999997
40
0.7999909654614856
50
-141.99995712
51
-96.99997304
0
ARC
8
BLACK
10
41.8426839999999984
20
-19.9137079999999997
40
1.6093912824683125
50
10.53373019
51
73.11293209
0
ARC
8
BLACK
10
43.8165769999999952
20
-13.6218679999999992
40
0.799989972915286
50
38.00003054
51
83.00001824
0
ARC
8
BLACK
10
44.4034659999999946
20
-14.3733729999999991
40
0.8001868406016185
50
-6.50722422
51
37.99998084
0
ARC
8
BLACK
10
44.9014549999999986
20
-19.3449500000000008
40
1.5018001417515581
50
-169.46671895
51
-96.99998473
0
ARC
8
BLACK
10
45.8837429999999955
20
-14.6268129999999985
40
0.7044794677270586
50
-193.48338656
51
-96.99758682
0
ARC
8
BLACK
10
48.517871999999997
20
-16.9697759999999995
40
1.2999999849999999
50
-7.00003732
51
83.00000642
0
ARC
8
BLACK
10
48.1522639999999953
20
-19.9474149999999995
40
1.2999999849999999
50
-96.99999358
51
-6.99999358
0
LINE
8
BLACK
6
CONTINUOUS
10
57.4791179999999997
20
-16.3314880000000002
11
56.9870820000000009
21
-18.9862760000000002
0
LINE
8
BLACK
6
CONTINUOUS
10
56.9870820000000009
20
-18.9862760000000002
11
58.8552669999999978
21
-19.3325239999999994
0
LINE
8
BLACK
6
CONTINUOUS
10
59.3519930000000002
20
-16.6524280000000005
11
59.3473029999999966
21
-16.6777359999999994
0
LINE
8
BLACK
6
CONTINUOUS
10
59.3473029999999966
20
-16.6777359999999994
11
57.4791179999999997
21
-16.3314880000000002
0
LINE
8
BLACK
6
CONTINUOUS
10
58.8552669999999978
20
-19.3325239999999994
11
58.8505759999999967
21
-19.3578319999999984
0
LINE
8
BLACK
6
CONTINUOUS
10
58.9778779999999969
20
-19.9567389999999989
11
59.5179819999999964
21
-20.7425949999999979
0
LINE
8
BLACK
6
CONTINUOUS
10
60.4713239999999956
20
-15.5988179999999996
11
59.6854669999999956
21
-16.1389220000000009
0
LINE
8
BLACK
6
CONTINUOUS
10
60.031487999999996
20
-21.0760690000000004
11
61.8361779999999968
21
-21.4105489999999996
0
LINE
8
BLACK
6
CONTINUOUS
10
63.7756349999999941
20
-15.9729329999999994
11
61.0702299999999951
21
-15.4715159999999994
0
LINE
8
BLACK
6
CONTINUOUS
10
64.8292199999999923
20
-17.0922289999999997
11
64.2891410000000008
21
-16.3064079999999976
0
LINE
8
BLACK
6
CONTINUOUS
10
64.9290110000000027
20
-17.8397349999999975
11
64.9577799999999996
21
-17.684511999999998
0
LINE
8
BLACK
6
CONTINUOUS
10
64.0896359999999987
20
-24.0148179999999982
11
67.334378000000001
21
-24.6161949999999976
0
LINE
8
BLACK
6
CONTINUOUS
10
68.354896999999994
20
-19.1099669999999975
11
65.5034569999999974
21
-18.5814839999999997
0
LINE
8
BLACK
6
CONTINUOUS
10
69.3688860000000034
20
-20.7725930000000005
11
69.3962219999999945
21
-20.6251049999999978
0
LINE
8
BLACK
6
CONTINUOUS
10
68.876851000000002
20
-23.4273810000000005
11
70.7450350000000014
21
-23.7736289999999997
0
LINE
8
BLACK
6
CONTINUOUS
10
68.8495149999999967
20
-23.5748700000000007
11
68.876851000000002
21
-23.4273810000000005
0
LINE
8
BLACK
6
CONTINUOUS
10
71.2370710000000003
20
-21.1188409999999998
11
69.3688860000000034
21
-20.7725930000000005
0
LINE
8
BLACK
6
CONTINUOUS
10
70.7450350000000014
20
-23.7736289999999997
11
71.2370710000000003
21
-21.1188409999999998
0
ARC
8
BLACK
10
60.1385879999999986
20
-16.798213999999998
40
0.7999907823350216
50
124.50002803
51
169.50005395
0
ARC
8
BLACK
10
59.637170999999995
20
-19.5036190000000005
40
0.7999906213506506
50
-190.50001648
51
-145.49997197
0
ARC
8
BLACK
10
60.9244429999999966
20
-16.2581109999999995
40
0.7999900549444349
50
79.49998352
51
124.49996901
0
ARC
8
BLACK
10
60.1772749999999945
20
-20.2894739999999985
40
0.7999909645702257
50
-145.50001253
51
-100.50001648
0
ARC
8
BLACK
10
61.2755299999999963
20
-22.9191289999999981
40
1.609391125955403
50
7.03373400
51
69.61294258
0
ARC
8
BLACK
10
63.6298490000000001
20
-16.7595269999999985
40
0.7999897990799631
50
34.50000958
51
79.50004089
0
ARC
8
BLACK
10
64.1697649999999982
20
-17.5454599999999985
40
0.8001870008854179
50
-10.00719586
51
34.50000799
0
ARC
8
BLACK
10
64.3633179999999925
20
-22.5381649999999993
40
1.5018008921068731
50
-172.96668705
51
-100.50002038
0
ARC
8
BLACK
10
65.6318090000000041
20
-17.8887949999999982
40
0.7044801534642405
50
-196.98331747
51
-100.49757553
0
ARC
8
BLACK
10
68.1179899999999918
20
-20.3881990000000002
40
1.3000007586432401
50
-10.49998708
51
79.49996958
0
ARC
8
BLACK
10
67.5712839999999915
20
-23.3379629999999985
40
1.2999997753884422
50
-100.49998708
51
-10.50003845
0
LINE
8
BLACK
6
CONTINUOUS
10
76.1609610000000004
20
-19.793962999999998
11
75.6689250000000015
21
-22.4487509999999979
0
LINE
8
BLACK
6
CONTINUOUS
10
75.6689250000000015
20
-22.4487509999999979
11
77.5371099999999984
21
-22.7949990000000007
0
LINE
8
BLACK
6
CONTINUOUS
10
78.0338359999999938
20
-20.1149029999999982
11
78.0291459999999972
21
-20.1402110000000008
0
LINE
8
BLACK
6
CONTINUOUS
10
78.0291459999999972
20
-20.1402110000000008
11
76.1609610000000004
21
-19.793962999999998
0
LINE
8
BLACK
6
CONTINUOUS
10
77.5371099999999984
20
-22.7949990000000007
11
77.5324189999999902
21
-22.8203069999999997
0
LINE
8
BLACK
6
CONTINUOUS
10
77.6597209999999905
20
-23.4192140000000002
11
78.1998249999999899
21
-24.2050699999999992
0
LINE
8
BLACK
6
CONTINUOUS
10
79.1531669999999963
20
-19.0612929999999992
11
78.3673100000000034
21
-19.6013969999999986
0
LINE
8
BLACK
6
CONTINUOUS
10
78.7133309999999966
20
-24.5385439999999981
11
80.5180209999999903
21
-24.8730239999999974
0
LINE
8
BLACK
6
CONTINUOUS
10
82.4574779999999947
20
-19.4354079999999989
11
79.7520729999999958
21
-18.9339909999999989
0
LINE
8
BLACK
6
CONTINUOUS
10
83.5110629999999929
20
-20.5547039999999974
11
82.9709840000000014
21
-19.7688829999999989
0
LINE
8
BLACK
6
CONTINUOUS
10
83.6108539999999891
20
-21.3022099999999988
11
83.6396230000000003
21
-21.1469869999999993
0
LINE
8
BLACK
6
CONTINUOUS
10
82.7714789999999994
20
-27.4772929999999995
11
86.0162210000000016
21
-28.0786699999999989
0
LINE
8
BLACK
6
CONTINUOUS
10
87.0367399999999947
20
-22.5724419999999988
11
84.185299999999998
21
-22.0439589999999974
0
LINE
8
BLACK
6
CONTINUOUS
10
88.0507289999999898
20
-24.2350679999999983
11
88.0780649999999952
21
-24.0875799999999991
0
LINE
8
BLACK
6
CONTINUOUS
10
87.5586940000000027
20
-26.8898559999999982
11
89.4268780000000021
21
-27.2361039999999974
0
LINE
8
BLACK
6
CONTINUOUS
10
87.5313579999999973
20
-27.0373449999999984
11
87.5586940000000027
21
-26.8898559999999982
0
LINE
8
BLACK
6
CONTINUOUS
10
89.9189140000000009
20
-24.5813159999999975
11
88.0507289999999898
21
-24.2350679999999983
0
LINE
8
BLACK
6
CONTINUOUS
10
89.4268780000000021
20
-27.2361039999999974
11
89.9189140000000009
21
-24.5813159999999975
0
ARC
8
BLACK
10
78.8204309999999992
20
-20.2606889999999993
40
0.7999907823350216
50
124.50002803
51
169.50005395
0
ARC
8
BLACK
10
78.3190139999999957
20
-22.9660939999999982
40
0.7999906213506506
50
-190.50001648
51
-145.49997197
0
ARC
8
BLACK
10
79.6062859999999972
20
-19.7205860000000008
40
0.7999900549444349
50
79.49998352
51
124.49996901
0
ARC
8
BLACK
10
78.8591179999999952
20
-23.7519489999999998
40
0.7999909645702257
50
-145.50001253
51
-100.50001648
0
ARC
8
BLACK
10
79.9573729999999898
20
-26.3816039999999994
40
1.609391125955403
50
7.03373400
51
69.61294258
0
ARC
8
BLACK
10
82.3116919999999936
20
-20.2220019999999998
40
0.7999897990799631
50
34.50000958
51
79.50004089
0
ARC
8
BLACK
10
82.8516079999999988
20
-21.0079349999999998
40
0.8001870008854179
50
-10.00719586
51
34.50000799
0
ARC
8
BLACK
10
83.0451609999999931
20
-26.0006399999999971
40
1.5018008921068731
50
-172.96668705
51
-100.50002038
0
ARC
8
BLACK
10
84.3136519999999905
20
-21.3512699999999995
40
0.7044801534642405
50
-196.98331747
51
-100.49757553
0
ARC
8
BLACK
10
86.7998329999999925
20
-23.8506739999999979
40
1.3000007586432401
50
-10.49998708
51
79.49996958
0
ARC
8
BLACK
10
86.2531269999999921
20
-26.8004379999999998
40
1.2999997753884422
50
-100.49998708
51
-10.50003845
0
LINE
8
BLACK
6
CONTINUOUS
10
190.5981989999999939
20
-11.6999999999999993
11
190.5981989999999939
21
-14.3999999999999986
0
LINE
8
BLACK
6
CONTINUOUS
10
190.5981989999999939
20
-14.3999999999999986
11
192.4981989999999996
21
-14.3999999999999986
0
LINE
8
BLACK
6
CONTINUOUS
10
192.4981989999999996
20
-11.6742609999999996
11
192.4981989999999996
21
-11.6999999999999993
0
LINE
8
BLACK
6
CONTINUOUS
10
192.4981989999999996
20
-11.6999999999999993
11
190.5981989999999939
21
-11.6999999999999993
0
LINE
8
BLACK
6
CONTINUOUS
10
192.4981989999999996
20
-14.3999999999999986
11
192.4981989999999996
21
-14.4257390000000001
0
LINE
8
BLACK
6
CONTINUOUS
10
192.7325109999999881
20
-14.9914179999999995
11
193.4067819999999926
21
-15.6656889999999986
0
LINE
8
BLACK
6
CONTINUOUS
10
193.4067809999999952
20
-10.4343120000000003
11
192.7325099999999907
21
-11.1085829999999994
0
LINE
8
BLACK
6
CONTINUOUS
10
193.9724599999999839
20
-15.8999999999999986
11
195.8078849999999989
21
-15.8999999999999986
0
LINE
8
BLACK
6
CONTINUOUS
10
196.7239390000000014
20
-10.1999999999999993
11
193.9724599999999839
21
-10.1999999999999993
0
LINE
8
BLACK
6
CONTINUOUS
10
197.9638569999999902
20
-11.1085519999999995
11
197.2896169999999927
21
-10.4343120000000003
0
LINE
8
BLACK
6
CONTINUOUS
10
198.1981989999999882
20
-11.8253559999999993
11
198.1981989999999882
21
-11.6674889999999998
0
LINE
8
BLACK
6
CONTINUOUS
10
198.4981989999999996
20
-18.0500000000000007
11
201.7981989999999826
21
-18.0500000000000007
0
LINE
8
BLACK
6
CONTINUOUS
10
201.7981989999999826
20
-12.4499999999999993
11
198.8981989999999769
21
-12.4499999999999993
0
LINE
8
BLACK
6
CONTINUOUS
10
203.0981989999999939
20
-13.8999999999999986
11
203.0981989999999939
21
-13.75
0
LINE
8
BLACK
6
CONTINUOUS
10
203.0981989999999939
20
-16.5999999999999979
11
204.9981989999999996
21
-16.5999999999999979
0
LINE
8
BLACK
6
CONTINUOUS
10
203.0981989999999939
20
-16.75
11
203.0981989999999939
21
-16.5999999999999979
0
LINE
8
BLACK
6
CONTINUOUS
10
204.9981989999999996
20
-13.8999999999999986
11
203.0981989999999939
21
-13.8999999999999986
0
LINE
8
BLACK
6
CONTINUOUS
10
204.9981989999999996
20
-16.5999999999999979
11
204.9981989999999996
21
-13.8999999999999986
0
ARC
8
BLACK
10
193.2981900000000053
20
-11.6742609999999996
40
0.799991
50
135.00000000
51
180.00000000
0
ARC
8
BLACK
10
193.2981900000000053
20
-14.4257390000000001
40
0.79999091374965
50
-180.00000000
51
-135.00000000
0
ARC
8
BLACK
10
193.9724599999999839
20
-10.9999909999999996
40
0.79999091374965
50
90.00000000
51
135.00000000
0
ARC
8
BLACK
10
193.9724599999999839
20
-15.100009
40
0.799991
50
-135.00000000
51
-90.00000000
0
ARC
8
BLACK
10
195.5315420000000017
20
-17.4854889999999976
40
1.6093914448542344
50
17.53373207
51
80.11294558
0
ARC
8
BLACK
10
196.7239390000000014
20
-10.9999900000000004
40
0.79999
50
45.00000000
51
90.00000000
0
ARC
8
BLACK
10
197.3980389999999829
20
-11.6743699999999997
40
0.8001874894348199
50
0.49277747
51
45.00000000
0
ARC
8
BLACK
10
198.4981989999999996
20
-16.5481999999999978
40
1.5018
50
-162.46670747
51
-90.00000000
0
ARC
8
BLACK
10
198.8981689999999958
20
-11.7455199999999991
40
0.7044800006387689
50
-186.48334735
51
-89.99756008
0
ARC
8
BLACK
10
201.7981989999999826
20
-13.75
40
1.3
50
0.00000000
51
90.00000000
0
ARC
8
BLACK
10
201.7981989999999826
20
-16.75
40
1.3
50
-90.00000000
51
-0.00000000
0
LINE
8
BLACK
6
CONTINUOUS
10
168.2240689999999859
20
-12.5982249999999993
11
168.3888999999999783
21
-15.2931889999999999
0
LINE
8
BLACK
6
CONTINUOUS
10
168.3888999999999783
20
-15.2931889999999999
11
170.2853559999999788
21
-15.1771969999999996
0
LINE
8
BLACK
6
CONTINUOUS
10
170.1189540000000022
20
-12.4565419999999989
11
170.1205249999999864
21
-12.482232999999999
0
LINE
8
BLACK
6
CONTINUOUS
10
170.1205249999999864
20
-12.482232999999999
11
168.2240689999999859
21
-12.5982249999999993
0
LINE
8
BLACK
6
CONTINUOUS
10
170.2853559999999788
20
-15.1771969999999996
11
170.286927999999989
21
-15.2028879999999997
0
LINE
8
BLACK
6
CONTINUOUS
10
170.5553359999999827
20
-15.7532069999999997
11
171.2695129999999892
21
-16.3850569999999998
0
LINE
8
BLACK
6
CONTINUOUS
10
170.9501439999999945
20
-11.1634379999999993
11
170.3182939999999803
21
-11.8776149999999987
0
LINE
8
BLACK
6
CONTINUOUS
10
171.8484399999999823
20
-16.5843980000000002
11
173.6804419999999993
21
-16.4723480000000002
0
LINE
8
BLACK
6
CONTINUOUS
10
174.2468109999999797
20
-10.727055
11
171.5004639999999938
21
-10.8950289999999992
0
LINE
8
BLACK
6
CONTINUOUS
10
175.5398820000000057
20
-11.5582180000000001
11
174.8257380000000012
21
-10.9263969999999997
0
LINE
8
BLACK
6
CONTINUOUS
10
175.817545999999993
20
-12.2593779999999999
11
175.8079089999999951
21
-12.1018059999999998
0
LINE
8
BLACK
6
CONTINUOUS
10
176.4969920000000059
20
-18.4540979999999983
11
179.790836999999982
21
-18.252637
0
LINE
8
BLACK
6
CONTINUOUS
10
179.448964999999987
20
-12.6630830000000003
11
176.5543739999999957
21
-12.8401230000000002
0
LINE
8
BLACK
6
CONTINUOUS
10
180.8350609999999961
20
-14.031015
11
180.82590399999998
21
-13.8812949999999997
0
LINE
8
BLACK
6
CONTINUOUS
10
180.9998919999999885
20
-16.7259789999999988
11
182.896347999999989
21
-16.6099870000000003
0
LINE
8
BLACK
6
CONTINUOUS
10
181.0090490000000045
20
-16.8756990000000009
11
180.9998919999999885
21
-16.7259789999999988
0
LINE
8
BLACK
6
CONTINUOUS
10
182.7315169999999966
20
-13.9150229999999997
11
180.8350609999999961
21
-14.031015
0
LINE
8
BLACK
6
CONTINUOUS
10
182.896347999999989
20
-16.6099870000000003
11
182.7315169999999966
21
-13.9150229999999997
0
ARC
8
BLACK
10
170.9174529999999947
20
-12.407703999999999
40
0.7999911269789184
50
-221.49998820
51
-176.50002080
0
ARC
8
BLACK
10
171.085425999999984
20
-15.1540499999999998
40
0.7999903241596114
50
-176.50001643
51
-131.50003565
0
ARC
8
BLACK
10
171.5493019999999831
20
-11.6935279999999988
40
0.7999910731151941
50
93.49997920
51
138.50001180
0
ARC
8
BLACK
10
171.799601999999993
20
-15.7858989999999988
40
0.7999911269789184
50
-131.50003565
51
-86.50002080
0
ARC
8
BLACK
10
173.5014060000000029
20
-18.071749999999998
40
1.6093913902155683
50
21.03373327
51
83.61293736
0
ARC
8
BLACK
10
174.2956489999999974
20
-11.5255529999999986
40
0.7999901288441001
50
48.49997053
51
93.49998357
0
ARC
8
BLACK
10
175.0096609999999941
20
-12.1575229999999994
40
0.8001879728326339
50
3.99280016
51
48.49996110
0
ARC
8
BLACK
10
176.4053099999999858
20
-16.9550990000000006
40
1.5018001169013804
50
-158.96672638
51
-86.50002690
0
ARC
8
BLACK
10
176.5113369999999975
20
-12.1369589999999992
40
0.7044798040149909
50
-182.98333098
51
-86.49759326
0
ARC
8
BLACK
10
179.5283279999999877
20
-13.9606579999999987
40
1.2999997563053618
50
3.49999349
51
93.49999618
0
ARC
8
BLACK
10
179.7114739999999813
20
-16.9550619999999981
40
1.2999997563053618
50
-86.50000382
51
3.49999618
0
LINE
8
BLACK
6
CONTINUOUS
10
148.3170779999999809
20
-14.7156919999999989
11
148.6461249999999836
21
-17.3955669999999998
0
LINE
8
BLACK
6
CONTINUOUS
10
148.6461249999999836
20
-17.3955669999999998
11
150.5319629999999904
21
-17.1640149999999991
0
LINE
8
BLACK
6
CONTINUOUS
10
150.1997790000000066
20
-14.4585929999999987
11
150.2029159999999877
21
-14.48414
0
LINE
8
BLACK
6
CONTINUOUS
10
150.2029159999999877
20
-14.48414
11
148.3170779999999809
21
-14.7156919999999989
0
LINE
8
BLACK
6
CONTINUOUS
10
150.5319629999999904
20
-17.1640149999999991
11
150.5350999999999999
21
-17.1895619999999987
0
LINE
8
BLACK
6
CONTINUOUS
10
150.8366039999999941
20
-17.7224690000000002
11
151.5880219999999952
21
-18.3095409999999994
0
LINE
8
BLACK
6
CONTINUOUS
10
150.9504770000000065
20
-13.1171579999999999
11
150.3634040000000027
21
-13.8685759999999991
0
LINE
8
BLACK
6
CONTINUOUS
10
152.1780389999999841
20
-18.4731670000000001
11
153.9997829999999794
21
-18.249485
0
LINE
8
BLACK
6
CONTINUOUS
10
154.2143539999999859
20
-12.4803329999999999
11
151.4833840000000009
21
-12.8156539999999985
0
LINE
8
BLACK
6
CONTINUOUS
10
155.555753999999979
20
-13.2310049999999997
11
154.8043700000000058
21
-12.6439599999999999
0
LINE
8
BLACK
6
CONTINUOUS
10
155.8757059999999797
20
-13.913907
11
155.8564669999999808
21
-13.7572159999999997
0
LINE
8
BLACK
6
CONTINUOUS
10
156.9320629999999994
20
-20.0555920000000008
11
160.2074649999999849
21
-19.6534230000000001
0
LINE
8
BLACK
6
CONTINUOUS
10
159.5249969999999848
20
-14.0951649999999997
11
156.6466130000000021
21
-14.4485859999999988
0
LINE
8
BLACK
6
CONTINUOUS
10
160.9920170000000041
20
-15.375926999999999
11
160.9737369999999999
21
-15.2270449999999986
0
LINE
8
BLACK
6
CONTINUOUS
10
161.3210650000000044
20
-18.0558009999999989
11
163.2069019999999853
21
-17.8242499999999993
0
LINE
8
BLACK
6
CONTINUOUS
10
161.3393449999999802
20
-18.2046829999999993
11
161.3210650000000044
21
-18.0558009999999989
0
LINE
8
BLACK
6
CONTINUOUS
10
162.8778549999999825
20
-15.1443750000000001
11
160.9920170000000041
21
-15.375926999999999
0
LINE
8
BLACK
6
CONTINUOUS
10
163.2069019999999853
20
-17.8242499999999993
11
162.8778549999999825
21
-15.1443750000000001
0
ARC
8
BLACK
10
150.9938070000000039
20
-14.3610989999999994
40
0.7999909654614856
50
-217.99999879
51
-173.00002696
0
ARC
8
BLACK
10
151.3291279999999972
20
-17.0920679999999976
40
0.7999908195579496
50
-173.00002696
51
-128.00004288
0
ARC
8
BLACK
10
151.5808779999999842
20
-13.6096819999999994
40
0.7999908195579496
50
96.99997304
51
141.99995712
0
ARC
8
BLACK
10
152.0805450000000008
20
-17.6791389999999993
40
0.7999909654614856
50
-128.00004288
51
-83.00002696
0
ARC
8
BLACK
10
153.9187220000000025
20
-19.8568339999999992
40
1.6093917153763404
50
24.53373307
51
87.11293458
0
ARC
8
BLACK
10
154.3118479999999977
20
-13.2743599999999997
40
0.799989972915286
50
52.00002590
51
96.99998176
0
ARC
8
BLACK
10
155.0631089999999972
20
-13.861561
40
0.8001874562632183
50
7.49274711
51
51.99996273
0
ARC
8
BLACK
10
156.749038999999982
20
-18.5649859999999975
40
1.5018002636209649
50
-155.46667087
51
-82.99997740
0
ARC
8
BLACK
10
156.5607289999999807
20
-13.7493609999999986
40
0.7044797101982426
50
-179.48338151
51
-82.99758106
0
ARC
8
BLACK
10
159.6834269999999947
20
-15.3854749999999996
40
1.2999999849999999
50
6.99999358
51
96.99999358
0
ARC
8
BLACK
10
160.0490350000000035
20
-18.3631129999999985
40
1.2999999849999999
50
-83.00000642
51
6.99999358
0
LINE
8
BLACK
6
CONTINUOUS
10
128.576484999999991
20
-18.0445019999999978
11
129.0685210000000041
21
-20.6992899999999977
0
LINE
8
BLACK
6
CONTINUOUS
10
129.0685210000000041
20
-20.6992899999999977
11
130.9367049999999892
21
-20.3530429999999996
0
LINE
8
BLACK
6
CONTINUOUS
10
130.4399779999999964
20
-17.6729470000000006
11
130.4446690000000046
21
-17.6982549999999996
0
LINE
8
BLACK
6
CONTINUOUS
10
130.4446690000000046
20
-17.6982549999999996
11
128.576484999999991
21
-18.0445019999999978
0
LINE
8
BLACK
6
CONTINUOUS
10
130.9367049999999892
20
-20.3530429999999996
11
130.941395
21
-20.3783509999999985
0
LINE
8
BLACK
6
CONTINUOUS
10
131.2748709999999903
20
-20.8918579999999992
11
132.0607269999999858
21
-21.4319619999999986
0
LINE
8
BLACK
6
CONTINUOUS
10
131.1073829999999987
20
-16.2881849999999986
11
130.567278999999985
21
-17.0740409999999976
0
LINE
8
BLACK
6
CONTINUOUS
10
132.6596319999999878
20
-21.5592629999999978
11
134.4643230000000074
21
-21.2247829999999986
0
LINE
8
BLACK
6
CONTINUOUS
10
134.3262949999999876
20
-15.4532919999999994
11
131.6208900000000028
21
-15.9547099999999986
0
LINE
8
BLACK
6
CONTINUOUS
10
135.7110209999999881
20
-16.120673
11
134.9252009999999871
21
-15.5805939999999996
0
LINE
8
BLACK
6
CONTINUOUS
10
136.0720660000000066
20
-16.7827689999999983
11
136.0432969999999955
21
-16.6275459999999988
0
LINE
8
BLACK
6
CONTINUOUS
10
137.5013940000000048
20
-22.8485099999999974
11
140.7461349999999811
21
-22.247132999999998
0
LINE
8
BLACK
6
CONTINUOUS
10
139.7256160000000023
20
-16.7409049999999979
11
136.8741770000000031
21
-17.2693879999999993
0
LINE
8
BLACK
6
CONTINUOUS
10
141.2680890000000034
20
-17.9297189999999986
11
141.2407539999999813
21
-17.7822309999999995
0
LINE
8
BLACK
6
CONTINUOUS
10
141.7601249999999879
20
-20.5845069999999986
11
143.6283090000000016
21
-20.2382600000000004
0
LINE
8
BLACK
6
CONTINUOUS
10
141.7874599999999816
20
-20.7319949999999977
11
141.7601249999999879
21
-20.5845069999999986
0
LINE
8
BLACK
6
CONTINUOUS
10
143.1362729999999885
20
-17.5834709999999994
11
141.2680890000000034
21
-17.9297189999999986
0
LINE
8
BLACK
6
CONTINUOUS
10
143.6283090000000016
20
-20.2382600000000004
11
143.1362729999999885
21
-17.5834709999999994
0
ARC
8
BLACK
10
131.2265730000000019
20
-17.5271599999999985
40
0.7999909645702257
50
-214.50002803
51
-169.49998352
0
ARC
8
BLACK
10
131.7279900000000055
20
-20.232564
40
0.7999908790711304
50
-169.49998352
51
-124.49992844
0
ARC
8
BLACK
10
131.7666769999999872
20
-16.7413050000000005
40
0.7999914454767626
50
100.50001648
51
145.50001253
0
ARC
8
BLACK
10
132.5138460000000009
20
-20.7726669999999984
40
0.7999917655901214
50
-124.49998747
51
-79.50006700
0
ARC
8
BLACK
10
134.4815399999999954
20
-22.8340819999999987
40
1.6093910949455388
50
28.03373640
51
90.61295247
0
ARC
8
BLACK
10
134.4720820000000003
20
-16.2398859999999985
40
0.7999899813153912
50
55.49999042
51
100.50002953
0
ARC
8
BLACK
10
135.25779
20
-16.7801289999999987
40
0.800187825011728
50
10.99278115
51
55.50003256
0
ARC
8
BLACK
10
137.2277129999999943
20
-21.3718579999999996
40
1.5017997266163687
50
-151.96673720
51
-79.50001018
0
ARC
8
BLACK
10
136.7457660000000033
20
-16.5767109999999995
40
0.7044791063260853
50
-175.98337329
51
-79.49752845
0
ARC
8
BLACK
10
139.962522000000007
20
-18.0191370000000006
40
1.3000005764075646
50
10.49998708
51
100.49998708
0
ARC
8
BLACK
10
140.5092290000000048
20
-20.9689019999999999
40
1.2999997753884422
50
-79.50000489
51
10.50003845
0
LINE
8
BLACK
6
CONTINUOUS
10
109.8946419999999904
20
-21.5069769999999991
11
110.3866779999999892
21
-24.161764999999999
0
LINE
8
BLACK
6
CONTINUOUS
10
110.3866779999999892
20
-24.161764999999999
11
112.2548619999999886
21
-23.8155179999999973
0
LINE
8
BLACK
6
CONTINUOUS
10
111.7581349999999958
20
-21.1354219999999984
11
111.7628259999999898
21
-21.1607299999999974
0
LINE
8
BLACK
6
CONTINUOUS
10
111.7628259999999898
20
-21.1607299999999974
11
109.8946419999999904
21
-21.5069769999999991
0
LINE
8
BLACK
6
CONTINUOUS
10
112.2548619999999886
20
-23.8155179999999973
11
112.2595519999999993
21
-23.8408259999999999
0
LINE
8
BLACK
6
CONTINUOUS
10
112.5930279999999897
20
-24.3543330000000005
11
113.3788839999999993
21
-24.8944369999999999
0
LINE
8
BLACK
6
CONTINUOUS
10
112.425539999999998
20
-19.7506599999999999
11
111.8854359999999986
21
-20.5365159999999989
0
LINE
8
BLACK
6
CONTINUOUS
10
113.9777890000000014
20
-25.0217379999999991
11
115.7824799999999925
21
-24.6872579999999999
0
LINE
8
BLACK
6
CONTINUOUS
10
115.6444520000000011
20
-18.9157669999999989
11
112.939046999999988
21
-19.4171849999999999
0
LINE
8
BLACK
6
CONTINUOUS
10
117.0291780000000017
20
-19.5831479999999978
11
116.2433580000000006
21
-19.0430689999999991
0
LINE
8
BLACK
6
CONTINUOUS
10
117.3902229999999918
20
-20.2452439999999996
11
117.3614539999999948
21
-20.0900210000000001
0
LINE
8
BLACK
6
CONTINUOUS
10
118.8195509999999899
20
-26.3109849999999987
11
122.0642919999999947
21
-25.7096079999999994
0
LINE
8
BLACK
6
CONTINUOUS
10
121.0437730000000016
20
-20.2033799999999992
11
118.1923339999999882
21
-20.7318630000000006
0
LINE
8
BLACK
6
CONTINUOUS
10
122.5862459999999885
20
-21.3921939999999999
11
122.5589109999999948
21
-21.2447060000000008
0
LINE
8
BLACK
6
CONTINUOUS
10
123.0782820000000015
20
-24.0469819999999999
11
124.9464660000000009
21
-23.7007349999999981
0
LINE
8
BLACK
6
CONTINUOUS
10
123.1056169999999952
20
-24.194469999999999
11
123.0782820000000015
21
-24.0469819999999999
0
LINE
8
BLACK
6
CONTINUOUS
10
124.4544299999999879
20
-21.0459460000000007
11
122.5862459999999885
21
-21.3921939999999999
0
LINE
8
BLACK
6
CONTINUOUS
10
124.9464660000000009
20
-23.7007349999999981
11
124.4544299999999879
21
-21.0459460000000007
0
ARC
8
BLACK
10
112.5447300000000013
20
-20.9896349999999998
40
0.7999909645702257
50
-214.50002803
51
-169.49998352
0
ARC
8
BLACK
10
113.0461469999999906
20
-23.6950389999999977
40
0.7999908790711304
50
-169.49998352
51
-124.49992844
0
ARC
8
BLACK
10
113.0848340000000007
20
-20.2037799999999983
40
0.7999914454767626
50
100.50001648
51
145.50001253
0
ARC
8
BLACK
10
113.8320030000000003
20
-24.2351419999999997
40
0.7999917655901214
50
-124.49998747
51
-79.50006700
0
ARC
8
BLACK
10
115.7996969999999948
20
-26.296557
40
1.6093910949455388
50
28.03373640
51
90.61295247
0
ARC
8
BLACK
10
115.7902389999999997
20
-19.7023609999999998
40
0.7999899813153912
50
55.49999042
51
100.50002953
0
ARC
8
BLACK
10
116.5759469999999993
20
-20.242604
40
0.800187825011728
50
10.99278115
51
55.50003256
0
ARC
8
BLACK
10
118.5458699999999936
20
-24.8343329999999973
40
1.5017997266163687
50
-151.96673720
51
-79.50001018
0
ARC
8
BLACK
10
118.0639229999999884
20
-20.0391860000000008
40
0.7044791063260853
50
-175.98337329
51
-79.49752845
0
ARC
8
BLACK
10
121.2806789999999921
20
-21.4816119999999984
40
1.3000005764075646
50
10.49998708
51
100.49998708
0
ARC
8
BLACK
10
121.82738599999999
20
-24.4313769999999977
40
1.2999997753884422
50
-79.50000489
51
10.50003845
0
LINE
8
BLACK
6
CONTINUOUS
10
-7.0749999999999993
20
-30.6999999999999993
11
-7.0749999999999993
21
-33.3999999999999986
0
LINE
8
BLACK
6
CONTINUOUS
10
-7.0749999999999993
20
-33.3999999999999986
11
-5.1749999999999998
21
-33.3999999999999986
0
LINE
8
BLACK
6
CONTINUOUS
10
-5.1749999999999998
20
-30.6742609999999978
11
-5.1749999999999998
21
-30.6999999999999993
0
LINE
8
BLACK
6
CONTINUOUS
10
-5.1749999999999998
20
-30.6999999999999993
11
-7.0749999999999993
21
-30.6999999999999993
0
LINE
8
BLACK
6
CONTINUOUS
10
-5.1749999999999998
20
-33.3999999999999986
11
-5.1749999999999998
21
-33.4257390000000001
0
LINE
8
BLACK
6
CONTINUOUS
10
-4.9406879999999997
20
-33.9914179999999959
11
-4.2664169999999997
21
-34.6656890000000004
0
LINE
8
BLACK
6
CONTINUOUS
10
-4.2664179999999998
20
-29.4343119999999985
11
-4.9406889999999999
21
-30.1085829999999994
0
LINE
8
BLACK
6
CONTINUOUS
10
-3.700739
20
-34.8999999999999986
11
-1.8653139999999999
21
-34.8999999999999986
0
LINE
8
BLACK
6
CONTINUOUS
10
-0.94926
20
-29.1999999999999993
11
-3.700739
21
-29.1999999999999993
0
LINE
8
BLACK
6
CONTINUOUS
10
0.290658
20
-30.1085519999999995
11
-0.383582
21
-29.4343119999999985
0
LINE
8
BLACK
6
CONTINUOUS
10
0.525
20
-30.8253559999999993
11
0.525
21
-30.6674889999999998
0
LINE
8
BLACK
6
CONTINUOUS
10
0.825
20
-37.0499999999999972
11
4.125
21
-37.0499999999999972
0
LINE
8
BLACK
6
CONTINUOUS
10
4.125
20
-31.4499999999999993
11
1.2249999999999999
21
-31.4499999999999993
0
LINE
8
BLACK
6
CONTINUOUS
10
5.4249999999999998
20
-32.8999999999999986
11
5.4249999999999998
21
-32.75
0
LINE
8
BLACK
6
CONTINUOUS
10
5.4249999999999998
20
-35.6000000000000014
11
7.3249999999999993
21
-35.6000000000000014
0
LINE
8
BLACK
6
CONTINUOUS
10
5.4249999999999998
20
-35.75
11
5.4249999999999998
21
-35.6000000000000014
0
LINE
8
BLACK
6
CONTINUOUS
10
7.3249999999999993
20
-32.8999999999999986
11
5.4249999999999998
21
-32.8999999999999986
0
LINE
8
BLACK
6
CONTINUOUS
10
7.3249999999999993
20
-35.6000000000000014
11
7.3249999999999993
21
-32.8999999999999986
0
ARC
8
BLACK
10
-4.3750089999999995
20
-30.6742609999999978
40
0.799991
50
135.00000000
51
180.00000000
0
ARC
8
BLACK
10
-4.3750089999999995
20
-33.4257390000000001
40
0.79999091374965
50
-180.00000000
51
-135.00000000
0
ARC
8
BLACK
10
-3.700739
20
-29.9999909999999979
40
0.79999091374965
50
90.00000000
51
135.00000000
0
ARC
8
BLACK
10
-3.700739
20
-34.100009
40
0.799991
50
-135.00000000
51
-90.00000000
0
ARC
8
BLACK
10
-2.1416569999999999
20
-36.4854890000000012
40
1.6093914448542344
50
17.53373207
51
80.11294558
0
ARC
8
BLACK
10
-0.94926
20
-29.9999900000000004
40
0.79999
50
45.00000000
51
90.00000000
0
ARC
8
BLACK
10
-0.27516
20
-30.6743699999999997
40
0.8001874894348199
50
0.49277747
51
45.00000000
0
ARC
8
BLACK
10
0.825
20
-35.5482000000000014
40
1.5018
50
-162.46670747
51
-90.00000000
0
ARC
8
BLACK
10
1.2249699999999999
20
-30.7455199999999991
40
0.7044800006387689
50
-186.48334735
51
-89.99756008
0
ARC
8
BLACK
10
4.125
20
-32.75
40
1.3
50
0.00000000
51
90.00000000
0
ARC
8
BLACK
10
4.125
20
-35.75
40
1.3
50
-90.00000000
51
-0.00000000
0
LINE
8
BLACK
6
CONTINUOUS
10
12.4358079999999998
20
-30.8544209999999985
11
12.3533539999999995
21
-33.5531609999999958
0
LINE
8
BLACK
6
CONTINUOUS
10
12.3533539999999995
20
-33.5531609999999958
11
14.2524679999999986
21
-33.611184999999999
0
LINE
8
BLACK
6
CONTINUOUS
10
14.3357079999999986
20
-30.8867169999999973
11
14.3349219999999988
21
-30.9124439999999971
0
LINE
8
BLACK
6
CONTINUOUS
10
14.3349219999999988
20
-30.9124439999999971
11
12.4358079999999998
21
-30.8544209999999985
0
LINE
8
BLACK
6
CONTINUOUS
10
14.2524679999999986
20
-33.611184999999999
11
14.2516819999999989
21
-33.6369119999999953
0
LINE
8
BLACK
6
CONTINUOUS
10
14.46861
20
-34.2094820000000013
11
15.1219749999999991
21
-34.9040299999999988
0
LINE
8
BLACK
6
CONTINUOUS
10
15.2817329999999991
20
-29.6750930000000004
11
14.5871849999999998
21
-30.3284579999999977
0
LINE
8
BLACK
6
CONTINUOUS
10
15.6802339999999987
20
-35.1555070000000001
11
17.5148030000000006
21
-35.2115579999999966
0
LINE
8
BLACK
6
CONTINUOUS
10
18.6044990000000006
20
-29.542190999999999
11
15.8543029999999998
21
-29.4581649999999975
0
LINE
8
BLACK
6
CONTINUOUS
10
19.8160929999999986
20
-30.4881849999999979
11
19.1627580000000002
21
-29.7936689999999977
0
LINE
8
BLACK
6
CONTINUOUS
10
20.0284349999999982
20
-31.2118109999999973
11
20.033255999999998
21
-31.0540179999999992
0
LINE
8
BLACK
6
CONTINUOUS
10
20.1382039999999982
20
-37.4427129999999977
11
23.4366649999999979
21
-37.5434899999999985
0
LINE
8
BLACK
6
CONTINUOUS
10
23.6076809999999995
20
-31.9461019999999998
11
20.709032999999998
21
-31.8575409999999977
0
LINE
8
BLACK
6
CONTINUOUS
10
24.8627929999999999
20
-33.4351259999999968
11
24.8673739999999981
21
-33.2851959999999991
0
LINE
8
BLACK
6
CONTINUOUS
10
24.7803389999999979
20
-36.1338669999999951
11
26.6794529999999988
21
-36.1918900000000008
0
LINE
8
BLACK
6
CONTINUOUS
10
24.7757589999999972
20
-36.2837969999999999
11
24.7803389999999979
21
-36.1338669999999951
0
LINE
8
BLACK
6
CONTINUOUS
10
26.7619069999999972
20
-33.4931489999999954
11
24.8627929999999999
21
-33.4351259999999968
0
LINE
8
BLACK
6
CONTINUOUS
10
26.6794529999999988
20
-36.1918900000000008
11
26.7619069999999972
21
-33.4931489999999954
0
ARC
8
BLACK
10
15.1353259999999992
20
-30.9111469999999997
40
0.7999911067155684
50
133.24999905
51
178.25003862
0
ARC
8
BLACK
10
15.0512999999999995
20
-33.6613419999999977
40
0.7999906847582664
50
-181.74996138
51
-136.75000095
0
ARC
8
BLACK
10
15.8298729999999992
20
-30.2577829999999999
40
0.7999906847582664
50
88.25003862
51
133.24999905
0
ARC
8
BLACK
10
15.7046639999999993
20
-34.3558889999999977
40
0.7999911067155684
50
-136.75000095
51
-91.74996138
0
ARC
8
BLACK
10
17.1901699999999984
20
-36.787867999999996
40
1.6093911273487871
50
15.78373683
51
78.36292827
0
ARC
8
BLACK
10
18.5800680000000007
20
-30.3418080000000003
40
0.7999901377204596
50
43.24994689
51
88.24996485
0
ARC
8
BLACK
10
19.2332590000000003
20
-31.0364599999999982
40
0.8001880698816997
50
-1.25723354
51
43.24997498
0
ARC
8
BLACK
10
20.1840669999999989
20
-35.9416140000000013
40
1.5017994615027666
50
-164.21670867
51
-91.75001058
0
ARC
8
BLACK
10
20.730516999999999
20
-31.1533879999999996
40
0.7044806666367786
50
-188.23334331
51
-91.74757586
0
ARC
8
BLACK
10
23.5679809999999996
20
-33.2454959999999957
40
1.3000003297061118
50
-1.74999794
51
88.25000341
0
ARC
8
BLACK
10
23.4763649999999977
20
-36.2440969999999965
40
1.3000003297061118
50
-91.74999794
51
-1.74999659
0
LINE
8
BLACK
6
CONTINUOUS
10
32.6812630000000013
20
-31.8882849999999998
11
32.3931779999999989
21
-34.5728719999999967
0
LINE
8
BLACK
6
CONTINUOUS
10
32.3931779999999989
20
-34.5728719999999967
11
34.2823319999999967
21
-34.7755979999999951
0
LINE
8
BLACK
6
CONTINUOUS
10
34.573163000000001
20
-32.0654189999999986
11
34.5704169999999991
21
-32.0910110000000017
0
LINE
8
BLACK
6
CONTINUOUS
10
34.5704169999999991
20
-32.0910110000000017
11
32.6812630000000013
21
-31.8882849999999998
0
LINE
8
BLACK
6
CONTINUOUS
10
34.2823319999999967
20
-34.7755979999999951
11
34.2795860000000019
21
-34.8011899999999983
0
LINE
8
BLACK
6
CONTINUOUS
10
34.4522040000000018
20
-35.3886399999999952
11
35.0506820000000019
21
-36.1310059999999993
0
LINE
8
BLACK
6
CONTINUOUS
10
35.6088579999999979
20
-30.9294919999999998
11
34.8664929999999984
21
-31.5279709999999973
0
LINE
8
BLACK
6
CONTINUOUS
10
35.5881309999999971
20
-36.4243359999999967
11
37.4130779999999987
21
-36.6201719999999966
0
LINE
8
BLACK
6
CONTINUOUS
10
38.9320809999999966
20
-31.0504509999999989
11
36.1963089999999994
21
-30.7568739999999998
0
LINE
8
BLACK
6
CONTINUOUS
10
40.0679799999999986
20
-32.086114000000002
11
39.4695290000000014
21
-31.3437829999999984
0
LINE
8
BLACK
6
CONTINUOUS
10
40.2245029999999986
20
-32.823830000000001
11
40.2413469999999975
21
-32.6668639999999968
0
LINE
8
BLACK
6
CONTINUOUS
10
39.858633999999995
20
-39.0449489999999955
11
43.1397959999999969
21
-39.3970529999999997
0
LINE
8
BLACK
6
CONTINUOUS
10
43.7373039999999946
20
-33.8290199999999999
11
40.8538589999999999
21
-33.5195959999999999
0
LINE
8
BLACK
6
CONTINUOUS
10
44.8751709999999946
20
-35.4094499999999996
11
44.8911759999999944
21
-35.2603069999999974
0
LINE
8
BLACK
6
CONTINUOUS
10
44.5870869999999968
20
-38.0940370000000001
11
46.4762399999999971
21
-38.2967629999999986
0
LINE
8
BLACK
6
CONTINUOUS
10
44.571081999999997
20
-38.2431809999999999
11
44.5870869999999968
21
-38.0940370000000001
0
LINE
8
BLACK
6
CONTINUOUS
10
46.7643249999999995
20
-35.6121759999999981
11
44.8751709999999946
21
-35.4094499999999996
0
LINE
8
BLACK
6
CONTINUOUS
10
46.4762399999999971
20
-38.2967629999999986
11
46.7643249999999995
21
-35.6121759999999981
0
ARC
8
BLACK
10
35.368586999999998
20
-32.1507760000000005
40
0.7999907232118383
50
128.87502426
51
173.87502511
0
ARC
8
BLACK
10
35.0750099999999989
20
-34.8865470000000002
40
0.7999904338709306
50
-186.12497489
51
-141.12497574
0
ARC
8
BLACK
10
36.110951
20
-31.5522989999999979
40
0.7999912123879861
50
83.87496154
51
128.87497931
0
ARC
8
BLACK
10
35.673487999999999
20
-35.6289119999999997
40
0.7999907232118383
50
-141.12502069
51
-96.12497489
0
ARC
8
BLACK
10
36.969144
20
-38.1671249999999986
40
1.6093914938774221
50
11.40874747
51
73.98794143
0
ARC
8
BLACK
10
38.8467239999999947
20
-31.8458749999999995
40
0.7999907232118383
50
38.87501345
51
83.87502511
0
ARC
8
BLACK
10
39.445020999999997
20
-32.5883299999999991
40
0.8001867446646439
50
-5.63226347
51
38.87500501
0
ARC
8
BLACK
10
40.0188729999999993
20
-37.551721999999998
40
1.5018000568151542
50
-168.59170021
51
-96.12500204
0
ARC
8
BLACK
10
40.9289950000000005
20
-32.8191349999999957
40
0.7044792623044343
50
-192.60837808
51
-96.12250730
0
ARC
8
BLACK
10
43.598596999999998
20
-35.1215989999999962
40
1.3000000396499993
50
-6.12503034
51
83.87501348
0
ARC
8
BLACK
10
43.2785030000000006
20
-38.1044739999999962
40
1.3000000396499993
50
-96.12498652
51
-6.12498652
0
LINE
8
BLACK
6
CONTINUOUS
10
52.7888570000000001
20
-34.4635400000000018
11
52.2968209999999942
21
-37.1183279999999982
0
LINE
8
BLACK
6
CONTINUOUS
10
52.2968209999999942
20
-37.1183279999999982
11
54.1650059999999982
21
-37.464576000000001
0
LINE
8
BLACK
6
CONTINUOUS
10
54.6617320000000007
20
-34.784479999999995
11
54.657041999999997
21
-34.8097879999999975
0
LINE
8
BLACK
6
CONTINUOUS
10
54.657041999999997
20
-34.8097879999999975
11
52.7888570000000001
21
-34.4635400000000018
0
LINE
8
BLACK
6
CONTINUOUS
10
54.1650059999999982
20
-37.464576000000001
11
54.1603149999999971
21
-37.4898839999999964
0
LINE
8
BLACK
6
CONTINUOUS
10
54.2876169999999973
20
-38.0887910000000005
11
54.8277209999999968
21
-38.874646999999996
0
LINE
8
BLACK
6
CONTINUOUS
10
55.7810629999999961
20
-33.7308699999999959
11
54.995205999999996
21
-34.2709739999999954
0
LINE
8
BLACK
6
CONTINUOUS
10
55.3412269999999964
20
-39.2081209999999984
11
57.1459169999999972
21
-39.5426009999999977
0
LINE
8
BLACK
6
CONTINUOUS
10
59.0853739999999945
20
-34.1049849999999992
11
56.3799689999999956
21
-33.6035679999999957
0
LINE
8
BLACK
6
CONTINUOUS
10
60.1389589999999998
20
-35.2242809999999977
11
59.5988799999999941
21
-34.4384599999999992
0
LINE
8
BLACK
6
CONTINUOUS
10
60.238749999999996
20
-35.9717869999999991
11
60.2675190000000001
21
-35.8165639999999996
0
LINE
8
BLACK
6
CONTINUOUS
10
59.3993749999999991
20
-42.1468699999999998
11
62.6441169999999943
21
-42.7482469999999992
0
LINE
8
BLACK
6
CONTINUOUS
10
63.6646359999999945
20
-37.2420189999999991
11
60.8131959999999978
21
-36.7135359999999977
0
LINE
8
BLACK
6
CONTINUOUS
10
64.6786249999999967
20
-38.904644999999995
11
64.7059610000000021
21
-38.7571569999999994
0
LINE
8
BLACK
6
CONTINUOUS
10
64.1865899999999954
20
-41.5594329999999985
11
66.0547739999999948
21
-41.9056810000000013
0
LINE
8
BLACK
6
CONTINUOUS
10
64.15925399999999
20
-41.7069219999999987
11
64.1865899999999954
21
-41.5594329999999985
0
LINE
8
BLACK
6
CONTINUOUS
10
66.5468099999999936
20
-39.2508929999999978
11
64.6786249999999967
21
-38.904644999999995
0
LINE
8
BLACK
6
CONTINUOUS
10
66.0547739999999948
20
-41.9056810000000013
11
66.5468099999999936
21
-39.2508929999999978
0
ARC
8
BLACK
10
55.448326999999999
20
-34.930265999999996
40
0.7999907823350216
50
124.50002803
51
169.50005395
0
ARC
8
BLACK
10
54.9469099999999955
20
-37.635670999999995
40
0.7999906213506506
50
-190.50001648
51
-145.49997197
0
ARC
8
BLACK
10
56.234181999999997
20
-34.3901630000000011
40
0.7999900549444349
50
79.49998352
51
124.49996901
0
ARC
8
BLACK
10
55.487013999999995
20
-38.4215260000000001
40
0.7999909645702257
50
-145.50001253
51
-100.50001648
0
ARC
8
BLACK
10
56.5852689999999967
20
-41.0511809999999997
40
1.609391125955403
50
7.03373400
51
69.61294258
0
ARC
8
BLACK
10
58.9395880000000005
20
-34.8915790000000001
40
0.7999897990799631
50
34.50000958
51
79.50004089
0
ARC
8
BLACK
10
59.4795039999999986
20
-35.6775120000000001
40
0.8001870008854179
50
-10.00719586
51
34.50000799
0
ARC
8
BLACK
10
59.673057
20
-40.670217000000001
40
1.5018008921068731
50
-172.96668705
51
-100.50002038
0
ARC
8
BLACK
10
60.9415479999999974
20
-36.0208469999999963
40
0.7044801534642405
50
-196.98331747
51
-100.49757553
0
ARC
8
BLACK
10
63.4277289999999994
20
-38.5202510000000018
40
1.3000007586432401
50
-10.49998708
51
79.49996958
0
ARC
8
BLACK
10
62.881022999999999
20
-41.4700149999999965
40
1.2999997753884422
50
-100.49998708
51
-10.50003845
0
LINE
8
BLACK
6
CONTINUOUS
10
71.4706999999999937
20
-37.9260149999999996
11
70.9786639999999949
21
-40.580802999999996
0
LINE
8
BLACK
6
CONTINUOUS
10
70.9786639999999949
20
-40.580802999999996
11
72.8468489999999917
21
-40.9270509999999987
0
LINE
8
BLACK
6
CONTINUOUS
10
73.3435750000000013
20
-38.2469549999999998
11
73.3388849999999906
21
-38.2722629999999953
0
LINE
8
BLACK
6
CONTINUOUS
10
73.3388849999999906
20
-38.2722629999999953
11
71.4706999999999937
21
-37.9260149999999996
0
LINE
8
BLACK
6
CONTINUOUS
10
72.8468489999999917
20
-40.9270509999999987
11
72.8421579999999977
21
-40.9523590000000013
0
LINE
8
BLACK
6
CONTINUOUS
10
72.969459999999998
20
-41.5512659999999983
11
73.5095639999999975
21
-42.3371220000000008
0
LINE
8
BLACK
6
CONTINUOUS
10
74.4629059999999896
20
-37.1933450000000008
11
73.6770489999999967
21
-37.7334490000000002
0
LINE
8
BLACK
6
CONTINUOUS
10
74.0230699999999899
20
-42.6705959999999962
11
75.8277599999999978
21
-43.0050759999999954
0
LINE
8
BLACK
6
CONTINUOUS
10
77.7672170000000023
20
-37.567459999999997
11
75.0618120000000033
21
-37.0660430000000005
0
LINE
8
BLACK
6
CONTINUOUS
10
78.8208020000000005
20
-38.6867559999999955
11
78.2807229999999947
21
-37.9009349999999969
0
LINE
8
BLACK
6
CONTINUOUS
10
78.9205929999999967
20
-39.4342619999999968
11
78.9493619999999936
21
-39.2790389999999974
0
LINE
8
BLACK
6
CONTINUOUS
10
78.0812179999999927
20
-45.6093449999999976
11
81.3259599999999949
21
-46.210721999999997
0
LINE
8
BLACK
6
CONTINUOUS
10
82.3464790000000022
20
-40.7044939999999968
11
79.4950389999999913
21
-40.1760109999999955
0
LINE
8
BLACK
6
CONTINUOUS
10
83.3604679999999973
20
-42.3671199999999999
11
83.3878040000000027
21
-42.2196319999999972
0
LINE
8
BLACK
6
CONTINUOUS
10
82.868432999999996
20
-45.0219079999999963
11
84.7366169999999954
21
-45.368155999999999
0
LINE
8
BLACK
6
CONTINUOUS
10
82.8410969999999907
20
-45.1693969999999965
11
82.868432999999996
21
-45.0219079999999963
0
LINE
8
BLACK
6
CONTINUOUS
10
85.2286529999999942
20
-42.7133679999999956
11
83.3604679999999973
21
-42.3671199999999999
0
LINE
8
BLACK
6
CONTINUOUS
10
84.7366169999999954
20
-45.368155999999999
11
85.2286529999999942
21
-42.7133679999999956
0
ARC
8
BLACK
10
74.1301699999999926
20
-38.3927410000000009
40
0.7999907823350216
50
124.50002803
51
169.50005395
0
ARC
8
BLACK
10
73.6287530000000032
20
-41.0981459999999998
40
0.7999906213506506
50
-190.50001648
51
-145.49997197
0
ARC
8
BLACK
10
74.9160249999999905
20
-37.8526379999999989
40
0.7999900549444349
50
79.49998352
51
124.49996901
0
ARC
8
BLACK
10
74.1688570000000027
20
-41.8840009999999978
40
0.7999909645702257
50
-145.50001253
51
-100.50001648
0
ARC
8
BLACK
10
75.2671119999999974
20
-44.5136559999999974
40
1.609391125955403
50
7.03373400
51
69.61294258
0
ARC
8
BLACK
10
77.6214310000000012
20
-38.3540539999999979
40
0.7999897990799631
50
34.50000958
51
79.50004089
0
ARC
8
BLACK
10
78.1613469999999921
20
-39.1399869999999979
40
0.8001870008854179
50
-10.00719586
51
34.50000799
0
ARC
8
BLACK
10
78.3549000000000007
20
-44.1326919999999987
40
1.5018008921068731
50
-172.96668705
51
-100.50002038
0
ARC
8
BLACK
10
79.623390999999998
20
-39.4833220000000011
40
0.7044801534642405
50
-196.98331747
51
-100.49757553
0
ARC
8
BLACK
10
82.109572
20
-41.9827259999999995
40
1.3000007586432401
50
-10.49998708
51
79.49996958
0
ARC
8
BLACK
10
81.5628659999999996
20
-44.9324900000000014
40
1.2999997753884422
50
-100.49998708
51
-10.50003845
0
LINE
8
BLACK
6
CONTINUOUS
10
192.9731989999999939
20
-30.6999999999999993
11
192.9731989999999939
21
-33.3999999999999986
0
LINE
8
BLACK
6
CONTINUOUS
10
192.9731989999999939
20
-33.3999999999999986
11
194.8731989999999996
21
-33.3999999999999986
0
LINE
8
BLACK
6
CONTINUOUS
10
194.8731989999999996
20
-30.6742609999999978
11
194.8731989999999996
21
-30.6999999999999993
0
LINE
8
BLACK
6
CONTINUOUS
10
194.8731989999999996
20
-30.6999999999999993
11
192.9731989999999939
21
-30.6999999999999993
0
LINE
8
BLACK
6
CONTINUOUS
10
194.8731989999999996
20
-33.3999999999999986
11
194.8731989999999996
21
-33.4257390000000001
0
LINE
8
BLACK
6
CONTINUOUS
10
195.1075109999999881
20
-33.9914179999999959
11
195.7817819999999926
21
-34.6656890000000004
0
LINE
8
BLACK
6
CONTINUOUS
10
195.7817809999999952
20
-29.4343119999999985
11
195.1075099999999907
21
-30.1085829999999994
0
LINE
8
BLACK
6
CONTINUOUS
10
196.3474599999999839
20
-34.8999999999999986
11
198.1828849999999989
21
-34.8999999999999986
0
LINE
8
BLACK
6
CONTINUOUS
10
199.0989390000000014
20
-29.1999999999999993
11
196.3474599999999839
21
-29.1999999999999993
0
LINE
8
BLACK
6
CONTINUOUS
10
200.3388569999999902
20
-30.1085519999999995
11
199.6646169999999927
21
-29.4343119999999985
0
LINE
8
BLACK
6
CONTINUOUS
10
200.5731989999999882
20
-30.8253559999999993
11
200.5731989999999882
21
-30.6674889999999998
0
LINE
8
BLACK
6
CONTINUOUS
10
200.8731989999999996
20
-37.0499999999999972
11
204.1731989999999826
21
-37.0499999999999972
0
LINE
8
BLACK
6
CONTINUOUS
10
204.1731989999999826
20
-31.4499999999999993
11
201.2731989999999769
21
-31.4499999999999993
0
LINE
8
BLACK
6
CONTINUOUS
10
205.4731989999999939
20
-32.8999999999999986
11
205.4731989999999939
21
-32.75
0
LINE
8
BLACK
6
CONTINUOUS
10
205.4731989999999939
20
-35.6000000000000014
11
207.3731989999999996
21
-35.6000000000000014
0
LINE
8
BLACK
6
CONTINUOUS
10
205.4731989999999939
20
-35.75
11
205.4731989999999939
21
-35.6000000000000014
0
LINE
8
BLACK
6
CONTINUOUS
10
207.3731989999999996
20
-32.8999999999999986
11
205.4731989999999939
21
-32.8999999999999986
0
LINE
8
BLACK
6
CONTINUOUS
10
207.3731989999999996
20
-35.6000000000000014
11
207.3731989999999996
21
-32.8999999999999986
0
ARC
8
BLACK
10
195.6731900000000053
20
-30.6742609999999978
40
0.799991
50
135.00000000
51
180.00000000
0
ARC
8
BLACK
10
195.6731900000000053
20
-33.4257390000000001
40
0.79999091374965
50
-180.00000000
51
-135.00000000
0
ARC
8
BLACK
10
196.3474599999999839
20
-29.9999909999999979
40
0.79999091374965
50
90.00000000
51
135.00000000
0
ARC
8
BLACK
10
196.3474599999999839
20
-34.100009
40
0.799991
50
-135.00000000
51
-90.00000000
0
ARC
8
BLACK
10
197.9065420000000017
20
-36.4854890000000012
40
1.6093914448542344
50
17.53373207
51
80.11294558
0
ARC
8
BLACK
10
199.0989390000000014
20
-29.9999900000000004
40
0.79999
50
45.00000000
51
90.00000000
0
ARC
8
BLACK
10
199.7730389999999829
20
-30.6743699999999997
40
0.8001874894348199
50
0.49277747
51
45.00000000
0
ARC
8
BLACK
10
200.8731989999999996
20
-35.5482000000000014
40
1.5018
50
-162.46670747
51
-90.00000000
0
ARC
8
BLACK
10
201.2731689999999958
20
-30.7455199999999991
40
0.7044800006387689
50
-186.48334735
51
-89.99756008
0
ARC
8
BLACK
10
204.1731989999999826
20
-32.75
40
1.3
50
0.00000000
51
90.00000000
0
ARC
8
BLACK
10
204.1731989999999826
20
-35.75
40
1.3
50
-90.00000000
51
-0.00000000
0
LINE
8
BLACK
6
CONTINUOUS
10
173.4667749999999842
20
-31.1414829999999974
11
173.5492289999999969
21
-33.8402230000000017
0
LINE
8
BLACK
6
CONTINUOUS
10
173.5492289999999969
20
-33.8402230000000017
11
175.4483429999999942
21
-33.782199999999996
0
LINE
8
BLACK
6
CONTINUOUS
10
175.3651030000000048
20
-31.0577329999999989
11
175.3658889999999815
21
-31.0834599999999988
0
LINE
8
BLACK
6
CONTINUOUS
10
175.3658889999999815
20
-31.0834599999999988
11
173.4667749999999842
21
-31.1414829999999974
0
LINE
8
BLACK
6
CONTINUOUS
10
175.4483429999999942
20
-33.782199999999996
11
175.4491289999999992
21
-33.8079269999999994
0
LINE
8
BLACK
6
CONTINUOUS
10
175.7006069999999909
20
-34.3661869999999965
11
176.3951539999999909
21
-35.0195519999999973
0
LINE
8
BLACK
6
CONTINUOUS
10
176.2353949999999827
20
-29.790614999999999
11
175.5820300000000032
21
-30.485163
0
LINE
8
BLACK
6
CONTINUOUS
10
176.967724000000004
20
-35.2364789999999957
11
178.8022929999999917
21
-35.1804279999999991
0
LINE
8
BLACK
6
CONTINUOUS
10
179.543849999999992
20
-29.4551109999999987
11
176.7936540000000036
21
-29.5391370000000002
0
LINE
8
BLACK
6
CONTINUOUS
10
180.8109359999999981
20
-30.3253740000000001
11
180.1164200000000051
21
-29.6720389999999981
0
LINE
8
BLACK
6
CONTINUOUS
10
181.0670580000000029
20
-31.0346879999999992
11
181.0622369999999819
21
-30.8768940000000001
0
LINE
8
BLACK
6
CONTINUOUS
10
181.5570099999999911
20
-37.2472670000000008
11
184.8554709999999943
21
-37.14649
0
LINE
8
BLACK
6
CONTINUOUS
10
184.6844549999999856
20
-31.5491019999999978
11
181.7858080000000029
21
-31.6376629999999999
0
LINE
8
BLACK
6
CONTINUOUS
10
186.0281300000000044
20
-32.9587250000000012
11
186.0235490000000027
21
-32.8087949999999964
0
LINE
8
BLACK
6
CONTINUOUS
10
186.1105839999999887
20
-35.6574659999999994
11
188.0096969999999885
21
-35.5994430000000008
0
LINE
8
BLACK
6
CONTINUOUS
10
186.1151639999999929
20
-35.8073959999999971
11
186.1105839999999887
21
-35.6574659999999994
0
LINE
8
BLACK
6
CONTINUOUS
10
187.9272430000000043
20
-32.9007019999999955
11
186.0281300000000044
21
-32.9587250000000012
0
LINE
8
BLACK
6
CONTINUOUS
10
188.0096969999999885
20
-35.5994430000000008
11
187.9272430000000043
21
-32.9007019999999955
0
ARC
8
BLACK
10
176.1647209999999859
20
-31.0333019999999991
40
0.7999911372540323
50
-223.24994998
51
-178.24996703
0
ARC
8
BLACK
10
176.2487469999999803
20
-33.783496999999997
40
0.7999906847582664
50
-178.25003862
51
-133.24999905
0
ARC
8
BLACK
10
176.8180849999999964
20
-30.338754999999999
40
0.7999906847582664
50
91.75003297
51
136.75000095
0
ARC
8
BLACK
10
176.9432929999999828
20
-34.4368610000000004
40
0.7999911372540323
50
-133.24999905
51
-88.24996703
0
ARC
8
BLACK
10
178.5744969999999796
20
-36.773615999999997
40
1.6093908850742258
50
19.28369708
51
81.86292958
0
ARC
8
BLACK
10
179.5682809999999847
20
-30.2547280000000001
40
0.7999901377204596
50
46.75000404
51
91.75003515
0
ARC
8
BLACK
10
180.26266099999998
20
-30.9082079999999983
40
0.8001880698816997
50
2.24282032
51
46.75002502
0
ARC
8
BLACK
10
181.511146999999994
20
-35.7461669999999998
40
1.5018004610363522
50
-160.71670197
51
-88.24999058
0
ARC
8
BLACK
10
181.7642639999999972
20
-30.9335129999999978
40
0.7044795003660503
50
-184.73336967
51
-88.24753913
0
ARC
8
BLACK
10
184.7241549999999961
20
-32.8484949999999998
40
1.2999993301725197
50
1.74999659
51
91.74999794
0
ARC
8
BLACK
10
184.8157709999999838
20
-35.8470960000000005
40
1.2999993301725197
50
-88.25000341
51
1.74999794
0
LINE
8
BLACK
6
CONTINUOUS
10
153.2705959999999834
20
-32.8912449999999978
11
153.5586810000000071
21
-35.5758319999999983
0
LINE
8
BLACK
6
CONTINUOUS
10
153.5586810000000071
20
-35.5758319999999983
11
155.4478340000000003
21
-35.3731059999999999
0
LINE
8
BLACK
6
CONTINUOUS
10
155.1570040000000006
20
-32.6629269999999963
11
155.1597500000000025
21
-32.6885189999999994
0
LINE
8
BLACK
6
CONTINUOUS
10
155.1597500000000025
20
-32.6885189999999994
11
153.2705959999999834
21
-32.8912449999999978
0
LINE
8
BLACK
6
CONTINUOUS
10
155.4478340000000003
20
-35.3731059999999999
11
155.4505809999999997
21
-35.398697999999996
0
LINE
8
BLACK
6
CONTINUOUS
10
155.7439119999999946
20
-35.9361479999999958
11
156.4862770000000012
21
-36.5346259999999958
0
LINE
8
BLACK
6
CONTINUOUS
10
155.9280990000000031
20
-31.3331129999999973
11
155.3296200000000056
21
-32.0754779999999968
0
LINE
8
BLACK
6
CONTINUOUS
10
157.0737259999999935
20
-36.7072429999999983
11
158.8986739999999998
21
-36.5114069999999984
0
LINE
8
BLACK
6
CONTINUOUS
10
159.2013199999999813
20
-30.7462039999999988
11
156.4655479999999841
21
-31.0397819999999989
0
LINE
8
BLACK
6
CONTINUOUS
10
160.5311010000000067
20
-31.5172729999999994
11
159.7887699999999995
21
-30.9188219999999987
0
LINE
8
BLACK
6
CONTINUOUS
10
160.8405869999999993
20
-32.2049820000000011
11
160.823742999999979
21
-32.048015999999997
0
LINE
8
BLACK
6
CONTINUOUS
10
161.8030310000000043
20
-38.3620829999999984
11
165.0841929999999991
21
-38.0099799999999988
0
LINE
8
BLACK
6
CONTINUOUS
10
164.4866839999999968
20
-32.441946999999999
11
161.6032390000000021
21
-32.7513709999999989
0
LINE
8
BLACK
6
CONTINUOUS
10
165.9339750000000038
20
-33.7449629999999985
11
165.9179699999999968
21
-33.5958189999999988
0
LINE
8
BLACK
6
CONTINUOUS
10
166.222059999999999
20
-36.429549999999999
11
168.1112129999999922
21
-36.2268240000000006
0
LINE
8
BLACK
6
CONTINUOUS
10
166.2380639999999801
20
-36.5786930000000012
11
166.222059999999999
21
-36.429549999999999
0
LINE
8
BLACK
6
CONTINUOUS
10
167.8231289999999944
20
-33.5422370000000001
11
165.9339750000000038
21
-33.7449629999999985
0
LINE
8
BLACK
6
CONTINUOUS
10
168.1112129999999922
20
-36.2268240000000006
11
167.8231289999999944
21
-33.5422370000000001
0
ARC
8
BLACK
10
155.9524279999999976
20
-32.5775700000000015
40
0.7999907232118383
50
-218.87497931
51
-173.87502511
0
ARC
8
BLACK
10
156.2460049999999967
20
-35.3133410000000012
40
0.7999912123879861
50
-173.87502511
51
-128.87497931
0
ARC
8
BLACK
10
156.5509059999999977
20
-31.8352059999999994
40
0.7999912123879861
50
96.12504610
51
141.12502069
0
ARC
8
BLACK
10
156.9883690000000058
20
-35.9118190000000013
40
0.7999907232118383
50
-128.87502426
51
-83.87502511
0
ARC
8
BLACK
10
158.7930769999999825
20
-38.1173299999999955
40
1.6093910054234799
50
23.65870974
51
86.23794841
0
ARC
8
BLACK
10
159.2866779999999949
20
-31.5416279999999993
40
0.7999908299099433
50
51.12503150
51
96.12504610
0
ARC
8
BLACK
10
160.0288850000000025
20
-32.1402330000000021
40
0.8001875231819101
50
6.61778373
51
51.12503993
0
ARC
8
BLACK
10
161.6427919999999858
20
-36.868856000000001
40
1.5018000568151542
50
-156.34170547
51
-83.87499796
0
ARC
8
BLACK
10
161.5280429999999967
20
-32.0509160000000008
40
0.7044796983881082
50
-180.35834455
51
-83.87258865
0
ARC
8
BLACK
10
164.6253920000000051
20
-33.7345259999999953
40
1.3000001463480686
50
6.12499122
51
96.12503034
0
ARC
8
BLACK
10
164.9454849999999908
20
-36.7174009999999953
40
1.3000001463480686
50
-83.87496966
51
6.12503034
0
LINE
8
BLACK
6
CONTINUOUS
10
133.266746999999981
20
-36.1765539999999959
11
133.758782999999994
21
-38.8313419999999994
0
LINE
8
BLACK
6
CONTINUOUS
10
133.758782999999994
20
-38.8313419999999994
11
135.6269670000000076
21
-38.4850950000000012
0
LINE
8
BLACK
6
CONTINUOUS
10
135.1302399999999864
20
-35.8049989999999951
11
135.1349309999999946
21
-35.8303069999999977
0
LINE
8
BLACK
6
CONTINUOUS
10
135.1349309999999946
20
-35.8303069999999977
11
133.266746999999981
21
-36.1765539999999959
0
LINE
8
BLACK
6
CONTINUOUS
10
135.6269670000000076
20
-38.4850950000000012
11
135.6316569999999899
21
-38.5104029999999966
0
LINE
8
BLACK
6
CONTINUOUS
10
135.9651329999999803
20
-39.0239100000000008
11
136.7509890000000041
21
-39.5640140000000002
0
LINE
8
BLACK
6
CONTINUOUS
10
135.7976449999999886
20
-34.4202370000000002
11
135.2575410000000034
21
-35.2060929999999956
0
LINE
8
BLACK
6
CONTINUOUS
10
137.3498940000000061
20
-39.6913149999999959
11
139.1545849999999973
21
-39.3568349999999967
0
LINE
8
BLACK
6
CONTINUOUS
10
139.0165570000000059
20
-33.5853439999999992
11
136.3111519999999928
21
-34.0867620000000002
0
LINE
8
BLACK
6
CONTINUOUS
10
140.4012830000000065
20
-34.2527249999999981
11
139.6154630000000054
21
-33.7126459999999994
0
LINE
8
BLACK
6
CONTINUOUS
10
140.7623279999999966
20
-34.9148209999999963
11
140.7335589999999854
21
-34.7595979999999969
0
LINE
8
BLACK
6
CONTINUOUS
10
142.1916559999999947
20
-40.980561999999999
11
145.4363969999999995
21
-40.3791849999999997
0
LINE
8
BLACK
6
CONTINUOUS
10
144.4158779999999922
20
-34.8729569999999995
11
141.564438999999993
21
-35.4014400000000009
0
LINE
8
BLACK
6
CONTINUOUS
10
145.9583509999999933
20
-36.0617710000000002
11
145.9310159999999996
21
-35.9142829999999975
0
LINE
8
BLACK
6
CONTINUOUS
10
146.4503870000000063
20
-38.7165589999999966
11
148.3185709999999915
21
-38.3703119999999984
0
LINE
8
BLACK
6
CONTINUOUS
10
146.477722
20
-38.8640469999999993
11
146.4503870000000063
21
-38.7165589999999966
0
LINE
8
BLACK
6
CONTINUOUS
10
147.8265350000000069
20
-35.7155229999999975
11
145.9583509999999933
21
-36.0617710000000002
0
LINE
8
BLACK
6
CONTINUOUS
10
148.3185709999999915
20
-38.3703119999999984
11
147.8265350000000069
21
-35.7155229999999975
0
ARC
8
BLACK
10
135.9168349999999919
20
-35.6592119999999966
40
0.7999909645702257
50
-214.50002803
51
-169.49998352
0
ARC
8
BLACK
10
136.4182519999999954
20
-38.3646159999999981
40
0.7999908790711304
50
-169.49998352
51
-124.49992844
0
ARC
8
BLACK
10
136.4569390000000055
20
-34.8733569999999986
40
0.7999914454767626
50
100.50001648
51
145.50001253
0
ARC
8
BLACK
10
137.2041079999999909
20
-38.9047190000000001
40
0.7999917655901214
50
-124.49998747
51
-79.50006700
0
ARC
8
BLACK
10
139.1718019999999854
20
-40.9661339999999967
40
1.6093910949455388
50
28.03373640
51
90.61295247
0
ARC
8
BLACK
10
139.1623439999999903
20
-34.3719380000000001
40
0.7999899813153912
50
55.49999042
51
100.50002953
0
ARC
8
BLACK
10
139.9480519999999899
20
-34.9121809999999968
40
0.800187825011728
50
10.99278115
51
55.50003256
0
ARC
8
BLACK
10
141.9179749999999842
20
-39.5039099999999976
40
1.5017997266163687
50
-151.96673720
51
-79.50001018
0
ARC
8
BLACK
10
141.4360279999999932
20
-34.7087629999999976
40
0.7044791063260853
50
-175.98337329
51
-79.49752845
0
ARC
8
BLACK
10
144.6527839999999969
20
-36.1511889999999951
40
1.3000005764075646
50
10.49998708
51
100.49998708
0
ARC
8
BLACK
10
145.1994909999999948
20
-39.1009540000000015
40
1.2999997753884422
50
-79.50000489
51
10.50003845
0
LINE
8
BLACK
6
CONTINUOUS
10
114.5849029999999971
20
-39.6390290000000007
11
115.0769389999999959
21
-42.2938169999999971
0
LINE
8
BLACK
6
CONTINUOUS
10
115.0769389999999959
20
-42.2938169999999971
11
116.9451229999999953
21
-41.9475699999999989
0
LINE
8
BLACK
6
CONTINUOUS
10
116.4483959999999882
20
-39.267474
11
116.4530869999999965
21
-39.2927819999999954
0
LINE
8
BLACK
6
CONTINUOUS
10
116.4530869999999965
20
-39.2927819999999954
11
114.5849029999999971
21
-39.6390290000000007
0
LINE
8
BLACK
6
CONTINUOUS
10
116.9451229999999953
20
-41.9475699999999989
11
116.9498129999999918
21
-41.9728780000000015
0
LINE
8
BLACK
6
CONTINUOUS
10
117.2832889999999963
20
-42.4863849999999985
11
118.0691449999999918
21
-43.026488999999998
0
LINE
8
BLACK
6
CONTINUOUS
10
117.1158009999999905
20
-37.8827119999999979
11
116.575696999999991
21
-38.6685680000000005
0
LINE
8
BLACK
6
CONTINUOUS
10
118.6680499999999938
20
-43.1537900000000008
11
120.4727409999999992
21
-42.8193100000000015
0
LINE
8
BLACK
6
CONTINUOUS
10
120.3347129999999936
20
-37.0478189999999969
11
117.6293079999999946
21
-37.549236999999998
0
LINE
8
BLACK
6
CONTINUOUS
10
121.7194389999999942
20
-37.7151999999999958
11
120.9336189999999931
21
-37.1751209999999972
0
LINE
8
BLACK
6
CONTINUOUS
10
122.0804839999999984
20
-38.3772960000000012
11
122.0517150000000015
21
-38.2220730000000017
0
LINE
8
BLACK
6
CONTINUOUS
10
123.5098119999999966
20
-44.4430369999999968
11
126.7545530000000014
21
-43.8416599999999974
0
LINE
8
BLACK
6
CONTINUOUS
10
125.7340339999999941
20
-38.3354319999999973
11
122.8825949999999949
21
-38.8639149999999987
0
LINE
8
BLACK
6
CONTINUOUS
10
127.2765069999999952
20
-39.524245999999998
11
127.2491719999999873
21
-39.3767579999999953
0
LINE
8
BLACK
6
CONTINUOUS
10
127.768542999999994
20
-42.1790340000000015
11
129.6367270000000076
21
-41.8327869999999962
0
LINE
8
BLACK
6
CONTINUOUS
10
127.7958779999999877
20
-42.3265219999999971
11
127.768542999999994
21
-42.1790340000000015
0
LINE
8
BLACK
6
CONTINUOUS
10
129.1446909999999946
20
-39.1779979999999952
11
127.2765069999999952
21
-39.524245999999998
0
LINE
8
BLACK
6
CONTINUOUS
10
129.6367270000000076
20
-41.8327869999999962
11
129.1446909999999946
21
-39.1779979999999952
0
ARC
8
BLACK
10
117.2349909999999937
20
-39.1216870000000014
40
0.7999909645702257
50
-214.50002803
51
-169.49998352
0
ARC
8
BLACK
10
117.7364079999999973
20
-41.8270909999999958
40
0.7999908790711304
50
-169.49998352
51
-124.49992844
0
ARC
8
BLACK
10
117.7750949999999932
20
-38.3358319999999964
40
0.7999914454767626
50
100.50001648
51
145.50001253
0
ARC
8
BLACK
10
118.5222639999999927
20
-42.3671939999999978
40
0.7999917655901214
50
-124.49998747
51
-79.50006700
0
ARC
8
BLACK
10
120.4899580000000014
20
-44.4286089999999945
40
1.6093910949455388
50
28.03373640
51
90.61295247
0
ARC
8
BLACK
10
120.4804999999999922
20
-37.8344129999999979
40
0.7999899813153912
50
55.49999042
51
100.50002953
0
ARC
8
BLACK
10
121.2662079999999918
20
-38.3746560000000017
40
0.800187825011728
50
10.99278115
51
55.50003256
0
ARC
8
BLACK
10
123.2361310000000003
20
-42.9663849999999954
40
1.5017997266163687
50
-151.96673720
51
-79.50001018
0
ARC
8
BLACK
10
122.7541839999999951
20
-38.1712379999999953
40
0.7044791063260853
50
-175.98337329
51
-79.49752845
0
ARC
8
BLACK
10
125.9709399999999988
20
-39.613664
40
1.3000005764075646
50
10.49998708
51
100.49998708
0
ARC
8
BLACK
10
126.5176469999999966
20
-42.5634289999999993
40
1.2999997753884422
50
-79.50000489
51
10.50003845
0
LINE
8
BLACK
6
CONTINUOUS
10
29.4188249999999982
20
-52.8799119999999974
11
28.9267889999999994
21
-55.5347000000000008
0
LINE
8
BLACK
6
CONTINUOUS
10
28.9267889999999994
20
-55.5347000000000008
11
30.7949739999999998
21
-55.8809479999999965
0
LINE
8
BLACK
6
CONTINUOUS
10
31.2916999999999987
20
-53.2008519999999976
11
31.2870099999999987
21
-53.2261600000000001
0
LINE
8
BLACK
6
CONTINUOUS
10
31.2870099999999987
20
-53.2261600000000001
11
29.4188249999999982
21
-52.8799119999999974
0
LINE
8
BLACK
6
CONTINUOUS
10
30.7949739999999998
20
-55.8809479999999965
11
30.7902829999999987
21
-55.9062559999999991
0
LINE
8
BLACK
6
CONTINUOUS
10
30.917584999999999
20
-56.505162999999996
11
31.4576889999999985
21
-57.2910189999999986
0
LINE
8
BLACK
6
CONTINUOUS
10
32.4110310000000013
20
-52.1472419999999985
11
31.6251739999999977
21
-52.687345999999998
0
LINE
8
BLACK
6
CONTINUOUS
10
31.971194999999998
20
-57.624492999999994
11
33.7758849999999953
21
-57.9589730000000003
0
LINE
8
BLACK
6
CONTINUOUS
10
35.7153419999999997
20
-52.5213569999999947
11
33.0099370000000008
21
-52.0199399999999983
0
LINE
8
BLACK
6
CONTINUOUS
10
36.7689269999999979
20
-53.6406530000000004
11
36.2288479999999993
21
-52.8548319999999947
0
LINE
8
BLACK
6
CONTINUOUS
10
36.8687180000000012
20
-54.3881589999999946
11
36.8974869999999981
21
-54.2329359999999951
0
LINE
8
BLACK
6
CONTINUOUS
10
36.0293429999999972
20
-60.5632419999999954
11
39.2740849999999995
21
-61.1646189999999947
0
LINE
8
BLACK
6
CONTINUOUS
10
40.2946039999999996
20
-55.6583909999999946
11
37.4431639999999959
21
-55.1299080000000004
0
LINE
8
BLACK
6
CONTINUOUS
10
41.3085929999999948
20
-57.3210169999999977
11
41.3359290000000001
21
-57.1735289999999949
0
LINE
8
BLACK
6
CONTINUOUS
10
40.8165580000000006
20
-59.975804999999994
11
42.684742
21
-60.3220529999999968
0
LINE
8
BLACK
6
CONTINUOUS
10
40.7892219999999952
20
-60.1232939999999942
11
40.8165580000000006
21
-59.975804999999994
0
LINE
8
BLACK
6
CONTINUOUS
10
43.1767779999999988
20
-57.6672650000000004
11
41.3085929999999948
21
-57.3210169999999977
0
LINE
8
BLACK
6
CONTINUOUS
10
42.684742
20
-60.3220529999999968
11
43.1767779999999988
21
-57.6672650000000004
0
ARC
8
BLACK
10
32.0782949999999971
20
-53.3466379999999987
40
0.7999907823350216
50
124.50002803
51
169.50005395
0
ARC
8
BLACK
10
31.5768779999999971
20
-56.0520429999999976
40
0.7999906213506506
50
-190.50001648
51
-145.49997197
0
ARC
8
BLACK
10
32.8641499999999951
20
-52.8065349999999967
40
0.7999900549444349
50
79.49998352
51
124.49996901
0
ARC
8
BLACK
10
32.1169820000000001
20
-56.8378979999999956
40
0.7999909645702257
50
-145.50001253
51
-100.50001648
0
ARC
8
BLACK
10
33.2152370000000019
20
-59.4675529999999952
40
1.609391125955403
50
7.03373400
51
69.61294258
0
ARC
8
BLACK
10
35.5695559999999986
20
-53.3079509999999956
40
0.7999897990799631
50
34.50000958
51
79.50004089
0
ARC
8
BLACK
10
36.1094719999999967
20
-54.0938839999999956
40
0.8001870008854179
50
-10.00719586
51
34.50000799
0
ARC
8
BLACK
10
36.3030249999999981
20
-59.0865889999999965
40
1.5018008921068731
50
-172.96668705
51
-100.50002038
0
ARC
8
BLACK
10
37.5715159999999955
20
-54.4372189999999989
40
0.7044801534642405
50
-196.98331747
51
-100.49757553
0
ARC
8
BLACK
10
40.0576969999999974
20
-56.9366229999999973
40
1.3000007586432401
50
-10.49998708
51
79.49996958
0
ARC
8
BLACK
10
39.5109909999999971
20
-59.8863869999999991
40
1.2999997753884422
50
-100.49998708
51
-10.50003845
0
LINE
8
BLACK
6
CONTINUOUS
10
52.2795009999999962
20
-57.1168879999999959
11
51.7874649999999974
21
-59.7716759999999994
0
LINE
8
BLACK
6
CONTINUOUS
10
51.7874649999999974
20
-59.7716759999999994
11
53.6556499999999943
21
-60.117923999999995
0
LINE
8
BLACK
6
CONTINUOUS
10
54.1523759999999967
20
-57.4378279999999961
11
54.1476860000000002
21
-57.4631359999999987
0
LINE
8
BLACK
6
CONTINUOUS
10
54.1476860000000002
20
-57.4631359999999987
11
52.2795009999999962
21
-57.1168879999999959
0
LINE
8
BLACK
6
CONTINUOUS
10
53.6556499999999943
20
-60.117923999999995
11
53.6509590000000003
21
-60.1432319999999976
0
LINE
8
BLACK
6
CONTINUOUS
10
53.7782610000000005
20
-60.7421389999999946
11
54.318365
21
-61.5279949999999971
0
LINE
8
BLACK
6
CONTINUOUS
10
55.2717069999999993
20
-56.3842179999999971
11
54.4858499999999992
21
-56.9243219999999965
0
LINE
8
BLACK
6
CONTINUOUS
10
54.8318709999999996
20
-61.8614689999999996
11
56.6365610000000004
21
-62.1959489999999988
0
LINE
8
BLACK
6
CONTINUOUS
10
58.5760179999999977
20
-56.7583330000000004
11
55.8706129999999987
21
-56.2569159999999968
0
LINE
8
BLACK
6
CONTINUOUS
10
59.6296029999999959
20
-57.8776289999999989
11
59.0895239999999973
21
-57.0918080000000003
0
LINE
8
BLACK
6
CONTINUOUS
10
59.7293939999999992
20
-58.6251350000000002
11
59.7581629999999961
21
-58.4699120000000008
0
LINE
8
BLACK
6
CONTINUOUS
10
58.8900189999999952
20
-64.800218000000001
11
62.1347609999999975
21
-65.4015950000000004
0
LINE
8
BLACK
6
CONTINUOUS
10
63.1552799999999976
20
-59.8953670000000002
11
60.3038399999999939
21
-59.3668839999999989
0
LINE
8
BLACK
6
CONTINUOUS
10
64.1692689999999999
20
-61.5579929999999962
11
64.196604999999991
21
-61.4105050000000006
0
LINE
8
BLACK
6
CONTINUOUS
10
63.6772339999999986
20
-64.2127809999999926
11
65.545417999999998
21
-64.5590289999999953
0
LINE
8
BLACK
6
CONTINUOUS
10
63.6498980000000003
20
-64.3602699999999999
11
63.6772339999999986
21
-64.2127809999999926
0
LINE
8
BLACK
6
CONTINUOUS
10
66.0374539999999968
20
-61.904240999999999
11
64.1692689999999999
21
-61.5579929999999962
0
LINE
8
BLACK
6
CONTINUOUS
10
65.545417999999998
20
-64.5590289999999953
11
66.0374539999999968
21
-61.904240999999999
0
ARC
8
BLACK
10
54.9389709999999951
20
-57.5836139999999972
40
0.7999907823350216
50
124.50002803
51
169.50005395
0
ARC
8
BLACK
10
54.4375539999999987
20
-60.2890189999999961
40
0.7999906213506506
50
-190.50001648
51
-145.49997197
0
ARC
8
BLACK
10
55.7248260000000002
20
-57.0435109999999952
40
0.7999900549444349
50
79.49998352
51
124.49996901
0
ARC
8
BLACK
10
54.9776579999999981
20
-61.0748739999999941
40
0.7999909645702257
50
-145.50001253
51
-100.50001648
0
ARC
8
BLACK
10
56.0759129999999999
20
-63.7045289999999937
40
1.609391125955403
50
7.03373400
51
69.61294258
0
ARC
8
BLACK
10
58.4302319999999966
20
-57.5449269999999942
40
0.7999897990799631
50
34.50000958
51
79.50004089
0
ARC
8
BLACK
10
58.9701479999999947
20
-58.3308599999999942
40
0.8001870008854179
50
-10.00719586
51
34.50000799
0
ARC
8
BLACK
10
59.1637009999999961
20
-63.323564999999995
40
1.5018008921068731
50
-172.96668705
51
-100.50002038
0
ARC
8
BLACK
10
60.4321920000000006
20
-58.6741949999999974
40
0.7044801534642405
50
-196.98331747
51
-100.49757553
0
ARC
8
BLACK
10
62.9183729999999954
20
-61.1735989999999958
40
1.3000007586432401
50
-10.49998708
51
79.49996958
0
ARC
8
BLACK
10
62.3716669999999951
20
-64.1233629999999977
40
1.2999997753884422
50
-100.49998708
51
-10.50003845
0
LINE
8
BLACK
6
CONTINUOUS
10
73.29657499999999
20
-61.0121719999999996
11
72.8045389999999912
21
-63.666959999999996
0
LINE
8
BLACK
6
CONTINUOUS
10
72.8045389999999912
20
-63.666959999999996
11
74.6727240000000023
21
-64.0132079999999917
0
LINE
8
BLACK
6
CONTINUOUS
10
75.1694499999999977
20
-61.3331119999999999
11
75.1647600000000011
21
-61.3584199999999953
0
LINE
8
BLACK
6
CONTINUOUS
10
75.1647600000000011
20
-61.3584199999999953
11
73.29657499999999
21
-61.0121719999999996
0
LINE
8
BLACK
6
CONTINUOUS
10
74.6727240000000023
20
-64.0132079999999917
11
74.6680329999999941
21
-64.0385160000000013
0
LINE
8
BLACK
6
CONTINUOUS
10
74.7953349999999944
20
-64.6374229999999983
11
75.3354389999999938
21
-65.4232789999999937
0
LINE
8
BLACK
6
CONTINUOUS
10
76.2887810000000002
20
-60.2795020000000008
11
75.502923999999993
21
-60.8196060000000003
0
LINE
8
BLACK
6
CONTINUOUS
10
75.8489450000000005
20
-65.7567530000000033
11
77.6536349999999942
21
-66.0912330000000026
0
LINE
8
BLACK
6
CONTINUOUS
10
79.5930919999999986
20
-60.653616999999997
11
76.8876869999999997
21
-60.1522000000000006
0
LINE
8
BLACK
6
CONTINUOUS
10
80.6466769999999968
20
-61.7729129999999955
11
80.1065979999999911
21
-60.987091999999997
0
LINE
8
BLACK
6
CONTINUOUS
10
80.746467999999993
20
-62.5204189999999969
11
80.77523699999999
21
-62.3651959999999974
0
LINE
8
BLACK
6
CONTINUOUS
10
79.9070930000000033
20
-68.6955019999999905
11
83.1518349999999913
21
-69.2968789999999899
0
LINE
8
BLACK
6
CONTINUOUS
10
84.1723539999999986
20
-63.7906509999999969
11
81.3209140000000019
21
-63.2621679999999955
0
LINE
8
BLACK
6
CONTINUOUS
10
85.1863429999999937
20
-65.4532769999999999
11
85.2136789999999991
21
-65.3057889999999901
0
LINE
8
BLACK
6
CONTINUOUS
10
84.6943079999999924
20
-68.1080649999999963
11
86.5624919999999918
21
-68.4543129999999991
0
LINE
8
BLACK
6
CONTINUOUS
10
84.6669720000000012
20
-68.2555540000000036
11
84.6943079999999924
21
-68.1080649999999963
0
LINE
8
BLACK
6
CONTINUOUS
10
87.0545279999999906
20
-65.7995250000000027
11
85.1863429999999937
21
-65.4532769999999999
0
LINE
8
BLACK
6
CONTINUOUS
10
86.5624919999999918
20
-68.4543129999999991
11
87.0545279999999906
21
-65.7995250000000027
0
ARC
8
BLACK
10
75.9560450000000031
20
-61.4788979999999938
40
0.7999907823350216
50
124.50002803
51
169.50005395
0
ARC
8
BLACK
10
75.4546279999999996
20
-64.1843029999999999
40
0.7999906213506506
50
-190.50001648
51
-145.49997197
0
ARC
8
BLACK
10
76.7419000000000011
20
-60.9387949999999989
40
0.7999900549444349
50
79.49998352
51
124.49996901
0
ARC
8
BLACK
10
75.9947319999999991
20
-64.9701579999999979
40
0.7999909645702257
50
-145.50001253
51
-100.50001648
0
ARC
8
BLACK
10
77.0929869999999937
20
-67.5998129999999975
40
1.609391125955403
50
7.03373400
51
69.61294258
0
ARC
8
BLACK
10
79.4473059999999975
20
-61.4402109999999979
40
0.7999897990799631
50
34.50000958
51
79.50004089
0
ARC
8
BLACK
10
79.9872220000000027
20
-62.2261439999999979
40
0.8001870008854179
50
-10.00719586
51
34.50000799
0
ARC
8
BLACK
10
80.180774999999997
20
-67.2188489999999916
40
1.5018008921068731
50
-172.96668705
51
-100.50002038
0
ARC
8
BLACK
10
81.4492659999999944
20
-62.5694789999999941
40
0.7044801534642405
50
-196.98331747
51
-100.49757553
0
ARC
8
BLACK
10
83.9354469999999964
20
-65.0688829999999996
40
1.3000007586432401
50
-10.49998708
51
79.49996958
0
ARC
8
BLACK
10
83.388740999999996
20
-68.0186470000000014
40
1.2999997753884422
50
-100.49998708
51
-10.50003845
0
LINE
8
BLACK
6
CONTINUOUS
10
156.6367779999999925
20
-54.5929259999999985
11
157.1288140000000055
21
-57.2477139999999949
0
LINE
8
BLACK
6
CONTINUOUS
10
157.1288140000000055
20
-57.2477139999999949
11
158.9969979999999907
21
-56.9014669999999967
0
LINE
8
BLACK
6
CONTINUOUS
10
158.5002709999999979
20
-54.2213709999999978
11
158.5049620000000061
21
-54.2466790000000003
0
LINE
8
BLACK
6
CONTINUOUS
10
158.5049620000000061
20
-54.2466790000000003
11
156.6367779999999925
21
-54.5929259999999985
0
LINE
8
BLACK
6
CONTINUOUS
10
158.9969979999999907
20
-56.9014669999999967
11
159.0016880000000015
21
-56.9267749999999992
0
LINE
8
BLACK
6
CONTINUOUS
10
159.3351639999999918
20
-57.4402819999999963
11
160.1210199999999872
21
-57.9803859999999958
0
LINE
8
BLACK
6
CONTINUOUS
10
159.1676760000000002
20
-52.8366089999999957
11
158.6275719999999865
21
-53.6224649999999983
0
LINE
8
BLACK
6
CONTINUOUS
10
160.7199249999999893
20
-58.1076869999999985
11
162.5246159999999804
21
-57.7732069999999993
0
LINE
8
BLACK
6
CONTINUOUS
10
162.3865879999999891
20
-52.0017159999999947
11
159.6811830000000043
21
-52.5031339999999958
0
LINE
8
BLACK
6
CONTINUOUS
10
163.7713139999999896
20
-52.6690970000000007
11
162.9854939999999885
21
-52.129017999999995
0
LINE
8
BLACK
6
CONTINUOUS
10
164.1323589999999797
20
-53.331192999999999
11
164.103589999999997
21
-53.1759699999999995
0
LINE
8
BLACK
6
CONTINUOUS
10
165.5616870000000063
20
-59.3969339999999946
11
168.8064279999999826
21
-58.7955569999999952
0
LINE
8
BLACK
6
CONTINUOUS
10
167.7859090000000037
20
-53.2893289999999951
11
164.9344700000000046
21
-53.8178119999999964
0
LINE
8
BLACK
6
CONTINUOUS
10
169.3283820000000048
20
-54.4781429999999958
11
169.3010469999999827
21
-54.3306550000000001
0
LINE
8
BLACK
6
CONTINUOUS
10
169.8204179999999894
20
-57.1329309999999992
11
171.688602000000003
21
-56.7866839999999939
0
LINE
8
BLACK
6
CONTINUOUS
10
169.8477529999999831
20
-57.2804189999999949
11
169.8204179999999894
21
-57.1329309999999992
0
LINE
8
BLACK
6
CONTINUOUS
10
171.19656599999999
20
-54.1318950000000001
11
169.3283820000000048
21
-54.4781429999999958
0
LINE
8
BLACK
6
CONTINUOUS
10
171.688602000000003
20
-56.7866839999999939
11
171.19656599999999
21
-54.1318950000000001
0
ARC
8
BLACK
10
159.2868660000000034
20
-54.0755839999999992
40
0.7999909645702257
50
-214.50002803
51
-169.49998352
0
ARC
8
BLACK
10
159.788283000000007
20
-56.7809880000000007
40
0.7999908790711304
50
-169.49998352
51
-124.49992844
0
ARC
8
BLACK
10
159.8269699999999887
20
-53.2897289999999941
40
0.7999914454767626
50
100.50001648
51
145.50001253
0
ARC
8
BLACK
10
160.5741390000000024
20
-57.3210909999999956
40
0.7999917655901214
50
-124.49998747
51
-79.50006700
0
ARC
8
BLACK
10
162.5418329999999969
20
-59.3825059999999993
40
1.6093910949455388
50
28.03373640
51
90.61295247
0
ARC
8
BLACK
10
162.5323750000000018
20
-52.7883099999999956
40
0.7999899813153912
50
55.49999042
51
100.50002953
0
ARC
8
BLACK
10
163.3180830000000014
20
-53.3285529999999994
40
0.800187825011728
50
10.99278115
51
55.50003256
0
ARC
8
BLACK
10
165.2880059999999958
20
-57.9202820000000003
40
1.5017997266163687
50
-151.96673720
51
-79.50001018
0
ARC
8
BLACK
10
164.8060590000000047
20
-53.1251350000000002
40
0.7044791063260853
50
-175.98337329
51
-79.49752845
0
ARC
8
BLACK
10
168.02281499999998
20
-54.5675609999999978
40
1.3000005764075646
50
10.49998708
51
100.49998708
0
ARC
8
BLACK
10
168.5695220000000063
20
-57.5173259999999971
40
1.2999997753884422
50
-79.50000489
51
10.50003845
0
LINE
8
BLACK
6
CONTINUOUS
10
133.7761019999999803
20
-58.829901999999997
11
134.2681379999999933
21
-61.4846900000000005
0
LINE
8
BLACK
6
CONTINUOUS
10
134.2681379999999933
20
-61.4846900000000005
11
136.1363220000000069
21
-61.1384429999999952
0
LINE
8
BLACK
6
CONTINUOUS
10
135.6395949999999857
20
-58.4583469999999963
11
135.6442859999999939
21
-58.4836549999999988
0
LINE
8
BLACK
6
CONTINUOUS
10
135.6442859999999939
20
-58.4836549999999988
11
133.7761019999999803
21
-58.829901999999997
0
LINE
8
BLACK
6
CONTINUOUS
10
136.1363220000000069
20
-61.1384429999999952
11
136.1410119999999893
21
-61.1637509999999978
0
LINE
8
BLACK
6
CONTINUOUS
10
136.474488000000008
20
-61.6772579999999948
11
137.2603440000000035
21
-62.2173619999999943
0
LINE
8
BLACK
6
CONTINUOUS
10
136.3069999999999879
20
-57.0735849999999942
11
135.7668960000000027
21
-57.8594409999999968
0
LINE
8
BLACK
6
CONTINUOUS
10
137.8592490000000055
20
-62.3446629999999971
11
139.6639399999999966
21
-62.0101829999999978
0
LINE
8
BLACK
6
CONTINUOUS
10
139.5259120000000053
20
-56.2386920000000003
11
136.8205069999999921
21
-56.7401099999999943
0
LINE
8
BLACK
6
CONTINUOUS
10
140.9106380000000058
20
-56.9060729999999992
11
140.1248180000000048
21
-56.3659940000000006
0
LINE
8
BLACK
6
CONTINUOUS
10
141.2716829999999959
20
-57.5681689999999975
11
141.2429139999999848
21
-57.412945999999998
0
LINE
8
BLACK
6
CONTINUOUS
10
142.7010109999999941
20
-63.6339100000000002
11
145.9457519999999988
21
-63.0325329999999937
0
LINE
8
BLACK
6
CONTINUOUS
10
144.9252329999999915
20
-57.5263050000000007
11
142.0737939999999924
21
-58.054787999999995
0
LINE
8
BLACK
6
CONTINUOUS
10
146.4677059999999926
20
-58.7151189999999943
11
146.440370999999999
21
-58.5676309999999987
0
LINE
8
BLACK
6
CONTINUOUS
10
146.9597420000000056
20
-61.3699069999999978
11
148.8279259999999908
21
-61.0236599999999996
0
LINE
8
BLACK
6
CONTINUOUS
10
146.9870769999999993
20
-61.5173950000000005
11
146.9597420000000056
21
-61.3699069999999978
0
LINE
8
BLACK
6
CONTINUOUS
10
148.3358900000000062
20
-58.3688709999999986
11
146.4677059999999926
21
-58.7151189999999943
0
LINE
8
BLACK
6
CONTINUOUS
10
148.8279259999999908
20
-61.0236599999999996
11
148.3358900000000062
21
-58.3688709999999986
0
ARC
8
BLACK
10
136.4261899999999912
20
-58.3125599999999977
40
0.7999909645702257
50
-214.50002803
51
-169.49998352
0
ARC
8
BLACK
10
136.9276069999999947
20
-61.0179639999999992
40
0.7999908790711304
50
-169.49998352
51
-124.49992844
0
ARC
8
BLACK
10
136.9662940000000049
20
-57.5267049999999998
40
0.7999914454767626
50
100.50001648
51
145.50001253
0
ARC
8
BLACK
10
137.7134629999999902
20
-61.5580669999999941
40
0.7999917655901214
50
-124.49998747
51
-79.50006700
0
ARC
8
BLACK
10
139.6811569999999847
20
-63.6194819999999979
40
1.6093910949455388
50
28.03373640
51
90.61295247
0
ARC
8
BLACK
10
139.6716989999999896
20
-57.0252859999999941
40
0.7999899813153912
50
55.49999042
51
100.50002953
0
ARC
8
BLACK
10
140.4574069999999892
20
-57.5655289999999979
40
0.800187825011728
50
10.99278115
51
55.50003256
0
ARC
8
BLACK
10
142.4273299999999836
20
-62.1572579999999988
40
1.5017997266163687
50
-151.96673720
51
-79.50001018
0
ARC
8
BLACK
10
141.9453829999999925
20
-57.3621109999999987
40
0.7044791063260853
50
-175.98337329
51
-79.49752845
0
ARC
8
BLACK
10
145.1621389999999963
20
-58.8045369999999963
40
1.3000005764075646
50
10.49998708
51
100.49998708
0
ARC
8
BLACK
10
145.7088459999999941
20
-61.7543019999999956
40
1.2999997753884422
50
-79.50000489
51
10.50003845
0
LINE
8
BLACK
6
CONTINUOUS
10
112.7590280000000007
20
-62.7251859999999937
11
113.2510639999999995
21
-65.37997399999999
0
LINE
8
BLACK
6
CONTINUOUS
10
113.2510639999999995
20
-65.37997399999999
11
115.1192479999999989
21
-65.033726999999999
0
LINE
8
BLACK
6
CONTINUOUS
10
114.6225209999999919
20
-62.353631
11
114.6272120000000001
21
-62.3789389999999955
0
LINE
8
BLACK
6
CONTINUOUS
10
114.6272120000000001
20
-62.3789389999999955
11
112.7590280000000007
21
-62.7251859999999937
0
LINE
8
BLACK
6
CONTINUOUS
10
115.1192479999999989
20
-65.033726999999999
11
115.1239379999999954
21
-65.0590349999999944
0
LINE
8
BLACK
6
CONTINUOUS
10
115.457414
20
-65.5725419999999986
11
116.2432699999999954
21
-66.112645999999998
0
LINE
8
BLACK
6
CONTINUOUS
10
115.2899259999999941
20
-60.968868999999998
11
114.7498219999999947
21
-61.7547250000000005
0
LINE
8
BLACK
6
CONTINUOUS
10
116.8421749999999975
20
-66.2399470000000008
11
118.6468659999999886
21
-65.9054670000000016
0
LINE
8
BLACK
6
CONTINUOUS
10
118.5088379999999972
20
-60.133975999999997
11
115.8034329999999983
21
-60.635393999999998
0
LINE
8
BLACK
6
CONTINUOUS
10
119.8935639999999978
20
-60.8013569999999959
11
119.1077439999999967
21
-60.2612779999999972
0
LINE
8
BLACK
6
CONTINUOUS
10
120.2546089999999879
20
-61.4634529999999941
11
120.2258399999999909
21
-61.3082299999999947
0
LINE
8
BLACK
6
CONTINUOUS
10
121.6839370000000002
20
-67.5291940000000039
11
124.9286779999999908
21
-66.9278169999999903
0
LINE
8
BLACK
6
CONTINUOUS
10
123.9081589999999977
20
-61.4215889999999973
11
121.0567199999999985
21
-61.9500719999999987
0
LINE
8
BLACK
6
CONTINUOUS
10
125.4506319999999988
20
-62.610402999999998
11
125.4232969999999909
21
-62.4629149999999953
0
LINE
8
BLACK
6
CONTINUOUS
10
125.9426679999999976
20
-65.2651910000000015
11
127.810851999999997
21
-64.9189439999999962
0
LINE
8
BLACK
6
CONTINUOUS
10
125.9700029999999913
20
-65.4126789999999971
11
125.9426679999999976
21
-65.2651910000000015
0
LINE
8
BLACK
6
CONTINUOUS
10
127.3188159999999982
20
-62.2641549999999953
11
125.4506319999999988
21
-62.610402999999998
0
LINE
8
BLACK
6
CONTINUOUS
10
127.810851999999997
20
-64.9189439999999962
11
127.3188159999999982
21
-62.2641549999999953
0
ARC
8
BLACK
10
115.4091159999999974
20
-62.2078439999999944
40
0.7999909645702257
50
-214.50002803
51
-169.49998352
0
ARC
8
BLACK
10
115.9105330000000009
20
-64.9132479999999958
40
0.7999908790711304
50
-169.49998352
51
-124.49992844
0
ARC
8
BLACK
10
115.9492199999999968
20
-61.4219889999999964
40
0.7999914454767626
50
100.50001648
51
145.50001253
0
ARC
8
BLACK
10
116.6963889999999964
20
-65.4533509999999978
40
0.7999917655901214
50
-124.49998747
51
-79.50006700
0
ARC
8
BLACK
10
118.6640829999999909
20
-67.5147659999999945
40
1.6093910949455388
50
28.03373640
51
90.61295247
0
ARC
8
BLACK
10
118.6546249999999958
20
-60.9205699999999979
40
0.7999899813153912
50
55.49999042
51
100.50002953
0
ARC
8
BLACK
10
119.4403329999999954
20
-61.4608129999999946
40
0.800187825011728
50
10.99278115
51
55.50003256
0
ARC
8
BLACK
10
121.4102559999999897
20
-66.0525420000000025
40
1.5017997266163687
50
-151.96673720
51
-79.50001018
0
ARC
8
BLACK
10
120.9283089999999987
20
-61.2573949999999954
40
0.7044791063260853
50
-175.98337329
51
-79.49752845
0
ARC
8
BLACK
10
124.1450649999999882
20
-62.699821
40
1.3000005764075646
50
10.49998708
51
100.49998708
0
ARC
8
BLACK
10
124.6917720000000003
20
-65.6495859999999993
40
1.2999997753884422
50
-79.50000489
51
10.50003845
  0
ENDSEC
  0
EOF
