0
SECTION
2
HEADER
9
$INSUNITS
70
4
0
ENDSEC
0
SECTION
2
TABLES
0
TABLE
2
LTYPE
0
LTYPE
72
65
70
64
2
CONTINUOUS
3
______
73
0
40
0
0
ENDTAB
0
TABLE
2
LAYER
0
ENDTAB
0
ENDSEC
0
SECTION
2
ENTITIES
0
LINE
8
0
10
21.346272
20
-68.7241191
11
40.5197427
21
-72.2777118
0
LINE
8
0
10
40.5197427
20
-72.2777118
11
44.0733354
21
-53.1042411
0
LINE
8
0
10
44.0733354
20
-53.1042411
11
24.8998647
21
-49.5506484
0
LINE
8
0
10
24.8998647
20
-49.5506484
11
21.346272
21
-68.7241191
0
LINE
8
0
10
154.7784563
20
-72.2777118
11
173.951927
21
-68.7241191
0
LINE
8
0
10
173.951927
20
-68.7241191
11
170.3983343
21
-49.5506484
0
LINE
8
0
10
170.3983343
20
-49.5506484
11
151.2248636
21
-53.1042411
0
LINE
8
0
10
151.2248636
20
-53.1042411
11
154.7784563
21
-72.2777118
0
LINE
8
0
10
-12.575
20
10.2
11
12.3785956
21
10.2
0
LINE
8
0
10
32.7405454
20
8.9546097
11
32.7409117
21
8.9605993
0
LINE
8
0
10
32.7409117
20
8.9605993
11
32.6429831
21
8.9665889
0
LINE
8
0
10
32.5448737
20
8.9725895
11
12.575
21
10.1939993
0
LINE
8
0
10
12.4768894
20
10.2
11
12.3789619
21
10.2059895
0
LINE
8
0
10
12.3789619
20
10.2059895
11
12.3785956
21
10.2
0
LINE
8
0
10
52.7928151
20
6.4864548
11
52.7935464
21
6.4924108
0
LINE
8
0
10
52.7935464
20
6.4924108
11
52.6961673
21
6.5043674
0
LINE
8
0
10
52.598606
20
6.5163465
11
32.7405454
21
8.9546097
0
LINE
8
0
10
32.6429831
20
8.9665889
11
32.545605
21
8.9785454
0
LINE
8
0
10
32.545605
20
8.9785454
11
32.5448737
21
8.9725895
0
LINE
8
0
10
52.7928151
20
6.4864548
11
91.3399428
21
-0.6578329
0
LINE
8
0
10
52.6961673
20
6.5043674
11
52.5996995
21
6.5222467
0
LINE
8
0
10
52.5996995
20
6.5222467
11
52.598606
21
6.5163465
0
LINE
8
0
10
87.9354473
20
-19.026847
11
91.3399428
21
-0.6578329
0
LINE
8
0
10
182.9196034
20
10.2
11
207.873199
21
10.2
0
LINE
8
0
10
182.9196034
20
10.2
11
182.9192371
21
10.2059895
0
LINE
8
0
10
182.9192371
20
10.2059895
11
182.8213096
21
10.2
0
LINE
8
0
10
182.723199
20
10.1939993
11
162.7533253
21
8.9725895
0
LINE
8
0
10
162.6552159
20
8.9665889
11
162.5572873
21
8.9605993
0
LINE
8
0
10
162.5572873
20
8.9605993
11
162.5576536
21
8.9546097
0
LINE
8
0
10
162.7533253
20
8.9725895
11
162.752594
21
8.9785454
0
LINE
8
0
10
162.752594
20
8.9785454
11
162.6552159
21
8.9665889
0
LINE
8
0
10
162.5576536
20
8.9546097
11
142.699593
21
6.5163465
0
LINE
8
0
10
142.6020317
20
6.5043674
11
142.5046526
21
6.4924108
0
LINE
8
0
10
142.5046526
20
6.4924108
11
142.5053839
21
6.4864548
0
LINE
8
0
10
142.699593
20
6.5163465
11
142.6984995
21
6.5222467
0
LINE
8
0
10
142.6984995
20
6.5222467
11
142.6020317
21
6.5043674
0
LINE
8
0
10
103.9582562
20
-0.6578329
11
142.5053839
21
6.4864548
0
LINE
8
0
10
103.9582562
20
-0.6578329
11
107.3627517
21
-19.026847
0
LINE
8
0
10
86.3368123
20
-39.4779749
11
87.6223381
21
-39.716233
0
LINE
8
0
10
87.6223381
20
-39.716233
11
91.3399428
21
-19.6578329
0
LINE
8
0
10
91.3399428
20
-19.6578329
11
87.9354473
21
-19.026847
0
LINE
8
0
10
107.6758609
20
-39.716233
11
108.9613867
21
-39.4779749
0
LINE
8
0
10
107.3627517
20
-19.026847
11
103.9582562
21
-19.6578329
0
LINE
8
0
10
103.9582562
20
-19.6578329
11
107.6758609
21
-39.716233
0
LINE
8
0
10
-12.575
20
-48.2
11
7.1143075
21
-48.2
0
LINE
8
0
10
-12.575
20
-48.2
11
-12.575
21
10.2
0
LINE
8
0
10
7.1143075
20
-48.2
11
26.068037
21
-48.7790888
0
LINE
8
0
10
26.068037
20
-48.7790888
11
44.9064007
21
-50.8006432
0
LINE
8
0
10
44.9064007
20
-50.8006432
11
82.9320765
21
-57.8482855
0
LINE
8
0
10
82.9320765
20
-57.8482855
11
86.3368123
21
-39.4779749
0
LINE
8
0
10
188.1838915
20
-48.2
11
207.873199
21
-48.2
0
LINE
8
0
10
207.873199
20
-48.2
11
207.873199
21
10.2
0
LINE
8
0
10
169.230162
20
-48.7790888
11
188.1838915
21
-48.2
0
LINE
8
0
10
150.3917983
20
-50.8006432
11
169.230162
21
-48.7790888
0
LINE
8
0
10
112.3661225
20
-57.8482855
11
150.3917983
21
-50.8006432
0
LINE
8
0
10
108.9613867
20
-39.4779749
11
112.3661225
21
-57.8482855
0
LINE
8
0
10
12.575
20
10.1939993
11
12.575
21
10.2
0
LINE
8
0
10
12.575
20
10.2
11
12.4768894
21
10.2
0
LINE
8
0
10
182.8213096
20
10.2
11
182.723199
21
10.2
0
LINE
8
0
10
182.723199
20
10.2
11
182.723199
21
10.1939993
0
LINE
8
0
10
62.3643212
20
-76.7840287
11
87.0931821
21
-81.3672522
0
LINE
8
0
10
87.0931821
20
-81.3672522
11
90.8107868
21
-61.3088521
0
LINE
8
0
10
90.8107868
20
-61.3088521
11
66.0819259
21
-56.7256286
0
LINE
8
0
10
66.0819259
20
-56.7256286
11
62.3643212
21
-76.7840287
0
LINE
8
0
10
108.2050169
20
-81.3672522
11
132.9338778
21
-76.7840287
0
LINE
8
0
10
132.9338778
20
-76.7840287
11
129.2162731
21
-56.7256286
0
LINE
8
0
10
129.2162731
20
-56.7256286
11
104.4874122
21
-61.3088521
0
LINE
8
0
10
104.4874122
20
-61.3088521
11
108.2050169
21
-81.3672522
0
ENDSEC
0
EOF