0
SECTION
2
HEADER
9
$INSUNITS
70
4
0
ENDSEC
0
SECTION
2
TABLES
0
TABLE
2
LTYPE
0
LTYPE
72
65
70
64
2
CONTINUOUS
3
______
73
0
40
0
0
ENDTAB
0
TABLE
2
LAYER
0
ENDTAB
0
ENDSEC
0
SECTION
2
ENTITIES
0
LINE
8
0
10
-11.575
20
-9.2
11
11.575
21
-9.2
0
LINE
8
0
10
-11.575
20
9.2
11
11.575
21
9.2
0
LINE
8
0
10
12.192755
20
-9.2188741
11
30.5584353
21
-10.3421672
0
LINE
8
0
10
30.5584353
20
-10.3421672
11
31.6817284
21
8.0235131
0
LINE
8
0
10
31.6817284
20
8.0235131
11
13.3160481
21
9.1468062
0
LINE
8
0
10
13.3160481
20
9.1468062
11
12.192755
21
-9.2188741
0
LINE
8
0
10
31.1738858
20
-10.3987192
11
49.436735
21
-12.6411152
0
LINE
8
0
10
49.436735
20
-12.6411152
11
51.679131
21
5.621734
0
LINE
8
0
10
51.679131
20
5.621734
11
33.4162818
21
7.86413
0
LINE
8
0
10
33.4162818
20
7.86413
11
31.1738858
21
-10.3987192
0
LINE
8
0
10
50.0475852
20
-12.735134
11
68.1394755
21
-16.0882677
0
LINE
8
0
10
68.1394755
20
-16.0882677
11
71.4926092
21
2.0036226
0
LINE
8
0
10
71.4926092
20
2.0036226
11
53.4007189
21
5.3567563
0
LINE
8
0
10
53.4007189
20
5.3567563
11
50.0475852
21
-12.735134
0
LINE
8
0
10
68.7294284
20
-16.1976089
11
86.8213187
21
-19.5507426
0
LINE
8
0
10
86.8213187
20
-19.5507426
11
90.1744524
21
-1.4588523
0
LINE
8
0
10
90.1744524
20
-1.4588523
11
72.0825621
21
1.8942814
0
LINE
8
0
10
72.0825621
20
1.8942814
11
68.7294284
21
-16.1976089
0
LINE
8
0
10
183.723199
20
-9.2
11
206.873199
21
-9.2
0
LINE
8
0
10
183.723199
20
9.2
11
206.873199
21
9.2
0
LINE
8
0
10
164.7397637
20
-10.3421672
11
183.105444
21
-9.2188741
0
LINE
8
0
10
183.105444
20
-9.2188741
11
181.9821509
21
9.1468062
0
LINE
8
0
10
181.9821509
20
9.1468062
11
163.6164706
21
8.0235131
0
LINE
8
0
10
163.6164706
20
8.0235131
11
164.7397637
21
-10.3421672
0
LINE
8
0
10
145.861464
20
-12.6411152
11
164.1243132
21
-10.3987192
0
LINE
8
0
10
164.1243132
20
-10.3987192
11
161.8819172
21
7.86413
0
LINE
8
0
10
161.8819172
20
7.86413
11
143.619068
21
5.621734
0
LINE
8
0
10
143.619068
20
5.621734
11
145.861464
21
-12.6411152
0
LINE
8
0
10
127.1587235
20
-16.0882677
11
145.2506138
21
-12.735134
0
LINE
8
0
10
145.2506138
20
-12.735134
11
141.8974801
21
5.3567563
0
LINE
8
0
10
141.8974801
20
5.3567563
11
123.8055898
21
2.0036226
0
LINE
8
0
10
123.8055898
20
2.0036226
11
127.1587235
21
-16.0882677
0
LINE
8
0
10
108.4768803
20
-19.5507426
11
126.5687706
21
-16.1976089
0
LINE
8
0
10
126.5687706
20
-16.1976089
11
123.2156369
21
1.8942814
0
LINE
8
0
10
123.2156369
20
1.8942814
11
105.1237466
21
-1.4588523
0
LINE
8
0
10
105.1237466
20
-1.4588523
11
108.4768803
21
-19.5507426
0
LINE
8
0
10
-11.575
20
-28.2
11
11.575
21
-28.2
0
LINE
8
0
10
-11.575
20
-9.8
11
11.575
21
-9.8
0
LINE
8
0
10
12.192755
20
-28.2188741
11
30.5584353
21
-29.3421672
0
LINE
8
0
10
30.5584353
20
-29.3421672
11
31.6817284
21
-10.9764869
0
LINE
8
0
10
31.6817284
20
-10.9764869
11
13.3160481
21
-9.8531938
0
LINE
8
0
10
13.3160481
20
-9.8531938
11
12.192755
21
-28.2188741
0
LINE
8
0
10
31.1738858
20
-29.3987192
11
49.436735
21
-31.6411152
0
LINE
8
0
10
49.436735
20
-31.6411152
11
51.679131
21
-13.378266
0
LINE
8
0
10
51.679131
20
-13.378266
11
33.4162818
21
-11.13587
0
LINE
8
0
10
33.4162818
20
-11.13587
11
31.1738858
21
-29.3987192
0
LINE
8
0
10
50.0475852
20
-31.735134
11
68.1394755
21
-35.0882677
0
LINE
8
0
10
68.1394755
20
-35.0882677
11
71.4926092
21
-16.9963774
0
LINE
8
0
10
71.4926092
20
-16.9963774
11
53.4007189
21
-13.6432437
0
LINE
8
0
10
53.4007189
20
-13.6432437
11
50.0475852
21
-31.735134
0
LINE
8
0
10
68.7294284
20
-35.1976089
11
86.8213187
21
-38.5507426
0
LINE
8
0
10
86.8213187
20
-38.5507426
11
90.1744524
21
-20.4588523
0
LINE
8
0
10
90.1744524
20
-20.4588523
11
72.0825621
21
-17.1057186
0
LINE
8
0
10
72.0825621
20
-17.1057186
11
68.7294284
21
-35.1976089
0
LINE
8
0
10
183.723199
20
-28.2
11
206.873199
21
-28.2
0
LINE
8
0
10
183.723199
20
-9.8
11
206.873199
21
-9.8
0
LINE
8
0
10
164.7397637
20
-29.3421672
11
183.105444
21
-28.2188741
0
LINE
8
0
10
183.105444
20
-28.2188741
11
181.9821509
21
-9.8531938
0
LINE
8
0
10
181.9821509
20
-9.8531938
11
163.6164706
21
-10.9764869
0
LINE
8
0
10
163.6164706
20
-10.9764869
11
164.7397637
21
-29.3421672
0
LINE
8
0
10
145.861464
20
-31.6411152
11
164.1243132
21
-29.3987192
0
LINE
8
0
10
164.1243132
20
-29.3987192
11
161.8819172
21
-11.13587
0
LINE
8
0
10
161.8819172
20
-11.13587
11
143.619068
21
-13.378266
0
LINE
8
0
10
143.619068
20
-13.378266
11
145.861464
21
-31.6411152
0
LINE
8
0
10
127.1587235
20
-35.0882677
11
145.2506138
21
-31.735134
0
LINE
8
0
10
145.2506138
20
-31.735134
11
141.8974801
21
-13.6432437
0
LINE
8
0
10
141.8974801
20
-13.6432437
11
123.8055898
21
-16.9963774
0
LINE
8
0
10
123.8055898
20
-16.9963774
11
127.1587235
21
-35.0882677
0
LINE
8
0
10
108.4768803
20
-38.5507426
11
126.5687706
21
-35.1976089
0
LINE
8
0
10
126.5687706
20
-35.1976089
11
123.2156369
21
-17.1057186
0
LINE
8
0
10
123.2156369
20
-17.1057186
11
105.1237466
21
-20.4588523
0
LINE
8
0
10
105.1237466
20
-20.4588523
11
108.4768803
21
-38.5507426
0
LINE
8
0
10
-11.575
20
-47.2
11
6.825
21
-47.2
0
LINE
8
0
10
6.825
20
-47.2
11
6.825
21
-28.8
0
LINE
8
0
10
6.825
20
-28.8
11
-11.575
21
-28.8
0
LINE
8
0
10
-11.575
20
-28.8
11
-11.575
21
-47.2
0
LINE
8
0
10
7.4340216
20
-47.2093015
11
25.8254397
21
-47.7712102
0
LINE
8
0
10
25.8254397
20
-47.7712102
11
26.3873484
21
-29.3797921
0
LINE
8
0
10
26.3873484
20
-29.3797921
11
7.9959303
21
-28.8178834
0
LINE
8
0
10
7.9959303
20
-28.8178834
11
7.4340216
21
-47.2093015
0
LINE
8
0
10
26.4464351
20
-47.8139537
11
44.7413984
21
-49.7771954
0
LINE
8
0
10
44.7413984
20
-49.7771954
11
46.7046401
21
-31.4822321
0
LINE
8
0
10
46.7046401
20
-31.4822321
11
28.4096768
21
-29.5189904
0
LINE
8
0
10
28.4096768
20
-29.5189904
11
26.4464351
21
-47.8139537
0
LINE
8
0
10
45.3573235
20
-49.8671865
11
63.4492138
21
-53.2203202
0
LINE
8
0
10
63.4492138
20
-53.2203202
11
66.8023475
21
-35.1284299
0
LINE
8
0
10
66.8023475
20
-35.1284299
11
48.7104572
21
-31.7752962
0
LINE
8
0
10
48.7104572
20
-31.7752962
11
45.3573235
21
-49.8671865
0
LINE
8
0
10
64.0391668
20
-53.3296614
11
82.1310571
21
-56.6827951
0
LINE
8
0
10
82.1310571
20
-56.6827951
11
85.4841908
21
-38.5909048
0
LINE
8
0
10
85.4841908
20
-38.5909048
11
67.3923005
21
-35.2377711
0
LINE
8
0
10
67.3923005
20
-35.2377711
11
64.0391668
21
-53.3296614
0
LINE
8
0
10
188.473199
20
-47.2
11
206.873199
21
-47.2
0
LINE
8
0
10
206.873199
20
-47.2
11
206.873199
21
-28.8
0
LINE
8
0
10
206.873199
20
-28.8
11
188.473199
21
-28.8
0
LINE
8
0
10
188.473199
20
-28.8
11
188.473199
21
-47.2
0
LINE
8
0
10
169.4727593
20
-47.7712102
11
187.8641774
21
-47.2093015
0
LINE
8
0
10
187.8641774
20
-47.2093015
11
187.3022687
21
-28.8178834
0
LINE
8
0
10
187.3022687
20
-28.8178834
11
168.9108506
21
-29.3797921
0
LINE
8
0
10
168.9108506
20
-29.3797921
11
169.4727593
21
-47.7712102
0
LINE
8
0
10
150.5568006
20
-49.7771954
11
168.8517639
21
-47.8139537
0
LINE
8
0
10
168.8517639
20
-47.8139537
11
166.8885222
21
-29.5189904
0
LINE
8
0
10
166.8885222
20
-29.5189904
11
148.5935589
21
-31.4822321
0
LINE
8
0
10
148.5935589
20
-31.4822321
11
150.5568006
21
-49.7771954
0
LINE
8
0
10
131.8489852
20
-53.2203202
11
149.9408755
21
-49.8671865
0
LINE
8
0
10
149.9408755
20
-49.8671865
11
146.5877418
21
-31.7752962
0
LINE
8
0
10
146.5877418
20
-31.7752962
11
128.4958515
21
-35.1284299
0
LINE
8
0
10
128.4958515
20
-35.1284299
11
131.8489852
21
-53.2203202
0
LINE
8
0
10
113.1671419
20
-56.6827951
11
131.2590322
21
-53.3296614
0
LINE
8
0
10
131.2590322
20
-53.3296614
11
127.9058985
21
-35.2377711
0
LINE
8
0
10
127.9058985
20
-35.2377711
11
109.8140082
21
-38.5909048
0
LINE
8
0
10
109.8140082
20
-38.5909048
11
113.1671419
21
-56.6827951
0
LINE
8
0
10
44.8479683
20
-72.5205344
11
62.9398586
21
-75.8736681
0
LINE
8
0
10
62.9398586
20
-75.8736681
11
66.2929923
21
-57.7817778
0
LINE
8
0
10
66.2929923
20
-57.7817778
11
48.201102
21
-54.4286441
0
LINE
8
0
10
48.201102
20
-54.4286441
11
44.8479683
21
-72.5205344
0
LINE
8
0
10
63.5298116
20
-75.9830093
11
86.2921627
21
-80.2017618
0
LINE
8
0
10
66.8829453
20
-57.891119
11
89.6452964
21
-62.1098715
0
LINE
8
0
10
132.3583404
20
-75.8736681
11
150.4502307
21
-72.5205344
0
LINE
8
0
10
150.4502307
20
-72.5205344
11
147.097097
21
-54.4286441
0
LINE
8
0
10
147.097097
20
-54.4286441
11
129.0052067
21
-57.7817778
0
LINE
8
0
10
129.0052067
20
-57.7817778
11
132.3583404
21
-75.8736681
0
LINE
8
0
10
109.0060363
20
-80.2017618
11
131.7683874
21
-75.9830093
0
LINE
8
0
10
105.6529026
20
-62.1098715
11
128.4152537
21
-57.891119
0
LINE
8
0
10
11.575
20
-9.2
11
11.575
21
9.2
0
LINE
8
0
10
-11.575
20
9.2
11
-11.575
21
-9.2
0
LINE
8
0
10
206.873199
20
-9.2
11
206.873199
21
9.2
0
LINE
8
0
10
183.723199
20
9.2
11
183.723199
21
-9.2
0
LINE
8
0
10
11.575
20
-28.2
11
11.575
21
-9.8
0
LINE
8
0
10
-11.575
20
-9.8
11
-11.575
21
-28.2
0
LINE
8
0
10
206.873199
20
-28.2
11
206.873199
21
-9.8
0
LINE
8
0
10
183.723199
20
-9.8
11
183.723199
21
-28.2
0
LINE
8
0
10
86.2921627
20
-80.2017618
11
89.6452964
21
-62.1098715
0
LINE
8
0
10
66.8829453
20
-57.891119
11
63.5298116
21
-75.9830093
0
LINE
8
0
10
131.7683874
20
-75.9830093
11
128.4152537
21
-57.891119
0
LINE
8
0
10
105.6529026
20
-62.1098715
11
109.0060363
21
-80.2017618
0
LINE
8
0
10
21.346272
20
-68.7241191
11
40.5197427
21
-72.2777118
0
LINE
8
0
10
40.5197427
20
-72.2777118
11
44.0733354
21
-53.1042411
0
LINE
8
0
10
44.0733354
20
-53.1042411
11
24.8998647
21
-49.5506484
0
LINE
8
0
10
24.8998647
20
-49.5506484
11
21.346272
21
-68.7241191
0
LINE
8
0
10
154.7784563
20
-72.2777118
11
173.951927
21
-68.7241191
0
LINE
8
0
10
173.951927
20
-68.7241191
11
170.3983343
21
-49.5506484
0
LINE
8
0
10
170.3983343
20
-49.5506484
11
151.2248636
21
-53.1042411
0
LINE
8
0
10
151.2248636
20
-53.1042411
11
154.7784563
21
-72.2777118
0
ENDSEC
0
EOF