0
SECTION
2
HEADER
9
$INSUNITS
70
4
0
ENDSEC
0
SECTION
2
TABLES
0
TABLE
2
LTYPE
0
LTYPE
72
65
70
64
2
CONTINUOUS
3
______
73
0
40
0
0
ENDTAB
0
TABLE
2
LAYER
0
ENDTAB
0
ENDSEC
0
SECTION
2
ENTITIES
0
LINE
8
0
10
-7
20
-7
11
7
21
-7
0
LINE
8
0
10
7
20
-7
11
7
21
7
0
LINE
8
0
10
7
20
7
11
-7
21
7
0
LINE
8
0
10
-7
20
7
11
-7
21
-7
0
LINE
8
0
10
14.5229583
20
-7.1572843
11
28.4968455
21
-8.0119639
0
LINE
8
0
10
28.4968455
20
-8.0119639
11
29.3515251
21
5.9619233
0
LINE
8
0
10
29.3515251
20
5.9619233
11
15.3776379
21
6.8166029
0
LINE
8
0
10
15.3776379
20
6.8166029
11
14.5229583
21
-7.1572843
0
LINE
8
0
10
33.6255999
20
-8.4832303
11
47.5212461
21
-10.1894011
0
LINE
8
0
10
47.5212461
20
-10.1894011
11
49.2274169
21
3.7062451
0
LINE
8
0
10
49.2274169
20
3.7062451
11
35.3317707
21
5.4124159
0
LINE
8
0
10
35.3317707
20
5.4124159
11
33.6255999
21
-8.4832303
0
LINE
8
0
10
52.6116642
20
-10.9728914
11
66.3772329
21
-13.5241887
0
LINE
8
0
10
66.3772329
20
-13.5241887
11
68.9285302
21
0.24138
0
LINE
8
0
10
68.9285302
20
0.24138
11
55.1629615
21
2.7926773
0
LINE
8
0
10
55.1629615
20
2.7926773
11
52.6116642
21
-10.9728914
0
LINE
8
0
10
71.2935074
20
-14.4353663
11
85.0590761
21
-16.9866636
0
LINE
8
0
10
85.0590761
20
-16.9866636
11
87.6103734
21
-3.2210949
0
LINE
8
0
10
87.6103734
20
-3.2210949
11
73.8448047
21
-0.6697976
0
LINE
8
0
10
73.8448047
20
-0.6697976
11
71.2935074
21
-14.4353663
0
LINE
8
0
10
188.298199
20
-7
11
202.298199
21
-7
0
LINE
8
0
10
202.298199
20
-7
11
202.298199
21
7
0
LINE
8
0
10
202.298199
20
7
11
188.298199
21
7
0
LINE
8
0
10
188.298199
20
7
11
188.298199
21
-7
0
LINE
8
0
10
166.8013535
20
-8.0119639
11
180.7752407
21
-7.1572843
0
LINE
8
0
10
180.7752407
20
-7.1572843
11
179.9205611
21
6.8166029
0
LINE
8
0
10
179.9205611
20
6.8166029
11
165.9466739
21
5.9619233
0
LINE
8
0
10
165.9466739
20
5.9619233
11
166.8013535
21
-8.0119639
0
LINE
8
0
10
147.7769529
20
-10.1894011
11
161.6725991
21
-8.4832303
0
LINE
8
0
10
161.6725991
20
-8.4832303
11
159.9664283
21
5.4124159
0
LINE
8
0
10
159.9664283
20
5.4124159
11
146.0707821
21
3.7062451
0
LINE
8
0
10
146.0707821
20
3.7062451
11
147.7769529
21
-10.1894011
0
LINE
8
0
10
128.9209661
20
-13.5241887
11
142.6865348
21
-10.9728914
0
LINE
8
0
10
142.6865348
20
-10.9728914
11
140.1352375
21
2.7926773
0
LINE
8
0
10
140.1352375
20
2.7926773
11
126.3696688
21
0.24138
0
LINE
8
0
10
126.3696688
20
0.24138
11
128.9209661
21
-13.5241887
0
LINE
8
0
10
110.2391229
20
-16.9866636
11
124.0046916
21
-14.4353663
0
LINE
8
0
10
124.0046916
20
-14.4353663
11
121.4533943
21
-0.6697976
0
LINE
8
0
10
121.4533943
20
-0.6697976
11
107.6878256
21
-3.2210949
0
LINE
8
0
10
107.6878256
20
-3.2210949
11
110.2391229
21
-16.9866636
0
LINE
8
0
10
-7
20
-26
11
7
21
-26
0
LINE
8
0
10
7
20
-26
11
7
21
-12
0
LINE
8
0
10
7
20
-12
11
-7
21
-12
0
LINE
8
0
10
-7
20
-12
11
-7
21
-26
0
LINE
8
0
10
14.5229583
20
-26.1572843
11
28.4968455
21
-27.0119639
0
LINE
8
0
10
28.4968455
20
-27.0119639
11
29.3515251
21
-13.0380767
0
LINE
8
0
10
29.3515251
20
-13.0380767
11
15.3776379
21
-12.1833971
0
LINE
8
0
10
15.3776379
20
-12.1833971
11
14.5229583
21
-26.1572843
0
LINE
8
0
10
33.6255999
20
-27.4832303
11
47.5212461
21
-29.1894011
0
LINE
8
0
10
47.5212461
20
-29.1894011
11
49.2274169
21
-15.2937549
0
LINE
8
0
10
49.2274169
20
-15.2937549
11
35.3317707
21
-13.5875841
0
LINE
8
0
10
35.3317707
20
-13.5875841
11
33.6255999
21
-27.4832303
0
LINE
8
0
10
52.6116642
20
-29.9728914
11
66.3772329
21
-32.5241887
0
LINE
8
0
10
66.3772329
20
-32.5241887
11
68.9285302
21
-18.75862
0
LINE
8
0
10
68.9285302
20
-18.75862
11
55.1629615
21
-16.2073227
0
LINE
8
0
10
55.1629615
20
-16.2073227
11
52.6116642
21
-29.9728914
0
LINE
8
0
10
71.2935074
20
-33.4353663
11
85.0590761
21
-35.9866636
0
LINE
8
0
10
85.0590761
20
-35.9866636
11
87.6103734
21
-22.2210949
0
LINE
8
0
10
87.6103734
20
-22.2210949
11
73.8448047
21
-19.6697976
0
LINE
8
0
10
73.8448047
20
-19.6697976
11
71.2935074
21
-33.4353663
0
LINE
8
0
10
188.298199
20
-26
11
202.298199
21
-26
0
LINE
8
0
10
202.298199
20
-26
11
202.298199
21
-12
0
LINE
8
0
10
202.298199
20
-12
11
188.298199
21
-12
0
LINE
8
0
10
188.298199
20
-12
11
188.298199
21
-26
0
LINE
8
0
10
166.8013535
20
-27.0119639
11
180.7752407
21
-26.1572843
0
LINE
8
0
10
180.7752407
20
-26.1572843
11
179.9205611
21
-12.1833971
0
LINE
8
0
10
179.9205611
20
-12.1833971
11
165.9466739
21
-13.0380767
0
LINE
8
0
10
165.9466739
20
-13.0380767
11
166.8013535
21
-27.0119639
0
LINE
8
0
10
147.7769529
20
-29.1894011
11
161.6725991
21
-27.4832303
0
LINE
8
0
10
161.6725991
20
-27.4832303
11
159.9664283
21
-13.5875841
0
LINE
8
0
10
159.9664283
20
-13.5875841
11
146.0707821
21
-15.2937549
0
LINE
8
0
10
146.0707821
20
-15.2937549
11
147.7769529
21
-29.1894011
0
LINE
8
0
10
128.9209661
20
-32.5241887
11
142.6865348
21
-29.9728914
0
LINE
8
0
10
142.6865348
20
-29.9728914
11
140.1352375
21
-16.2073227
0
LINE
8
0
10
140.1352375
20
-16.2073227
11
126.3696688
21
-18.75862
0
LINE
8
0
10
126.3696688
20
-18.75862
11
128.9209661
21
-32.5241887
0
LINE
8
0
10
110.2391229
20
-35.9866636
11
124.0046916
21
-33.4353663
0
LINE
8
0
10
124.0046916
20
-33.4353663
11
121.4533943
21
-19.6697976
0
LINE
8
0
10
121.4533943
20
-19.6697976
11
107.6878256
21
-22.2210949
0
LINE
8
0
10
107.6878256
20
-22.2210949
11
110.2391229
21
-35.9866636
0
LINE
8
0
10
-9.375
20
-45
11
4.625
21
-45
0
LINE
8
0
10
4.625
20
-45
11
4.625
21
-31
0
LINE
8
0
10
4.625
20
-31
11
-9.375
21
-31
0
LINE
8
0
10
-9.375
20
-31
11
-9.375
21
-45
0
LINE
8
0
10
9.7001803
20
-45.0775123
11
23.6936505
21
-45.5050515
0
LINE
8
0
10
23.6936505
20
-45.5050515
11
24.1211897
21
-31.5115813
0
LINE
8
0
10
24.1211897
20
-31.5115813
11
10.1277195
21
-31.0840421
0
LINE
8
0
10
10.1277195
20
-31.0840421
11
9.7001803
21
-45.0775123
0
LINE
8
0
10
28.8686118
20
-45.8612478
11
42.7886925
21
-47.3550187
0
LINE
8
0
10
42.7886925
20
-47.3550187
11
44.2824634
21
-33.434938
0
LINE
8
0
10
44.2824634
20
-33.434938
11
30.3623827
21
-31.9411671
0
LINE
8
0
10
30.3623827
20
-31.9411671
11
28.8686118
21
-45.8612478
0
LINE
8
0
10
47.9214025
20
-48.1049439
11
61.6869712
21
-50.6562412
0
LINE
8
0
10
61.6869712
20
-50.6562412
11
64.2382685
21
-36.8906725
0
LINE
8
0
10
64.2382685
20
-36.8906725
11
50.4726998
21
-34.3393752
0
LINE
8
0
10
50.4726998
20
-34.3393752
11
47.9214025
21
-48.1049439
0
LINE
8
0
10
66.6032458
20
-51.5674188
11
80.3688145
21
-54.1187161
0
LINE
8
0
10
80.3688145
20
-54.1187161
11
82.9201118
21
-40.3531474
0
LINE
8
0
10
82.9201118
20
-40.3531474
11
69.1545431
21
-37.8018501
0
LINE
8
0
10
69.1545431
20
-37.8018501
11
66.6032458
21
-51.5674188
0
LINE
8
0
10
190.673199
20
-45
11
204.673199
21
-45
0
LINE
8
0
10
204.673199
20
-45
11
204.673199
21
-31
0
LINE
8
0
10
204.673199
20
-31
11
190.673199
21
-31
0
LINE
8
0
10
190.673199
20
-31
11
190.673199
21
-45
0
LINE
8
0
10
171.6045485
20
-45.5050515
11
185.5980187
21
-45.0775123
0
LINE
8
0
10
185.5980187
20
-45.0775123
11
185.1704795
21
-31.0840421
0
LINE
8
0
10
185.1704795
20
-31.0840421
11
171.1770093
21
-31.5115813
0
LINE
8
0
10
171.1770093
20
-31.5115813
11
171.6045485
21
-45.5050515
0
LINE
8
0
10
152.5095065
20
-47.3550187
11
166.4295872
21
-45.8612478
0
LINE
8
0
10
166.4295872
20
-45.8612478
11
164.9358163
21
-31.9411671
0
LINE
8
0
10
164.9358163
20
-31.9411671
11
151.0157356
21
-33.434938
0
LINE
8
0
10
151.0157356
20
-33.434938
11
152.5095065
21
-47.3550187
0
LINE
8
0
10
133.6112278
20
-50.6562412
11
147.3767965
21
-48.1049439
0
LINE
8
0
10
147.3767965
20
-48.1049439
11
144.8254992
21
-34.3393752
0
LINE
8
0
10
144.8254992
20
-34.3393752
11
131.0599305
21
-36.8906725
0
LINE
8
0
10
131.0599305
20
-36.8906725
11
133.6112278
21
-50.6562412
0
LINE
8
0
10
114.9293845
20
-54.1187161
11
128.6949532
21
-51.5674188
0
LINE
8
0
10
128.6949532
20
-51.5674188
11
126.1436559
21
-37.8018501
0
LINE
8
0
10
126.1436559
20
-37.8018501
11
112.3780872
21
-40.3531474
0
LINE
8
0
10
112.3780872
20
-40.3531474
11
114.9293845
21
-54.1187161
0
LINE
8
0
10
24.5513707
20
-66.5213158
11
38.3169394
21
-69.0726131
0
LINE
8
0
10
38.3169394
20
-69.0726131
11
40.8682367
21
-55.3070444
0
LINE
8
0
10
40.8682367
20
-55.3070444
11
27.102668
21
-52.7557471
0
LINE
8
0
10
27.102668
20
-52.7557471
11
24.5513707
21
-66.5213158
0
LINE
8
0
10
47.4120473
20
-70.7582918
11
61.177616
21
-73.3095891
0
LINE
8
0
10
61.177616
20
-73.3095891
11
63.7289133
21
-59.5440204
0
LINE
8
0
10
63.7289133
20
-59.5440204
11
49.9633446
21
-56.9927231
0
LINE
8
0
10
49.9633446
20
-56.9927231
11
47.4120473
21
-70.7582918
0
LINE
8
0
10
68.429121
20
-74.6535761
11
82.1946897
21
-77.2048734
0
LINE
8
0
10
82.1946897
20
-77.2048734
11
84.745987
21
-63.4393047
0
LINE
8
0
10
84.745987
20
-63.4393047
11
70.9804183
21
-60.8880074
0
LINE
8
0
10
70.9804183
20
-60.8880074
11
68.429121
21
-74.6535761
0
LINE
8
0
10
156.9812596
20
-69.0726131
11
170.7468283
21
-66.5213158
0
LINE
8
0
10
170.7468283
20
-66.5213158
11
168.195531
21
-52.7557471
0
LINE
8
0
10
168.195531
20
-52.7557471
11
154.4299623
21
-55.3070444
0
LINE
8
0
10
154.4299623
20
-55.3070444
11
156.9812596
21
-69.0726131
0
LINE
8
0
10
134.120583
20
-73.3095891
11
147.8861517
21
-70.7582918
0
LINE
8
0
10
147.8861517
20
-70.7582918
11
145.3348544
21
-56.9927231
0
LINE
8
0
10
145.3348544
20
-56.9927231
11
131.5692857
21
-59.5440204
0
LINE
8
0
10
131.5692857
20
-59.5440204
11
134.120583
21
-73.3095891
0
LINE
8
0
10
113.1035093
20
-77.2048734
11
126.869078
21
-74.6535761
0
LINE
8
0
10
126.869078
20
-74.6535761
11
124.3177807
21
-60.8880074
0
LINE
8
0
10
124.3177807
20
-60.8880074
11
110.552212
21
-63.4393047
0
LINE
8
0
10
110.552212
20
-63.4393047
11
113.1035093
21
-77.2048734
0
ENDSEC
0
EOF